<?xml version="1.0" encoding="utf-8" standalone="no"?>
<!DOCTYPE svg PUBLIC "-//W3C//DTD SVG 1.1//EN"
  "http://www.w3.org/Graphics/SVG/1.1/DTD/svg11.dtd">
<svg xmlns:xlink="http://www.w3.org/1999/xlink" width="253.19952pt" height="145.19952pt" viewBox="0 0 253.19952 145.19952" xmlns="http://www.w3.org/2000/svg" version="1.1">
 <metadata>
  <rdf:RDF xmlns:dc="http://purl.org/dc/elements/1.1/" xmlns:cc="http://creativecommons.org/ns#" xmlns:rdf="http://www.w3.org/1999/02/22-rdf-syntax-ns#">
   <cc:Work>
    <dc:type rdf:resource="http://purl.org/dc/dcmitype/StillImage"/>
    <dc:date>2025-12-22T13:28:14.074129</dc:date>
    <dc:format>image/svg+xml</dc:format>
    <dc:creator>
     <cc:Agent>
      <dc:title>Matplotlib v3.10.8, https://matplotlib.org/</dc:title>
     </cc:Agent>
    </dc:creator>
   </cc:Work>
  </rdf:RDF>
 </metadata>
 <defs>
  <style type="text/css">*{stroke-linejoin: round; stroke-linecap: butt}</style>
 </defs>
 <g id="figure_1">
  <g id="patch_1">
   <path d="M 0 145.19952 
L 253.19952 145.19952 
L 253.19952 0 
L 0 0 
z
" style="fill: #ffffff"/>
  </g>
  <g id="axes_1">
   <g id="patch_2">
    <path d="M 41.167091 111.781203 
L 249.59952 111.781203 
L 249.59952 3.6 
L 41.167091 3.6 
z
" style="fill: #ffffff"/>
   </g>
   <g id="FillBetweenPolyCollection_1">
    <path d="M 50.641292 102.877267 
L 50.641292 101.493875 
L 71.695073 91.475697 
L 92.748854 81.433456 
L 113.802634 71.370465 
L 134.856415 61.290817 
L 155.910196 51.198365 
L 176.963977 41.096266 
L 198.017757 30.986927 
L 219.071538 20.872124 
L 240.125319 10.753151 
L 240.125319 13.519063 
L 240.125319 13.519063 
L 219.071538 23.411083 
L 198.017757 33.307272 
L 176.963977 43.208925 
L 155.910196 53.117817 
L 134.856415 63.036357 
L 113.802634 72.967701 
L 92.748854 82.915703 
L 71.695073 92.884453 
L 50.641292 102.877267 
z
" clip-path="url(#p87108f1ce5)" style="fill: #113b6c; fill-opacity: 0.3"/>
   </g>
   <g id="FillBetweenPolyCollection_2">
    <path d="M 50.641292 101.449424 
L 50.641292 98.763954 
L 71.695073 88.816165 
L 92.748854 78.842144 
L 113.802634 68.844031 
L 134.856415 58.824811 
L 155.910196 48.787745 
L 176.963977 38.735947 
L 198.017757 28.672157 
L 219.071538 18.598665 
L 240.125319 8.517327 
L 240.125319 12.87899 
L 240.125319 12.87899 
L 219.071538 22.666215 
L 198.017757 32.461285 
L 176.963977 42.266058 
L 155.910196 52.082822 
L 134.856415 61.914318 
L 113.802634 71.76366 
L 92.748854 81.63411 
L 71.695073 91.528651 
L 50.641292 101.449424 
z
" clip-path="url(#p87108f1ce5)" style="fill: #4fb068; fill-opacity: 0.3"/>
   </g>
   <g id="matplotlib.axis_1">
    <g id="xtick_1">
     <g id="line2d_1">
      <path d="M 50.641292 111.781203 
L 50.641292 3.6 
" clip-path="url(#p87108f1ce5)" style="fill: none; stroke: #b0b0b0; stroke-opacity: 0.5; stroke-width: 0.8; stroke-linecap: square"/>
     </g>
     <g id="line2d_2">
      <defs>
       <path id="m5640a89d86" d="M 0 0 
L 0 3.5 
" style="stroke: #000000; stroke-width: 0.8"/>
      </defs>
      <g>
       <use xlink:href="#m5640a89d86" x="50.641292" y="111.781203" style="stroke: #000000; stroke-width: 0.8"/>
      </g>
     </g>
     <g id="text_1">
      <!-- $\mathdefault{0.00}$ -->
      <g transform="translate(41.785585 125.699702) scale(0.1 -0.1)">
       <defs>
        <path id="CMR17-30" d="M 2688 2025 
C 2688 2416 2682 3080 2413 3591 
C 2176 4039 1798 4198 1466 4198 
C 1158 4198 768 4058 525 3597 
C 269 3118 243 2524 243 2025 
C 243 1661 250 1106 448 619 
C 723 -39 1216 -128 1466 -128 
C 1760 -128 2208 -7 2470 600 
C 2662 1042 2688 1559 2688 2025 
z
M 1466 -26 
C 1056 -26 813 325 723 812 
C 653 1188 653 1738 653 2096 
C 653 2588 653 2997 736 3387 
C 858 3929 1216 4096 1466 4096 
C 1728 4096 2067 3923 2189 3400 
C 2272 3036 2278 2607 2278 2096 
C 2278 1680 2278 1169 2202 792 
C 2067 95 1690 -26 1466 -26 
z
" transform="scale(0.015625)"/>
        <path id="CMMI12-3a" d="M 1178 307 
C 1178 492 1024 619 870 619 
C 685 619 557 466 557 313 
C 557 128 710 0 864 0 
C 1050 0 1178 153 1178 307 
z
" transform="scale(0.015625)"/>
       </defs>
       <use xlink:href="#CMR17-30" transform="scale(0.996264)"/>
       <use xlink:href="#CMMI12-3a" transform="translate(45.690477 0) scale(0.996264)"/>
       <use xlink:href="#CMR17-30" transform="translate(72.787654 0) scale(0.996264)"/>
       <use xlink:href="#CMR17-30" transform="translate(118.478131 0) scale(0.996264)"/>
      </g>
     </g>
    </g>
    <g id="xtick_2">
     <g id="line2d_3">
      <path d="M 93.564393 111.781203 
L 93.564393 3.6 
" clip-path="url(#p87108f1ce5)" style="fill: none; stroke: #b0b0b0; stroke-opacity: 0.5; stroke-width: 0.8; stroke-linecap: square"/>
     </g>
     <g id="line2d_4">
      <g>
       <use xlink:href="#m5640a89d86" x="93.564393" y="111.781203" style="stroke: #000000; stroke-width: 0.8"/>
      </g>
     </g>
     <g id="text_2">
      <!-- $\mathdefault{0.02}$ -->
      <g transform="translate(84.708685 125.699702) scale(0.1 -0.1)">
       <defs>
        <path id="CMR17-32" d="M 2669 989 
L 2554 989 
C 2490 536 2438 459 2413 420 
C 2381 369 1920 369 1830 369 
L 602 369 
C 832 619 1280 1072 1824 1597 
C 2214 1967 2669 2402 2669 3035 
C 2669 3790 2067 4224 1395 4224 
C 691 4224 262 3604 262 3030 
C 262 2780 448 2748 525 2748 
C 589 2748 781 2787 781 3010 
C 781 3207 614 3264 525 3264 
C 486 3264 448 3258 422 3245 
C 544 3790 915 4058 1306 4058 
C 1862 4058 2227 3617 2227 3035 
C 2227 2479 1901 2000 1536 1584 
L 262 146 
L 262 0 
L 2515 0 
L 2669 989 
z
" transform="scale(0.015625)"/>
       </defs>
       <use xlink:href="#CMR17-30" transform="scale(0.996264)"/>
       <use xlink:href="#CMMI12-3a" transform="translate(45.690477 0) scale(0.996264)"/>
       <use xlink:href="#CMR17-30" transform="translate(72.787654 0) scale(0.996264)"/>
       <use xlink:href="#CMR17-32" transform="translate(118.478131 0) scale(0.996264)"/>
      </g>
     </g>
    </g>
    <g id="xtick_3">
     <g id="line2d_5">
      <path d="M 136.487493 111.781203 
L 136.487493 3.6 
" clip-path="url(#p87108f1ce5)" style="fill: none; stroke: #b0b0b0; stroke-opacity: 0.5; stroke-width: 0.8; stroke-linecap: square"/>
     </g>
     <g id="line2d_6">
      <g>
       <use xlink:href="#m5640a89d86" x="136.487493" y="111.781203" style="stroke: #000000; stroke-width: 0.8"/>
      </g>
     </g>
     <g id="text_3">
      <!-- $\mathdefault{0.04}$ -->
      <g transform="translate(127.631786 125.699702) scale(0.1 -0.1)">
       <defs>
        <path id="CMR17-34" d="M 2150 4122 
C 2150 4256 2144 4256 2029 4256 
L 128 1254 
L 128 1088 
L 1779 1088 
L 1779 457 
C 1779 224 1766 160 1318 160 
L 1197 160 
L 1197 0 
C 1402 0 1747 0 1965 0 
C 2182 0 2528 0 2733 0 
L 2733 160 
L 2611 160 
C 2163 160 2150 224 2150 457 
L 2150 1088 
L 2803 1088 
L 2803 1254 
L 2150 1254 
L 2150 4122 
z
M 1798 3703 
L 1798 1254 
L 256 1254 
L 1798 3703 
z
" transform="scale(0.015625)"/>
       </defs>
       <use xlink:href="#CMR17-30" transform="scale(0.996264)"/>
       <use xlink:href="#CMMI12-3a" transform="translate(45.690477 0) scale(0.996264)"/>
       <use xlink:href="#CMR17-30" transform="translate(72.787654 0) scale(0.996264)"/>
       <use xlink:href="#CMR17-34" transform="translate(118.478131 0) scale(0.996264)"/>
      </g>
     </g>
    </g>
    <g id="xtick_4">
     <g id="line2d_7">
      <path d="M 179.410593 111.781203 
L 179.410593 3.6 
" clip-path="url(#p87108f1ce5)" style="fill: none; stroke: #b0b0b0; stroke-opacity: 0.5; stroke-width: 0.8; stroke-linecap: square"/>
     </g>
     <g id="line2d_8">
      <g>
       <use xlink:href="#m5640a89d86" x="179.410593" y="111.781203" style="stroke: #000000; stroke-width: 0.8"/>
      </g>
     </g>
     <g id="text_4">
      <!-- $\mathdefault{0.06}$ -->
      <g transform="translate(170.554886 125.699702) scale(0.1 -0.1)">
       <defs>
        <path id="CMR17-36" d="M 678 2176 
C 678 3690 1395 4032 1811 4032 
C 1946 4032 2272 4009 2400 3776 
C 2298 3776 2106 3776 2106 3553 
C 2106 3381 2246 3323 2336 3323 
C 2394 3323 2566 3348 2566 3560 
C 2566 3954 2246 4179 1805 4179 
C 1043 4179 243 3390 243 1984 
C 243 253 966 -128 1478 -128 
C 2099 -128 2688 427 2688 1283 
C 2688 2081 2170 2662 1517 2662 
C 1126 2662 838 2407 678 1960 
L 678 2176 
z
M 1478 25 
C 691 25 691 1200 691 1436 
C 691 1896 909 2560 1504 2560 
C 1613 2560 1926 2560 2138 2120 
C 2253 1870 2253 1609 2253 1289 
C 2253 944 2253 690 2118 434 
C 1978 171 1773 25 1478 25 
z
" transform="scale(0.015625)"/>
       </defs>
       <use xlink:href="#CMR17-30" transform="scale(0.996264)"/>
       <use xlink:href="#CMMI12-3a" transform="translate(45.690477 0) scale(0.996264)"/>
       <use xlink:href="#CMR17-30" transform="translate(72.787654 0) scale(0.996264)"/>
       <use xlink:href="#CMR17-36" transform="translate(118.478131 0) scale(0.996264)"/>
      </g>
     </g>
    </g>
    <g id="xtick_5">
     <g id="line2d_9">
      <path d="M 222.333694 111.781203 
L 222.333694 3.6 
" clip-path="url(#p87108f1ce5)" style="fill: none; stroke: #b0b0b0; stroke-opacity: 0.5; stroke-width: 0.8; stroke-linecap: square"/>
     </g>
     <g id="line2d_10">
      <g>
       <use xlink:href="#m5640a89d86" x="222.333694" y="111.781203" style="stroke: #000000; stroke-width: 0.8"/>
      </g>
     </g>
     <g id="text_5">
      <!-- $\mathdefault{0.08}$ -->
      <g transform="translate(213.477986 125.699702) scale(0.1 -0.1)">
       <defs>
        <path id="CMR17-38" d="M 1741 2264 
C 2144 2467 2554 2773 2554 3263 
C 2554 3841 1990 4179 1472 4179 
C 890 4179 378 3759 378 3180 
C 378 3021 416 2747 666 2505 
C 730 2442 998 2251 1171 2130 
C 883 1983 211 1634 211 934 
C 211 279 838 -128 1459 -128 
C 2144 -128 2720 362 2720 1010 
C 2720 1590 2330 1857 2074 2029 
L 1741 2264 
z
M 902 2822 
C 851 2854 595 3051 595 3351 
C 595 3739 998 4032 1459 4032 
C 1965 4032 2336 3676 2336 3262 
C 2336 2669 1670 2331 1638 2331 
C 1632 2331 1626 2331 1574 2370 
L 902 2822 
z
M 2080 1519 
C 2176 1449 2483 1240 2483 851 
C 2483 381 2010 25 1472 25 
C 890 25 448 438 448 940 
C 448 1443 838 1862 1280 2060 
L 2080 1519 
z
" transform="scale(0.015625)"/>
       </defs>
       <use xlink:href="#CMR17-30" transform="scale(0.996264)"/>
       <use xlink:href="#CMMI12-3a" transform="translate(45.690477 0) scale(0.996264)"/>
       <use xlink:href="#CMR17-30" transform="translate(72.787654 0) scale(0.996264)"/>
       <use xlink:href="#CMR17-38" transform="translate(118.478131 0) scale(0.996264)"/>
      </g>
     </g>
    </g>
    <g id="text_6">
     <!-- Weight / N -->
     <g transform="translate(120.476667 139.10886) scale(0.1 -0.1)">
      <defs>
       <path id="CMR17-57" d="M 5523 3764 
C 5581 3936 5677 4160 6048 4160 
L 6048 4326 
C 5939 4326 5715 4326 5600 4326 
C 5440 4326 5158 4326 5005 4332 
L 5005 4160 
C 5293 4160 5414 4000 5414 3847 
C 5414 3802 5408 3777 5382 3707 
L 4390 555 
L 3347 3873 
C 3328 3937 3322 3963 3322 3988 
C 3322 4160 3603 4160 3725 4160 
L 3725 4326 
C 3539 4326 3219 4326 3021 4326 
C 2861 4326 2573 4326 2426 4332 
L 2426 4160 
C 2720 4160 2797 4141 2861 4027 
C 2886 3969 2989 3638 2989 3619 
C 2989 3593 2976 3555 2970 3536 
L 2029 561 
L 986 3867 
C 954 3957 954 3969 954 3982 
C 954 4160 1235 4160 1363 4160 
L 1363 4326 
C 1178 4326 858 4326 659 4326 
C 493 4326 211 4326 58 4332 
L 58 4160 
C 442 4160 467 4122 531 3918 
L 1779 -20 
C 1811 -115 1811 -128 1869 -128 
C 1920 -128 1939 -115 1965 -26 
L 3053 3433 
L 4141 -26 
C 4166 -115 4186 -128 4237 -128 
C 4294 -128 4294 -115 4326 -20 
L 5523 3764 
z
" transform="scale(0.015625)"/>
       <path id="CMR17-65" d="M 2438 1472 
C 2464 1498 2464 1511 2464 1576 
C 2464 2238 2118 2816 1389 2816 
C 710 2816 173 2169 173 1383 
C 173 551 781 -64 1459 -64 
C 2176 -64 2458 607 2458 740 
C 2458 784 2419 784 2406 784 
C 2362 784 2355 771 2330 696 
C 2189 265 1837 51 1504 51 
C 1229 51 954 203 781 480 
C 582 803 582 1176 582 1472 
L 2438 1472 
z
M 589 1568 
C 634 2505 1126 2714 1382 2714 
C 1818 2714 2112 2297 2118 1568 
L 589 1568 
z
" transform="scale(0.015625)"/>
       <path id="CMR17-69" d="M 992 3909 
C 992 4049 877 4170 730 4170 
C 589 4170 467 4056 467 3909 
C 467 3769 582 3648 730 3648 
C 870 3648 992 3763 992 3909 
z
M 243 2706 
L 243 2541 
C 602 2541 653 2502 653 2197 
L 653 427 
C 653 184 627 153 218 153 
L 218 -13 
C 371 0 646 0 806 0 
C 960 0 1222 0 1370 -13 
L 1370 153 
C 992 153 979 191 979 420 
L 979 2776 
L 243 2706 
z
" transform="scale(0.015625)"/>
       <path id="CMR17-67" d="M 710 1164 
C 832 1068 1043 960 1299 960 
C 1805 960 2240 1357 2240 1888 
C 2240 2054 2189 2310 1997 2509 
C 2176 2692 2438 2752 2586 2752 
C 2611 2752 2650 2752 2682 2734 
C 2656 2728 2598 2703 2598 2605 
C 2598 2527 2656 2471 2739 2471 
C 2835 2471 2886 2533 2886 2614 
C 2886 2731 2790 2854 2586 2854 
C 2330 2854 2106 2738 1926 2580 
C 1734 2753 1504 2816 1299 2816 
C 794 2816 358 2419 358 1888 
C 358 1522 570 1292 634 1228 
C 442 1004 442 743 442 711 
C 442 545 506 302 723 168 
C 390 85 128 -169 128 -486 
C 128 -943 736 -1280 1466 -1280 
C 2170 -1280 2803 -956 2803 -479 
C 2803 384 1856 384 1363 384 
C 1216 384 954 384 922 391 
C 723 423 589 602 589 826 
C 589 883 589 1024 710 1164 
z
M 1299 1068 
C 736 1068 736 1760 736 1889 
C 736 2016 736 2708 1299 2708 
C 1862 2708 1862 2016 1862 1889 
C 1862 1760 1862 1068 1299 1068 
z
M 1466 -1171 
C 826 -1171 384 -835 384 -486 
C 384 -289 493 -105 634 -4 
C 794 104 858 104 1293 104 
C 1818 104 2547 104 2547 -486 
C 2547 -835 2106 -1171 1466 -1171 
z
" transform="scale(0.015625)"/>
       <path id="CMR17-68" d="M 2656 1933 
C 2656 2259 2592 2790 1837 2790 
C 1312 2790 1056 2368 979 2157 
L 973 2157 
L 973 4396 
L 211 4326 
L 211 4160 
C 589 4160 646 4122 646 3817 
L 646 426 
C 646 184 621 153 211 153 
L 211 -13 
C 365 0 646 0 813 0 
C 979 0 1267 0 1421 -13 
L 1421 153 
C 1011 153 986 178 986 428 
L 986 1658 
C 986 2247 1344 2688 1792 2688 
C 2266 2688 2317 2266 2317 1958 
L 2317 428 
C 2317 184 2291 153 1882 153 
L 1882 -13 
C 2035 0 2317 0 2483 0 
C 2650 0 2938 0 3091 -13 
L 3091 153 
C 2682 153 2656 178 2656 428 
L 2656 1933 
z
" transform="scale(0.015625)"/>
       <path id="CMR17-74" d="M 966 2560 
L 1862 2560 
L 1862 2725 
L 966 2725 
L 966 3904 
L 851 3904 
C 838 3245 614 2668 70 2668 
L 70 2560 
L 627 2560 
L 627 771 
C 627 650 627 -64 1370 -64 
C 1747 -64 1965 306 1965 777 
L 1965 1140 
L 1850 1140 
L 1850 783 
C 1850 344 1677 51 1408 51 
C 1222 51 966 178 966 758 
L 966 2560 
z
" transform="scale(0.015625)"/>
       <path id="CMR17-2f" d="M 2605 4545 
C 2637 4627 2637 4640 2637 4653 
C 2637 4729 2579 4768 2528 4768 
C 2451 4768 2426 4717 2400 4640 
L 326 -1377 
C 294 -1460 294 -1473 294 -1486 
C 294 -1562 352 -1600 403 -1600 
C 480 -1600 506 -1549 531 -1473 
L 2605 4545 
z
" transform="scale(0.015625)"/>
       <path id="CMR17-4e" d="M 1312 4250 
C 1267 4320 1261 4320 1139 4320 
L 326 4320 
L 326 4160 
L 448 4160 
C 704 4160 819 4129 838 4122 
L 838 610 
C 838 451 838 153 326 153 
L 326 -13 
C 474 0 742 0 902 0 
C 1062 0 1331 0 1478 -13 
L 1478 153 
C 966 153 966 451 966 610 
L 966 4033 
C 1011 3995 1011 3982 1056 3919 
L 3430 76 
C 3475 0 3494 0 3526 0 
C 3590 0 3590 19 3590 139 
L 3590 3705 
C 3590 3863 3590 4160 4102 4160 
L 4102 4326 
C 3955 4320 3686 4320 3526 4320 
C 3366 4320 3098 4320 2950 4326 
L 2950 4160 
C 3462 4160 3462 3862 3462 3703 
L 3462 763 
L 1312 4250 
z
" transform="scale(0.015625)"/>
      </defs>
      <use xlink:href="#CMR17-57" transform="scale(0.996264)"/>
      <use xlink:href="#CMR17-65" transform="translate(87.289395 0) scale(0.996264)"/>
      <use xlink:href="#CMR17-69" transform="translate(127.775055 0) scale(0.996264)"/>
      <use xlink:href="#CMR17-67" transform="translate(152.646113 0) scale(0.996264)"/>
      <use xlink:href="#CMR17-68" transform="translate(198.336591 0) scale(0.996264)"/>
      <use xlink:href="#CMR17-74" transform="translate(246.629506 0) scale(0.996264)"/>
      <use xlink:href="#CMR17-2f" transform="translate(311.986241 0) scale(0.996264)"/>
      <use xlink:href="#CMR17-4e" transform="translate(387.752684 0) scale(0.996264)"/>
     </g>
    </g>
   </g>
   <g id="matplotlib.axis_2">
    <g id="ytick_1">
     <g id="line2d_11">
      <path d="M 41.167091 106.44633 
L 249.59952 106.44633 
" clip-path="url(#p87108f1ce5)" style="fill: none; stroke: #b0b0b0; stroke-opacity: 0.5; stroke-width: 0.8; stroke-linecap: square"/>
     </g>
     <g id="line2d_12">
      <defs>
       <path id="m58aef749c8" d="M 0 0 
L -3.5 0 
" style="stroke: #000000; stroke-width: 0.8"/>
      </defs>
      <g>
       <use xlink:href="#m58aef749c8" x="41.167091" y="106.44633" style="stroke: #000000; stroke-width: 0.8"/>
      </g>
     </g>
     <g id="text_7">
      <!-- $\mathdefault{0.00}$ -->
      <g transform="translate(16.455677 109.905579) scale(0.1 -0.1)">
       <use xlink:href="#CMR17-30" transform="scale(0.996264)"/>
       <use xlink:href="#CMMI12-3a" transform="translate(45.690477 0) scale(0.996264)"/>
       <use xlink:href="#CMR17-30" transform="translate(72.787654 0) scale(0.996264)"/>
       <use xlink:href="#CMR17-30" transform="translate(118.478131 0) scale(0.996264)"/>
      </g>
     </g>
    </g>
    <g id="ytick_2">
     <g id="line2d_13">
      <path d="M 41.167091 80.123056 
L 249.59952 80.123056 
" clip-path="url(#p87108f1ce5)" style="fill: none; stroke: #b0b0b0; stroke-opacity: 0.5; stroke-width: 0.8; stroke-linecap: square"/>
     </g>
     <g id="line2d_14">
      <g>
       <use xlink:href="#m58aef749c8" x="41.167091" y="80.123056" style="stroke: #000000; stroke-width: 0.8"/>
      </g>
     </g>
     <g id="text_8">
      <!-- $\mathdefault{0.02}$ -->
      <g transform="translate(16.455677 83.582305) scale(0.1 -0.1)">
       <use xlink:href="#CMR17-30" transform="scale(0.996264)"/>
       <use xlink:href="#CMMI12-3a" transform="translate(45.690477 0) scale(0.996264)"/>
       <use xlink:href="#CMR17-30" transform="translate(72.787654 0) scale(0.996264)"/>
       <use xlink:href="#CMR17-32" transform="translate(118.478131 0) scale(0.996264)"/>
      </g>
     </g>
    </g>
    <g id="ytick_3">
     <g id="line2d_15">
      <path d="M 41.167091 53.799782 
L 249.59952 53.799782 
" clip-path="url(#p87108f1ce5)" style="fill: none; stroke: #b0b0b0; stroke-opacity: 0.5; stroke-width: 0.8; stroke-linecap: square"/>
     </g>
     <g id="line2d_16">
      <g>
       <use xlink:href="#m58aef749c8" x="41.167091" y="53.799782" style="stroke: #000000; stroke-width: 0.8"/>
      </g>
     </g>
     <g id="text_9">
      <!-- $\mathdefault{0.04}$ -->
      <g transform="translate(16.455677 57.259031) scale(0.1 -0.1)">
       <use xlink:href="#CMR17-30" transform="scale(0.996264)"/>
       <use xlink:href="#CMMI12-3a" transform="translate(45.690477 0) scale(0.996264)"/>
       <use xlink:href="#CMR17-30" transform="translate(72.787654 0) scale(0.996264)"/>
       <use xlink:href="#CMR17-34" transform="translate(118.478131 0) scale(0.996264)"/>
      </g>
     </g>
    </g>
    <g id="ytick_4">
     <g id="line2d_17">
      <path d="M 41.167091 27.476508 
L 249.59952 27.476508 
" clip-path="url(#p87108f1ce5)" style="fill: none; stroke: #b0b0b0; stroke-opacity: 0.5; stroke-width: 0.8; stroke-linecap: square"/>
     </g>
     <g id="line2d_18">
      <g>
       <use xlink:href="#m58aef749c8" x="41.167091" y="27.476508" style="stroke: #000000; stroke-width: 0.8"/>
      </g>
     </g>
     <g id="text_10">
      <!-- $\mathdefault{0.06}$ -->
      <g transform="translate(16.455677 30.935757) scale(0.1 -0.1)">
       <use xlink:href="#CMR17-30" transform="scale(0.996264)"/>
       <use xlink:href="#CMMI12-3a" transform="translate(45.690477 0) scale(0.996264)"/>
       <use xlink:href="#CMR17-30" transform="translate(72.787654 0) scale(0.996264)"/>
       <use xlink:href="#CMR17-36" transform="translate(118.478131 0) scale(0.996264)"/>
      </g>
     </g>
    </g>
    <g id="text_11">
     <!-- $\zeta^*$ -->
     <g transform="translate(10.518498 62.278439) rotate(-90) scale(0.1 -0.1)">
      <defs>
       <path id="CMMI12-10" d="M 1210 339 
C 832 487 614 774 614 1254 
C 614 2131 1261 3302 2048 3756 
C 2163 3648 2310 3648 2432 3648 
C 2592 3648 2982 3648 2982 3820 
C 2982 3961 2694 3961 2490 3961 
C 2362 3961 2253 3961 2086 3897 
C 2048 3980 2029 4068 2029 4163 
C 2029 4277 2054 4365 2054 4384 
C 2054 4422 2022 4448 1990 4448 
C 1888 4448 1888 4212 1888 4161 
C 1888 4104 1888 3971 1965 3837 
C 1222 3455 288 2265 288 1076 
C 288 204 870 0 1203 -115 
C 1286 -140 1491 -210 1574 -242 
C 1837 -331 2086 -414 2086 -719 
C 2086 -904 1952 -1152 1715 -1152 
C 1587 -1152 1414 -1108 1254 -947 
C 1229 -922 1216 -909 1184 -909 
C 1133 -909 1120 -960 1120 -973 
C 1120 -1037 1395 -1280 1715 -1280 
C 2125 -1280 2406 -851 2406 -519 
C 2406 -71 2035 58 1798 134 
L 1210 339 
z
M 2189 3808 
C 2285 3840 2374 3840 2483 3840 
C 2688 3840 2707 3836 2835 3812 
C 2758 3789 2707 3775 2438 3775 
C 2304 3775 2259 3775 2189 3808 
z
" transform="scale(0.015625)"/>
       <path id="CMSY10-3" d="M 1760 2719 
C 1766 2808 1766 2962 1600 2962 
C 1498 2962 1414 2879 1434 2795 
L 1434 2712 
L 1523 1720 
L 704 2316 
C 646 2348 634 2360 589 2360 
C 499 2360 416 2271 416 2181 
C 416 2079 480 2053 544 2021 
L 1453 1586 
L 570 1158 
C 467 1107 416 1081 416 985 
C 416 889 499 806 589 806 
C 634 806 646 806 806 928 
L 1523 1446 
L 1427 371 
C 1427 236 1542 204 1594 204 
C 1670 204 1766 248 1766 371 
L 1670 1446 
L 2490 851 
C 2547 819 2560 806 2605 806 
C 2694 806 2778 896 2778 985 
C 2778 1081 2720 1113 2643 1152 
C 2259 1343 2246 1343 1741 1580 
L 2624 2008 
C 2726 2060 2778 2085 2778 2181 
C 2778 2277 2694 2360 2605 2360 
C 2560 2360 2547 2360 2387 2239 
L 1670 1720 
L 1760 2719 
z
" transform="scale(0.015625)"/>
      </defs>
      <use xlink:href="#CMMI12-10" transform="scale(0.996264)"/>
      <use xlink:href="#CMSY10-3" transform="translate(50.130051 36.153639) scale(0.697382)"/>
     </g>
    </g>
   </g>
   <g id="LineCollection_1">
    <path d="M 50.641292 102.286673 
L 50.641292 100.586434 
" clip-path="url(#p87108f1ce5)" style="fill: none; stroke: #113b6c"/>
    <path d="M 71.695073 93.546932 
L 71.695073 92.158722 
" clip-path="url(#p87108f1ce5)" style="fill: none; stroke: #113b6c"/>
    <path d="M 92.748854 82.607705 
L 92.748854 81.147899 
" clip-path="url(#p87108f1ce5)" style="fill: none; stroke: #113b6c"/>
    <path d="M 113.802634 72.479182 
L 113.802634 71.281338 
" clip-path="url(#p87108f1ce5)" style="fill: none; stroke: #113b6c"/>
    <path d="M 134.856415 63.602205 
L 134.856415 62.378665 
" clip-path="url(#p87108f1ce5)" style="fill: none; stroke: #113b6c"/>
    <path d="M 155.910196 52.644738 
L 155.910196 51.491799 
" clip-path="url(#p87108f1ce5)" style="fill: none; stroke: #113b6c"/>
    <path d="M 176.963977 42.119335 
L 176.963977 40.068116 
" clip-path="url(#p87108f1ce5)" style="fill: none; stroke: #113b6c"/>
    <path d="M 198.017757 32.640765 
L 198.017757 31.507403 
" clip-path="url(#p87108f1ce5)" style="fill: none; stroke: #113b6c"/>
    <path d="M 219.071538 23.353661 
L 219.071538 21.564378 
" clip-path="url(#p87108f1ce5)" style="fill: none; stroke: #113b6c"/>
    <path d="M 240.125319 12.826082 
L 240.125319 11.335901 
" clip-path="url(#p87108f1ce5)" style="fill: none; stroke: #113b6c"/>
   </g>
   <g id="line2d_19">
    <defs>
     <path id="m65232da49f" d="M 4 0 
L -4 -0 
" style="stroke: #113b6c"/>
    </defs>
    <g clip-path="url(#p87108f1ce5)">
     <use xlink:href="#m65232da49f" x="50.641292" y="102.286673" style="fill: #113b6c; stroke: #113b6c"/>
     <use xlink:href="#m65232da49f" x="71.695073" y="93.546932" style="fill: #113b6c; stroke: #113b6c"/>
     <use xlink:href="#m65232da49f" x="92.748854" y="82.607705" style="fill: #113b6c; stroke: #113b6c"/>
     <use xlink:href="#m65232da49f" x="113.802634" y="72.479182" style="fill: #113b6c; stroke: #113b6c"/>
     <use xlink:href="#m65232da49f" x="134.856415" y="63.602205" style="fill: #113b6c; stroke: #113b6c"/>
     <use xlink:href="#m65232da49f" x="155.910196" y="52.644738" style="fill: #113b6c; stroke: #113b6c"/>
     <use xlink:href="#m65232da49f" x="176.963977" y="42.119335" style="fill: #113b6c; stroke: #113b6c"/>
     <use xlink:href="#m65232da49f" x="198.017757" y="32.640765" style="fill: #113b6c; stroke: #113b6c"/>
     <use xlink:href="#m65232da49f" x="219.071538" y="23.353661" style="fill: #113b6c; stroke: #113b6c"/>
     <use xlink:href="#m65232da49f" x="240.125319" y="12.826082" style="fill: #113b6c; stroke: #113b6c"/>
    </g>
   </g>
   <g id="line2d_20">
    <g clip-path="url(#p87108f1ce5)">
     <use xlink:href="#m65232da49f" x="50.641292" y="100.586434" style="fill: #113b6c; stroke: #113b6c"/>
     <use xlink:href="#m65232da49f" x="71.695073" y="92.158722" style="fill: #113b6c; stroke: #113b6c"/>
     <use xlink:href="#m65232da49f" x="92.748854" y="81.147899" style="fill: #113b6c; stroke: #113b6c"/>
     <use xlink:href="#m65232da49f" x="113.802634" y="71.281338" style="fill: #113b6c; stroke: #113b6c"/>
     <use xlink:href="#m65232da49f" x="134.856415" y="62.378665" style="fill: #113b6c; stroke: #113b6c"/>
     <use xlink:href="#m65232da49f" x="155.910196" y="51.491799" style="fill: #113b6c; stroke: #113b6c"/>
     <use xlink:href="#m65232da49f" x="176.963977" y="40.068116" style="fill: #113b6c; stroke: #113b6c"/>
     <use xlink:href="#m65232da49f" x="198.017757" y="31.507403" style="fill: #113b6c; stroke: #113b6c"/>
     <use xlink:href="#m65232da49f" x="219.071538" y="21.564378" style="fill: #113b6c; stroke: #113b6c"/>
     <use xlink:href="#m65232da49f" x="240.125319" y="11.335901" style="fill: #113b6c; stroke: #113b6c"/>
    </g>
   </g>
   <g id="line2d_21">
    <path d="M 50.641292 102.185571 
L 71.695073 92.180075 
L 92.748854 82.174579 
L 113.802634 72.169083 
L 134.856415 62.163587 
L 155.910196 52.158091 
L 176.963977 42.152595 
L 198.017757 32.147099 
L 219.071538 22.141603 
L 240.125319 12.136107 
" clip-path="url(#p87108f1ce5)" style="fill: none; stroke: #113b6c; stroke-width: 0.5; stroke-linecap: square"/>
   </g>
   <g id="LineCollection_2">
    <path d="M 50.641292 106.863876 
L 50.641292 95.364388 
" clip-path="url(#p87108f1ce5)" style="fill: none; stroke: #4fb068"/>
    <path d="M 71.695073 94.998066 
L 71.695073 85.096155 
" clip-path="url(#p87108f1ce5)" style="fill: none; stroke: #4fb068"/>
    <path d="M 92.748854 82.14928 
L 92.748854 77.061382 
" clip-path="url(#p87108f1ce5)" style="fill: none; stroke: #4fb068"/>
    <path d="M 113.802634 72.045684 
L 113.802634 68.280535 
" clip-path="url(#p87108f1ce5)" style="fill: none; stroke: #4fb068"/>
    <path d="M 134.856415 61.65788 
L 134.856415 58.370691 
" clip-path="url(#p87108f1ce5)" style="fill: none; stroke: #4fb068"/>
    <path d="M 155.910196 52.134341 
L 155.910196 49.777121 
" clip-path="url(#p87108f1ce5)" style="fill: none; stroke: #4fb068"/>
    <path d="M 176.963977 41.773507 
L 176.963977 39.204076 
" clip-path="url(#p87108f1ce5)" style="fill: none; stroke: #4fb068"/>
    <path d="M 198.017757 30.949372 
L 198.017757 28.266524 
" clip-path="url(#p87108f1ce5)" style="fill: none; stroke: #4fb068"/>
    <path d="M 219.071538 22.294119 
L 219.071538 20.49158 
" clip-path="url(#p87108f1ce5)" style="fill: none; stroke: #4fb068"/>
    <path d="M 240.125319 11.168691 
L 240.125319 9.443314 
" clip-path="url(#p87108f1ce5)" style="fill: none; stroke: #4fb068"/>
   </g>
   <g id="line2d_22">
    <defs>
     <path id="mfa5e47f61c" d="M 4 0 
L -4 -0 
" style="stroke: #4fb068"/>
    </defs>
    <g clip-path="url(#p87108f1ce5)">
     <use xlink:href="#mfa5e47f61c" x="50.641292" y="106.863876" style="fill: #4fb068; stroke: #4fb068"/>
     <use xlink:href="#mfa5e47f61c" x="71.695073" y="94.998066" style="fill: #4fb068; stroke: #4fb068"/>
     <use xlink:href="#mfa5e47f61c" x="92.748854" y="82.14928" style="fill: #4fb068; stroke: #4fb068"/>
     <use xlink:href="#mfa5e47f61c" x="113.802634" y="72.045684" style="fill: #4fb068; stroke: #4fb068"/>
     <use xlink:href="#mfa5e47f61c" x="134.856415" y="61.65788" style="fill: #4fb068; stroke: #4fb068"/>
     <use xlink:href="#mfa5e47f61c" x="155.910196" y="52.134341" style="fill: #4fb068; stroke: #4fb068"/>
     <use xlink:href="#mfa5e47f61c" x="176.963977" y="41.773507" style="fill: #4fb068; stroke: #4fb068"/>
     <use xlink:href="#mfa5e47f61c" x="198.017757" y="30.949372" style="fill: #4fb068; stroke: #4fb068"/>
     <use xlink:href="#mfa5e47f61c" x="219.071538" y="22.294119" style="fill: #4fb068; stroke: #4fb068"/>
     <use xlink:href="#mfa5e47f61c" x="240.125319" y="11.168691" style="fill: #4fb068; stroke: #4fb068"/>
    </g>
   </g>
   <g id="line2d_23">
    <g clip-path="url(#p87108f1ce5)">
     <use xlink:href="#mfa5e47f61c" x="50.641292" y="95.364388" style="fill: #4fb068; stroke: #4fb068"/>
     <use xlink:href="#mfa5e47f61c" x="71.695073" y="85.096155" style="fill: #4fb068; stroke: #4fb068"/>
     <use xlink:href="#mfa5e47f61c" x="92.748854" y="77.061382" style="fill: #4fb068; stroke: #4fb068"/>
     <use xlink:href="#mfa5e47f61c" x="113.802634" y="68.280535" style="fill: #4fb068; stroke: #4fb068"/>
     <use xlink:href="#mfa5e47f61c" x="134.856415" y="58.370691" style="fill: #4fb068; stroke: #4fb068"/>
     <use xlink:href="#mfa5e47f61c" x="155.910196" y="49.777121" style="fill: #4fb068; stroke: #4fb068"/>
     <use xlink:href="#mfa5e47f61c" x="176.963977" y="39.204076" style="fill: #4fb068; stroke: #4fb068"/>
     <use xlink:href="#mfa5e47f61c" x="198.017757" y="28.266524" style="fill: #4fb068; stroke: #4fb068"/>
     <use xlink:href="#mfa5e47f61c" x="219.071538" y="20.49158" style="fill: #4fb068; stroke: #4fb068"/>
     <use xlink:href="#mfa5e47f61c" x="240.125319" y="9.443314" style="fill: #4fb068; stroke: #4fb068"/>
    </g>
   </g>
   <g id="line2d_24">
    <path d="M 50.641292 100.106689 
L 71.695073 90.172408 
L 92.748854 80.238127 
L 113.802634 70.303846 
L 134.856415 60.369564 
L 155.910196 50.435283 
L 176.963977 40.501002 
L 198.017757 30.566721 
L 219.071538 20.63244 
L 240.125319 10.698159 
" clip-path="url(#p87108f1ce5)" style="fill: none; stroke: #4fb068; stroke-width: 0.5; stroke-linecap: square"/>
   </g>
   <g id="line2d_25">
    <defs>
     <path id="meb72d3595f" d="M -2.5 2.5 
L 2.5 -2.5 
M -2.5 -2.5 
L 2.5 2.5 
" style="stroke: #113b6c"/>
    </defs>
    <g clip-path="url(#p87108f1ce5)">
     <use xlink:href="#meb72d3595f" x="50.641292" y="101.436554" style="fill: #113b6c; stroke: #113b6c"/>
     <use xlink:href="#meb72d3595f" x="71.695073" y="92.852827" style="fill: #113b6c; stroke: #113b6c"/>
     <use xlink:href="#meb72d3595f" x="92.748854" y="81.877802" style="fill: #113b6c; stroke: #113b6c"/>
     <use xlink:href="#meb72d3595f" x="113.802634" y="71.88026" style="fill: #113b6c; stroke: #113b6c"/>
     <use xlink:href="#meb72d3595f" x="134.856415" y="62.990435" style="fill: #113b6c; stroke: #113b6c"/>
     <use xlink:href="#meb72d3595f" x="155.910196" y="52.068269" style="fill: #113b6c; stroke: #113b6c"/>
     <use xlink:href="#meb72d3595f" x="176.963977" y="41.093725" style="fill: #113b6c; stroke: #113b6c"/>
     <use xlink:href="#meb72d3595f" x="198.017757" y="32.074084" style="fill: #113b6c; stroke: #113b6c"/>
     <use xlink:href="#meb72d3595f" x="219.071538" y="22.45902" style="fill: #113b6c; stroke: #113b6c"/>
     <use xlink:href="#meb72d3595f" x="240.125319" y="12.080992" style="fill: #113b6c; stroke: #113b6c"/>
    </g>
   </g>
   <g id="line2d_26">
    <defs>
     <path id="ma66e9aa906" d="M -2.5 2.5 
L 2.5 -2.5 
M -2.5 -2.5 
L 2.5 2.5 
" style="stroke: #4fb068"/>
    </defs>
    <g clip-path="url(#p87108f1ce5)">
     <use xlink:href="#ma66e9aa906" x="50.641292" y="101.114132" style="fill: #4fb068; stroke: #4fb068"/>
     <use xlink:href="#ma66e9aa906" x="71.695073" y="90.04711" style="fill: #4fb068; stroke: #4fb068"/>
     <use xlink:href="#ma66e9aa906" x="92.748854" y="79.605331" style="fill: #4fb068; stroke: #4fb068"/>
     <use xlink:href="#ma66e9aa906" x="113.802634" y="70.163109" style="fill: #4fb068; stroke: #4fb068"/>
     <use xlink:href="#ma66e9aa906" x="134.856415" y="60.014286" style="fill: #4fb068; stroke: #4fb068"/>
     <use xlink:href="#ma66e9aa906" x="155.910196" y="50.955731" style="fill: #4fb068; stroke: #4fb068"/>
     <use xlink:href="#ma66e9aa906" x="176.963977" y="40.488791" style="fill: #4fb068; stroke: #4fb068"/>
     <use xlink:href="#ma66e9aa906" x="198.017757" y="29.607948" style="fill: #4fb068; stroke: #4fb068"/>
     <use xlink:href="#ma66e9aa906" x="219.071538" y="21.39285" style="fill: #4fb068; stroke: #4fb068"/>
     <use xlink:href="#ma66e9aa906" x="240.125319" y="10.306002" style="fill: #4fb068; stroke: #4fb068"/>
    </g>
   </g>
   <g id="patch_3">
    <path d="M 41.167091 111.781203 
L 41.167091 3.6 
" style="fill: none; stroke: #000000; stroke-width: 0.8; stroke-linejoin: miter; stroke-linecap: square"/>
   </g>
   <g id="patch_4">
    <path d="M 249.59952 111.781203 
L 249.59952 3.6 
" style="fill: none; stroke: #000000; stroke-width: 0.8; stroke-linejoin: miter; stroke-linecap: square"/>
   </g>
   <g id="patch_5">
    <path d="M 41.167091 111.781203 
L 249.59952 111.781203 
" style="fill: none; stroke: #000000; stroke-width: 0.8; stroke-linejoin: miter; stroke-linecap: square"/>
   </g>
   <g id="patch_6">
    <path d="M 41.167091 3.6 
L 249.59952 3.6 
" style="fill: none; stroke: #000000; stroke-width: 0.8; stroke-linejoin: miter; stroke-linecap: square"/>
   </g>
   <g id="legend_1">
    <g id="patch_7">
     <path d="M 145.311112 109.617579 
L 243.764871 109.617579 
Q 245.430871 109.617579 245.430871 107.951579 
L 245.430871 73.955572 
Q 245.430871 72.289572 243.764871 72.289572 
L 145.311112 72.289572 
Q 143.645112 72.289572 143.645112 73.955572 
L 143.645112 107.951579 
Q 143.645112 109.617579 145.311112 109.617579 
z
" style="fill: #ffffff; opacity: 0.8; stroke: #cccccc; stroke-linejoin: miter"/>
    </g>
    <g id="LineCollection_3">
     <path d="M 155.307112 82.702072 
L 155.307112 74.372072 
" style="fill: none; stroke: #113b6c"/>
    </g>
    <g id="line2d_27">
     <g>
      <use xlink:href="#m65232da49f" x="155.307112" y="82.702072" style="fill: #113b6c; stroke: #113b6c"/>
     </g>
    </g>
    <g id="line2d_28">
     <g>
      <use xlink:href="#m65232da49f" x="155.307112" y="74.372072" style="fill: #113b6c; stroke: #113b6c"/>
     </g>
    </g>
    <g id="line2d_29"/>
    <g id="line2d_30">
     <g>
      <use xlink:href="#meb72d3595f" x="155.307112" y="78.537072" style="fill: #113b6c; stroke: #113b6c"/>
     </g>
    </g>
    <g id="text_12">
     <!-- APD - data points -->
     <g transform="translate(170.301112 81.452572) scale(0.0833 -0.0833)">
      <defs>
       <path id="CMR17-41" d="M 2323 4378 
C 2291 4461 2278 4480 2214 4480 
C 2150 4480 2138 4461 2106 4378 
L 749 566 
C 627 223 371 153 147 153 
L 147 -13 
C 262 0 518 0 640 0 
C 800 0 1056 0 1210 -13 
L 1210 153 
C 909 153 864 361 864 439 
C 864 497 877 530 890 569 
L 1229 1536 
L 2906 1536 
L 3290 442 
C 3322 365 3322 352 3322 327 
C 3322 153 3046 153 2925 153 
L 2925 0 
C 3110 0 3443 0 3642 0 
C 3808 0 4128 0 4282 -13 
L 4282 153 
C 3942 153 3827 153 3744 387 
L 2323 4378 
z
M 2067 3893 
L 2848 1702 
L 1286 1702 
L 2067 3893 
z
" transform="scale(0.015625)"/>
       <path id="CMR17-50" d="M 1267 2042 
L 2291 2042 
C 3117 2042 3718 2578 3718 3184 
C 3718 3791 3130 4352 2291 4352 
L 333 4352 
L 333 4186 
C 774 4186 845 4186 845 3899 
L 845 446 
C 845 160 774 160 333 160 
L 333 0 
C 518 0 858 0 1056 0 
C 1254 0 1594 0 1779 0 
L 1779 160 
C 1338 160 1267 160 1267 446 
L 1267 2042 
z
M 1254 2176 
L 1254 3938 
C 1254 4155 1267 4186 1523 4186 
L 2170 4186 
C 2995 4186 3232 3714 3232 3184 
C 3232 2604 2950 2176 2170 2176 
L 1254 2176 
z
" transform="scale(0.015625)"/>
       <path id="CMR17-44" d="M 333 4352 
L 333 4186 
C 774 4186 845 4186 845 3900 
L 845 452 
C 845 166 774 166 333 166 
L 333 0 
L 2368 0 
C 3398 0 4224 943 4224 2141 
C 4224 3346 3411 4352 2368 4352 
L 333 4352 
z
M 1523 166 
C 1267 166 1254 197 1254 414 
L 1254 3938 
C 1254 4155 1267 4186 1523 4186 
L 2240 4186 
C 2771 4186 3750 3874 3750 2141 
C 3750 1242 3488 879 3366 707 
C 3213 510 2848 166 2240 166 
L 1523 166 
z
" transform="scale(0.015625)"/>
       <path id="CMR17-2d" d="M 1632 1216 
L 1632 1496 
L 26 1496 
L 26 1216 
L 1632 1216 
z
" transform="scale(0.015625)"/>
       <path id="CMR17-64" d="M 1869 4326 
L 1869 4160 
C 2246 4160 2304 4122 2304 3820 
L 2304 2345 
C 2278 2377 2016 2790 1498 2790 
C 845 2790 211 2208 211 1364 
C 211 525 806 -64 1434 -64 
C 1978 -64 2259 337 2291 380 
L 2291 -63 
L 3066 -63 
L 3066 128 
C 2688 128 2630 166 2630 473 
L 2630 4396 
L 1869 4326 
z
M 2291 755 
C 2291 563 2176 390 2029 262 
C 1811 70 1594 38 1472 38 
C 1286 38 621 134 621 1356 
C 621 2612 1363 2688 1530 2688 
C 1824 2688 2061 2522 2208 2291 
C 2291 2157 2291 2138 2291 2023 
L 2291 755 
z
" transform="scale(0.015625)"/>
       <path id="CMR17-61" d="M 2304 1653 
C 2304 2072 2304 2294 2035 2543 
C 1798 2752 1523 2816 1306 2816 
C 800 2816 435 2407 435 1971 
C 435 1728 627 1728 666 1728 
C 749 1728 896 1778 896 1954 
C 896 2112 774 2181 666 2181 
C 640 2181 608 2174 589 2168 
C 723 2592 1069 2714 1293 2714 
C 1613 2714 1965 2429 1965 1885 
L 1965 1600 
C 1587 1600 1133 1549 774 1357 
C 371 1133 256 813 256 570 
C 256 77 832 -64 1171 -64 
C 1523 -64 1850 139 1990 511 
C 2003 233 2182 -18 2464 -18 
C 2598 -18 2938 70 2938 567 
L 2938 920 
L 2822 920 
L 2822 562 
C 2822 178 2650 128 2566 128 
C 2304 128 2304 458 2304 738 
L 2304 1653 
z
M 1965 870 
C 1965 317 1568 38 1216 38 
C 896 38 646 275 646 570 
C 646 761 730 1100 1101 1305 
C 1408 1478 1760 1504 1965 1504 
L 1965 870 
z
" transform="scale(0.015625)"/>
       <path id="CMR17-70" d="M 1408 -1063 
C 998 -1063 973 -1037 973 -789 
L 973 402 
C 1158 134 1427 -38 1766 -38 
C 2406 -38 3053 523 3053 1388 
C 3053 2191 2496 2802 1837 2802 
C 1453 2802 1139 2592 960 2338 
L 960 2802 
L 198 2732 
L 198 2567 
C 576 2567 634 2528 634 2223 
L 634 -789 
C 634 -1031 608 -1063 198 -1063 
L 198 -1228 
C 352 -1216 634 -1216 800 -1216 
C 966 -1216 1254 -1216 1408 -1228 
L 1408 -1063 
z
M 973 2012 
C 973 2102 973 2235 1222 2471 
C 1254 2497 1472 2688 1792 2688 
C 2259 2688 2643 2108 2643 1382 
C 2643 656 2234 64 1728 64 
C 1498 64 1248 172 1056 472 
C 973 612 973 650 973 752 
L 973 2012 
z
" transform="scale(0.015625)"/>
       <path id="CMR17-6f" d="M 2758 1356 
C 2758 2176 2163 2816 1466 2816 
C 768 2816 173 2176 173 1356 
C 173 551 768 -64 1466 -64 
C 2163 -64 2758 551 2758 1356 
z
M 1466 51 
C 1165 51 909 230 762 480 
C 602 767 582 1126 582 1408 
C 582 1677 595 2010 762 2298 
C 890 2509 1139 2714 1466 2714 
C 1754 2714 1997 2554 2150 2330 
C 2349 2029 2349 1607 2349 1408 
C 2349 1158 2336 775 2163 467 
C 1984 173 1709 51 1466 51 
z
" transform="scale(0.015625)"/>
       <path id="CMR17-6e" d="M 2656 1933 
C 2656 2259 2592 2790 1837 2790 
C 1331 2790 1069 2400 973 2144 
L 966 2144 
L 966 2790 
L 211 2720 
L 211 2554 
C 589 2554 646 2515 646 2208 
L 646 428 
C 646 184 621 153 211 153 
L 211 -13 
C 365 0 646 0 813 0 
C 979 0 1267 0 1421 -13 
L 1421 153 
C 1011 153 986 178 986 428 
L 986 1658 
C 986 2247 1344 2688 1792 2688 
C 2266 2688 2317 2266 2317 1958 
L 2317 428 
C 2317 184 2291 153 1882 153 
L 1882 -13 
C 2035 0 2317 0 2483 0 
C 2650 0 2938 0 3091 -13 
L 3091 153 
C 2682 153 2656 178 2656 428 
L 2656 1933 
z
" transform="scale(0.015625)"/>
       <path id="CMR17-73" d="M 1978 2697 
C 1978 2813 1971 2819 1933 2819 
C 1907 2819 1901 2813 1824 2717 
C 1805 2691 1747 2626 1728 2601 
C 1523 2819 1235 2819 1126 2819 
C 416 2819 160 2447 160 2076 
C 160 1498 813 1365 998 1325 
C 1402 1243 1542 1217 1677 1101 
C 1760 1025 1901 884 1901 654 
C 1901 384 1747 38 1158 38 
C 602 38 403 460 288 1021 
C 269 1110 269 1117 218 1117 
C 166 1117 160 1110 160 983 
L 160 63 
C 160 -51 166 -58 205 -58 
C 237 -58 243 -51 275 0 
C 314 57 410 211 448 276 
C 576 103 800 -64 1158 -64 
C 1792 -64 2131 283 2131 784 
C 2131 1112 1958 1285 1875 1362 
C 1683 1561 1459 1606 1190 1657 
C 838 1735 390 1825 390 2217 
C 390 2383 480 2737 1126 2737 
C 1811 2737 1850 2094 1862 1888 
C 1869 1856 1901 1849 1920 1849 
C 1978 1849 1978 1869 1978 1978 
L 1978 2697 
z
" transform="scale(0.015625)"/>
      </defs>
      <use xlink:href="#CMR17-41" transform="scale(0.996264)"/>
      <use xlink:href="#CMR17-50" transform="translate(69.07243 0) scale(0.996264)"/>
      <use xlink:href="#CMR17-44" transform="translate(131.65873 0) scale(0.996264)"/>
      <use xlink:href="#CMR17-2d" transform="translate(232.128253 0) scale(0.996264)"/>
      <use xlink:href="#CMR17-64" transform="translate(292.280185 0) scale(0.996264)"/>
      <use xlink:href="#CMR17-61" transform="translate(343.175555 0) scale(0.996264)"/>
      <use xlink:href="#CMR17-74" transform="translate(388.866032 0) scale(0.996264)"/>
      <use xlink:href="#CMR17-61" transform="translate(424.1468 0) scale(0.996264)"/>
      <use xlink:href="#CMR17-70" transform="translate(499.913243 0) scale(0.996264)"/>
      <use xlink:href="#CMR17-6f" transform="translate(553.411052 0) scale(0.996264)"/>
      <use xlink:href="#CMR17-69" transform="translate(599.101529 0) scale(0.996264)"/>
      <use xlink:href="#CMR17-6e" transform="translate(623.972588 0) scale(0.996264)"/>
      <use xlink:href="#CMR17-74" transform="translate(672.265503 0) scale(0.996264)"/>
      <use xlink:href="#CMR17-73" transform="translate(707.546271 0) scale(0.996264)"/>
     </g>
    </g>
    <g id="line2d_31">
     <path d="M 146.977112 90.146741 
L 155.307112 90.146741 
L 163.637112 90.146741 
" style="fill: none; stroke: #113b6c; stroke-width: 0.5; stroke-linecap: square"/>
    </g>
    <g id="text_13">
     <!-- APD - fit -->
     <g transform="translate(170.301112 93.062241) scale(0.0833 -0.0833)">
      <defs>
       <path id="CMR17-c" d="M 2554 2764 
C 2400 2764 1926 2764 1805 2739 
C 1766 2725 1754 2725 1677 2725 
L 947 2725 
L 947 3469 
C 947 4073 1434 4352 1818 4352 
C 1939 4352 2214 4320 2355 4101 
C 2291 4101 2086 4101 2086 3878 
C 2086 3725 2189 3648 2317 3648 
C 2432 3648 2547 3712 2547 3885 
C 2547 4205 2240 4454 1843 4454 
C 1338 4454 634 4168 634 3469 
L 634 2725 
L 122 2725 
L 122 2560 
L 634 2560 
L 634 427 
C 634 184 608 153 198 153 
L 198 -13 
C 352 0 634 0 794 0 
C 960 0 1242 0 1395 -13 
L 1395 153 
C 986 153 960 178 960 427 
L 960 2560 
L 1901 2560 
C 2176 2560 2227 2502 2227 2222 
L 2227 427 
C 2227 184 2202 153 1792 153 
L 1792 -13 
C 1946 0 2227 0 2387 0 
C 2554 0 2835 0 2989 -13 
L 2989 153 
C 2579 153 2554 178 2554 427 
L 2554 2764 
z
" transform="scale(0.015625)"/>
      </defs>
      <use xlink:href="#CMR17-41" transform="scale(0.996264)"/>
      <use xlink:href="#CMR17-50" transform="translate(69.07243 0) scale(0.996264)"/>
      <use xlink:href="#CMR17-44" transform="translate(131.65873 0) scale(0.996264)"/>
      <use xlink:href="#CMR17-2d" transform="translate(232.128253 0) scale(0.996264)"/>
      <use xlink:href="#CMR17-c" transform="translate(292.280185 0) scale(0.996264)"/>
      <use xlink:href="#CMR17-74" transform="translate(342.022409 0) scale(0.996264)"/>
     </g>
    </g>
    <g id="patch_8">
     <path d="M 146.977112 104.67191 
L 163.637112 104.67191 
L 163.637112 98.84091 
L 146.977112 98.84091 
z
" style="fill: #113b6c"/>
    </g>
    <g id="text_14">
     <!-- APD - 95\% CI -->
     <g transform="translate(170.301112 104.67191) scale(0.0833 -0.0833)">
      <defs>
       <path id="CMR17-39" d="M 2253 1864 
C 2253 464 1670 31 1190 31 
C 1043 31 685 31 538 294 
C 704 268 826 357 826 518 
C 826 692 685 749 595 749 
C 538 749 365 723 365 506 
C 365 71 742 -128 1203 -128 
C 1939 -128 2688 674 2688 2073 
C 2688 3817 1971 4179 1485 4179 
C 851 4179 243 3628 243 2778 
C 243 1991 762 1408 1414 1408 
C 1952 1408 2189 1903 2253 2112 
L 2253 1864 
z
M 1427 1510 
C 1254 1510 1011 1542 813 1922 
C 678 2169 678 2461 678 2771 
C 678 3146 678 3405 858 3684 
C 947 3817 1114 4032 1485 4032 
C 2240 4032 2240 2885 2240 2632 
C 2240 2182 2035 1510 1427 1510 
z
" transform="scale(0.015625)"/>
       <path id="CMR17-35" d="M 730 3692 
C 794 3666 1056 3584 1325 3584 
C 1920 3584 2246 3911 2432 4100 
C 2432 4157 2432 4192 2394 4192 
C 2387 4192 2374 4192 2323 4163 
C 2099 4058 1837 3973 1517 3973 
C 1325 3973 1037 3999 723 4139 
C 653 4171 640 4171 634 4171 
C 602 4171 595 4164 595 4037 
L 595 2203 
C 595 2089 595 2057 659 2057 
C 691 2057 704 2070 736 2114 
C 941 2401 1222 2522 1542 2522 
C 1766 2522 2246 2382 2246 1289 
C 2246 1085 2246 715 2054 421 
C 1894 159 1645 25 1370 25 
C 947 25 518 320 403 814 
C 429 807 480 795 506 795 
C 589 795 749 840 749 1038 
C 749 1210 627 1280 506 1280 
C 358 1280 262 1190 262 1011 
C 262 454 704 -128 1382 -128 
C 2042 -128 2669 440 2669 1264 
C 2669 2030 2170 2624 1549 2624 
C 1222 2624 947 2503 730 2274 
L 730 3692 
z
" transform="scale(0.015625)"/>
       <path id="CMR17-25" d="M 4640 959 
C 4640 1698 4275 2240 3846 2240 
C 3411 2240 2970 1736 2970 959 
C 2970 183 3405 -320 3846 -320 
C 4275 -320 4640 215 4640 959 
z
M 3853 -218 
C 3686 -218 3270 -66 3270 959 
C 3270 1991 3686 2138 3853 2138 
C 4205 2138 4525 1634 4525 959 
C 4525 285 4205 -218 3853 -218 
z
M 4083 4577 
C 4128 4647 4134 4653 4134 4685 
C 4134 4761 4077 4800 4026 4800 
C 3962 4800 3936 4756 3891 4706 
C 3520 4190 3008 4134 2746 4134 
C 2106 4134 1715 4494 1594 4607 
C 1510 4682 1389 4800 1171 4800 
C 736 4800 294 4296 294 3519 
C 294 2743 730 2240 1171 2240 
C 1600 2240 1965 2778 1965 3527 
C 1965 3969 1830 4270 1811 4308 
C 2202 4064 2586 4032 2752 4032 
C 3162 4032 3456 4183 3616 4289 
L 3622 4283 
L 858 -84 
C 800 -174 800 -187 800 -206 
C 800 -276 858 -320 915 -320 
C 973 -320 992 -289 1037 -218 
L 4083 4577 
z
M 1178 2342 
C 1011 2342 595 2494 595 3519 
C 595 4551 1011 4698 1178 4698 
C 1530 4698 1850 4194 1850 3519 
C 1850 2845 1530 2342 1178 2342 
z
" transform="scale(0.015625)"/>
       <path id="CMR17-43" d="M 3974 4289 
C 3974 4403 3968 4410 3930 4410 
C 3904 4410 3898 4403 3853 4327 
L 3571 3792 
C 3258 4187 2874 4416 2381 4416 
C 1286 4416 294 3456 294 2148 
C 294 826 1286 -128 2387 -128 
C 3366 -128 3974 730 3974 1461 
C 3974 1524 3974 1550 3917 1550 
C 3866 1550 3866 1531 3859 1474 
C 3808 585 3168 38 2477 38 
C 1824 38 781 495 781 2147 
C 781 3805 1843 4250 2464 4250 
C 3187 4250 3712 3628 3834 2745 
C 3846 2668 3846 2655 3904 2655 
C 3974 2655 3974 2668 3974 2783 
L 3974 4289 
z
" transform="scale(0.015625)"/>
       <path id="CMR17-49" d="M 1261 3905 
C 1261 4192 1338 4192 1798 4192 
L 1798 4352 
C 1594 4352 1267 4352 1050 4352 
C 832 4352 506 4352 301 4352 
L 301 4192 
C 762 4192 838 4192 838 3905 
L 838 447 
C 838 160 762 160 301 160 
L 301 0 
C 506 0 832 0 1050 0 
C 1267 0 1594 0 1798 0 
L 1798 160 
C 1338 160 1261 160 1261 447 
L 1261 3905 
z
" transform="scale(0.015625)"/>
      </defs>
      <use xlink:href="#CMR17-41" transform="scale(0.996264)"/>
      <use xlink:href="#CMR17-50" transform="translate(69.07243 0) scale(0.996264)"/>
      <use xlink:href="#CMR17-44" transform="translate(131.65873 0) scale(0.996264)"/>
      <use xlink:href="#CMR17-2d" transform="translate(232.128253 0) scale(0.996264)"/>
      <use xlink:href="#CMR17-39" transform="translate(292.280185 0) scale(0.996264)"/>
      <use xlink:href="#CMR17-35" transform="translate(337.970662 0) scale(0.996264)"/>
      <use xlink:href="#CMR17-25" transform="translate(383.66114 0) scale(0.996264)"/>
      <use xlink:href="#CMR17-43" transform="translate(490.656696 0) scale(0.996264)"/>
      <use xlink:href="#CMR17-49" transform="translate(557.166576 0) scale(0.996264)"/>
     </g>
    </g>
   </g>
   <g id="legend_2">
    <g id="patch_9">
     <path d="M 47.00174 43.091632 
L 143.749601 43.091632 
Q 145.415601 43.091632 145.415601 41.425632 
L 145.415601 7.429624 
Q 145.415601 5.763624 143.749601 5.763624 
L 47.00174 5.763624 
Q 45.33574 5.763624 45.33574 7.429624 
L 45.33574 41.425632 
Q 45.33574 43.091632 47.00174 43.091632 
z
" style="fill: #ffffff; opacity: 0.8; stroke: #cccccc; stroke-linejoin: miter"/>
    </g>
    <g id="LineCollection_4">
     <path d="M 56.99774 16.176124 
L 56.99774 7.846124 
" style="fill: none; stroke: #4fb068"/>
    </g>
    <g id="line2d_32">
     <g>
      <use xlink:href="#mfa5e47f61c" x="56.99774" y="16.176124" style="fill: #4fb068; stroke: #4fb068"/>
     </g>
    </g>
    <g id="line2d_33">
     <g>
      <use xlink:href="#mfa5e47f61c" x="56.99774" y="7.846124" style="fill: #4fb068; stroke: #4fb068"/>
     </g>
    </g>
    <g id="line2d_34"/>
    <g id="line2d_35">
     <g>
      <use xlink:href="#ma66e9aa906" x="56.99774" y="12.011124" style="fill: #4fb068; stroke: #4fb068"/>
     </g>
    </g>
    <g id="text_15">
     <!-- SPD - data points -->
     <g transform="translate(71.99174 14.926624) scale(0.0833 -0.0833)">
      <defs>
       <path id="CMR17-53" d="M 2803 4290 
C 2803 4404 2797 4411 2758 4411 
C 2720 4411 2707 4385 2682 4328 
L 2490 3907 
C 2246 4257 1875 4416 1472 4416 
C 819 4416 294 3901 294 3253 
C 294 3056 339 2776 557 2510 
C 794 2218 1018 2167 1530 2033 
C 1722 1982 2042 1899 2106 1874 
C 2470 1722 2662 1341 2662 985 
C 2662 527 2336 38 1779 38 
C 1094 38 454 419 410 1311 
C 403 1413 397 1419 352 1419 
C 301 1419 294 1413 294 1285 
L 294 -1 
C 294 -115 301 -122 339 -122 
C 384 -122 397 -90 486 108 
C 493 127 493 140 614 381 
C 934 -39 1472 -128 1779 -128 
C 2477 -128 2970 451 2970 1124 
C 2970 1454 2848 1708 2778 1823 
C 2509 2230 2221 2306 1914 2382 
C 1869 2402 1856 2402 1498 2490 
C 1152 2579 1005 2624 845 2796 
C 666 2992 602 3196 602 3399 
C 602 3812 934 4263 1478 4263 
C 2157 4263 2579 3786 2675 2993 
C 2694 2878 2701 2872 2746 2872 
C 2803 2872 2803 2891 2803 2999 
L 2803 4290 
z
" transform="scale(0.015625)"/>
      </defs>
      <use xlink:href="#CMR17-53" transform="scale(0.996264)"/>
      <use xlink:href="#CMR17-50" transform="translate(50.89537 0) scale(0.996264)"/>
      <use xlink:href="#CMR17-44" transform="translate(113.48167 0) scale(0.996264)"/>
      <use xlink:href="#CMR17-2d" transform="translate(213.951193 0) scale(0.996264)"/>
      <use xlink:href="#CMR17-64" transform="translate(274.103125 0) scale(0.996264)"/>
      <use xlink:href="#CMR17-61" transform="translate(324.998495 0) scale(0.996264)"/>
      <use xlink:href="#CMR17-74" transform="translate(370.688972 0) scale(0.996264)"/>
      <use xlink:href="#CMR17-61" transform="translate(405.96974 0) scale(0.996264)"/>
      <use xlink:href="#CMR17-70" transform="translate(481.736183 0) scale(0.996264)"/>
      <use xlink:href="#CMR17-6f" transform="translate(535.233992 0) scale(0.996264)"/>
      <use xlink:href="#CMR17-69" transform="translate(580.924469 0) scale(0.996264)"/>
      <use xlink:href="#CMR17-6e" transform="translate(605.795528 0) scale(0.996264)"/>
      <use xlink:href="#CMR17-74" transform="translate(654.088443 0) scale(0.996264)"/>
      <use xlink:href="#CMR17-73" transform="translate(689.369211 0) scale(0.996264)"/>
     </g>
    </g>
    <g id="line2d_36">
     <path d="M 48.66774 23.620793 
L 56.99774 23.620793 
L 65.32774 23.620793 
" style="fill: none; stroke: #4fb068; stroke-width: 0.5; stroke-linecap: square"/>
    </g>
    <g id="text_16">
     <!-- SPD - fit -->
     <g transform="translate(71.99174 26.536293) scale(0.0833 -0.0833)">
      <use xlink:href="#CMR17-53" transform="scale(0.996264)"/>
      <use xlink:href="#CMR17-50" transform="translate(50.89537 0) scale(0.996264)"/>
      <use xlink:href="#CMR17-44" transform="translate(113.48167 0) scale(0.996264)"/>
      <use xlink:href="#CMR17-2d" transform="translate(213.951193 0) scale(0.996264)"/>
      <use xlink:href="#CMR17-c" transform="translate(274.103125 0) scale(0.996264)"/>
      <use xlink:href="#CMR17-74" transform="translate(323.845349 0) scale(0.996264)"/>
     </g>
    </g>
    <g id="patch_10">
     <path d="M 48.66774 38.145962 
L 65.32774 38.145962 
L 65.32774 32.314962 
L 48.66774 32.314962 
z
" style="fill: #4fb068"/>
    </g>
    <g id="text_17">
     <!-- SPD - 95\% CI -->
     <g transform="translate(71.99174 38.145962) scale(0.0833 -0.0833)">
      <use xlink:href="#CMR17-53" transform="scale(0.996264)"/>
      <use xlink:href="#CMR17-50" transform="translate(50.89537 0) scale(0.996264)"/>
      <use xlink:href="#CMR17-44" transform="translate(113.48167 0) scale(0.996264)"/>
      <use xlink:href="#CMR17-2d" transform="translate(213.951193 0) scale(0.996264)"/>
      <use xlink:href="#CMR17-39" transform="translate(274.103125 0) scale(0.996264)"/>
      <use xlink:href="#CMR17-35" transform="translate(319.793602 0) scale(0.996264)"/>
      <use xlink:href="#CMR17-25" transform="translate(365.484079 0) scale(0.996264)"/>
      <use xlink:href="#CMR17-43" transform="translate(472.479636 0) scale(0.996264)"/>
      <use xlink:href="#CMR17-49" transform="translate(538.989516 0) scale(0.996264)"/>
     </g>
    </g>
   </g>
  </g>
 </g>
 <defs>
  <clipPath id="p87108f1ce5">
   <rect x="41.167091" y="3.6" width="208.432429" height="108.181203"/>
  </clipPath>
 </defs>
</svg>
