<?xml version="1.0" encoding="utf-8" standalone="no"?>
<!DOCTYPE svg PUBLIC "-//W3C//DTD SVG 1.1//EN"
  "http://www.w3.org/Graphics/SVG/1.1/DTD/svg11.dtd">
<svg xmlns:xlink="http://www.w3.org/1999/xlink" width="433.19952pt" height="146.983462pt" viewBox="0 0 433.19952 146.983462" xmlns="http://www.w3.org/2000/svg" version="1.1">
 <metadata>
  <rdf:RDF xmlns:dc="http://purl.org/dc/elements/1.1/" xmlns:cc="http://creativecommons.org/ns#" xmlns:rdf="http://www.w3.org/1999/02/22-rdf-syntax-ns#">
   <cc:Work>
    <dc:type rdf:resource="http://purl.org/dc/dcmitype/StillImage"/>
    <dc:date>2025-12-22T13:28:33.814690</dc:date>
    <dc:format>image/svg+xml</dc:format>
    <dc:creator>
     <cc:Agent>
      <dc:title>Matplotlib v3.10.8, https://matplotlib.org/</dc:title>
     </cc:Agent>
    </dc:creator>
   </cc:Work>
  </rdf:RDF>
 </metadata>
 <defs>
  <style type="text/css">*{stroke-linejoin: round; stroke-linecap: butt}</style>
 </defs>
 <g id="figure_1">
  <g id="patch_1">
   <path d="M 0 146.983462 
L 433.19952 146.983462 
L 433.19952 0 
L 0 0 
z
" style="fill: #ffffff"/>
  </g>
  <g id="axes_1">
   <g id="patch_2">
    <path d="M 46.267062 39.474357 
L 429.59952 39.474357 
L 429.59952 13.238995 
L 46.267062 13.238995 
z
" style="fill: #ffffff"/>
   </g>
   <g id="matplotlib.axis_1">
    <g id="xtick_1">
     <g id="line2d_1">
      <path d="M 63.691265 39.474357 
L 63.691265 13.238995 
" clip-path="url(#p6d0f76d88c)" style="fill: none; stroke: #b0b0b0; stroke-opacity: 0.5; stroke-width: 0.8; stroke-linecap: square"/>
     </g>
     <g id="line2d_2">
      <defs>
       <path id="mc21dba08f4" d="M 0 0 
L 0 3.5 
" style="stroke: #000000; stroke-width: 0.8"/>
      </defs>
      <g>
       <use xlink:href="#mc21dba08f4" x="63.691265" y="39.474357" style="stroke: #000000; stroke-width: 0.8"/>
      </g>
     </g>
    </g>
    <g id="xtick_2">
     <g id="line2d_3">
      <path d="M 119.448713 39.474357 
L 119.448713 13.238995 
" clip-path="url(#p6d0f76d88c)" style="fill: none; stroke: #b0b0b0; stroke-opacity: 0.5; stroke-width: 0.8; stroke-linecap: square"/>
     </g>
     <g id="line2d_4">
      <g>
       <use xlink:href="#mc21dba08f4" x="119.448713" y="39.474357" style="stroke: #000000; stroke-width: 0.8"/>
      </g>
     </g>
    </g>
    <g id="xtick_3">
     <g id="line2d_5">
      <path d="M 175.206162 39.474357 
L 175.206162 13.238995 
" clip-path="url(#p6d0f76d88c)" style="fill: none; stroke: #b0b0b0; stroke-opacity: 0.5; stroke-width: 0.8; stroke-linecap: square"/>
     </g>
     <g id="line2d_6">
      <g>
       <use xlink:href="#mc21dba08f4" x="175.206162" y="39.474357" style="stroke: #000000; stroke-width: 0.8"/>
      </g>
     </g>
    </g>
    <g id="xtick_4">
     <g id="line2d_7">
      <path d="M 230.96361 39.474357 
L 230.96361 13.238995 
" clip-path="url(#p6d0f76d88c)" style="fill: none; stroke: #b0b0b0; stroke-opacity: 0.5; stroke-width: 0.8; stroke-linecap: square"/>
     </g>
     <g id="line2d_8">
      <g>
       <use xlink:href="#mc21dba08f4" x="230.96361" y="39.474357" style="stroke: #000000; stroke-width: 0.8"/>
      </g>
     </g>
    </g>
    <g id="xtick_5">
     <g id="line2d_9">
      <path d="M 286.721059 39.474357 
L 286.721059 13.238995 
" clip-path="url(#p6d0f76d88c)" style="fill: none; stroke: #b0b0b0; stroke-opacity: 0.5; stroke-width: 0.8; stroke-linecap: square"/>
     </g>
     <g id="line2d_10">
      <g>
       <use xlink:href="#mc21dba08f4" x="286.721059" y="39.474357" style="stroke: #000000; stroke-width: 0.8"/>
      </g>
     </g>
    </g>
    <g id="xtick_6">
     <g id="line2d_11">
      <path d="M 342.478507 39.474357 
L 342.478507 13.238995 
" clip-path="url(#p6d0f76d88c)" style="fill: none; stroke: #b0b0b0; stroke-opacity: 0.5; stroke-width: 0.8; stroke-linecap: square"/>
     </g>
     <g id="line2d_12">
      <g>
       <use xlink:href="#mc21dba08f4" x="342.478507" y="39.474357" style="stroke: #000000; stroke-width: 0.8"/>
      </g>
     </g>
    </g>
    <g id="xtick_7">
     <g id="line2d_13">
      <path d="M 398.235955 39.474357 
L 398.235955 13.238995 
" clip-path="url(#p6d0f76d88c)" style="fill: none; stroke: #b0b0b0; stroke-opacity: 0.5; stroke-width: 0.8; stroke-linecap: square"/>
     </g>
     <g id="line2d_14">
      <g>
       <use xlink:href="#mc21dba08f4" x="398.235955" y="39.474357" style="stroke: #000000; stroke-width: 0.8"/>
      </g>
     </g>
    </g>
   </g>
   <g id="matplotlib.axis_2">
    <g id="ytick_1">
     <g id="line2d_15">
      <path d="M 46.267062 38.28184 
L 429.59952 38.28184 
" clip-path="url(#p6d0f76d88c)" style="fill: none; stroke: #b0b0b0; stroke-opacity: 0.5; stroke-width: 0.8; stroke-linecap: square"/>
     </g>
     <g id="line2d_16">
      <defs>
       <path id="m6a66ad8c7d" d="M 0 0 
L -3.5 0 
" style="stroke: #000000; stroke-width: 0.8"/>
      </defs>
      <g>
       <use xlink:href="#m6a66ad8c7d" x="46.267062" y="38.28184" style="stroke: #000000; stroke-width: 0.8"/>
      </g>
     </g>
     <g id="text_1">
      <!-- $\mathdefault{0.00}$ -->
      <g transform="translate(21.555648 41.741089) scale(0.1 -0.1)">
       <defs>
        <path id="CMR17-30" d="M 2688 2025 
C 2688 2416 2682 3080 2413 3591 
C 2176 4039 1798 4198 1466 4198 
C 1158 4198 768 4058 525 3597 
C 269 3118 243 2524 243 2025 
C 243 1661 250 1106 448 619 
C 723 -39 1216 -128 1466 -128 
C 1760 -128 2208 -7 2470 600 
C 2662 1042 2688 1559 2688 2025 
z
M 1466 -26 
C 1056 -26 813 325 723 812 
C 653 1188 653 1738 653 2096 
C 653 2588 653 2997 736 3387 
C 858 3929 1216 4096 1466 4096 
C 1728 4096 2067 3923 2189 3400 
C 2272 3036 2278 2607 2278 2096 
C 2278 1680 2278 1169 2202 792 
C 2067 95 1690 -26 1466 -26 
z
" transform="scale(0.015625)"/>
        <path id="CMMI12-3a" d="M 1178 307 
C 1178 492 1024 619 870 619 
C 685 619 557 466 557 313 
C 557 128 710 0 864 0 
C 1050 0 1178 153 1178 307 
z
" transform="scale(0.015625)"/>
       </defs>
       <use xlink:href="#CMR17-30" transform="scale(0.996264)"/>
       <use xlink:href="#CMMI12-3a" transform="translate(45.690477 0) scale(0.996264)"/>
       <use xlink:href="#CMR17-30" transform="translate(72.787654 0) scale(0.996264)"/>
       <use xlink:href="#CMR17-30" transform="translate(118.478131 0) scale(0.996264)"/>
      </g>
     </g>
    </g>
    <g id="ytick_2">
     <g id="line2d_17">
      <path d="M 46.267062 17.628062 
L 429.59952 17.628062 
" clip-path="url(#p6d0f76d88c)" style="fill: none; stroke: #b0b0b0; stroke-opacity: 0.5; stroke-width: 0.8; stroke-linecap: square"/>
     </g>
     <g id="line2d_18">
      <g>
       <use xlink:href="#m6a66ad8c7d" x="46.267062" y="17.628062" style="stroke: #000000; stroke-width: 0.8"/>
      </g>
     </g>
     <g id="text_2">
      <!-- $\mathdefault{0.25}$ -->
      <g transform="translate(21.555648 21.087311) scale(0.1 -0.1)">
       <defs>
        <path id="CMR17-32" d="M 2669 989 
L 2554 989 
C 2490 536 2438 459 2413 420 
C 2381 369 1920 369 1830 369 
L 602 369 
C 832 619 1280 1072 1824 1597 
C 2214 1967 2669 2402 2669 3035 
C 2669 3790 2067 4224 1395 4224 
C 691 4224 262 3604 262 3030 
C 262 2780 448 2748 525 2748 
C 589 2748 781 2787 781 3010 
C 781 3207 614 3264 525 3264 
C 486 3264 448 3258 422 3245 
C 544 3790 915 4058 1306 4058 
C 1862 4058 2227 3617 2227 3035 
C 2227 2479 1901 2000 1536 1584 
L 262 146 
L 262 0 
L 2515 0 
L 2669 989 
z
" transform="scale(0.015625)"/>
        <path id="CMR17-35" d="M 730 3692 
C 794 3666 1056 3584 1325 3584 
C 1920 3584 2246 3911 2432 4100 
C 2432 4157 2432 4192 2394 4192 
C 2387 4192 2374 4192 2323 4163 
C 2099 4058 1837 3973 1517 3973 
C 1325 3973 1037 3999 723 4139 
C 653 4171 640 4171 634 4171 
C 602 4171 595 4164 595 4037 
L 595 2203 
C 595 2089 595 2057 659 2057 
C 691 2057 704 2070 736 2114 
C 941 2401 1222 2522 1542 2522 
C 1766 2522 2246 2382 2246 1289 
C 2246 1085 2246 715 2054 421 
C 1894 159 1645 25 1370 25 
C 947 25 518 320 403 814 
C 429 807 480 795 506 795 
C 589 795 749 840 749 1038 
C 749 1210 627 1280 506 1280 
C 358 1280 262 1190 262 1011 
C 262 454 704 -128 1382 -128 
C 2042 -128 2669 440 2669 1264 
C 2669 2030 2170 2624 1549 2624 
C 1222 2624 947 2503 730 2274 
L 730 3692 
z
" transform="scale(0.015625)"/>
       </defs>
       <use xlink:href="#CMR17-30" transform="scale(0.996264)"/>
       <use xlink:href="#CMMI12-3a" transform="translate(45.690477 0) scale(0.996264)"/>
       <use xlink:href="#CMR17-32" transform="translate(72.787654 0) scale(0.996264)"/>
       <use xlink:href="#CMR17-35" transform="translate(118.478131 0) scale(0.996264)"/>
      </g>
     </g>
    </g>
   </g>
   <g id="line2d_19">
    <path d="M 63.691265 38.28184 
L 64.248839 32.593316 
L 64.806414 36.314445 
L 65.363988 37.350511 
L 65.921563 36.741464 
L 66.479137 35.641867 
L 67.036712 37.871687 
L 67.594286 37.808027 
L 68.151861 36.759925 
L 68.709435 37.402516 
L 69.26701 37.348284 
L 69.824584 37.140272 
L 70.382159 37.624009 
L 70.939733 37.530084 
L 71.497308 37.98779 
L 72.054882 36.911221 
L 72.612457 38.062598 
L 73.170031 36.904605 
L 74.28518 37.330618 
L 74.842755 36.984 
L 75.400329 36.947382 
L 75.957904 36.779018 
L 76.515478 38.163141 
L 77.073053 38.147243 
L 77.630627 37.466477 
L 78.188202 38.036342 
L 78.745776 37.71638 
L 79.303351 37.568479 
L 79.860925 37.589637 
L 80.418499 38.069175 
L 80.976074 37.527229 
L 81.533648 37.593881 
L 82.091223 36.569993 
L 82.648797 37.89764 
L 83.206372 37.540545 
L 83.763946 37.997141 
L 84.879095 37.608987 
L 85.43667 38.023254 
L 85.994244 38.089375 
L 86.551819 37.512681 
L 88.782117 38.098289 
L 89.339691 37.376641 
L 89.897266 37.618373 
L 90.45484 37.207441 
L 91.012415 37.16298 
L 91.569989 37.70293 
L 92.127564 37.621902 
L 92.685138 37.328677 
L 93.242713 37.254992 
L 93.800287 37.599579 
L 94.915436 37.991814 
L 95.473011 37.451924 
L 96.030585 38.059464 
L 96.58816 37.645236 
L 97.145734 37.779122 
L 97.703308 38.171055 
L 98.260883 37.602396 
L 98.818457 38.125925 
L 99.376032 37.22322 
L 100.491181 38.183912 
L 101.048755 38.134936 
L 101.60633 36.87939 
L 102.163904 37.762187 
L 102.721479 37.698329 
L 103.279053 38.034847 
L 103.836628 37.712415 
L 104.394202 37.960775 
L 104.951777 38.01822 
L 105.509351 37.81459 
L 106.066926 37.888932 
L 106.6245 37.23924 
L 107.182075 37.963792 
L 107.739649 37.476204 
L 108.297224 37.483482 
L 108.854798 38.027277 
L 109.969947 37.796842 
L 110.527522 37.356403 
L 111.085096 37.730835 
L 111.642671 37.908068 
L 112.200245 37.844219 
L 112.75782 37.65054 
L 113.315394 37.580862 
L 113.872969 38.22486 
L 114.430543 37.801084 
L 114.988117 38.163357 
L 115.545692 37.965175 
L 116.660841 37.991259 
L 117.218415 37.543836 
L 117.77599 37.835376 
L 118.333564 37.64642 
L 118.891139 38.055615 
L 119.448713 37.266154 
L 120.006288 37.389724 
L 120.563862 37.683153 
L 121.121437 37.678781 
L 121.679011 38.12054 
L 122.236586 37.875297 
L 122.79416 37.366567 
L 123.351735 38.089652 
L 123.909309 37.591797 
L 124.466884 37.89497 
L 125.024458 37.902318 
L 125.582033 38.167861 
L 126.139607 37.92276 
L 126.697182 37.294088 
L 127.254756 37.873137 
L 127.812331 37.886569 
L 128.369905 38.150098 
L 128.92748 37.695795 
L 129.485054 37.504402 
L 130.600203 38.101478 
L 131.157778 37.649736 
L 131.715352 37.925506 
L 132.272926 37.607396 
L 132.830501 37.910466 
L 133.388075 37.346304 
L 133.94565 38.018707 
L 134.503224 37.82997 
L 135.060799 37.511017 
L 135.618373 37.836905 
L 136.175948 37.528624 
L 136.733522 37.631567 
L 137.291097 38.213565 
L 137.848671 37.779482 
L 138.96382 38.106733 
L 139.521395 37.509156 
L 140.078969 37.89477 
L 140.636544 37.836967 
L 141.194118 37.916028 
L 141.751693 37.623982 
L 142.309267 38.157915 
L 143.424416 38.050636 
L 143.981991 37.621445 
L 144.539565 37.967317 
L 145.09714 37.226409 
L 145.654714 37.841753 
L 146.212289 37.998191 
L 146.769863 37.778599 
L 147.327438 38.236187 
L 149.000161 37.461417 
L 149.557735 38.038197 
L 150.11531 37.52164 
L 150.672884 37.652008 
L 151.230459 38.049207 
L 152.345608 37.338624 
L 152.903182 37.899559 
L 154.575906 37.864553 
L 155.13348 37.594672 
L 155.691055 37.546004 
L 156.248629 37.988741 
L 156.806204 38.145307 
L 157.363778 38.014451 
L 157.921353 37.768729 
L 158.478927 37.729375 
L 159.036502 38.009386 
L 159.594076 37.777524 
L 160.151651 37.715806 
L 160.709225 37.825859 
L 161.2668 38.138657 
L 162.381949 37.474085 
L 162.939523 37.964954 
L 164.054672 37.542957 
L 164.612247 37.811728 
L 165.169821 38.220871 
L 165.727396 37.808257 
L 166.842544 37.912144 
L 167.957693 37.488528 
L 169.072842 38.114378 
L 169.630417 37.760038 
L 170.745566 38.184926 
L 171.30314 37.235799 
L 171.860715 37.909101 
L 172.975864 38.199579 
L 174.091013 37.695491 
L 175.763736 37.885593 
L 176.321311 37.48526 
L 176.878885 38.141417 
L 177.994034 37.727755 
L 178.551609 38.082408 
L 179.109183 37.870157 
L 180.781907 38.027573 
L 181.339481 37.630312 
L 181.897056 37.887078 
L 183.012205 38.041973 
L 183.569779 37.024704 
L 184.127353 38.130712 
L 184.684928 37.775079 
L 185.242502 38.009011 
L 185.800077 37.824024 
L 186.357651 37.935286 
L 188.030375 37.550482 
L 188.587949 38.051428 
L 190.260673 37.843075 
L 190.818247 38.130215 
L 191.375822 38.172436 
L 191.933396 37.543947 
L 192.490971 37.424968 
L 193.60612 37.727031 
L 194.721269 37.570631 
L 195.278843 37.333172 
L 195.836418 38.103459 
L 196.951567 38.017154 
L 197.509141 37.759219 
L 198.066716 37.698478 
L 198.62429 38.190079 
L 199.181865 37.690258 
L 199.739439 37.354019 
L 200.297014 37.68471 
L 200.854588 37.44238 
L 201.969737 37.323434 
L 202.527311 35.924842 
L 203.084886 32.165649 
L 203.64246 31.285136 
L 204.200035 35.887285 
L 204.757609 36.8371 
L 205.315184 36.741881 
L 205.872758 37.112768 
L 206.430333 38.037063 
L 206.987907 37.287643 
L 207.545482 37.537573 
L 208.103056 37.479659 
L 208.660631 38.051882 
L 209.218205 38.239524 
L 209.77578 36.991422 
L 210.333354 37.535543 
L 210.890929 37.838651 
L 211.448503 37.711723 
L 212.006078 38.182686 
L 213.121227 37.40462 
L 213.678801 38.145422 
L 214.236376 37.781279 
L 214.79395 37.703161 
L 215.351525 37.507587 
L 215.909099 37.552358 
L 216.466674 37.937348 
L 217.024248 37.453219 
L 217.581823 37.621624 
L 218.696971 37.168163 
L 219.254546 37.649718 
L 220.369695 38.048881 
L 221.484844 38.063142 
L 222.042418 37.844699 
L 222.599993 38.014367 
L 223.157567 37.85819 
L 223.715142 37.9746 
L 224.272716 37.727209 
L 224.830291 37.236737 
L 225.387865 37.33542 
L 225.94544 38.117842 
L 226.503014 37.909921 
L 227.060589 37.952277 
L 227.618163 37.685648 
L 228.175738 37.63138 
L 228.733312 37.755258 
L 229.290887 37.451897 
L 229.848461 38.145298 
L 230.406036 38.135616 
L 230.96361 37.998813 
L 231.521185 37.699632 
L 232.078759 38.10867 
L 233.193908 38.078278 
L 233.751483 38.140716 
L 234.309057 37.34388 
L 234.866632 37.822998 
L 235.424206 37.810359 
L 235.98178 37.086942 
L 236.539355 36.953558 
L 237.096929 37.615625 
L 237.654504 37.591129 
L 238.212078 37.235861 
L 238.769653 37.808694 
L 239.327227 37.662784 
L 239.884802 37.014689 
L 240.999951 37.344831 
L 241.557525 37.828519 
L 242.1151 37.295017 
L 242.672674 37.231217 
L 243.230249 37.529161 
L 243.787823 36.416109 
L 244.345398 37.115432 
L 244.902972 37.542496 
L 245.460547 37.126177 
L 246.018121 37.875031 
L 246.575696 37.843022 
L 247.13327 36.614012 
L 247.690845 37.077925 
L 248.248419 35.952864 
L 248.805994 35.950116 
L 249.363568 36.992006 
L 249.921143 36.910724 
L 250.478717 35.21461 
L 251.036292 35.905439 
L 251.593866 37.301967 
L 252.151441 37.433861 
L 252.709015 36.37781 
L 253.266589 37.640348 
L 253.824164 37.535481 
L 254.939313 37.785933 
L 255.496887 37.974634 
L 256.054462 37.850701 
L 256.612036 38.063243 
L 257.169611 37.701036 
L 257.727185 38.060626 
L 258.28476 37.560856 
L 258.842334 37.947358 
L 259.399909 37.896178 
L 259.957483 38.015316 
L 260.515058 37.648007 
L 261.072632 37.804921 
L 261.630207 38.206361 
L 262.745356 37.71836 
L 263.30293 38.089063 
L 263.860505 37.970013 
L 264.418079 37.516098 
L 265.533228 38.144596 
L 266.648377 37.800203 
L 267.205952 38.013061 
L 268.321101 37.726396 
L 268.878675 37.973388 
L 269.43625 37.565633 
L 269.993824 37.964124 
L 270.551398 38.055988 
L 271.108973 37.760693 
L 271.666547 37.760832 
L 272.224122 38.068864 
L 272.781696 37.491707 
L 274.45442 38.187831 
L 275.011994 38.012407 
L 276.127143 38.115029 
L 277.242292 37.99867 
L 277.799867 37.097916 
L 278.357441 37.774755 
L 278.915016 38.062748 
L 279.47259 37.716081 
L 280.030165 38.114762 
L 280.587739 37.647944 
L 281.145314 37.952282 
L 281.702888 38.020905 
L 282.818037 37.895971 
L 283.933186 37.756157 
L 284.490761 38.202473 
L 285.048335 37.69676 
L 286.163484 37.782836 
L 286.721059 38.098995 
L 287.278633 37.949107 
L 287.836207 37.986284 
L 288.393782 37.60505 
L 288.951356 37.921715 
L 289.508931 37.97919 
L 290.066505 38.182801 
L 290.62408 37.760987 
L 291.181654 38.124675 
L 291.739229 38.127427 
L 292.296803 37.672135 
L 292.854378 37.762535 
L 293.411952 38.151611 
L 294.527101 37.807061 
L 295.084676 38.013491 
L 295.64225 37.801552 
L 297.314974 38.197871 
L 297.872548 37.803307 
L 298.430123 37.788066 
L 298.987697 38.189067 
L 299.545272 38.073397 
L 300.102846 37.781775 
L 300.660421 37.706796 
L 301.217995 38.046065 
L 301.77557 38.154651 
L 302.333144 37.767538 
L 302.890719 37.925154 
L 303.448293 38.26089 
L 304.005868 37.984763 
L 304.563442 38.13403 
L 306.236165 37.642116 
L 307.351314 38.218431 
L 307.908889 37.881924 
L 308.466463 37.734828 
L 309.024038 37.719837 
L 309.581612 37.930413 
L 310.139187 37.97825 
L 310.696761 37.771584 
L 311.254336 38.052959 
L 311.81191 37.927141 
L 312.369485 37.94396 
L 313.484634 38.207748 
L 314.042208 38.045819 
L 315.157357 38.195602 
L 315.714932 37.720457 
L 316.272506 38.022269 
L 317.387655 37.43268 
L 317.94523 37.922187 
L 318.502804 38.102062 
L 319.060379 37.524421 
L 319.617953 37.970993 
L 320.175528 37.681636 
L 321.290677 38.022401 
L 321.848251 37.812254 
L 322.405825 37.909059 
L 322.9634 37.813487 
L 324.636123 37.927054 
L 325.193698 38.131567 
L 325.751272 37.590548 
L 326.308847 37.583033 
L 326.866421 38.091682 
L 327.423996 38.108241 
L 327.98157 37.961288 
L 328.539145 38.07015 
L 329.096719 37.844087 
L 329.654294 37.464452 
L 330.211868 37.890235 
L 331.327017 38.162675 
L 331.884592 37.641896 
L 332.999741 38.034176 
L 333.557315 37.733081 
L 334.672464 37.488645 
L 335.230039 37.918346 
L 335.787613 38.051295 
L 336.902762 37.837666 
L 337.460337 37.755736 
L 338.017911 37.211619 
L 338.575486 37.520185 
L 339.13306 38.06968 
L 339.690634 37.347983 
L 340.805783 37.156809 
L 341.363358 36.735611 
L 341.920932 35.370186 
L 342.478507 18.927562 
L 343.036081 34.261804 
L 343.593656 36.887157 
L 344.708805 37.376023 
L 345.823954 37.448364 
L 346.381528 37.756034 
L 347.496677 37.787866 
L 348.054252 38.068504 
L 349.169401 37.709945 
L 350.28455 38.15367 
L 352.514848 37.554501 
L 353.072422 37.647767 
L 353.629997 38.021381 
L 354.745146 37.96777 
L 355.30272 38.118963 
L 357.533018 37.67602 
L 358.090592 38.208611 
L 359.205741 38.026664 
L 359.763316 37.903615 
L 360.32089 38.081893 
L 360.878465 37.966585 
L 361.436039 38.14514 
L 361.993614 37.746928 
L 362.551188 38.043997 
L 363.666337 37.947267 
L 364.223912 38.197406 
L 364.781486 37.776738 
L 365.896635 38.180048 
L 366.45421 37.718851 
L 367.011784 37.686688 
L 367.569359 38.044077 
L 368.126933 38.185278 
L 368.684508 37.850186 
L 369.242082 37.935095 
L 369.799657 37.831176 
L 370.357231 38.18028 
L 372.029955 38.036284 
L 373.145104 38.13551 
L 373.702678 38.055215 
L 375.375401 38.272453 
L 375.932976 38.047798 
L 376.49055 38.093241 
L 377.048125 37.798885 
L 377.605699 38.150317 
L 378.720848 37.974081 
L 379.278423 37.665631 
L 380.393572 37.971347 
L 382.066295 38.073204 
L 382.62387 37.749823 
L 383.181444 37.994861 
L 384.296593 38.167623 
L 385.411742 37.92166 
L 385.969317 38.013357 
L 387.084466 37.950062 
L 387.64204 37.933376 
L 388.199615 38.205844 
L 388.757189 37.778677 
L 389.314764 38.078928 
L 389.872338 38.030622 
L 390.987487 38.242215 
L 392.102636 37.989319 
L 392.66021 38.061119 
L 393.775359 37.766455 
L 394.332934 38.231792 
L 395.448083 37.904828 
L 396.005657 38.11581 
L 396.563232 38.066513 
L 397.678381 37.824008 
L 398.235955 37.894554 
L 398.79353 37.82105 
L 399.351104 37.956521 
L 399.908679 37.6672 
L 400.466253 38.161049 
L 401.023828 37.928826 
L 401.581402 38.252209 
L 402.138977 38.04831 
L 402.696551 37.975921 
L 403.254126 38.058825 
L 403.8117 37.935223 
L 404.369275 38.193559 
L 404.926849 38.151101 
L 405.484424 37.820898 
L 406.041998 38.131418 
L 406.599573 37.929282 
L 407.157147 38.068683 
L 407.714722 38.072832 
L 408.272296 37.873312 
L 408.82987 38.06174 
L 409.387445 37.648165 
L 410.502594 38.239776 
L 411.060168 37.765524 
L 411.617743 37.992818 
L 412.175317 37.836846 
L 412.175317 37.836846 
" clip-path="url(#p6d0f76d88c)" style="fill: none; stroke: #113b6c; stroke-width: 1.5; stroke-linecap: square"/>
   </g>
   <g id="line2d_20">
    <path d="M 63.691265 38.28184 
L 64.248839 29.765903 
L 64.806414 37.768384 
L 65.363988 35.775565 
L 65.921563 37.368198 
L 66.479137 37.485666 
L 67.036712 38.170889 
L 68.709435 37.849934 
L 69.26701 37.042615 
L 69.824584 37.04051 
L 70.382159 38.054115 
L 70.939733 37.779103 
L 71.497308 37.655949 
L 72.054882 37.089638 
L 72.612457 37.715988 
L 73.170031 37.974614 
L 74.842755 37.66038 
L 75.400329 37.239739 
L 75.957904 38.072493 
L 76.515478 37.411764 
L 77.073053 38.091239 
L 77.630627 37.997617 
L 78.188202 37.781148 
L 78.745776 37.869041 
L 79.303351 37.575142 
L 79.860925 38.087613 
L 80.976074 38.208148 
L 81.533648 37.4678 
L 82.091223 37.842718 
L 82.648797 37.928409 
L 83.206372 37.537508 
L 83.763946 37.884227 
L 84.321521 37.607917 
L 85.43667 38.180062 
L 85.994244 38.184928 
L 86.551819 37.764761 
L 87.109393 37.904021 
L 87.666968 37.487147 
L 88.782117 38.026029 
L 89.339691 37.581385 
L 89.897266 38.06112 
L 90.45484 37.579248 
L 91.012415 37.662094 
L 91.569989 37.562432 
L 92.127564 37.57936 
L 92.685138 38.130715 
L 93.242713 38.000677 
L 93.800287 38.020292 
L 94.357862 37.861069 
L 94.915436 38.040298 
L 95.473011 38.081952 
L 96.030585 37.272911 
L 96.58816 37.989081 
L 97.703308 37.819309 
L 98.260883 37.418321 
L 99.376032 37.621475 
L 99.933606 37.603329 
L 100.491181 38.071699 
L 101.60633 38.133694 
L 102.163904 37.544351 
L 103.279053 37.747445 
L 103.836628 37.671717 
L 104.394202 38.069169 
L 104.951777 37.778625 
L 105.509351 37.663245 
L 106.066926 38.041714 
L 106.6245 37.412153 
L 107.739649 38.199531 
L 108.297224 38.159059 
L 108.854798 37.86211 
L 109.412373 37.951965 
L 109.969947 37.812139 
L 110.527522 38.084712 
L 111.642671 37.902984 
L 112.200245 38.134155 
L 114.430543 37.844453 
L 114.988117 38.063614 
L 116.103266 37.781435 
L 116.660841 38.015355 
L 117.77599 38.048529 
L 118.333564 37.749425 
L 118.891139 37.866517 
L 119.448713 38.106121 
L 120.006288 38.093614 
L 120.563862 37.56314 
L 121.121437 37.958751 
L 121.679011 37.441668 
L 122.236586 37.886918 
L 122.79416 38.158819 
L 123.351735 37.820831 
L 124.466884 37.841442 
L 125.024458 37.985649 
L 125.582033 37.613315 
L 126.139607 37.92011 
L 126.697182 38.047771 
L 127.254756 37.742008 
L 127.812331 37.639174 
L 128.369905 37.789971 
L 128.92748 37.63625 
L 129.485054 38.168173 
L 130.042629 37.820508 
L 131.157778 37.983704 
L 131.715352 37.605114 
L 132.272926 37.633364 
L 132.830501 37.962226 
L 133.388075 37.344886 
L 133.94565 38.007696 
L 135.060799 37.650091 
L 135.618373 38.181889 
L 136.175948 37.768033 
L 136.733522 38.048296 
L 137.291097 37.749889 
L 137.848671 37.846027 
L 138.96382 37.575159 
L 139.521395 38.215263 
L 140.078969 37.522801 
L 140.636544 37.619582 
L 141.194118 37.962852 
L 142.309267 37.742083 
L 142.866842 37.980258 
L 143.424416 37.77141 
L 143.981991 37.936753 
L 144.539565 37.664636 
L 145.09714 38.011823 
L 145.654714 37.596287 
L 146.212289 37.98034 
L 146.769863 37.797115 
L 147.327438 37.73446 
L 148.442587 38.03783 
L 149.000161 38.018658 
L 149.557735 37.759762 
L 150.11531 38.104437 
L 150.672884 38.172922 
L 151.230459 37.491468 
L 151.788033 38.105656 
L 152.345608 37.799885 
L 152.903182 37.711742 
L 153.460757 38.17412 
L 154.018331 37.981979 
L 154.575906 38.117623 
L 155.13348 37.93346 
L 155.691055 37.96016 
L 156.248629 38.211942 
L 156.806204 37.805782 
L 157.363778 37.602176 
L 158.478927 37.501177 
L 159.036502 38.112688 
L 159.594076 37.551207 
L 160.151651 37.39006 
L 160.709225 37.801078 
L 161.2668 37.129689 
L 161.824374 37.82758 
L 162.381949 37.829937 
L 162.939523 38.053021 
L 163.497098 37.371877 
L 165.169821 38.063522 
L 166.28497 37.646462 
L 166.842544 37.894238 
L 167.400119 37.888754 
L 167.957693 38.051888 
L 168.515268 37.899131 
L 169.072842 37.29032 
L 169.630417 38.006836 
L 170.745566 38.069559 
L 171.30314 38.251302 
L 172.418289 37.885324 
L 172.975864 37.938984 
L 173.533438 38.148191 
L 174.091013 37.713227 
L 174.648587 37.771815 
L 175.206162 38.073151 
L 176.878885 38.139015 
L 177.43646 37.90577 
L 177.994034 37.867017 
L 178.551609 38.119444 
L 180.224332 37.759331 
L 180.781907 38.161092 
L 181.339481 37.407034 
L 181.897056 37.923649 
L 183.569779 37.712361 
L 184.127353 37.927757 
L 184.684928 37.902351 
L 185.242502 37.616056 
L 185.800077 38.002737 
L 186.357651 37.546555 
L 186.915226 38.153388 
L 187.4728 37.708037 
L 188.030375 37.538508 
L 188.587949 37.83684 
L 189.145524 37.866521 
L 189.703098 38.235068 
L 190.260673 38.21456 
L 190.818247 37.931353 
L 191.375822 37.836556 
L 192.490971 38.000151 
L 193.048545 37.605328 
L 193.60612 37.984089 
L 194.163694 37.675827 
L 195.278843 37.956475 
L 195.836418 37.508389 
L 196.393992 38.242558 
L 196.951567 37.503066 
L 197.509141 37.968895 
L 198.066716 37.917674 
L 198.62429 37.60291 
L 199.739439 37.858717 
L 200.297014 37.674841 
L 200.854588 37.61435 
L 201.412162 38.108114 
L 202.527311 37.493501 
L 203.084886 36.673207 
L 203.64246 36.57697 
L 204.200035 37.617149 
L 204.757609 37.960965 
L 205.315184 37.756972 
L 205.872758 37.311603 
L 206.430333 38.151213 
L 207.545482 37.781161 
L 208.660631 38.019742 
L 209.77578 37.945329 
L 210.333354 37.97606 
L 210.890929 37.883061 
L 211.448503 37.941945 
L 212.006078 37.739906 
L 212.563652 37.908723 
L 213.121227 37.673045 
L 213.678801 37.964596 
L 214.236376 37.649311 
L 214.79395 37.95121 
L 215.351525 37.721053 
L 216.466674 38.271392 
L 217.024248 37.953312 
L 217.581823 38.16827 
L 218.139397 38.05246 
L 218.696971 37.106996 
L 219.254546 37.719008 
L 219.81212 37.534555 
L 220.369695 38.157648 
L 220.927269 37.698995 
L 221.484844 37.754814 
L 222.042418 38.027107 
L 223.157567 38.005849 
L 223.715142 38.027905 
L 224.272716 37.85852 
L 224.830291 37.841214 
L 225.387865 38.157939 
L 225.94544 37.341638 
L 226.503014 37.803691 
L 227.060589 38.070011 
L 227.618163 37.798125 
L 228.175738 37.87312 
L 228.733312 37.092972 
L 229.290887 38.126087 
L 230.406036 37.837033 
L 230.96361 37.726452 
L 231.521185 38.091896 
L 233.193908 38.078622 
L 233.751483 37.265202 
L 234.309057 37.963105 
L 234.866632 37.909877 
L 235.424206 37.704646 
L 235.98178 38.093405 
L 239.327227 37.940841 
L 240.442376 38.05262 
L 240.999951 37.678603 
L 241.557525 37.530539 
L 242.1151 38.141119 
L 242.672674 37.832331 
L 243.230249 38.1468 
L 243.787823 38.065188 
L 244.902972 37.483614 
L 245.460547 38.180884 
L 246.018121 37.131217 
L 246.575696 38.008243 
L 247.13327 37.956427 
L 247.690845 38.153392 
L 248.248419 37.669704 
L 248.805994 37.383094 
L 249.363568 37.8005 
L 249.921143 37.543601 
L 250.478717 36.095976 
L 251.036292 36.809152 
L 251.593866 38.141348 
L 252.151441 37.994359 
L 252.709015 37.182575 
L 253.266589 37.72052 
L 253.824164 37.531393 
L 254.381738 37.198635 
L 254.939313 37.778492 
L 255.496887 37.66642 
L 256.054462 37.347338 
L 256.612036 37.972373 
L 257.169611 37.378417 
L 258.28476 37.82393 
L 258.842334 37.905363 
L 259.399909 37.837035 
L 259.957483 38.028288 
L 260.515058 37.927329 
L 261.072632 37.962673 
L 261.630207 38.247842 
L 262.187781 37.492467 
L 262.745356 38.063972 
L 263.30293 37.916109 
L 263.860505 38.047786 
L 264.418079 38.049663 
L 264.975654 37.652052 
L 265.533228 37.644497 
L 267.205952 38.164831 
L 267.763526 37.996029 
L 268.321101 37.695589 
L 268.878675 38.187709 
L 269.43625 37.821698 
L 270.551398 37.889404 
L 271.108973 38.112011 
L 272.224122 37.534674 
L 272.781696 37.849916 
L 274.45442 37.667623 
L 275.011994 38.038417 
L 275.569569 37.550187 
L 276.127143 37.951412 
L 276.684718 38.158053 
L 277.242292 37.543604 
L 277.799867 37.993105 
L 278.915016 38.027189 
L 279.47259 38.212486 
L 280.030165 37.944818 
L 281.145314 38.128058 
L 281.702888 37.875332 
L 282.260463 37.967608 
L 282.818037 37.678046 
L 283.375612 38.078947 
L 283.933186 38.223434 
L 284.490761 38.09667 
L 285.048335 37.767813 
L 285.60591 37.649506 
L 286.163484 37.990854 
L 289.508931 38.151608 
L 290.62408 37.734115 
L 291.181654 37.889194 
L 292.296803 37.844647 
L 292.854378 38.067482 
L 293.411952 37.740013 
L 293.969527 37.879603 
L 294.527101 37.798823 
L 295.084676 37.99858 
L 295.64225 38.03977 
L 296.199825 37.821282 
L 298.987697 38.136234 
L 299.545272 38.010597 
L 300.660421 37.980532 
L 301.217995 38.1778 
L 302.333144 37.856378 
L 302.890719 37.913874 
L 303.448293 38.210971 
L 304.005868 38.128037 
L 304.563442 37.770073 
L 305.121016 38.006009 
L 306.236165 37.998155 
L 306.79374 38.164629 
L 307.908889 38.111952 
L 309.024038 37.754433 
L 309.581612 37.961625 
L 310.139187 37.963941 
L 310.696761 38.13267 
L 311.254336 38.012359 
L 311.81191 37.530702 
L 312.369485 38.110158 
L 312.927059 38.039178 
L 313.484634 37.759747 
L 314.042208 37.909631 
L 314.599783 37.910693 
L 315.157357 38.258324 
L 315.714932 38.137291 
L 316.272506 37.793821 
L 316.830081 37.998625 
L 317.94523 38.108533 
L 318.502804 38.272478 
L 319.060379 37.890702 
L 319.617953 37.71164 
L 320.175528 38.119478 
L 320.733102 37.895361 
L 321.290677 38.160822 
L 321.848251 38.253866 
L 322.405825 38.004539 
L 324.078549 38.082641 
L 324.636123 38.161722 
L 325.751272 37.940824 
L 326.308847 38.078985 
L 326.866421 37.951588 
L 327.423996 38.010149 
L 327.98157 38.184543 
L 328.539145 37.966561 
L 329.096719 38.173455 
L 329.654294 37.800625 
L 330.769443 38.042238 
L 331.327017 37.922958 
L 331.884592 37.986505 
L 332.442166 38.190589 
L 332.999741 37.983682 
L 333.557315 38.121705 
L 334.11489 37.874331 
L 336.345188 37.880179 
L 336.902762 37.999754 
L 337.460337 37.6033 
L 338.575486 37.817182 
L 339.13306 37.437974 
L 339.690634 37.765869 
L 340.805783 36.928397 
L 341.363358 36.207355 
L 341.920932 34.880751 
L 342.478507 14.431511 
L 343.036081 33.731555 
L 343.593656 36.118218 
L 344.15123 36.403495 
L 344.708805 37.177045 
L 347.496677 37.93912 
L 348.054252 37.836262 
L 348.611826 38.085418 
L 349.169401 37.950947 
L 349.726975 37.965683 
L 350.842124 37.607352 
L 351.399699 38.012759 
L 352.514848 38.235372 
L 353.072422 38.084132 
L 353.629997 38.126155 
L 354.187571 37.917106 
L 354.745146 38.167731 
L 355.30272 37.985783 
L 355.860295 38.123413 
L 356.975443 38.118314 
L 357.533018 37.800464 
L 358.090592 38.174711 
L 358.648167 38.058633 
L 359.205741 38.173138 
L 359.763316 37.991838 
L 361.436039 38.046952 
L 361.993614 37.80032 
L 362.551188 38.143292 
L 363.108763 38.129826 
L 363.666337 37.993173 
L 364.223912 38.205752 
L 364.781486 37.93992 
L 366.45421 37.760529 
L 367.011784 38.018014 
L 367.569359 37.922311 
L 368.126933 38.239974 
L 368.684508 38.01247 
L 369.242082 38.134214 
L 373.702678 38.130794 
L 374.817827 38.248378 
L 375.375401 37.98836 
L 376.49055 38.11077 
L 377.048125 37.854657 
L 378.720848 38.090707 
L 379.278423 37.872802 
L 380.393572 38.14767 
L 380.951146 37.938775 
L 381.508721 38.162713 
L 382.066295 38.177617 
L 383.181444 37.942693 
L 383.739019 38.11659 
L 384.296593 37.99951 
L 385.969317 38.106222 
L 389.314764 38.218421 
L 389.872338 38.085888 
L 390.987487 38.154863 
L 391.545061 38.101773 
L 392.66021 38.217801 
L 393.217785 37.997981 
L 394.890508 38.007138 
L 395.448083 38.124369 
L 396.005657 38.004194 
L 396.563232 38.206724 
L 397.120806 37.937591 
L 398.235955 38.037676 
L 398.79353 38.061579 
L 399.351104 38.219248 
L 399.908679 38.211902 
L 400.466253 38.030439 
L 401.023828 38.040877 
L 401.581402 37.936895 
L 402.138977 38.128041 
L 403.254126 37.842538 
L 404.369275 38.154025 
L 404.926849 38.105616 
L 405.484424 37.88279 
L 406.041998 38.073231 
L 406.599573 38.131815 
L 407.714722 38.097738 
L 408.272296 38.183325 
L 408.82987 37.798619 
L 409.387445 38.152485 
L 409.945019 38.083412 
L 410.502594 38.170297 
L 411.060168 37.860734 
L 411.617743 38.121582 
L 412.175317 37.785161 
L 412.175317 37.785161 
" clip-path="url(#p6d0f76d88c)" style="fill: none; stroke: #4fb068; stroke-width: 1.5; stroke-linecap: square"/>
   </g>
   <g id="patch_3">
    <path d="M 46.267062 39.474357 
L 46.267062 13.238995 
" style="fill: none; stroke: #000000; stroke-width: 0.8; stroke-linejoin: miter; stroke-linecap: square"/>
   </g>
   <g id="patch_4">
    <path d="M 429.59952 39.474357 
L 429.59952 13.238995 
" style="fill: none; stroke: #000000; stroke-width: 0.8; stroke-linejoin: miter; stroke-linecap: square"/>
   </g>
   <g id="patch_5">
    <path d="M 46.267062 39.474357 
L 429.59952 39.474357 
" style="fill: none; stroke: #000000; stroke-width: 0.8; stroke-linejoin: miter; stroke-linecap: square"/>
   </g>
   <g id="patch_6">
    <path d="M 46.267062 13.238995 
L 429.59952 13.238995 
" style="fill: none; stroke: #000000; stroke-width: 0.8; stroke-linejoin: miter; stroke-linecap: square"/>
   </g>
   <g id="text_3">
    <!-- a) -->
    <g transform="translate(50.100387 28.980212) scale(0.1 -0.1)">
     <defs>
      <path id="CMR17-61" d="M 2304 1653 
C 2304 2072 2304 2294 2035 2543 
C 1798 2752 1523 2816 1306 2816 
C 800 2816 435 2407 435 1971 
C 435 1728 627 1728 666 1728 
C 749 1728 896 1778 896 1954 
C 896 2112 774 2181 666 2181 
C 640 2181 608 2174 589 2168 
C 723 2592 1069 2714 1293 2714 
C 1613 2714 1965 2429 1965 1885 
L 1965 1600 
C 1587 1600 1133 1549 774 1357 
C 371 1133 256 813 256 570 
C 256 77 832 -64 1171 -64 
C 1523 -64 1850 139 1990 511 
C 2003 233 2182 -18 2464 -18 
C 2598 -18 2938 70 2938 567 
L 2938 920 
L 2822 920 
L 2822 562 
C 2822 178 2650 128 2566 128 
C 2304 128 2304 458 2304 738 
L 2304 1653 
z
M 1965 870 
C 1965 317 1568 38 1216 38 
C 896 38 646 275 646 570 
C 646 761 730 1100 1101 1305 
C 1408 1478 1760 1504 1965 1504 
L 1965 870 
z
" transform="scale(0.015625)"/>
      <path id="CMR17-29" d="M 1683 1581 
C 1683 2040 1638 2817 1254 3639 
C 947 4303 422 4768 346 4768 
C 326 4768 301 4761 301 4729 
C 301 4717 307 4710 314 4697 
C 621 4378 1402 3568 1402 1584 
C 1402 -407 627 -1217 314 -1537 
C 307 -1549 301 -1556 301 -1568 
C 301 -1600 326 -1600 346 -1600 
C 416 -1600 960 -1128 1274 -426 
C 1594 281 1683 969 1683 1581 
z
" transform="scale(0.015625)"/>
     </defs>
     <use xlink:href="#CMR17-61" transform="scale(0.996264)"/>
     <use xlink:href="#CMR17-29" transform="translate(45.690477 0) scale(0.996264)"/>
    </g>
   </g>
   <g id="legend_1">
    <g id="patch_7">
     <path d="M 368.737016 34.474357 
L 422.59952 34.474357 
Q 424.59952 34.474357 424.59952 32.474357 
L 424.59952 5.6 
Q 424.59952 3.6 422.59952 3.6 
L 368.737016 3.6 
Q 366.737016 3.6 366.737016 5.6 
L 366.737016 32.474357 
Q 366.737016 34.474357 368.737016 34.474357 
z
" style="fill: #ffffff; opacity: 0.8; stroke: #cccccc; stroke-linejoin: miter"/>
    </g>
    <g id="line2d_21">
     <path d="M 370.737016 11.1 
L 380.737016 11.1 
L 390.737016 11.1 
" style="fill: none; stroke: #113b6c; stroke-width: 1.5; stroke-linecap: square"/>
    </g>
    <g id="text_4">
     <!-- APD -->
     <g transform="translate(398.737016 14.6) scale(0.1 -0.1)">
      <defs>
       <path id="CMR17-41" d="M 2323 4378 
C 2291 4461 2278 4480 2214 4480 
C 2150 4480 2138 4461 2106 4378 
L 749 566 
C 627 223 371 153 147 153 
L 147 -13 
C 262 0 518 0 640 0 
C 800 0 1056 0 1210 -13 
L 1210 153 
C 909 153 864 361 864 439 
C 864 497 877 530 890 569 
L 1229 1536 
L 2906 1536 
L 3290 442 
C 3322 365 3322 352 3322 327 
C 3322 153 3046 153 2925 153 
L 2925 0 
C 3110 0 3443 0 3642 0 
C 3808 0 4128 0 4282 -13 
L 4282 153 
C 3942 153 3827 153 3744 387 
L 2323 4378 
z
M 2067 3893 
L 2848 1702 
L 1286 1702 
L 2067 3893 
z
" transform="scale(0.015625)"/>
       <path id="CMR17-50" d="M 1267 2042 
L 2291 2042 
C 3117 2042 3718 2578 3718 3184 
C 3718 3791 3130 4352 2291 4352 
L 333 4352 
L 333 4186 
C 774 4186 845 4186 845 3899 
L 845 446 
C 845 160 774 160 333 160 
L 333 0 
C 518 0 858 0 1056 0 
C 1254 0 1594 0 1779 0 
L 1779 160 
C 1338 160 1267 160 1267 446 
L 1267 2042 
z
M 1254 2176 
L 1254 3938 
C 1254 4155 1267 4186 1523 4186 
L 2170 4186 
C 2995 4186 3232 3714 3232 3184 
C 3232 2604 2950 2176 2170 2176 
L 1254 2176 
z
" transform="scale(0.015625)"/>
       <path id="CMR17-44" d="M 333 4352 
L 333 4186 
C 774 4186 845 4186 845 3900 
L 845 452 
C 845 166 774 166 333 166 
L 333 0 
L 2368 0 
C 3398 0 4224 943 4224 2141 
C 4224 3346 3411 4352 2368 4352 
L 333 4352 
z
M 1523 166 
C 1267 166 1254 197 1254 414 
L 1254 3938 
C 1254 4155 1267 4186 1523 4186 
L 2240 4186 
C 2771 4186 3750 3874 3750 2141 
C 3750 1242 3488 879 3366 707 
C 3213 510 2848 166 2240 166 
L 1523 166 
z
" transform="scale(0.015625)"/>
      </defs>
      <use xlink:href="#CMR17-41" transform="scale(0.996264)"/>
      <use xlink:href="#CMR17-50" transform="translate(69.07243 0) scale(0.996264)"/>
      <use xlink:href="#CMR17-44" transform="translate(131.65873 0) scale(0.996264)"/>
     </g>
    </g>
    <g id="line2d_22">
     <path d="M 370.737016 25.037178 
L 380.737016 25.037178 
L 390.737016 25.037178 
" style="fill: none; stroke: #4fb068; stroke-width: 1.5; stroke-linecap: square"/>
    </g>
    <g id="text_5">
     <!-- SPD -->
     <g transform="translate(398.737016 28.537178) scale(0.1 -0.1)">
      <defs>
       <path id="CMR17-53" d="M 2803 4290 
C 2803 4404 2797 4411 2758 4411 
C 2720 4411 2707 4385 2682 4328 
L 2490 3907 
C 2246 4257 1875 4416 1472 4416 
C 819 4416 294 3901 294 3253 
C 294 3056 339 2776 557 2510 
C 794 2218 1018 2167 1530 2033 
C 1722 1982 2042 1899 2106 1874 
C 2470 1722 2662 1341 2662 985 
C 2662 527 2336 38 1779 38 
C 1094 38 454 419 410 1311 
C 403 1413 397 1419 352 1419 
C 301 1419 294 1413 294 1285 
L 294 -1 
C 294 -115 301 -122 339 -122 
C 384 -122 397 -90 486 108 
C 493 127 493 140 614 381 
C 934 -39 1472 -128 1779 -128 
C 2477 -128 2970 451 2970 1124 
C 2970 1454 2848 1708 2778 1823 
C 2509 2230 2221 2306 1914 2382 
C 1869 2402 1856 2402 1498 2490 
C 1152 2579 1005 2624 845 2796 
C 666 2992 602 3196 602 3399 
C 602 3812 934 4263 1478 4263 
C 2157 4263 2579 3786 2675 2993 
C 2694 2878 2701 2872 2746 2872 
C 2803 2872 2803 2891 2803 2999 
L 2803 4290 
z
" transform="scale(0.015625)"/>
      </defs>
      <use xlink:href="#CMR17-53" transform="scale(0.996264)"/>
      <use xlink:href="#CMR17-50" transform="translate(50.89537 0) scale(0.996264)"/>
      <use xlink:href="#CMR17-44" transform="translate(113.48167 0) scale(0.996264)"/>
     </g>
    </g>
   </g>
  </g>
  <g id="axes_2">
   <g id="patch_8">
    <path d="M 46.267062 75.833021 
L 429.59952 75.833021 
L 429.59952 49.597659 
L 46.267062 49.597659 
z
" style="fill: #ffffff"/>
   </g>
   <g id="matplotlib.axis_3">
    <g id="xtick_8">
     <g id="line2d_23">
      <path d="M 63.691265 75.833021 
L 63.691265 49.597659 
" clip-path="url(#p8e0d2857fd)" style="fill: none; stroke: #b0b0b0; stroke-opacity: 0.5; stroke-width: 0.8; stroke-linecap: square"/>
     </g>
     <g id="line2d_24">
      <g>
       <use xlink:href="#mc21dba08f4" x="63.691265" y="75.833021" style="stroke: #000000; stroke-width: 0.8"/>
      </g>
     </g>
    </g>
    <g id="xtick_9">
     <g id="line2d_25">
      <path d="M 119.448713 75.833021 
L 119.448713 49.597659 
" clip-path="url(#p8e0d2857fd)" style="fill: none; stroke: #b0b0b0; stroke-opacity: 0.5; stroke-width: 0.8; stroke-linecap: square"/>
     </g>
     <g id="line2d_26">
      <g>
       <use xlink:href="#mc21dba08f4" x="119.448713" y="75.833021" style="stroke: #000000; stroke-width: 0.8"/>
      </g>
     </g>
    </g>
    <g id="xtick_10">
     <g id="line2d_27">
      <path d="M 175.206162 75.833021 
L 175.206162 49.597659 
" clip-path="url(#p8e0d2857fd)" style="fill: none; stroke: #b0b0b0; stroke-opacity: 0.5; stroke-width: 0.8; stroke-linecap: square"/>
     </g>
     <g id="line2d_28">
      <g>
       <use xlink:href="#mc21dba08f4" x="175.206162" y="75.833021" style="stroke: #000000; stroke-width: 0.8"/>
      </g>
     </g>
    </g>
    <g id="xtick_11">
     <g id="line2d_29">
      <path d="M 230.96361 75.833021 
L 230.96361 49.597659 
" clip-path="url(#p8e0d2857fd)" style="fill: none; stroke: #b0b0b0; stroke-opacity: 0.5; stroke-width: 0.8; stroke-linecap: square"/>
     </g>
     <g id="line2d_30">
      <g>
       <use xlink:href="#mc21dba08f4" x="230.96361" y="75.833021" style="stroke: #000000; stroke-width: 0.8"/>
      </g>
     </g>
    </g>
    <g id="xtick_12">
     <g id="line2d_31">
      <path d="M 286.721059 75.833021 
L 286.721059 49.597659 
" clip-path="url(#p8e0d2857fd)" style="fill: none; stroke: #b0b0b0; stroke-opacity: 0.5; stroke-width: 0.8; stroke-linecap: square"/>
     </g>
     <g id="line2d_32">
      <g>
       <use xlink:href="#mc21dba08f4" x="286.721059" y="75.833021" style="stroke: #000000; stroke-width: 0.8"/>
      </g>
     </g>
    </g>
    <g id="xtick_13">
     <g id="line2d_33">
      <path d="M 342.478507 75.833021 
L 342.478507 49.597659 
" clip-path="url(#p8e0d2857fd)" style="fill: none; stroke: #b0b0b0; stroke-opacity: 0.5; stroke-width: 0.8; stroke-linecap: square"/>
     </g>
     <g id="line2d_34">
      <g>
       <use xlink:href="#mc21dba08f4" x="342.478507" y="75.833021" style="stroke: #000000; stroke-width: 0.8"/>
      </g>
     </g>
    </g>
    <g id="xtick_14">
     <g id="line2d_35">
      <path d="M 398.235955 75.833021 
L 398.235955 49.597659 
" clip-path="url(#p8e0d2857fd)" style="fill: none; stroke: #b0b0b0; stroke-opacity: 0.5; stroke-width: 0.8; stroke-linecap: square"/>
     </g>
     <g id="line2d_36">
      <g>
       <use xlink:href="#mc21dba08f4" x="398.235955" y="75.833021" style="stroke: #000000; stroke-width: 0.8"/>
      </g>
     </g>
    </g>
   </g>
   <g id="matplotlib.axis_4">
    <g id="ytick_3">
     <g id="line2d_37">
      <path d="M 46.267062 74.693742 
L 429.59952 74.693742 
" clip-path="url(#p8e0d2857fd)" style="fill: none; stroke: #b0b0b0; stroke-opacity: 0.5; stroke-width: 0.8; stroke-linecap: square"/>
     </g>
     <g id="line2d_38">
      <g>
       <use xlink:href="#m6a66ad8c7d" x="46.267062" y="74.693742" style="stroke: #000000; stroke-width: 0.8"/>
      </g>
     </g>
     <g id="text_6">
      <!-- $\mathdefault{0}$ -->
      <g transform="translate(34.285727 78.152991) scale(0.1 -0.1)">
       <use xlink:href="#CMR17-30" transform="scale(0.996264)"/>
      </g>
     </g>
    </g>
    <g id="ytick_4">
     <g id="line2d_39">
      <path d="M 46.267062 60.055855 
L 429.59952 60.055855 
" clip-path="url(#p8e0d2857fd)" style="fill: none; stroke: #b0b0b0; stroke-opacity: 0.5; stroke-width: 0.8; stroke-linecap: square"/>
     </g>
     <g id="line2d_40">
      <g>
       <use xlink:href="#m6a66ad8c7d" x="46.267062" y="60.055855" style="stroke: #000000; stroke-width: 0.8"/>
      </g>
     </g>
     <g id="text_7">
      <!-- $\mathdefault{25}$ -->
      <g transform="translate(29.304392 63.515105) scale(0.1 -0.1)">
       <use xlink:href="#CMR17-32" transform="scale(0.996264)"/>
       <use xlink:href="#CMR17-35" transform="translate(45.690477 0) scale(0.996264)"/>
      </g>
     </g>
    </g>
   </g>
   <g id="line2d_41">
    <path d="M 63.691265 73.129845 
L 69.179203 73.81769 
L 74.667141 74.35353 
L 80.155078 74.469822 
L 85.643016 74.549669 
L 91.130954 74.463024 
L 96.618892 74.382154 
L 102.10683 74.464274 
L 107.594768 74.370135 
L 113.082705 74.333176 
L 118.570643 74.351726 
L 124.058581 74.566327 
L 129.546519 74.55675 
L 135.034457 74.446907 
L 140.522395 74.640505 
L 146.010332 74.357814 
L 151.49827 74.426136 
L 156.986208 74.367526 
L 162.474146 74.337041 
L 167.962084 73.645899 
L 173.450022 74.587513 
L 178.937959 73.982912 
L 184.425897 73.360563 
L 189.913835 72.660484 
L 195.401773 71.798461 
L 200.889711 72.818073 
L 206.377649 72.961077 
L 211.865586 73.346869 
L 217.353524 72.659598 
L 222.841462 72.881232 
L 228.3294 67.946746 
L 233.817338 57.940915 
L 239.305276 54.211694 
L 244.793213 50.790176 
L 250.281151 72.038483 
L 255.769089 72.724406 
L 261.257027 74.208215 
L 266.744965 73.263798 
L 272.232903 72.914884 
L 277.72084 73.148596 
L 283.208778 72.416731 
L 288.696716 73.464734 
L 294.184654 72.880062 
L 299.672592 73.83984 
L 305.16053 73.527992 
L 310.648467 73.639758 
L 316.136405 71.591342 
L 321.624343 71.485189 
L 327.112281 73.052568 
L 332.600219 70.580075 
L 338.088157 72.794655 
L 343.576094 73.670558 
L 349.064032 74.432075 
L 354.55197 74.457091 
L 360.039908 74.617634 
L 365.527846 74.4989 
L 371.015784 74.383454 
L 376.503721 74.456864 
L 381.991659 74.440872 
L 387.479597 74.556014 
L 392.967535 74.549044 
L 398.455473 74.502339 
L 403.943411 74.41668 
L 409.431348 74.513611 
" clip-path="url(#p8e0d2857fd)" style="fill: none; stroke: #113b6c; stroke-width: 1.5; stroke-linecap: square"/>
   </g>
   <g id="line2d_42">
    <path d="M 63.691265 74.078512 
L 69.094118 73.684495 
L 74.496972 74.03776 
L 79.899826 74.155819 
L 85.302679 74.261002 
L 90.705533 74.425353 
L 96.108386 73.370969 
L 101.51124 73.909378 
L 106.914093 74.30004 
L 112.316947 74.430951 
L 117.7198 74.560237 
L 123.122654 74.37289 
L 128.525507 74.453638 
L 133.928361 74.317652 
L 139.331214 73.914447 
L 144.734068 73.175598 
L 150.136921 71.47413 
L 155.539775 64.648899 
L 160.942628 71.760907 
L 166.345482 73.000805 
L 171.748335 72.388226 
L 177.151189 73.795124 
L 182.554043 73.5843 
L 187.956896 73.090927 
L 193.35975 70.796634 
L 198.762603 72.896881 
L 204.165457 74.201778 
L 209.56831 74.342012 
L 214.971164 74.404457 
L 220.374017 73.865486 
L 225.776871 72.275394 
L 231.179724 71.541778 
L 236.582578 66.610786 
L 241.985431 56.897493 
L 247.388285 67.598823 
L 252.791138 70.031582 
L 258.193992 69.526969 
L 263.596845 71.304983 
L 268.999699 72.802587 
L 274.402552 73.054988 
L 279.805406 72.655997 
L 285.20826 73.956508 
L 290.611113 73.877872 
L 296.013967 73.660079 
L 301.41682 74.145235 
L 306.819674 74.085924 
L 312.222527 73.321284 
L 317.625381 74.475114 
L 323.028234 74.082723 
L 328.431088 73.806671 
L 333.833941 73.467868 
L 339.236795 72.712451 
L 344.639648 72.524899 
L 350.042502 74.230756 
L 355.445355 74.111647 
L 360.848209 74.521782 
L 366.251062 74.183391 
L 371.653916 73.965626 
L 377.056769 74.279186 
L 382.459623 73.538293 
L 387.862477 74.405052 
L 393.26533 74.184796 
L 398.668184 74.471605 
L 404.071037 74.439428 
L 409.473891 74.599357 
" clip-path="url(#p8e0d2857fd)" style="fill: none; stroke: #4fb068; stroke-width: 1.5; stroke-linecap: square"/>
   </g>
   <g id="patch_9">
    <path d="M 46.267062 75.833021 
L 46.267062 49.597659 
" style="fill: none; stroke: #000000; stroke-width: 0.8; stroke-linejoin: miter; stroke-linecap: square"/>
   </g>
   <g id="patch_10">
    <path d="M 429.59952 75.833021 
L 429.59952 49.597659 
" style="fill: none; stroke: #000000; stroke-width: 0.8; stroke-linejoin: miter; stroke-linecap: square"/>
   </g>
   <g id="patch_11">
    <path d="M 46.267062 75.833021 
L 429.59952 75.833021 
" style="fill: none; stroke: #000000; stroke-width: 0.8; stroke-linejoin: miter; stroke-linecap: square"/>
   </g>
   <g id="patch_12">
    <path d="M 46.267062 49.597659 
L 429.59952 49.597659 
" style="fill: none; stroke: #000000; stroke-width: 0.8; stroke-linejoin: miter; stroke-linecap: square"/>
   </g>
   <g id="text_8">
    <!-- b) -->
    <g transform="translate(50.100387 65.338876) scale(0.1 -0.1)">
     <defs>
      <path id="CMR17-62" d="M 960 4396 
L 198 4326 
L 198 4160 
C 576 4160 634 4122 634 3817 
L 634 -13 
L 749 -13 
L 934 441 
C 1120 141 1395 -64 1766 -64 
C 2406 -64 3053 500 3053 1370 
C 3053 2188 2477 2790 1830 2790 
C 1434 2790 1152 2579 960 2330 
L 960 4396 
z
M 973 2004 
C 973 2118 973 2138 1062 2272 
C 1312 2657 1670 2688 1792 2688 
C 1984 2688 2643 2585 2643 1376 
C 2643 108 1888 38 1734 38 
C 1536 38 1248 114 1043 486 
C 973 608 973 621 973 735 
L 973 2004 
z
" transform="scale(0.015625)"/>
     </defs>
     <use xlink:href="#CMR17-62" transform="scale(0.996264)"/>
     <use xlink:href="#CMR17-29" transform="translate(50.89537 0) scale(0.996264)"/>
    </g>
   </g>
  </g>
  <g id="axes_3">
   <g id="patch_13">
    <path d="M 46.267062 113.565145 
L 429.59952 113.565145 
L 429.59952 87.329783 
L 46.267062 87.329783 
z
" style="fill: #ffffff"/>
   </g>
   <g id="matplotlib.axis_5">
    <g id="xtick_15">
     <g id="line2d_43">
      <path d="M 63.691265 113.565145 
L 63.691265 87.329783 
" clip-path="url(#pd030603063)" style="fill: none; stroke: #b0b0b0; stroke-opacity: 0.5; stroke-width: 0.8; stroke-linecap: square"/>
     </g>
     <g id="line2d_44">
      <g>
       <use xlink:href="#mc21dba08f4" x="63.691265" y="113.565145" style="stroke: #000000; stroke-width: 0.8"/>
      </g>
     </g>
     <g id="text_9">
      <!-- $\mathdefault{0}$ -->
      <g transform="translate(61.200597 127.483643) scale(0.1 -0.1)">
       <use xlink:href="#CMR17-30" transform="scale(0.996264)"/>
      </g>
     </g>
    </g>
    <g id="xtick_16">
     <g id="line2d_45">
      <path d="M 119.448713 113.565145 
L 119.448713 87.329783 
" clip-path="url(#pd030603063)" style="fill: none; stroke: #b0b0b0; stroke-opacity: 0.5; stroke-width: 0.8; stroke-linecap: square"/>
     </g>
     <g id="line2d_46">
      <g>
       <use xlink:href="#mc21dba08f4" x="119.448713" y="113.565145" style="stroke: #000000; stroke-width: 0.8"/>
      </g>
     </g>
     <g id="text_10">
      <!-- $\mathdefault{10}$ -->
      <g transform="translate(114.467378 127.483643) scale(0.1 -0.1)">
       <defs>
        <path id="CMR17-31" d="M 1702 4058 
C 1702 4192 1696 4192 1606 4192 
C 1357 3916 979 3827 621 3827 
C 602 3827 570 3827 563 3808 
C 557 3795 557 3782 557 3648 
C 755 3648 1088 3686 1344 3839 
L 1344 461 
C 1344 236 1331 160 781 160 
L 589 160 
L 589 0 
C 896 0 1216 0 1523 0 
C 1830 0 2150 0 2458 0 
L 2458 160 
L 2266 160 
C 1715 160 1702 230 1702 458 
L 1702 4058 
z
" transform="scale(0.015625)"/>
       </defs>
       <use xlink:href="#CMR17-31" transform="scale(0.996264)"/>
       <use xlink:href="#CMR17-30" transform="translate(45.690477 0) scale(0.996264)"/>
      </g>
     </g>
    </g>
    <g id="xtick_17">
     <g id="line2d_47">
      <path d="M 175.206162 113.565145 
L 175.206162 87.329783 
" clip-path="url(#pd030603063)" style="fill: none; stroke: #b0b0b0; stroke-opacity: 0.5; stroke-width: 0.8; stroke-linecap: square"/>
     </g>
     <g id="line2d_48">
      <g>
       <use xlink:href="#mc21dba08f4" x="175.206162" y="113.565145" style="stroke: #000000; stroke-width: 0.8"/>
      </g>
     </g>
     <g id="text_11">
      <!-- $\mathdefault{20}$ -->
      <g transform="translate(170.224826 127.483643) scale(0.1 -0.1)">
       <use xlink:href="#CMR17-32" transform="scale(0.996264)"/>
       <use xlink:href="#CMR17-30" transform="translate(45.690477 0) scale(0.996264)"/>
      </g>
     </g>
    </g>
    <g id="xtick_18">
     <g id="line2d_49">
      <path d="M 230.96361 113.565145 
L 230.96361 87.329783 
" clip-path="url(#pd030603063)" style="fill: none; stroke: #b0b0b0; stroke-opacity: 0.5; stroke-width: 0.8; stroke-linecap: square"/>
     </g>
     <g id="line2d_50">
      <g>
       <use xlink:href="#mc21dba08f4" x="230.96361" y="113.565145" style="stroke: #000000; stroke-width: 0.8"/>
      </g>
     </g>
     <g id="text_12">
      <!-- $\mathdefault{30}$ -->
      <g transform="translate(225.982275 127.483643) scale(0.1 -0.1)">
       <defs>
        <path id="CMR17-33" d="M 1414 2157 
C 1984 2157 2234 1662 2234 1090 
C 2234 320 1824 25 1453 25 
C 1114 25 563 194 390 693 
C 422 680 454 680 486 680 
C 640 680 755 782 755 948 
C 755 1133 614 1216 486 1216 
C 378 1216 211 1165 211 926 
C 211 335 787 -128 1466 -128 
C 2176 -128 2720 430 2720 1085 
C 2720 1707 2208 2157 1600 2227 
C 2086 2328 2554 2756 2554 3329 
C 2554 3820 2048 4179 1472 4179 
C 890 4179 378 3829 378 3329 
C 378 3110 544 3072 627 3072 
C 762 3072 877 3155 877 3321 
C 877 3486 762 3569 627 3569 
C 602 3569 570 3569 544 3557 
C 730 3959 1235 4032 1459 4032 
C 1683 4032 2106 3925 2106 3320 
C 2106 3143 2080 2828 1862 2550 
C 1670 2304 1453 2304 1242 2284 
C 1210 2284 1062 2269 1037 2269 
C 992 2263 966 2257 966 2208 
C 966 2163 973 2157 1101 2157 
L 1414 2157 
z
" transform="scale(0.015625)"/>
       </defs>
       <use xlink:href="#CMR17-33" transform="scale(0.996264)"/>
       <use xlink:href="#CMR17-30" transform="translate(45.690477 0) scale(0.996264)"/>
      </g>
     </g>
    </g>
    <g id="xtick_19">
     <g id="line2d_51">
      <path d="M 286.721059 113.565145 
L 286.721059 87.329783 
" clip-path="url(#pd030603063)" style="fill: none; stroke: #b0b0b0; stroke-opacity: 0.5; stroke-width: 0.8; stroke-linecap: square"/>
     </g>
     <g id="line2d_52">
      <g>
       <use xlink:href="#mc21dba08f4" x="286.721059" y="113.565145" style="stroke: #000000; stroke-width: 0.8"/>
      </g>
     </g>
     <g id="text_13">
      <!-- $\mathdefault{40}$ -->
      <g transform="translate(281.739723 127.483643) scale(0.1 -0.1)">
       <defs>
        <path id="CMR17-34" d="M 2150 4122 
C 2150 4256 2144 4256 2029 4256 
L 128 1254 
L 128 1088 
L 1779 1088 
L 1779 457 
C 1779 224 1766 160 1318 160 
L 1197 160 
L 1197 0 
C 1402 0 1747 0 1965 0 
C 2182 0 2528 0 2733 0 
L 2733 160 
L 2611 160 
C 2163 160 2150 224 2150 457 
L 2150 1088 
L 2803 1088 
L 2803 1254 
L 2150 1254 
L 2150 4122 
z
M 1798 3703 
L 1798 1254 
L 256 1254 
L 1798 3703 
z
" transform="scale(0.015625)"/>
       </defs>
       <use xlink:href="#CMR17-34" transform="scale(0.996264)"/>
       <use xlink:href="#CMR17-30" transform="translate(45.690477 0) scale(0.996264)"/>
      </g>
     </g>
    </g>
    <g id="xtick_20">
     <g id="line2d_53">
      <path d="M 342.478507 113.565145 
L 342.478507 87.329783 
" clip-path="url(#pd030603063)" style="fill: none; stroke: #b0b0b0; stroke-opacity: 0.5; stroke-width: 0.8; stroke-linecap: square"/>
     </g>
     <g id="line2d_54">
      <g>
       <use xlink:href="#mc21dba08f4" x="342.478507" y="113.565145" style="stroke: #000000; stroke-width: 0.8"/>
      </g>
     </g>
     <g id="text_14">
      <!-- $\mathdefault{50}$ -->
      <g transform="translate(337.497172 127.483643) scale(0.1 -0.1)">
       <use xlink:href="#CMR17-35" transform="scale(0.996264)"/>
       <use xlink:href="#CMR17-30" transform="translate(45.690477 0) scale(0.996264)"/>
      </g>
     </g>
    </g>
    <g id="xtick_21">
     <g id="line2d_55">
      <path d="M 398.235955 113.565145 
L 398.235955 87.329783 
" clip-path="url(#pd030603063)" style="fill: none; stroke: #b0b0b0; stroke-opacity: 0.5; stroke-width: 0.8; stroke-linecap: square"/>
     </g>
     <g id="line2d_56">
      <g>
       <use xlink:href="#mc21dba08f4" x="398.235955" y="113.565145" style="stroke: #000000; stroke-width: 0.8"/>
      </g>
     </g>
     <g id="text_15">
      <!-- $\mathdefault{60}$ -->
      <g transform="translate(393.25462 127.483643) scale(0.1 -0.1)">
       <defs>
        <path id="CMR17-36" d="M 678 2176 
C 678 3690 1395 4032 1811 4032 
C 1946 4032 2272 4009 2400 3776 
C 2298 3776 2106 3776 2106 3553 
C 2106 3381 2246 3323 2336 3323 
C 2394 3323 2566 3348 2566 3560 
C 2566 3954 2246 4179 1805 4179 
C 1043 4179 243 3390 243 1984 
C 243 253 966 -128 1478 -128 
C 2099 -128 2688 427 2688 1283 
C 2688 2081 2170 2662 1517 2662 
C 1126 2662 838 2407 678 1960 
L 678 2176 
z
M 1478 25 
C 691 25 691 1200 691 1436 
C 691 1896 909 2560 1504 2560 
C 1613 2560 1926 2560 2138 2120 
C 2253 1870 2253 1609 2253 1289 
C 2253 944 2253 690 2118 434 
C 1978 171 1773 25 1478 25 
z
" transform="scale(0.015625)"/>
       </defs>
       <use xlink:href="#CMR17-36" transform="scale(0.996264)"/>
       <use xlink:href="#CMR17-30" transform="translate(45.690477 0) scale(0.996264)"/>
      </g>
     </g>
    </g>
    <g id="text_16">
     <!-- Frequency / Hz -->
     <g transform="translate(203.94957 140.892802) scale(0.1 -0.1)">
      <defs>
       <path id="CMR17-46" d="M 3482 4325 
L 326 4325 
L 326 4160 
C 768 4160 838 4160 838 3874 
L 838 446 
C 838 160 768 160 326 160 
L 326 0 
C 512 0 870 0 1069 0 
C 1331 0 1638 0 1901 0 
L 1901 160 
L 1760 160 
C 1274 160 1261 223 1261 452 
L 1261 2075 
L 1837 2075 
C 2432 2075 2490 1865 2490 1332 
L 2605 1332 
L 2605 2987 
L 2490 2987 
C 2490 2450 2432 2240 1837 2240 
L 1261 2240 
L 1261 3911 
C 1261 4128 1274 4160 1530 4160 
L 2355 4160 
C 3322 4160 3430 3765 3520 2916 
L 3635 2916 
L 3482 4325 
z
" transform="scale(0.015625)"/>
       <path id="CMR17-72" d="M 960 1497 
C 960 2112 1222 2688 1702 2688 
C 1747 2688 1792 2682 1837 2662 
C 1837 2662 1696 2617 1696 2452 
C 1696 2298 1818 2234 1914 2234 
C 1990 2234 2131 2279 2131 2458 
C 2131 2663 1926 2790 1709 2790 
C 1222 2790 1011 2317 947 2093 
L 941 2093 
L 941 2790 
L 198 2720 
L 198 2554 
C 576 2554 634 2515 634 2208 
L 634 428 
C 634 184 608 153 198 153 
L 198 -13 
C 352 0 646 0 813 0 
C 998 0 1325 0 1498 -13 
L 1498 153 
C 1037 153 960 153 960 440 
L 960 1497 
z
" transform="scale(0.015625)"/>
       <path id="CMR17-65" d="M 2438 1472 
C 2464 1498 2464 1511 2464 1576 
C 2464 2238 2118 2816 1389 2816 
C 710 2816 173 2169 173 1383 
C 173 551 781 -64 1459 -64 
C 2176 -64 2458 607 2458 740 
C 2458 784 2419 784 2406 784 
C 2362 784 2355 771 2330 696 
C 2189 265 1837 51 1504 51 
C 1229 51 954 203 781 480 
C 582 803 582 1176 582 1472 
L 2438 1472 
z
M 589 1568 
C 634 2505 1126 2714 1382 2714 
C 1818 2714 2112 2297 2118 1568 
L 589 1568 
z
" transform="scale(0.015625)"/>
       <path id="CMR17-71" d="M 2630 2802 
L 2528 2802 
L 2336 2172 
C 2189 2509 1920 2802 1491 2802 
C 838 2802 211 2223 211 1383 
C 211 548 800 -38 1440 -38 
C 1933 -38 2208 338 2291 478 
L 2291 -789 
C 2291 -1031 2266 -1063 1856 -1063 
L 1856 -1228 
C 2010 -1216 2291 -1216 2458 -1216 
C 2624 -1216 2912 -1216 3066 -1228 
L 3066 -1063 
C 2656 -1063 2630 -1037 2630 -789 
L 2630 2802 
z
M 2304 886 
C 2304 612 2074 357 2054 338 
C 1856 115 1626 64 1472 64 
C 992 64 621 669 621 1375 
C 621 2121 1043 2688 1536 2688 
C 2048 2688 2304 2108 2304 1777 
L 2304 886 
z
" transform="scale(0.015625)"/>
       <path id="CMR17-75" d="M 1882 2693 
L 1882 2528 
C 2259 2528 2317 2489 2317 2186 
L 2317 1032 
C 2317 500 2029 38 1555 38 
C 1030 38 986 348 986 678 
L 986 2763 
L 211 2693 
L 211 2528 
C 467 2528 640 2528 646 2274 
L 646 1058 
C 646 633 646 361 813 183 
C 896 101 1056 -64 1517 -64 
C 2061 -64 2272 377 2323 506 
L 2330 506 
L 2330 -63 
L 3091 -63 
L 3091 128 
C 2714 128 2656 166 2656 473 
L 2656 2763 
L 1882 2693 
z
" transform="scale(0.015625)"/>
       <path id="CMR17-6e" d="M 2656 1933 
C 2656 2259 2592 2790 1837 2790 
C 1331 2790 1069 2400 973 2144 
L 966 2144 
L 966 2790 
L 211 2720 
L 211 2554 
C 589 2554 646 2515 646 2208 
L 646 428 
C 646 184 621 153 211 153 
L 211 -13 
C 365 0 646 0 813 0 
C 979 0 1267 0 1421 -13 
L 1421 153 
C 1011 153 986 178 986 428 
L 986 1658 
C 986 2247 1344 2688 1792 2688 
C 2266 2688 2317 2266 2317 1958 
L 2317 428 
C 2317 184 2291 153 1882 153 
L 1882 -13 
C 2035 0 2317 0 2483 0 
C 2650 0 2938 0 3091 -13 
L 3091 153 
C 2682 153 2656 178 2656 428 
L 2656 1933 
z
" transform="scale(0.015625)"/>
       <path id="CMR17-63" d="M 2234 2240 
C 2112 2240 1933 2240 1933 2017 
C 1933 1838 2080 1787 2163 1787 
C 2208 1787 2394 1807 2394 2024 
C 2394 2467 1958 2803 1466 2803 
C 787 2803 211 2178 211 1363 
C 211 516 813 -64 1466 -64 
C 2259 -64 2458 677 2458 748 
C 2458 774 2451 793 2406 793 
C 2362 793 2355 787 2330 703 
C 2163 180 1798 51 1523 51 
C 1114 51 621 427 621 1369 
C 621 2338 1094 2688 1472 2688 
C 1722 2688 2093 2573 2234 2240 
z
" transform="scale(0.015625)"/>
       <path id="CMR17-79" d="M 2496 2197 
C 2656 2586 2944 2586 3034 2586 
L 3034 2752 
C 2912 2752 2752 2752 2630 2752 
C 2496 2752 2285 2752 2157 2758 
L 2157 2592 
C 2400 2573 2406 2394 2406 2343 
C 2406 2280 2394 2248 2362 2171 
L 1664 449 
L 902 2306 
C 870 2382 870 2426 870 2433 
C 870 2573 1018 2586 1171 2586 
L 1171 2758 
C 1018 2752 742 2752 582 2752 
C 410 2752 205 2752 64 2758 
L 64 2586 
C 410 2586 448 2554 531 2350 
L 1485 15 
C 1197 -738 1030 -1178 627 -1178 
C 557 -1178 397 -1159 282 -1044 
C 429 -1031 493 -942 493 -833 
C 493 -725 416 -629 288 -629 
C 147 -629 77 -725 77 -840 
C 77 -1095 339 -1280 627 -1280 
C 998 -1280 1229 -922 1357 -604 
L 2496 2197 
z
" transform="scale(0.015625)"/>
       <path id="CMR17-2f" d="M 2605 4545 
C 2637 4627 2637 4640 2637 4653 
C 2637 4729 2579 4768 2528 4768 
C 2451 4768 2426 4717 2400 4640 
L 326 -1377 
C 294 -1460 294 -1473 294 -1486 
C 294 -1562 352 -1600 403 -1600 
C 480 -1600 506 -1549 531 -1473 
L 2605 4545 
z
" transform="scale(0.015625)"/>
       <path id="CMR17-48" d="M 3590 3905 
C 3590 4192 3661 4192 4102 4192 
L 4102 4352 
C 3917 4352 3578 4352 3379 4352 
C 3181 4352 2842 4352 2656 4352 
L 2656 4192 
C 3098 4192 3168 4192 3168 3904 
L 3168 2341 
L 1261 2341 
L 1261 3904 
C 1261 4192 1331 4192 1773 4192 
L 1773 4352 
C 1587 4352 1248 4352 1050 4352 
C 851 4352 512 4352 326 4352 
L 326 4192 
C 768 4192 838 4192 838 3905 
L 838 447 
C 838 160 768 160 326 160 
L 326 0 
C 512 0 851 0 1050 0 
C 1248 0 1587 0 1773 0 
L 1773 160 
C 1331 160 1261 160 1261 446 
L 1261 2176 
L 3168 2176 
L 3168 446 
C 3168 160 3098 160 2656 160 
L 2656 0 
C 2842 0 3181 0 3379 0 
C 3578 0 3917 0 4102 0 
L 4102 160 
C 3661 160 3590 160 3590 447 
L 3590 3905 
z
" transform="scale(0.015625)"/>
       <path id="CMR17-7a" d="M 2310 2605 
C 2362 2670 2362 2682 2362 2695 
C 2362 2752 2336 2752 2221 2752 
L 275 2752 
L 211 1760 
L 326 1760 
C 371 2381 442 2650 1178 2650 
L 1958 2650 
L 128 96 
C 128 0 134 0 269 0 
L 2291 0 
L 2381 1152 
L 2266 1152 
C 2214 442 2131 115 1350 115 
L 531 115 
L 2310 2605 
z
" transform="scale(0.015625)"/>
      </defs>
      <use xlink:href="#CMR17-46" transform="scale(0.996264)"/>
      <use xlink:href="#CMR17-72" transform="translate(52.176591 0) scale(0.996264)"/>
      <use xlink:href="#CMR17-65" transform="translate(87.457359 0) scale(0.996264)"/>
      <use xlink:href="#CMR17-71" transform="translate(127.943019 0) scale(0.996264)"/>
      <use xlink:href="#CMR17-75" transform="translate(176.235935 0) scale(0.996264)"/>
      <use xlink:href="#CMR17-65" transform="translate(227.131305 0) scale(0.996264)"/>
      <use xlink:href="#CMR17-6e" transform="translate(267.616966 0) scale(0.996264)"/>
      <use xlink:href="#CMR17-63" transform="translate(318.512335 0) scale(0.996264)"/>
      <use xlink:href="#CMR17-79" transform="translate(358.997996 0) scale(0.996264)"/>
      <use xlink:href="#CMR17-2f" transform="translate(437.366878 0) scale(0.996264)"/>
      <use xlink:href="#CMR17-48" transform="translate(513.133321 0) scale(0.996264)"/>
      <use xlink:href="#CMR17-7a" transform="translate(582.205751 0) scale(0.996264)"/>
     </g>
    </g>
   </g>
   <g id="matplotlib.axis_6">
    <g id="ytick_5">
     <g id="line2d_57">
      <path d="M 46.267062 112.400926 
L 429.59952 112.400926 
" clip-path="url(#pd030603063)" style="fill: none; stroke: #b0b0b0; stroke-opacity: 0.5; stroke-width: 0.8; stroke-linecap: square"/>
     </g>
     <g id="line2d_58">
      <g>
       <use xlink:href="#m6a66ad8c7d" x="46.267062" y="112.400926" style="stroke: #000000; stroke-width: 0.8"/>
      </g>
     </g>
     <g id="text_17">
      <!-- $\mathdefault{0}$ -->
      <g transform="translate(34.285727 115.860175) scale(0.1 -0.1)">
       <use xlink:href="#CMR17-30" transform="scale(0.996264)"/>
      </g>
     </g>
    </g>
    <g id="ytick_6">
     <g id="line2d_59">
      <path d="M 46.267062 89.336011 
L 429.59952 89.336011 
" clip-path="url(#pd030603063)" style="fill: none; stroke: #b0b0b0; stroke-opacity: 0.5; stroke-width: 0.8; stroke-linecap: square"/>
     </g>
     <g id="line2d_60">
      <g>
       <use xlink:href="#m6a66ad8c7d" x="46.267062" y="89.336011" style="stroke: #000000; stroke-width: 0.8"/>
      </g>
     </g>
     <g id="text_18">
      <!-- $\mathdefault{50}$ -->
      <g transform="translate(29.304392 92.795261) scale(0.1 -0.1)">
       <use xlink:href="#CMR17-35" transform="scale(0.996264)"/>
       <use xlink:href="#CMR17-30" transform="translate(45.690477 0) scale(0.996264)"/>
      </g>
     </g>
    </g>
   </g>
   <g id="line2d_61">
    <path d="M 63.691265 111.334027 
L 68.465019 111.220788 
L 73.238773 111.643673 
L 78.012527 111.913717 
L 82.786282 111.988458 
L 87.560036 112.054628 
L 92.33379 112.121668 
L 97.107544 112.073062 
L 101.881298 112.087298 
L 106.655052 112.086851 
L 111.428806 112.085897 
L 116.202561 112.008018 
L 120.976315 111.997048 
L 125.750069 112.013478 
L 130.523823 112.007244 
L 135.297577 112.001756 
L 140.071331 112.00514 
L 144.845085 111.971002 
L 149.61884 112.012923 
L 154.392594 112.04058 
L 159.166348 112.035578 
L 163.940102 112.039604 
L 168.713856 111.984659 
L 173.48761 112.040048 
L 178.261364 112.054409 
L 183.035119 112.074605 
L 187.808873 112.11616 
L 192.582627 112.06087 
L 197.356381 111.920356 
L 202.130135 111.562195 
L 206.903889 110.488128 
L 211.677643 111.197831 
L 216.451398 111.026488 
L 221.225152 110.795267 
L 225.998906 110.142113 
L 230.77266 110.131026 
L 235.546414 106.229496 
L 240.320168 88.5223 
L 245.093922 107.890109 
L 249.867677 110.543117 
L 254.641431 111.289408 
L 259.415185 111.690788 
L 264.188939 111.863906 
L 268.962693 111.977527 
L 273.736447 112.055089 
L 278.510201 112.067079 
L 283.283956 111.891623 
L 288.05771 111.817576 
L 292.831464 111.994009 
L 297.605218 112.031963 
L 302.378972 111.984598 
L 307.152726 111.960184 
L 311.92648 111.986729 
L 316.700235 111.994993 
L 321.473989 111.763458 
L 326.247743 111.774482 
L 331.021497 111.996909 
L 335.795251 111.869691 
L 340.569005 111.63529 
L 345.342759 111.836538 
L 350.116514 112.129886 
L 354.890268 112.249224 
L 359.664022 112.239962 
L 364.437776 112.292421 
L 369.21153 112.341894 
L 373.985284 112.372629 
L 378.759038 112.35905 
L 383.532793 112.355751 
L 388.306547 112.344258 
L 393.080301 112.363588 
L 397.854055 112.356671 
L 402.627809 112.320526 
L 407.401563 112.284872 
L 412.175317 112.266175 
" clip-path="url(#pd030603063)" style="fill: none; stroke: #113b6c; stroke-width: 1.5; stroke-linecap: square"/>
   </g>
   <g id="line2d_62">
    <path d="M 63.691265 109.031681 
L 70.591939 110.670558 
L 77.492614 111.565001 
L 84.393288 111.945303 
L 91.293962 112.075138 
L 98.194636 112.301577 
L 105.095311 112.144118 
L 111.995985 112.095469 
L 118.896659 112.089342 
L 125.797334 112.107027 
L 132.698008 112.206415 
L 139.598682 112.126254 
L 146.499357 112.194478 
L 153.400031 112.125169 
L 160.300705 112.031832 
L 167.20138 112.06827 
L 174.102054 111.942868 
L 181.002728 111.760006 
L 187.903402 111.440932 
L 194.804077 110.869049 
L 201.704751 111.208897 
L 208.605425 111.753644 
L 215.5061 110.898369 
L 222.406774 109.50779 
L 229.307448 105.680819 
L 236.208123 92.426206 
L 243.108797 103.050019 
L 250.009471 109.639242 
L 256.910146 110.932148 
L 263.81082 111.439256 
L 270.711494 111.761108 
L 277.612168 111.84895 
L 284.512843 112.02581 
L 291.413517 112.170847 
L 298.314191 112.107928 
L 305.214866 111.775048 
L 312.11554 111.887653 
L 319.016214 111.433093 
L 325.916889 111.539638 
L 332.817563 111.447429 
L 339.718237 110.872217 
L 346.618911 111.015939 
L 353.519586 111.612508 
L 360.42026 111.862986 
L 367.320934 111.990039 
L 374.221609 112.253204 
L 381.122283 112.3463 
L 388.022957 112.366788 
L 394.923632 112.306901 
L 401.824306 112.265318 
L 408.72498 112.331881 
" clip-path="url(#pd030603063)" style="fill: none; stroke: #4fb068; stroke-width: 1.5; stroke-linecap: square"/>
   </g>
   <g id="patch_14">
    <path d="M 46.267062 113.565145 
L 46.267062 87.329783 
" style="fill: none; stroke: #000000; stroke-width: 0.8; stroke-linejoin: miter; stroke-linecap: square"/>
   </g>
   <g id="patch_15">
    <path d="M 429.59952 113.565145 
L 429.59952 87.329783 
" style="fill: none; stroke: #000000; stroke-width: 0.8; stroke-linejoin: miter; stroke-linecap: square"/>
   </g>
   <g id="patch_16">
    <path d="M 46.267062 113.565145 
L 429.59952 113.565145 
" style="fill: none; stroke: #000000; stroke-width: 0.8; stroke-linejoin: miter; stroke-linecap: square"/>
   </g>
   <g id="patch_17">
    <path d="M 46.267062 87.329783 
L 429.59952 87.329783 
" style="fill: none; stroke: #000000; stroke-width: 0.8; stroke-linejoin: miter; stroke-linecap: square"/>
   </g>
   <g id="text_19">
    <!-- c) -->
    <g transform="translate(50.100387 103.071) scale(0.1 -0.1)">
     <use xlink:href="#CMR17-63" transform="scale(0.996264)"/>
     <use xlink:href="#CMR17-29" transform="translate(40.48566 0) scale(0.996264)"/>
    </g>
   </g>
  </g>
  <g id="text_20">
   <!-- $|\mathcal{F}\{\zeta^*\}|$ -->
   <g transform="translate(12.566376 93.946131) rotate(-90) scale(0.12 -0.12)">
    <defs>
     <path id="CMSY10-6a" d="M 1018 4570 
C 1018 4685 1018 4800 890 4800 
C 762 4800 762 4685 762 4570 
L 762 -1370 
C 762 -1485 762 -1600 890 -1600 
C 1018 -1600 1018 -1485 1018 -1370 
L 1018 4570 
z
" transform="scale(0.015625)"/>
     <path id="CMSY10-46" d="M 5312 4141 
C 5312 4435 4819 4391 4621 4391 
L 2208 4391 
C 1888 4391 1318 4205 1216 3859 
C 1229 3820 1242 3814 1280 3814 
C 1421 3814 1613 3933 1702 4032 
C 1901 4032 2093 4032 2291 4032 
L 2688 4032 
C 2688 4032 2662 3916 2662 3910 
C 2413 2741 2035 1751 1754 1125 
C 1715 1041 1370 243 1280 167 
C 998 167 787 319 672 568 
C 653 606 653 632 608 632 
C 461 632 109 428 109 320 
C 109 307 115 295 122 282 
C 237 -19 525 -192 838 -192 
C 1165 -192 1542 44 1747 280 
C 1958 523 2381 1569 2547 1952 
L 3782 1952 
C 3776 1945 3770 1939 3770 1932 
C 3770 1907 3808 1888 3834 1888 
C 3974 1888 4339 2067 4339 2266 
C 4339 2310 4294 2304 4218 2304 
L 2682 2304 
C 2848 2880 3066 3443 3181 4032 
L 4026 4032 
C 4186 4032 4634 4064 4749 3929 
C 4762 3888 4742 3821 4762 3788 
C 4774 3775 4794 3775 4813 3775 
C 4966 3775 5312 3967 5312 4141 
z
" transform="scale(0.015625)"/>
     <path id="CMSY10-66" d="M 1811 3962 
C 1811 4221 1978 4634 2675 4634 
C 2707 4642 2733 4672 2733 4718 
C 2733 4800 2682 4800 2611 4800 
C 1971 4800 1389 4471 1382 3993 
L 1382 2522 
C 1382 2270 1382 2063 1126 1851 
C 902 1664 659 1664 518 1664 
C 486 1657 461 1626 461 1580 
C 461 1504 499 1504 563 1504 
C 986 1504 1293 1274 1363 960 
C 1382 890 1382 877 1382 646 
L 1382 -621 
C 1382 -890 1382 -1094 1690 -1338 
C 1939 -1530 2362 -1600 2611 -1600 
C 2682 -1600 2733 -1600 2733 -1530 
C 2733 -1453 2694 -1453 2630 -1453 
C 2227 -1453 1914 -1248 1830 -920 
C 1811 -863 1811 -850 1811 -619 
L 1811 727 
C 1811 1023 1760 1132 1555 1337 
C 1421 1472 1235 1536 1056 1587 
C 1581 1736 1811 2034 1811 2409 
L 1811 3962 
z
" transform="scale(0.015625)"/>
     <path id="CMMI12-10" d="M 1210 339 
C 832 487 614 774 614 1254 
C 614 2131 1261 3302 2048 3756 
C 2163 3648 2310 3648 2432 3648 
C 2592 3648 2982 3648 2982 3820 
C 2982 3961 2694 3961 2490 3961 
C 2362 3961 2253 3961 2086 3897 
C 2048 3980 2029 4068 2029 4163 
C 2029 4277 2054 4365 2054 4384 
C 2054 4422 2022 4448 1990 4448 
C 1888 4448 1888 4212 1888 4161 
C 1888 4104 1888 3971 1965 3837 
C 1222 3455 288 2265 288 1076 
C 288 204 870 0 1203 -115 
C 1286 -140 1491 -210 1574 -242 
C 1837 -331 2086 -414 2086 -719 
C 2086 -904 1952 -1152 1715 -1152 
C 1587 -1152 1414 -1108 1254 -947 
C 1229 -922 1216 -909 1184 -909 
C 1133 -909 1120 -960 1120 -973 
C 1120 -1037 1395 -1280 1715 -1280 
C 2125 -1280 2406 -851 2406 -519 
C 2406 -71 2035 58 1798 134 
L 1210 339 
z
M 2189 3808 
C 2285 3840 2374 3840 2483 3840 
C 2688 3840 2707 3836 2835 3812 
C 2758 3789 2707 3775 2438 3775 
C 2304 3775 2259 3775 2189 3808 
z
" transform="scale(0.015625)"/>
     <path id="CMSY10-3" d="M 1760 2719 
C 1766 2808 1766 2962 1600 2962 
C 1498 2962 1414 2879 1434 2795 
L 1434 2712 
L 1523 1720 
L 704 2316 
C 646 2348 634 2360 589 2360 
C 499 2360 416 2271 416 2181 
C 416 2079 480 2053 544 2021 
L 1453 1586 
L 570 1158 
C 467 1107 416 1081 416 985 
C 416 889 499 806 589 806 
C 634 806 646 806 806 928 
L 1523 1446 
L 1427 371 
C 1427 236 1542 204 1594 204 
C 1670 204 1766 248 1766 371 
L 1670 1446 
L 2490 851 
C 2547 819 2560 806 2605 806 
C 2694 806 2778 896 2778 985 
C 2778 1081 2720 1113 2643 1152 
C 2259 1343 2246 1343 1741 1580 
L 2624 2008 
C 2726 2060 2778 2085 2778 2181 
C 2778 2277 2694 2360 2605 2360 
C 2560 2360 2547 2360 2387 2239 
L 1670 1720 
L 1760 2719 
z
" transform="scale(0.015625)"/>
     <path id="CMSY10-67" d="M 1382 -772 
C 1382 -1029 1216 -1440 518 -1440 
C 486 -1448 461 -1476 461 -1521 
C 461 -1600 531 -1600 589 -1600 
C 1210 -1600 1805 -1287 1811 -802 
L 1811 655 
C 1811 904 1811 1109 2067 1319 
C 2291 1504 2534 1504 2675 1504 
C 2707 1511 2733 1542 2733 1588 
C 2733 1664 2694 1664 2630 1664 
C 2208 1664 1901 1896 1830 2214 
C 1811 2284 1811 2297 1811 2531 
L 1811 3811 
C 1811 4083 1811 4289 1504 4535 
C 1248 4735 806 4800 589 4800 
C 531 4800 461 4800 461 4720 
C 461 4646 499 4646 563 4646 
C 966 4646 1280 4439 1363 4110 
C 1382 4052 1382 4039 1382 3807 
L 1382 2452 
C 1382 2155 1434 2045 1638 1839 
C 1773 1703 1958 1638 2138 1587 
C 1613 1439 1382 1143 1382 771 
L 1382 -772 
z
" transform="scale(0.015625)"/>
    </defs>
    <use xlink:href="#CMSY10-6a" transform="scale(0.996264)"/>
    <use xlink:href="#CMSY10-46" transform="translate(27.674085 0) scale(0.996264)"/>
    <use xlink:href="#CMSY10-66" transform="translate(109.173865 0) scale(0.996264)"/>
    <use xlink:href="#CMMI12-10" transform="translate(158.987248 0) scale(0.996264)"/>
    <use xlink:href="#CMSY10-3" transform="translate(209.117299 36.153639) scale(0.697382)"/>
    <use xlink:href="#CMSY10-67" transform="translate(244.484641 0) scale(0.996264)"/>
    <use xlink:href="#CMSY10-6a" transform="translate(294.298024 0) scale(0.996264)"/>
   </g>
  </g>
 </g>
 <defs>
  <clipPath id="p6d0f76d88c">
   <rect x="46.267062" y="13.238995" width="383.332458" height="26.235362"/>
  </clipPath>
  <clipPath id="p8e0d2857fd">
   <rect x="46.267062" y="49.597659" width="383.332458" height="26.235362"/>
  </clipPath>
  <clipPath id="pd030603063">
   <rect x="46.267062" y="87.329783" width="383.332458" height="26.235362"/>
  </clipPath>
 </defs>
</svg>
