<?xml version="1.0" encoding="utf-8" standalone="no"?>
<!DOCTYPE svg PUBLIC "-//W3C//DTD SVG 1.1//EN"
  "http://www.w3.org/Graphics/SVG/1.1/DTD/svg11.dtd">
<svg xmlns:xlink="http://www.w3.org/1999/xlink" width="289.19952pt" height="217.19952pt" viewBox="0 0 289.19952 217.19952" xmlns="http://www.w3.org/2000/svg" version="1.1">
 <metadata>
  <rdf:RDF xmlns:dc="http://purl.org/dc/elements/1.1/" xmlns:cc="http://creativecommons.org/ns#" xmlns:rdf="http://www.w3.org/1999/02/22-rdf-syntax-ns#">
   <cc:Work>
    <dc:type rdf:resource="http://purl.org/dc/dcmitype/StillImage"/>
    <dc:date>2026-01-10T15:12:31.741646</dc:date>
    <dc:format>image/svg+xml</dc:format>
    <dc:creator>
     <cc:Agent>
      <dc:title>Matplotlib v3.10.8, https://matplotlib.org/</dc:title>
     </cc:Agent>
    </dc:creator>
   </cc:Work>
  </rdf:RDF>
 </metadata>
 <defs>
  <style type="text/css">*{stroke-linejoin: round; stroke-linecap: butt}</style>
 </defs>
 <g id="figure_1">
  <g id="patch_1">
   <path d="M 0 217.19952 
L 289.19952 217.19952 
L 289.19952 0 
L 0 0 
z
" style="fill: #ffffff"/>
  </g>
  <g id="axes_1">
   <g id="patch_2">
    <path d="M 70.342007 56.062463 
L 285.59952 56.062463 
L 285.59952 7.059249 
L 70.342007 7.059249 
z
" style="fill: #ffffff"/>
   </g>
   <g id="FillBetweenPolyCollection_1">
    <path d="M 80.12644 28.723628 
L 80.12644 25.782231 
L 84.120085 25.558364 
L 88.113731 25.342087 
L 92.107377 25.132899 
L 96.101023 24.930349 
L 100.094669 24.734028 
L 104.088315 24.543568 
L 108.081961 24.358631 
L 112.075607 24.17891 
L 116.069252 24.004121 
L 120.062898 23.834006 
L 124.056544 23.668327 
L 128.05019 23.506862 
L 132.043836 23.349407 
L 136.037482 23.195773 
L 140.031128 23.045784 
L 144.024774 22.899275 
L 148.018419 22.756095 
L 152.012065 22.616098 
L 156.005711 22.479152 
L 159.999357 22.345131 
L 163.993003 22.213917 
L 167.986649 22.085398 
L 171.980295 21.95947 
L 175.973941 21.836035 
L 179.967587 21.715 
L 183.961232 21.596276 
L 187.954878 21.47978 
L 191.948524 21.365433 
L 195.94217 21.253162 
L 199.935816 21.142894 
L 203.929462 21.034562 
L 207.923108 20.928102 
L 211.916754 20.823453 
L 215.910399 20.720558 
L 219.904045 20.61936 
L 223.897691 20.519807 
L 227.891337 20.421848 
L 231.884983 20.325435 
L 235.878629 20.230522 
L 239.872275 20.137066 
L 243.865921 20.045023 
L 247.859566 19.954354 
L 251.853212 19.865019 
L 255.846858 19.776982 
L 259.840504 19.690207 
L 263.83415 19.60466 
L 267.827796 19.520308 
L 271.821442 19.437119 
L 275.815088 19.355064 
L 275.815088 21.407976 
L 275.815088 21.407976 
L 271.821442 21.502195 
L 267.827796 21.597683 
L 263.83415 21.694473 
L 259.840504 21.792601 
L 255.846858 21.892103 
L 251.853212 21.993017 
L 247.859566 22.095382 
L 243.865921 22.199239 
L 239.872275 22.304631 
L 235.878629 22.411603 
L 231.884983 22.520202 
L 227.891337 22.630476 
L 223.897691 22.742478 
L 219.904045 22.85626 
L 215.910399 22.97188 
L 211.916754 23.089395 
L 207.923108 23.208868 
L 203.929462 23.330363 
L 199.935816 23.453949 
L 195.94217 23.579697 
L 191.948524 23.707684 
L 187.954878 23.837988 
L 183.961232 23.970694 
L 179.967587 24.10589 
L 175.973941 24.24367 
L 171.980295 24.384133 
L 167.986649 24.527385 
L 163.993003 24.673537 
L 159.999357 24.822707 
L 156.005711 24.975022 
L 152.012065 25.130615 
L 148.018419 25.289629 
L 144.024774 25.452218 
L 140.031128 25.618544 
L 136.037482 25.788784 
L 132.043836 25.963126 
L 128.05019 26.141772 
L 124.056544 26.32494 
L 120.062898 26.512868 
L 116.069252 26.70581 
L 112.075607 26.904044 
L 108.081961 27.107873 
L 104.088315 27.317626 
L 100.094669 27.533666 
L 96.101023 27.75639 
L 92.107377 27.986235 
L 88.113731 28.223686 
L 84.120085 28.469284 
L 80.12644 28.723628 
z
" clip-path="url(#p1e74cc4908)" style="fill-opacity: 0.4"/>
   </g>
   <g id="matplotlib.axis_1">
    <g id="xtick_1">
     <g id="line2d_1">
      <path d="M 80.12644 56.062463 
L 80.12644 7.059249 
" clip-path="url(#p1e74cc4908)" style="fill: none; stroke: #b0b0b0; stroke-opacity: 0.5; stroke-width: 0.8; stroke-linecap: square"/>
     </g>
     <g id="line2d_2">
      <defs>
       <path id="ma00f1da351" d="M 0 0 
L 0 3.5 
" style="stroke: #000000; stroke-width: 0.8"/>
      </defs>
      <g>
       <use xlink:href="#ma00f1da351" x="80.12644" y="56.062463" style="stroke: #000000; stroke-width: 0.8"/>
      </g>
     </g>
    </g>
    <g id="xtick_2">
     <g id="line2d_3">
      <path d="M 119.264169 56.062463 
L 119.264169 7.059249 
" clip-path="url(#p1e74cc4908)" style="fill: none; stroke: #b0b0b0; stroke-opacity: 0.5; stroke-width: 0.8; stroke-linecap: square"/>
     </g>
     <g id="line2d_4">
      <g>
       <use xlink:href="#ma00f1da351" x="119.264169" y="56.062463" style="stroke: #000000; stroke-width: 0.8"/>
      </g>
     </g>
    </g>
    <g id="xtick_3">
     <g id="line2d_5">
      <path d="M 158.401899 56.062463 
L 158.401899 7.059249 
" clip-path="url(#p1e74cc4908)" style="fill: none; stroke: #b0b0b0; stroke-opacity: 0.5; stroke-width: 0.8; stroke-linecap: square"/>
     </g>
     <g id="line2d_6">
      <g>
       <use xlink:href="#ma00f1da351" x="158.401899" y="56.062463" style="stroke: #000000; stroke-width: 0.8"/>
      </g>
     </g>
    </g>
    <g id="xtick_4">
     <g id="line2d_7">
      <path d="M 197.539628 56.062463 
L 197.539628 7.059249 
" clip-path="url(#p1e74cc4908)" style="fill: none; stroke: #b0b0b0; stroke-opacity: 0.5; stroke-width: 0.8; stroke-linecap: square"/>
     </g>
     <g id="line2d_8">
      <g>
       <use xlink:href="#ma00f1da351" x="197.539628" y="56.062463" style="stroke: #000000; stroke-width: 0.8"/>
      </g>
     </g>
    </g>
    <g id="xtick_5">
     <g id="line2d_9">
      <path d="M 236.677358 56.062463 
L 236.677358 7.059249 
" clip-path="url(#p1e74cc4908)" style="fill: none; stroke: #b0b0b0; stroke-opacity: 0.5; stroke-width: 0.8; stroke-linecap: square"/>
     </g>
     <g id="line2d_10">
      <g>
       <use xlink:href="#ma00f1da351" x="236.677358" y="56.062463" style="stroke: #000000; stroke-width: 0.8"/>
      </g>
     </g>
    </g>
    <g id="xtick_6">
     <g id="line2d_11">
      <path d="M 275.815088 56.062463 
L 275.815088 7.059249 
" clip-path="url(#p1e74cc4908)" style="fill: none; stroke: #b0b0b0; stroke-opacity: 0.5; stroke-width: 0.8; stroke-linecap: square"/>
     </g>
     <g id="line2d_12">
      <g>
       <use xlink:href="#ma00f1da351" x="275.815088" y="56.062463" style="stroke: #000000; stroke-width: 0.8"/>
      </g>
     </g>
    </g>
   </g>
   <g id="matplotlib.axis_2">
    <g id="ytick_1">
     <g id="line2d_13">
      <path d="M 70.342007 56.062463 
L 285.59952 56.062463 
" clip-path="url(#p1e74cc4908)" style="fill: none; stroke: #b0b0b0; stroke-opacity: 0.5; stroke-width: 0.8; stroke-linecap: square"/>
     </g>
     <g id="line2d_14">
      <defs>
       <path id="maf715488a7" d="M 0 0 
L -3.5 0 
" style="stroke: #000000; stroke-width: 0.8"/>
      </defs>
      <g>
       <use xlink:href="#maf715488a7" x="70.342007" y="56.062463" style="stroke: #000000; stroke-width: 0.8"/>
      </g>
     </g>
     <g id="text_1">
      <!-- $\mathdefault{0.50}$ -->
      <g transform="translate(45.630593 59.521712) scale(0.1 -0.1)">
       <defs>
        <path id="CMR17-30" d="M 2688 2025 
C 2688 2416 2682 3080 2413 3591 
C 2176 4039 1798 4198 1466 4198 
C 1158 4198 768 4058 525 3597 
C 269 3118 243 2524 243 2025 
C 243 1661 250 1106 448 619 
C 723 -39 1216 -128 1466 -128 
C 1760 -128 2208 -7 2470 600 
C 2662 1042 2688 1559 2688 2025 
z
M 1466 -26 
C 1056 -26 813 325 723 812 
C 653 1188 653 1738 653 2096 
C 653 2588 653 2997 736 3387 
C 858 3929 1216 4096 1466 4096 
C 1728 4096 2067 3923 2189 3400 
C 2272 3036 2278 2607 2278 2096 
C 2278 1680 2278 1169 2202 792 
C 2067 95 1690 -26 1466 -26 
z
" transform="scale(0.015625)"/>
        <path id="CMMI12-3a" d="M 1178 307 
C 1178 492 1024 619 870 619 
C 685 619 557 466 557 313 
C 557 128 710 0 864 0 
C 1050 0 1178 153 1178 307 
z
" transform="scale(0.015625)"/>
        <path id="CMR17-35" d="M 730 3692 
C 794 3666 1056 3584 1325 3584 
C 1920 3584 2246 3911 2432 4100 
C 2432 4157 2432 4192 2394 4192 
C 2387 4192 2374 4192 2323 4163 
C 2099 4058 1837 3973 1517 3973 
C 1325 3973 1037 3999 723 4139 
C 653 4171 640 4171 634 4171 
C 602 4171 595 4164 595 4037 
L 595 2203 
C 595 2089 595 2057 659 2057 
C 691 2057 704 2070 736 2114 
C 941 2401 1222 2522 1542 2522 
C 1766 2522 2246 2382 2246 1289 
C 2246 1085 2246 715 2054 421 
C 1894 159 1645 25 1370 25 
C 947 25 518 320 403 814 
C 429 807 480 795 506 795 
C 589 795 749 840 749 1038 
C 749 1210 627 1280 506 1280 
C 358 1280 262 1190 262 1011 
C 262 454 704 -128 1382 -128 
C 2042 -128 2669 440 2669 1264 
C 2669 2030 2170 2624 1549 2624 
C 1222 2624 947 2503 730 2274 
L 730 3692 
z
" transform="scale(0.015625)"/>
       </defs>
       <use xlink:href="#CMR17-30" transform="scale(0.996264)"/>
       <use xlink:href="#CMMI12-3a" transform="translate(45.690477 0) scale(0.996264)"/>
       <use xlink:href="#CMR17-35" transform="translate(72.787654 0) scale(0.996264)"/>
       <use xlink:href="#CMR17-30" transform="translate(118.478131 0) scale(0.996264)"/>
      </g>
     </g>
    </g>
    <g id="ytick_2">
     <g id="line2d_15">
      <path d="M 70.342007 31.560856 
L 285.59952 31.560856 
" clip-path="url(#p1e74cc4908)" style="fill: none; stroke: #b0b0b0; stroke-opacity: 0.5; stroke-width: 0.8; stroke-linecap: square"/>
     </g>
     <g id="line2d_16">
      <g>
       <use xlink:href="#maf715488a7" x="70.342007" y="31.560856" style="stroke: #000000; stroke-width: 0.8"/>
      </g>
     </g>
     <g id="text_2">
      <!-- $\mathdefault{0.75}$ -->
      <g transform="translate(45.630593 35.020105) scale(0.1 -0.1)">
       <defs>
        <path id="CMR17-37" d="M 2886 3941 
L 2886 4081 
L 1382 4081 
C 634 4081 621 4165 595 4288 
L 480 4288 
L 294 3094 
L 410 3094 
C 429 3215 474 3540 550 3661 
C 589 3712 1062 3712 1171 3712 
L 2579 3712 
L 1869 2661 
C 1395 1954 1069 999 1069 165 
C 1069 89 1069 -128 1299 -128 
C 1530 -128 1530 89 1530 171 
L 1530 465 
C 1530 1508 1709 2196 2003 2636 
L 2886 3941 
z
" transform="scale(0.015625)"/>
       </defs>
       <use xlink:href="#CMR17-30" transform="scale(0.996264)"/>
       <use xlink:href="#CMMI12-3a" transform="translate(45.690477 0) scale(0.996264)"/>
       <use xlink:href="#CMR17-37" transform="translate(72.787654 0) scale(0.996264)"/>
       <use xlink:href="#CMR17-35" transform="translate(118.478131 0) scale(0.996264)"/>
      </g>
     </g>
    </g>
    <g id="ytick_3">
     <g id="line2d_17">
      <path d="M 70.342007 7.059249 
L 285.59952 7.059249 
" clip-path="url(#p1e74cc4908)" style="fill: none; stroke: #b0b0b0; stroke-opacity: 0.5; stroke-width: 0.8; stroke-linecap: square"/>
     </g>
     <g id="line2d_18">
      <g>
       <use xlink:href="#maf715488a7" x="70.342007" y="7.059249" style="stroke: #000000; stroke-width: 0.8"/>
      </g>
     </g>
     <g id="text_3">
      <!-- $\mathdefault{1.00}$ -->
      <g transform="translate(45.630593 10.518498) scale(0.1 -0.1)">
       <defs>
        <path id="CMR17-31" d="M 1702 4058 
C 1702 4192 1696 4192 1606 4192 
C 1357 3916 979 3827 621 3827 
C 602 3827 570 3827 563 3808 
C 557 3795 557 3782 557 3648 
C 755 3648 1088 3686 1344 3839 
L 1344 461 
C 1344 236 1331 160 781 160 
L 589 160 
L 589 0 
C 896 0 1216 0 1523 0 
C 1830 0 2150 0 2458 0 
L 2458 160 
L 2266 160 
C 1715 160 1702 230 1702 458 
L 1702 4058 
z
" transform="scale(0.015625)"/>
       </defs>
       <use xlink:href="#CMR17-31" transform="scale(0.996264)"/>
       <use xlink:href="#CMMI12-3a" transform="translate(45.690477 0) scale(0.996264)"/>
       <use xlink:href="#CMR17-30" transform="translate(72.787654 0) scale(0.996264)"/>
       <use xlink:href="#CMR17-30" transform="translate(118.478131 0) scale(0.996264)"/>
      </g>
     </g>
    </g>
    <g id="text_4">
     <!-- $-0.5D$,  -->
     <g transform="translate(27.145754 47.44646) rotate(-90) scale(0.1 -0.1)">
      <defs>
       <path id="CMSY10-0" d="M 4218 1472 
C 4326 1472 4442 1472 4442 1600 
C 4442 1728 4326 1728 4218 1728 
L 755 1728 
C 646 1728 531 1728 531 1600 
C 531 1472 646 1472 755 1472 
L 4218 1472 
z
" transform="scale(0.015625)"/>
       <path id="CMMI12-44" d="M 1005 472 
C 947 249 934 185 486 185 
C 365 185 301 185 301 70 
C 301 0 339 0 467 0 
L 2496 0 
C 3789 0 5050 1332 5050 2753 
C 5050 3671 4499 4352 3584 4352 
L 1530 4352 
C 1408 4352 1350 4352 1350 4231 
C 1350 4167 1408 4167 1504 4167 
C 1894 4167 1894 4116 1894 4046 
C 1894 4034 1894 3995 1869 3899 
L 1005 472 
z
M 2355 3931 
C 2413 4167 2438 4167 2688 4167 
L 3392 4167 
C 3994 4167 4544 3842 4544 2963 
C 4544 2644 4416 1536 3795 835 
C 3616 625 3130 185 2394 185 
L 1664 185 
C 1574 185 1562 185 1523 192 
C 1453 198 1446 211 1446 262 
C 1446 307 1459 345 1472 402 
L 2355 3931 
z
" transform="scale(0.015625)"/>
       <path id="CMR17-2c" d="M 1011 102 
C 1024 45 1024 25 1024 -77 
C 1024 -463 896 -817 627 -1139 
C 595 -1170 595 -1183 595 -1197 
C 595 -1222 621 -1248 646 -1248 
C 685 -1248 1126 -799 1126 -87 
C 1126 124 1101 522 800 522 
C 659 522 538 427 538 261 
C 538 96 659 0 800 0 
C 877 0 960 32 1011 102 
z
" transform="scale(0.015625)"/>
      </defs>
      <use xlink:href="#CMSY10-0" transform="scale(0.996264)"/>
      <use xlink:href="#CMR17-30" transform="translate(77.487468 0) scale(0.996264)"/>
      <use xlink:href="#CMMI12-3a" transform="translate(123.177945 0) scale(0.996264)"/>
      <use xlink:href="#CMR17-35" transform="translate(150.275122 0) scale(0.996264)"/>
      <use xlink:href="#CMMI12-44" transform="translate(195.965599 0) scale(0.996264)"/>
      <use xlink:href="#CMR17-2c" transform="translate(279.669547 0) scale(0.996264)"/>
     </g>
     <!--  $\bar u_r^\text{S} / u_\infty$ -->
     <g transform="translate(39.139933 46.175105) rotate(-90) scale(0.1 -0.1)">
      <defs>
       <path id="CMR17-16" d="M 2554 3520 
L 2554 3666 
L 378 3666 
L 378 3520 
L 2554 3520 
z
" transform="scale(0.015625)"/>
       <path id="CMMI12-75" d="M 2182 370 
C 2266 13 2573 -64 2726 -64 
C 2931 -64 3085 70 3187 287 
C 3296 517 3379 894 3379 913 
C 3379 945 3354 971 3315 971 
C 3258 971 3251 939 3226 843 
C 3110 402 2995 64 2739 64 
C 2547 64 2547 275 2547 358 
C 2547 505 2566 568 2630 837 
C 2675 1009 2720 1181 2758 1360 
L 3021 2401 
C 3066 2561 3066 2574 3066 2593 
C 3066 2689 2989 2753 2893 2753 
C 2707 2753 2662 2593 2624 2433 
C 2560 2184 2214 811 2170 588 
C 2163 588 1914 64 1446 64 
C 1114 64 1050 351 1050 588 
C 1050 952 1229 1462 1395 1890 
C 1472 2095 1504 2178 1504 2305 
C 1504 2580 1306 2816 998 2816 
C 410 2816 173 1890 173 1839 
C 173 1814 198 1782 243 1782 
C 301 1782 307 1807 333 1896 
C 486 2441 736 2682 979 2682 
C 1043 2682 1146 2682 1146 2478 
C 1146 2312 1075 2127 979 1884 
C 698 1124 666 881 666 690 
C 666 38 1158 -64 1421 -64 
C 1830 -64 2054 217 2182 370 
z
" transform="scale(0.015625)"/>
       <path id="CMR17-53" d="M 2803 4290 
C 2803 4404 2797 4411 2758 4411 
C 2720 4411 2707 4385 2682 4328 
L 2490 3907 
C 2246 4257 1875 4416 1472 4416 
C 819 4416 294 3901 294 3253 
C 294 3056 339 2776 557 2510 
C 794 2218 1018 2167 1530 2033 
C 1722 1982 2042 1899 2106 1874 
C 2470 1722 2662 1341 2662 985 
C 2662 527 2336 38 1779 38 
C 1094 38 454 419 410 1311 
C 403 1413 397 1419 352 1419 
C 301 1419 294 1413 294 1285 
L 294 -1 
C 294 -115 301 -122 339 -122 
C 384 -122 397 -90 486 108 
C 493 127 493 140 614 381 
C 934 -39 1472 -128 1779 -128 
C 2477 -128 2970 451 2970 1124 
C 2970 1454 2848 1708 2778 1823 
C 2509 2230 2221 2306 1914 2382 
C 1869 2402 1856 2402 1498 2490 
C 1152 2579 1005 2624 845 2796 
C 666 2992 602 3196 602 3399 
C 602 3812 934 4263 1478 4263 
C 2157 4263 2579 3786 2675 2993 
C 2694 2878 2701 2872 2746 2872 
C 2803 2872 2803 2891 2803 2999 
L 2803 4290 
z
" transform="scale(0.015625)"/>
       <path id="CMMI12-72" d="M 2490 2612 
C 2291 2574 2189 2433 2189 2293 
C 2189 2139 2310 2088 2400 2088 
C 2579 2088 2726 2242 2726 2433 
C 2726 2638 2528 2816 2208 2816 
C 1952 2816 1658 2701 1389 2312 
C 1344 2650 1088 2816 832 2816 
C 582 2816 454 2625 378 2484 
C 269 2254 173 1871 173 1839 
C 173 1814 198 1782 243 1782 
C 294 1782 301 1788 339 1935 
C 435 2318 557 2689 813 2689 
C 966 2689 1011 2580 1011 2395 
C 1011 2254 947 2005 902 1807 
L 723 1118 
C 698 996 627 709 595 594 
C 550 428 480 128 480 96 
C 480 6 550 -64 646 -64 
C 717 -64 838 -19 877 109 
C 896 160 1133 1124 1171 1271 
C 1203 1411 1242 1546 1274 1686 
C 1299 1775 1325 1878 1344 1961 
C 1363 2018 1536 2331 1696 2472 
C 1773 2542 1939 2689 2202 2689 
C 2304 2689 2406 2670 2490 2612 
z
" transform="scale(0.015625)"/>
       <path id="CMMI12-3d" d="M 2746 4562 
C 2746 4569 2784 4666 2784 4678 
C 2784 4755 2720 4800 2669 4800 
C 2637 4800 2579 4800 2528 4659 
L 384 -1363 
C 384 -1370 346 -1465 346 -1478 
C 346 -1555 410 -1600 461 -1600 
C 499 -1600 557 -1593 602 -1459 
L 2746 4562 
z
" transform="scale(0.015625)"/>
       <path id="CMSY10-31" d="M 3251 1730 
C 2906 2166 2829 2262 2630 2422 
C 2272 2710 1914 2825 1587 2825 
C 838 2825 352 2122 352 1374 
C 352 639 826 -70 1562 -70 
C 2298 -70 2829 511 3142 1022 
C 3488 588 3565 492 3763 332 
C 4122 45 4480 -70 4806 -70 
C 5555 -70 6042 633 6042 1380 
C 6042 2115 5568 2825 4832 2825 
C 4096 2825 3565 2242 3251 1730 
z
M 3418 1514 
C 3680 1975 4154 2620 4877 2620 
C 5555 2620 5901 1955 5901 1380 
C 5901 753 5472 236 4909 236 
C 4538 236 4250 505 4115 638 
C 3955 811 3808 1009 3418 1514 
z
M 2976 1240 
C 2714 780 2240 134 1517 134 
C 838 134 493 799 493 1374 
C 493 2000 922 2518 1485 2518 
C 1856 2518 2144 2249 2278 2115 
C 2438 1943 2586 1744 2976 1240 
z
" transform="scale(0.015625)"/>
      </defs>
      <use xlink:href="#CMR17-16" transform="translate(7.624652 0.006461) scale(0.996264)"/>
      <use xlink:href="#CMMI12-75" transform="scale(0.996264)"/>
      <use xlink:href="#CMR17-53" transform="translate(55.52033 36.153639) scale(0.697382)"/>
      <use xlink:href="#CMMI12-72" transform="translate(55.52033 -24.62935) scale(0.697382)"/>
      <use xlink:href="#CMMI12-3d" transform="translate(91.64507 0) scale(0.996264)"/>
      <use xlink:href="#CMMI12-75" transform="translate(140.419989 0) scale(0.996264)"/>
      <use xlink:href="#CMSY10-31" transform="translate(195.940318 -14.943915) scale(0.697382)"/>
     </g>
    </g>
   </g>
   <g id="line2d_19">
    <path d="M 80.12644 16.602796 
L 158.401899 19.236085 
L 236.677358 17.995043 
L 275.815088 16.272918 
" clip-path="url(#p1e74cc4908)" style="fill: none; stroke: #1f77b4; stroke-width: 1.5; stroke-linecap: square"/>
    <defs>
     <path id="m2dafe91d2e" d="M 0 3 
C 0.795609 3 1.55874 2.683901 2.12132 2.12132 
C 2.683901 1.55874 3 0.795609 3 0 
C 3 -0.795609 2.683901 -1.55874 2.12132 -2.12132 
C 1.55874 -2.683901 0.795609 -3 0 -3 
C -0.795609 -3 -1.55874 -2.683901 -2.12132 -2.12132 
C -2.683901 -1.55874 -3 -0.795609 -3 0 
C -3 0.795609 -2.683901 1.55874 -2.12132 2.12132 
C -1.55874 2.683901 -0.795609 3 0 3 
z
" style="stroke: #1f77b4"/>
    </defs>
    <g clip-path="url(#p1e74cc4908)">
     <use xlink:href="#m2dafe91d2e" x="80.12644" y="16.602796" style="fill: #1f77b4; stroke: #1f77b4"/>
     <use xlink:href="#m2dafe91d2e" x="158.401899" y="19.236085" style="fill: #1f77b4; stroke: #1f77b4"/>
     <use xlink:href="#m2dafe91d2e" x="236.677358" y="17.995043" style="fill: #1f77b4; stroke: #1f77b4"/>
     <use xlink:href="#m2dafe91d2e" x="275.815088" y="16.272918" style="fill: #1f77b4; stroke: #1f77b4"/>
    </g>
   </g>
   <g id="line2d_20">
    <path d="M 80.12644 17.640635 
L 158.401899 18.959283 
L 236.677358 17.212076 
L 275.815088 16.455289 
" clip-path="url(#p1e74cc4908)" style="fill: none; stroke: #ff7f0e; stroke-width: 1.5; stroke-linecap: square"/>
    <defs>
     <path id="m29061145e0" d="M -3 3 
L 3 -3 
M -3 -3 
L 3 3 
" style="stroke: #ff7f0e"/>
    </defs>
    <g clip-path="url(#p1e74cc4908)">
     <use xlink:href="#m29061145e0" x="80.12644" y="17.640635" style="fill: #ff7f0e; stroke: #ff7f0e"/>
     <use xlink:href="#m29061145e0" x="158.401899" y="18.959283" style="fill: #ff7f0e; stroke: #ff7f0e"/>
     <use xlink:href="#m29061145e0" x="236.677358" y="17.212076" style="fill: #ff7f0e; stroke: #ff7f0e"/>
     <use xlink:href="#m29061145e0" x="275.815088" y="16.455289" style="fill: #ff7f0e; stroke: #ff7f0e"/>
    </g>
   </g>
   <g id="line2d_21">
    <path d="M 80.12644 17.497706 
L 158.401899 18.440427 
L 236.677358 18.043048 
L 275.815088 17.820234 
" clip-path="url(#p1e74cc4908)" style="fill: none; stroke: #2ca02c; stroke-width: 1.5; stroke-linecap: square"/>
    <defs>
     <path id="m28a220b6db" d="M -3 0 
L 3 0 
M 0 3 
L 0 -3 
" style="stroke: #2ca02c"/>
    </defs>
    <g clip-path="url(#p1e74cc4908)">
     <use xlink:href="#m28a220b6db" x="80.12644" y="17.497706" style="fill: #2ca02c; stroke: #2ca02c"/>
     <use xlink:href="#m28a220b6db" x="158.401899" y="18.440427" style="fill: #2ca02c; stroke: #2ca02c"/>
     <use xlink:href="#m28a220b6db" x="236.677358" y="18.043048" style="fill: #2ca02c; stroke: #2ca02c"/>
     <use xlink:href="#m28a220b6db" x="275.815088" y="17.820234" style="fill: #2ca02c; stroke: #2ca02c"/>
    </g>
   </g>
   <g id="line2d_22">
    <path d="M 80.12644 17.816291 
L 158.401899 19.02664 
L 236.677358 16.981845 
L 275.815088 15.79256 
" clip-path="url(#p1e74cc4908)" style="fill: none; stroke: #d62728; stroke-width: 1.5; stroke-linecap: square"/>
    <defs>
     <path id="m06a4dd46c4" d="M 0 0 
L 0 3 
M 0 0 
L 2.4 -1.5 
M 0 0 
L -2.4 -1.5 
" style="stroke: #d62728"/>
    </defs>
    <g clip-path="url(#p1e74cc4908)">
     <use xlink:href="#m06a4dd46c4" x="80.12644" y="17.816291" style="fill: #d62728; stroke: #d62728"/>
     <use xlink:href="#m06a4dd46c4" x="158.401899" y="19.02664" style="fill: #d62728; stroke: #d62728"/>
     <use xlink:href="#m06a4dd46c4" x="236.677358" y="16.981845" style="fill: #d62728; stroke: #d62728"/>
     <use xlink:href="#m06a4dd46c4" x="275.815088" y="15.79256" style="fill: #d62728; stroke: #d62728"/>
    </g>
   </g>
   <g id="line2d_23">
    <path d="M 80.12644 27.580303 
L 84.120085 27.33045 
L 88.113731 27.089509 
L 92.107377 26.856849 
L 96.101023 26.631907 
L 100.094669 26.414179 
L 104.088315 26.203211 
L 108.081961 25.998591 
L 112.075607 25.799944 
L 116.069252 25.606932 
L 120.062898 25.419243 
L 124.056544 25.236591 
L 128.05019 25.058715 
L 132.043836 24.885371 
L 136.037482 24.716338 
L 140.031128 24.551408 
L 144.024774 24.390388 
L 148.018419 24.2331 
L 152.012065 24.079379 
L 156.005711 23.929067 
L 159.999357 23.782021 
L 163.993003 23.638103 
L 167.986649 23.497187 
L 171.980295 23.359151 
L 175.973941 23.223884 
L 179.967587 23.09128 
L 183.961232 22.961236 
L 187.954878 22.833661 
L 191.948524 22.708462 
L 195.94217 22.585557 
L 199.935816 22.464864 
L 203.929462 22.346308 
L 207.923108 22.229816 
L 211.916754 22.11532 
L 215.910399 22.002755 
L 219.904045 21.892057 
L 223.897691 21.783169 
L 227.891337 21.676033 
L 231.884983 21.570596 
L 235.878629 21.466806 
L 239.872275 21.364615 
L 243.865921 21.263975 
L 247.859566 21.164841 
L 251.853212 21.067171 
L 255.846858 20.970923 
L 259.840504 20.876058 
L 263.83415 20.782537 
L 267.827796 20.690325 
L 271.821442 20.599387 
L 275.815088 20.509689 
" clip-path="url(#p1e74cc4908)" style="fill: none; stroke-dasharray: 5.55,2.4; stroke-dashoffset: 0; stroke: #000000; stroke-width: 1.5"/>
   </g>
   <g id="patch_3">
    <path d="M 70.342007 56.062463 
L 70.342007 7.059249 
" style="fill: none; stroke: #000000; stroke-width: 0.8; stroke-linejoin: miter; stroke-linecap: square"/>
   </g>
   <g id="patch_4">
    <path d="M 285.59952 56.062463 
L 285.59952 7.059249 
" style="fill: none; stroke: #000000; stroke-width: 0.8; stroke-linejoin: miter; stroke-linecap: square"/>
   </g>
   <g id="patch_5">
    <path d="M 70.342007 56.062463 
L 285.59952 56.062463 
" style="fill: none; stroke: #000000; stroke-width: 0.8; stroke-linejoin: miter; stroke-linecap: square"/>
   </g>
   <g id="patch_6">
    <path d="M 70.342007 7.059249 
L 285.59952 7.059249 
" style="fill: none; stroke: #000000; stroke-width: 0.8; stroke-linejoin: miter; stroke-linecap: square"/>
   </g>
   <g id="legend_1">
    <g id="patch_7">
     <path d="M 76.313157 55.082398 
L 279.62837 55.082398 
Q 281.29437 55.082398 281.29437 53.416398 
L 281.29437 42.639729 
Q 281.29437 40.973729 279.62837 40.973729 
L 76.313157 40.973729 
Q 74.647157 40.973729 74.647157 42.639729 
L 74.647157 53.416398 
Q 74.647157 55.082398 76.313157 55.082398 
z
" style="fill: #ffffff; opacity: 0.8; stroke: #cccccc; stroke-linejoin: miter"/>
    </g>
    <g id="line2d_24">
     <path d="M 77.979157 47.221229 
L 86.309157 47.221229 
L 94.639157 47.221229 
" style="fill: none; stroke: #1f77b4; stroke-width: 1.5; stroke-linecap: square"/>
     <g>
      <use xlink:href="#m2dafe91d2e" x="86.309157" y="47.221229" style="fill: #1f77b4; stroke: #1f77b4"/>
     </g>
    </g>
    <g id="text_5">
     <!-- 0.5 Hz -->
     <g transform="translate(101.303157 50.136729) scale(0.0833 -0.0833)">
      <defs>
       <path id="CMR17-2e" d="M 1062 261 
C 1062 420 934 522 800 522 
C 672 522 538 420 538 261 
C 538 102 666 0 800 0 
C 928 0 1062 102 1062 261 
z
" transform="scale(0.015625)"/>
       <path id="CMR17-48" d="M 3590 3905 
C 3590 4192 3661 4192 4102 4192 
L 4102 4352 
C 3917 4352 3578 4352 3379 4352 
C 3181 4352 2842 4352 2656 4352 
L 2656 4192 
C 3098 4192 3168 4192 3168 3904 
L 3168 2341 
L 1261 2341 
L 1261 3904 
C 1261 4192 1331 4192 1773 4192 
L 1773 4352 
C 1587 4352 1248 4352 1050 4352 
C 851 4352 512 4352 326 4352 
L 326 4192 
C 768 4192 838 4192 838 3905 
L 838 447 
C 838 160 768 160 326 160 
L 326 0 
C 512 0 851 0 1050 0 
C 1248 0 1587 0 1773 0 
L 1773 160 
C 1331 160 1261 160 1261 446 
L 1261 2176 
L 3168 2176 
L 3168 446 
C 3168 160 3098 160 2656 160 
L 2656 0 
C 2842 0 3181 0 3379 0 
C 3578 0 3917 0 4102 0 
L 4102 160 
C 3661 160 3590 160 3590 447 
L 3590 3905 
z
" transform="scale(0.015625)"/>
       <path id="CMR17-7a" d="M 2310 2605 
C 2362 2670 2362 2682 2362 2695 
C 2362 2752 2336 2752 2221 2752 
L 275 2752 
L 211 1760 
L 326 1760 
C 371 2381 442 2650 1178 2650 
L 1958 2650 
L 128 96 
C 128 0 134 0 269 0 
L 2291 0 
L 2381 1152 
L 2266 1152 
C 2214 442 2131 115 1350 115 
L 531 115 
L 2310 2605 
z
" transform="scale(0.015625)"/>
      </defs>
      <use xlink:href="#CMR17-30" transform="scale(0.996264)"/>
      <use xlink:href="#CMR17-2e" transform="translate(45.690477 0) scale(0.996264)"/>
      <use xlink:href="#CMR17-35" transform="translate(70.561536 0) scale(0.996264)"/>
      <use xlink:href="#CMR17-48" transform="translate(146.327979 0) scale(0.996264)"/>
      <use xlink:href="#CMR17-7a" transform="translate(215.400409 0) scale(0.996264)"/>
     </g>
    </g>
    <g id="line2d_25">
     <path d="M 128.622289 47.221229 
L 136.952289 47.221229 
L 145.282289 47.221229 
" style="fill: none; stroke: #ff7f0e; stroke-width: 1.5; stroke-linecap: square"/>
     <g>
      <use xlink:href="#m29061145e0" x="136.952289" y="47.221229" style="fill: #ff7f0e; stroke: #ff7f0e"/>
     </g>
    </g>
    <g id="text_6">
     <!-- 1.0 Hz -->
     <g transform="translate(151.946289 50.136729) scale(0.0833 -0.0833)">
      <use xlink:href="#CMR17-31" transform="scale(0.996264)"/>
      <use xlink:href="#CMR17-2e" transform="translate(45.690477 0) scale(0.996264)"/>
      <use xlink:href="#CMR17-30" transform="translate(70.561536 0) scale(0.996264)"/>
      <use xlink:href="#CMR17-48" transform="translate(146.327979 0) scale(0.996264)"/>
      <use xlink:href="#CMR17-7a" transform="translate(215.400409 0) scale(0.996264)"/>
     </g>
    </g>
    <g id="line2d_26">
     <path d="M 179.26542 47.221229 
L 187.59542 47.221229 
L 195.92542 47.221229 
" style="fill: none; stroke: #2ca02c; stroke-width: 1.5; stroke-linecap: square"/>
     <g>
      <use xlink:href="#m28a220b6db" x="187.59542" y="47.221229" style="fill: #2ca02c; stroke: #2ca02c"/>
     </g>
    </g>
    <g id="text_7">
     <!-- 2.0 Hz -->
     <g transform="translate(202.58942 50.136729) scale(0.0833 -0.0833)">
      <defs>
       <path id="CMR17-32" d="M 2669 989 
L 2554 989 
C 2490 536 2438 459 2413 420 
C 2381 369 1920 369 1830 369 
L 602 369 
C 832 619 1280 1072 1824 1597 
C 2214 1967 2669 2402 2669 3035 
C 2669 3790 2067 4224 1395 4224 
C 691 4224 262 3604 262 3030 
C 262 2780 448 2748 525 2748 
C 589 2748 781 2787 781 3010 
C 781 3207 614 3264 525 3264 
C 486 3264 448 3258 422 3245 
C 544 3790 915 4058 1306 4058 
C 1862 4058 2227 3617 2227 3035 
C 2227 2479 1901 2000 1536 1584 
L 262 146 
L 262 0 
L 2515 0 
L 2669 989 
z
" transform="scale(0.015625)"/>
      </defs>
      <use xlink:href="#CMR17-32" transform="scale(0.996264)"/>
      <use xlink:href="#CMR17-2e" transform="translate(45.690477 0) scale(0.996264)"/>
      <use xlink:href="#CMR17-30" transform="translate(70.561536 0) scale(0.996264)"/>
      <use xlink:href="#CMR17-48" transform="translate(146.327979 0) scale(0.996264)"/>
      <use xlink:href="#CMR17-7a" transform="translate(215.400409 0) scale(0.996264)"/>
     </g>
    </g>
    <g id="line2d_27">
     <path d="M 229.908551 47.221229 
L 238.238551 47.221229 
L 246.568551 47.221229 
" style="fill: none; stroke: #d62728; stroke-width: 1.5; stroke-linecap: square"/>
     <g>
      <use xlink:href="#m06a4dd46c4" x="238.238551" y="47.221229" style="fill: #d62728; stroke: #d62728"/>
     </g>
    </g>
    <g id="text_8">
     <!-- 3.0 Hz -->
     <g transform="translate(253.232551 50.136729) scale(0.0833 -0.0833)">
      <defs>
       <path id="CMR17-33" d="M 1414 2157 
C 1984 2157 2234 1662 2234 1090 
C 2234 320 1824 25 1453 25 
C 1114 25 563 194 390 693 
C 422 680 454 680 486 680 
C 640 680 755 782 755 948 
C 755 1133 614 1216 486 1216 
C 378 1216 211 1165 211 926 
C 211 335 787 -128 1466 -128 
C 2176 -128 2720 430 2720 1085 
C 2720 1707 2208 2157 1600 2227 
C 2086 2328 2554 2756 2554 3329 
C 2554 3820 2048 4179 1472 4179 
C 890 4179 378 3829 378 3329 
C 378 3110 544 3072 627 3072 
C 762 3072 877 3155 877 3321 
C 877 3486 762 3569 627 3569 
C 602 3569 570 3569 544 3557 
C 730 3959 1235 4032 1459 4032 
C 1683 4032 2106 3925 2106 3320 
C 2106 3143 2080 2828 1862 2550 
C 1670 2304 1453 2304 1242 2284 
C 1210 2284 1062 2269 1037 2269 
C 992 2263 966 2257 966 2208 
C 966 2163 973 2157 1101 2157 
L 1414 2157 
z
" transform="scale(0.015625)"/>
      </defs>
      <use xlink:href="#CMR17-33" transform="scale(0.996264)"/>
      <use xlink:href="#CMR17-2e" transform="translate(45.690477 0) scale(0.996264)"/>
      <use xlink:href="#CMR17-30" transform="translate(70.561536 0) scale(0.996264)"/>
      <use xlink:href="#CMR17-48" transform="translate(146.327979 0) scale(0.996264)"/>
      <use xlink:href="#CMR17-7a" transform="translate(215.400409 0) scale(0.996264)"/>
     </g>
    </g>
   </g>
  </g>
  <g id="axes_2">
   <g id="patch_8">
    <path d="M 70.342007 119.921833 
L 285.59952 119.921833 
L 285.59952 70.918619 
L 70.342007 70.918619 
z
" style="fill: #ffffff"/>
   </g>
   <g id="FillBetweenPolyCollection_2">
    <path d="M 80.12644 108.186472 
L 80.12644 104.12594 
L 84.120085 103.666912 
L 88.113731 103.222473 
L 92.107377 102.79169 
L 96.101023 102.373725 
L 100.094669 101.967821 
L 104.088315 101.57329 
L 108.081961 101.189505 
L 112.075607 100.815895 
L 116.069252 100.451936 
L 120.062898 100.097145 
L 124.056544 99.751079 
L 128.05019 99.413329 
L 132.043836 99.083514 
L 136.037482 98.761282 
L 140.031128 98.446305 
L 144.024774 98.138279 
L 148.018419 97.836919 
L 152.012065 97.541957 
L 156.005711 97.253144 
L 159.999357 96.970247 
L 163.993003 96.693044 
L 167.986649 96.421329 
L 171.980295 96.154906 
L 175.973941 95.893591 
L 179.967587 95.63721 
L 183.961232 95.385598 
L 187.954878 95.138598 
L 191.948524 94.896063 
L 195.94217 94.657853 
L 199.935816 94.423832 
L 203.929462 94.193875 
L 207.923108 93.967861 
L 211.916754 93.745673 
L 215.910399 93.527202 
L 219.904045 93.312342 
L 223.897691 93.100994 
L 227.891337 92.89306 
L 231.884983 92.68845 
L 235.878629 92.487074 
L 239.872275 92.288849 
L 243.865921 92.093693 
L 247.859566 91.901529 
L 251.853212 91.712281 
L 255.846858 91.525877 
L 259.840504 91.34225 
L 263.83415 91.161331 
L 267.827796 90.983057 
L 271.821442 90.807367 
L 275.815088 90.6342 
L 275.815088 93.203777 
L 275.815088 93.203777 
L 271.821442 93.395558 
L 267.827796 93.590131 
L 263.83415 93.787563 
L 259.840504 93.987924 
L 255.846858 94.191284 
L 251.853212 94.397719 
L 247.859566 94.607306 
L 243.865921 94.820126 
L 239.872275 95.036262 
L 235.878629 95.255801 
L 231.884983 95.478835 
L 227.891337 95.705458 
L 223.897691 95.935769 
L 219.904045 96.169873 
L 215.910399 96.407875 
L 211.916754 96.649891 
L 207.923108 96.896037 
L 203.929462 97.146437 
L 199.935816 97.401223 
L 195.94217 97.660529 
L 191.948524 97.9245 
L 187.954878 98.193285 
L 183.961232 98.467044 
L 179.967587 98.745944 
L 175.973941 99.030161 
L 171.980295 99.319882 
L 167.986649 99.615303 
L 163.993003 99.916633 
L 159.999357 100.224095 
L 156.005711 100.537922 
L 152.012065 100.858365 
L 148.018419 101.18569 
L 144.024774 101.520182 
L 140.031128 101.862144 
L 136.037482 102.211902 
L 132.043836 102.569804 
L 128.05019 102.936225 
L 124.056544 103.311569 
L 120.062898 103.696272 
L 116.069252 104.090807 
L 112.075607 104.495684 
L 108.081961 104.911461 
L 104.088315 105.338746 
L 100.094669 105.778203 
L 96.101023 106.230562 
L 92.107377 106.696628 
L 88.113731 107.17729 
L 84.120085 107.673537 
L 80.12644 108.186472 
z
" clip-path="url(#p335e617b35)" style="fill-opacity: 0.4"/>
   </g>
   <g id="matplotlib.axis_3">
    <g id="xtick_7">
     <g id="line2d_28">
      <path d="M 80.12644 119.921833 
L 80.12644 70.918619 
" clip-path="url(#p335e617b35)" style="fill: none; stroke: #b0b0b0; stroke-opacity: 0.5; stroke-width: 0.8; stroke-linecap: square"/>
     </g>
     <g id="line2d_29">
      <g>
       <use xlink:href="#ma00f1da351" x="80.12644" y="119.921833" style="stroke: #000000; stroke-width: 0.8"/>
      </g>
     </g>
    </g>
    <g id="xtick_8">
     <g id="line2d_30">
      <path d="M 119.264169 119.921833 
L 119.264169 70.918619 
" clip-path="url(#p335e617b35)" style="fill: none; stroke: #b0b0b0; stroke-opacity: 0.5; stroke-width: 0.8; stroke-linecap: square"/>
     </g>
     <g id="line2d_31">
      <g>
       <use xlink:href="#ma00f1da351" x="119.264169" y="119.921833" style="stroke: #000000; stroke-width: 0.8"/>
      </g>
     </g>
    </g>
    <g id="xtick_9">
     <g id="line2d_32">
      <path d="M 158.401899 119.921833 
L 158.401899 70.918619 
" clip-path="url(#p335e617b35)" style="fill: none; stroke: #b0b0b0; stroke-opacity: 0.5; stroke-width: 0.8; stroke-linecap: square"/>
     </g>
     <g id="line2d_33">
      <g>
       <use xlink:href="#ma00f1da351" x="158.401899" y="119.921833" style="stroke: #000000; stroke-width: 0.8"/>
      </g>
     </g>
    </g>
    <g id="xtick_10">
     <g id="line2d_34">
      <path d="M 197.539628 119.921833 
L 197.539628 70.918619 
" clip-path="url(#p335e617b35)" style="fill: none; stroke: #b0b0b0; stroke-opacity: 0.5; stroke-width: 0.8; stroke-linecap: square"/>
     </g>
     <g id="line2d_35">
      <g>
       <use xlink:href="#ma00f1da351" x="197.539628" y="119.921833" style="stroke: #000000; stroke-width: 0.8"/>
      </g>
     </g>
    </g>
    <g id="xtick_11">
     <g id="line2d_36">
      <path d="M 236.677358 119.921833 
L 236.677358 70.918619 
" clip-path="url(#p335e617b35)" style="fill: none; stroke: #b0b0b0; stroke-opacity: 0.5; stroke-width: 0.8; stroke-linecap: square"/>
     </g>
     <g id="line2d_37">
      <g>
       <use xlink:href="#ma00f1da351" x="236.677358" y="119.921833" style="stroke: #000000; stroke-width: 0.8"/>
      </g>
     </g>
    </g>
    <g id="xtick_12">
     <g id="line2d_38">
      <path d="M 275.815088 119.921833 
L 275.815088 70.918619 
" clip-path="url(#p335e617b35)" style="fill: none; stroke: #b0b0b0; stroke-opacity: 0.5; stroke-width: 0.8; stroke-linecap: square"/>
     </g>
     <g id="line2d_39">
      <g>
       <use xlink:href="#ma00f1da351" x="275.815088" y="119.921833" style="stroke: #000000; stroke-width: 0.8"/>
      </g>
     </g>
    </g>
   </g>
   <g id="matplotlib.axis_4">
    <g id="ytick_4">
     <g id="line2d_40">
      <path d="M 70.342007 119.921833 
L 285.59952 119.921833 
" clip-path="url(#p335e617b35)" style="fill: none; stroke: #b0b0b0; stroke-opacity: 0.5; stroke-width: 0.8; stroke-linecap: square"/>
     </g>
     <g id="line2d_41">
      <g>
       <use xlink:href="#maf715488a7" x="70.342007" y="119.921833" style="stroke: #000000; stroke-width: 0.8"/>
      </g>
     </g>
     <g id="text_9">
      <!-- $\mathdefault{0.50}$ -->
      <g transform="translate(45.630593 123.381082) scale(0.1 -0.1)">
       <use xlink:href="#CMR17-30" transform="scale(0.996264)"/>
       <use xlink:href="#CMMI12-3a" transform="translate(45.690477 0) scale(0.996264)"/>
       <use xlink:href="#CMR17-35" transform="translate(72.787654 0) scale(0.996264)"/>
       <use xlink:href="#CMR17-30" transform="translate(118.478131 0) scale(0.996264)"/>
      </g>
     </g>
    </g>
    <g id="ytick_5">
     <g id="line2d_42">
      <path d="M 70.342007 95.420226 
L 285.59952 95.420226 
" clip-path="url(#p335e617b35)" style="fill: none; stroke: #b0b0b0; stroke-opacity: 0.5; stroke-width: 0.8; stroke-linecap: square"/>
     </g>
     <g id="line2d_43">
      <g>
       <use xlink:href="#maf715488a7" x="70.342007" y="95.420226" style="stroke: #000000; stroke-width: 0.8"/>
      </g>
     </g>
     <g id="text_10">
      <!-- $\mathdefault{0.75}$ -->
      <g transform="translate(45.630593 98.879475) scale(0.1 -0.1)">
       <use xlink:href="#CMR17-30" transform="scale(0.996264)"/>
       <use xlink:href="#CMMI12-3a" transform="translate(45.690477 0) scale(0.996264)"/>
       <use xlink:href="#CMR17-37" transform="translate(72.787654 0) scale(0.996264)"/>
       <use xlink:href="#CMR17-35" transform="translate(118.478131 0) scale(0.996264)"/>
      </g>
     </g>
    </g>
    <g id="ytick_6">
     <g id="line2d_44">
      <path d="M 70.342007 70.918619 
L 285.59952 70.918619 
" clip-path="url(#p335e617b35)" style="fill: none; stroke: #b0b0b0; stroke-opacity: 0.5; stroke-width: 0.8; stroke-linecap: square"/>
     </g>
     <g id="line2d_45">
      <g>
       <use xlink:href="#maf715488a7" x="70.342007" y="70.918619" style="stroke: #000000; stroke-width: 0.8"/>
      </g>
     </g>
     <g id="text_11">
      <!-- $\mathdefault{1.00}$ -->
      <g transform="translate(45.630593 74.377869) scale(0.1 -0.1)">
       <use xlink:href="#CMR17-31" transform="scale(0.996264)"/>
       <use xlink:href="#CMMI12-3a" transform="translate(45.690477 0) scale(0.996264)"/>
       <use xlink:href="#CMR17-30" transform="translate(72.787654 0) scale(0.996264)"/>
       <use xlink:href="#CMR17-30" transform="translate(118.478131 0) scale(0.996264)"/>
      </g>
     </g>
    </g>
    <g id="text_12">
     <!-- $0.0D$,  -->
     <g transform="translate(27.145754 107.431458) rotate(-90) scale(0.1 -0.1)">
      <use xlink:href="#CMR17-30" transform="scale(0.996264)"/>
      <use xlink:href="#CMMI12-3a" transform="translate(45.690477 0) scale(0.996264)"/>
      <use xlink:href="#CMR17-30" transform="translate(72.787654 0) scale(0.996264)"/>
      <use xlink:href="#CMMI12-44" transform="translate(118.478131 0) scale(0.996264)"/>
      <use xlink:href="#CMR17-2c" transform="translate(202.182079 0) scale(0.996264)"/>
     </g>
     <!--  $\bar u_r^\text{S} / u_\infty$ -->
     <g transform="translate(39.139933 110.034475) rotate(-90) scale(0.1 -0.1)">
      <use xlink:href="#CMR17-16" transform="translate(7.624652 0.006461) scale(0.996264)"/>
      <use xlink:href="#CMMI12-75" transform="scale(0.996264)"/>
      <use xlink:href="#CMR17-53" transform="translate(55.52033 36.153639) scale(0.697382)"/>
      <use xlink:href="#CMMI12-72" transform="translate(55.52033 -24.62935) scale(0.697382)"/>
      <use xlink:href="#CMMI12-3d" transform="translate(91.64507 0) scale(0.996264)"/>
      <use xlink:href="#CMMI12-75" transform="translate(140.419989 0) scale(0.996264)"/>
      <use xlink:href="#CMSY10-31" transform="translate(195.940318 -14.943915) scale(0.697382)"/>
     </g>
    </g>
   </g>
   <g id="line2d_46">
    <path d="M 80.12644 110.523112 
L 158.401899 97.121509 
L 236.677358 91.170221 
L 275.815088 88.092345 
" clip-path="url(#p335e617b35)" style="fill: none; stroke: #1f77b4; stroke-width: 1.5; stroke-linecap: square"/>
    <g clip-path="url(#p335e617b35)">
     <use xlink:href="#m2dafe91d2e" x="80.12644" y="110.523112" style="fill: #1f77b4; stroke: #1f77b4"/>
     <use xlink:href="#m2dafe91d2e" x="158.401899" y="97.121509" style="fill: #1f77b4; stroke: #1f77b4"/>
     <use xlink:href="#m2dafe91d2e" x="236.677358" y="91.170221" style="fill: #1f77b4; stroke: #1f77b4"/>
     <use xlink:href="#m2dafe91d2e" x="275.815088" y="88.092345" style="fill: #1f77b4; stroke: #1f77b4"/>
    </g>
   </g>
   <g id="line2d_47">
    <path d="M 80.12644 111.433109 
L 158.401899 99.108224 
L 236.677358 91.025154 
L 275.815088 88.191011 
" clip-path="url(#p335e617b35)" style="fill: none; stroke: #ff7f0e; stroke-width: 1.5; stroke-linecap: square"/>
    <g clip-path="url(#p335e617b35)">
     <use xlink:href="#m29061145e0" x="80.12644" y="111.433109" style="fill: #ff7f0e; stroke: #ff7f0e"/>
     <use xlink:href="#m29061145e0" x="158.401899" y="99.108224" style="fill: #ff7f0e; stroke: #ff7f0e"/>
     <use xlink:href="#m29061145e0" x="236.677358" y="91.025154" style="fill: #ff7f0e; stroke: #ff7f0e"/>
     <use xlink:href="#m29061145e0" x="275.815088" y="88.191011" style="fill: #ff7f0e; stroke: #ff7f0e"/>
    </g>
   </g>
   <g id="line2d_48">
    <path d="M 80.12644 111.971291 
L 158.401899 98.499784 
L 236.677358 91.28413 
L 275.815088 88.017107 
" clip-path="url(#p335e617b35)" style="fill: none; stroke: #2ca02c; stroke-width: 1.5; stroke-linecap: square"/>
    <g clip-path="url(#p335e617b35)">
     <use xlink:href="#m28a220b6db" x="80.12644" y="111.971291" style="fill: #2ca02c; stroke: #2ca02c"/>
     <use xlink:href="#m28a220b6db" x="158.401899" y="98.499784" style="fill: #2ca02c; stroke: #2ca02c"/>
     <use xlink:href="#m28a220b6db" x="236.677358" y="91.28413" style="fill: #2ca02c; stroke: #2ca02c"/>
     <use xlink:href="#m28a220b6db" x="275.815088" y="88.017107" style="fill: #2ca02c; stroke: #2ca02c"/>
    </g>
   </g>
   <g id="line2d_49">
    <path d="M 80.12644 110.836055 
L 158.401899 97.380512 
L 236.677358 91.930648 
L 275.815088 87.707755 
" clip-path="url(#p335e617b35)" style="fill: none; stroke: #d62728; stroke-width: 1.5; stroke-linecap: square"/>
    <g clip-path="url(#p335e617b35)">
     <use xlink:href="#m06a4dd46c4" x="80.12644" y="110.836055" style="fill: #d62728; stroke: #d62728"/>
     <use xlink:href="#m06a4dd46c4" x="158.401899" y="97.380512" style="fill: #d62728; stroke: #d62728"/>
     <use xlink:href="#m06a4dd46c4" x="236.677358" y="91.930648" style="fill: #d62728; stroke: #d62728"/>
     <use xlink:href="#m06a4dd46c4" x="275.815088" y="87.707755" style="fill: #d62728; stroke: #d62728"/>
    </g>
   </g>
   <g id="line2d_50">
    <path d="M 80.12644 106.844164 
L 84.120085 106.3368 
L 88.113731 105.846472 
L 92.107377 105.372016 
L 96.101023 104.912393 
L 100.094669 104.466671 
L 104.088315 104.034009 
L 108.081961 103.613647 
L 112.075607 103.204893 
L 116.069252 102.807119 
L 120.062898 102.419747 
L 124.056544 102.042249 
L 128.05019 101.67414 
L 132.043836 101.314971 
L 136.037482 100.964327 
L 140.031128 100.621825 
L 144.024774 100.287107 
L 148.018419 99.959842 
L 152.012065 99.639719 
L 156.005711 99.32645 
L 159.999357 99.019764 
L 163.993003 98.719406 
L 167.986649 98.425139 
L 171.980295 98.136738 
L 175.973941 97.853992 
L 179.967587 97.576702 
L 183.961232 97.30468 
L 187.954878 97.037748 
L 191.948524 96.775737 
L 195.94217 96.518488 
L 199.935816 96.265849 
L 203.929462 96.017677 
L 207.923108 95.773835 
L 211.916754 95.534192 
L 215.910399 95.298624 
L 219.904045 95.067014 
L 223.897691 94.839247 
L 227.891337 94.615217 
L 231.884983 94.394819 
L 235.878629 94.177956 
L 239.872275 93.964532 
L 243.865921 93.754457 
L 247.859566 93.547644 
L 251.853212 93.34401 
L 255.846858 93.143474 
L 259.840504 92.94596 
L 263.83415 92.751393 
L 267.827796 92.559702 
L 271.821442 92.370818 
L 275.815088 92.184676 
" clip-path="url(#p335e617b35)" style="fill: none; stroke-dasharray: 5.55,2.4; stroke-dashoffset: 0; stroke: #000000; stroke-width: 1.5"/>
   </g>
   <g id="patch_9">
    <path d="M 70.342007 119.921833 
L 70.342007 70.918619 
" style="fill: none; stroke: #000000; stroke-width: 0.8; stroke-linejoin: miter; stroke-linecap: square"/>
   </g>
   <g id="patch_10">
    <path d="M 285.59952 119.921833 
L 285.59952 70.918619 
" style="fill: none; stroke: #000000; stroke-width: 0.8; stroke-linejoin: miter; stroke-linecap: square"/>
   </g>
   <g id="patch_11">
    <path d="M 70.342007 119.921833 
L 285.59952 119.921833 
" style="fill: none; stroke: #000000; stroke-width: 0.8; stroke-linejoin: miter; stroke-linecap: square"/>
   </g>
   <g id="patch_12">
    <path d="M 70.342007 70.918619 
L 285.59952 70.918619 
" style="fill: none; stroke: #000000; stroke-width: 0.8; stroke-linejoin: miter; stroke-linecap: square"/>
   </g>
  </g>
  <g id="axes_3">
   <g id="patch_13">
    <path d="M 70.342007 183.781203 
L 285.59952 183.781203 
L 285.59952 134.77799 
L 70.342007 134.77799 
z
" style="fill: #ffffff"/>
   </g>
   <g id="FillBetweenPolyCollection_3">
    <path d="M 80.12644 156.442369 
L 80.12644 153.500971 
L 84.120085 153.277104 
L 88.113731 153.060827 
L 92.107377 152.851639 
L 96.101023 152.649089 
L 100.094669 152.452769 
L 104.088315 152.262309 
L 108.081961 152.077372 
L 112.075607 151.89765 
L 116.069252 151.722861 
L 120.062898 151.552747 
L 124.056544 151.387067 
L 128.05019 151.225602 
L 132.043836 151.068147 
L 136.037482 150.914513 
L 140.031128 150.764524 
L 144.024774 150.618016 
L 148.018419 150.474835 
L 152.012065 150.334839 
L 156.005711 150.197893 
L 159.999357 150.063872 
L 163.993003 149.932657 
L 167.986649 149.804138 
L 171.980295 149.678211 
L 175.973941 149.554776 
L 179.967587 149.43374 
L 183.961232 149.315016 
L 187.954878 149.19852 
L 191.948524 149.084174 
L 195.94217 148.971902 
L 199.935816 148.861634 
L 203.929462 148.753302 
L 207.923108 148.646842 
L 211.916754 148.542194 
L 215.910399 148.439298 
L 219.904045 148.3381 
L 223.897691 148.238547 
L 227.891337 148.140588 
L 231.884983 148.044175 
L 235.878629 147.949263 
L 239.872275 147.855806 
L 243.865921 147.763763 
L 247.859566 147.673094 
L 251.853212 147.583759 
L 255.846858 147.495722 
L 259.840504 147.408948 
L 263.83415 147.3234 
L 267.827796 147.239048 
L 271.821442 147.15586 
L 275.815088 147.073804 
L 275.815088 149.126716 
L 275.815088 149.126716 
L 271.821442 149.220935 
L 267.827796 149.316423 
L 263.83415 149.413214 
L 259.840504 149.511342 
L 255.846858 149.610844 
L 251.853212 149.711757 
L 247.859566 149.814122 
L 243.865921 149.917979 
L 239.872275 150.023371 
L 235.878629 150.130343 
L 231.884983 150.238942 
L 227.891337 150.349217 
L 223.897691 150.461219 
L 219.904045 150.575001 
L 215.910399 150.69062 
L 211.916754 150.808135 
L 207.923108 150.927608 
L 203.929462 151.049103 
L 199.935816 151.172689 
L 195.94217 151.298438 
L 191.948524 151.426424 
L 187.954878 151.556728 
L 183.961232 151.689434 
L 179.967587 151.82463 
L 175.973941 151.96241 
L 171.980295 152.102874 
L 167.986649 152.246126 
L 163.993003 152.392278 
L 159.999357 152.541448 
L 156.005711 152.693762 
L 152.012065 152.849355 
L 148.018419 153.00837 
L 144.024774 153.170958 
L 140.031128 153.337285 
L 136.037482 153.507525 
L 132.043836 153.681866 
L 128.05019 153.860512 
L 124.056544 154.043681 
L 120.062898 154.231608 
L 116.069252 154.42455 
L 112.075607 154.622784 
L 108.081961 154.826613 
L 104.088315 155.036367 
L 100.094669 155.252407 
L 96.101023 155.47513 
L 92.107377 155.704975 
L 88.113731 155.942427 
L 84.120085 156.188024 
L 80.12644 156.442369 
z
" clip-path="url(#pd8ac8bdb14)" style="fill-opacity: 0.4"/>
   </g>
   <g id="matplotlib.axis_5">
    <g id="xtick_13">
     <g id="line2d_51">
      <path d="M 80.12644 183.781203 
L 80.12644 134.77799 
" clip-path="url(#pd8ac8bdb14)" style="fill: none; stroke: #b0b0b0; stroke-opacity: 0.5; stroke-width: 0.8; stroke-linecap: square"/>
     </g>
     <g id="line2d_52">
      <g>
       <use xlink:href="#ma00f1da351" x="80.12644" y="183.781203" style="stroke: #000000; stroke-width: 0.8"/>
      </g>
     </g>
     <g id="text_13">
      <!-- $\mathdefault{3}$ -->
      <g transform="translate(77.635772 197.699702) scale(0.1 -0.1)">
       <use xlink:href="#CMR17-33" transform="scale(0.996264)"/>
      </g>
     </g>
    </g>
    <g id="xtick_14">
     <g id="line2d_53">
      <path d="M 119.264169 183.781203 
L 119.264169 134.77799 
" clip-path="url(#pd8ac8bdb14)" style="fill: none; stroke: #b0b0b0; stroke-opacity: 0.5; stroke-width: 0.8; stroke-linecap: square"/>
     </g>
     <g id="line2d_54">
      <g>
       <use xlink:href="#ma00f1da351" x="119.264169" y="183.781203" style="stroke: #000000; stroke-width: 0.8"/>
      </g>
     </g>
     <g id="text_14">
      <!-- $\mathdefault{4}$ -->
      <g transform="translate(116.773502 197.699702) scale(0.1 -0.1)">
       <defs>
        <path id="CMR17-34" d="M 2150 4122 
C 2150 4256 2144 4256 2029 4256 
L 128 1254 
L 128 1088 
L 1779 1088 
L 1779 457 
C 1779 224 1766 160 1318 160 
L 1197 160 
L 1197 0 
C 1402 0 1747 0 1965 0 
C 2182 0 2528 0 2733 0 
L 2733 160 
L 2611 160 
C 2163 160 2150 224 2150 457 
L 2150 1088 
L 2803 1088 
L 2803 1254 
L 2150 1254 
L 2150 4122 
z
M 1798 3703 
L 1798 1254 
L 256 1254 
L 1798 3703 
z
" transform="scale(0.015625)"/>
       </defs>
       <use xlink:href="#CMR17-34" transform="scale(0.996264)"/>
      </g>
     </g>
    </g>
    <g id="xtick_15">
     <g id="line2d_55">
      <path d="M 158.401899 183.781203 
L 158.401899 134.77799 
" clip-path="url(#pd8ac8bdb14)" style="fill: none; stroke: #b0b0b0; stroke-opacity: 0.5; stroke-width: 0.8; stroke-linecap: square"/>
     </g>
     <g id="line2d_56">
      <g>
       <use xlink:href="#ma00f1da351" x="158.401899" y="183.781203" style="stroke: #000000; stroke-width: 0.8"/>
      </g>
     </g>
     <g id="text_15">
      <!-- $\mathdefault{5}$ -->
      <g transform="translate(155.911231 197.699702) scale(0.1 -0.1)">
       <use xlink:href="#CMR17-35" transform="scale(0.996264)"/>
      </g>
     </g>
    </g>
    <g id="xtick_16">
     <g id="line2d_57">
      <path d="M 197.539628 183.781203 
L 197.539628 134.77799 
" clip-path="url(#pd8ac8bdb14)" style="fill: none; stroke: #b0b0b0; stroke-opacity: 0.5; stroke-width: 0.8; stroke-linecap: square"/>
     </g>
     <g id="line2d_58">
      <g>
       <use xlink:href="#ma00f1da351" x="197.539628" y="183.781203" style="stroke: #000000; stroke-width: 0.8"/>
      </g>
     </g>
     <g id="text_16">
      <!-- $\mathdefault{6}$ -->
      <g transform="translate(195.048961 197.699702) scale(0.1 -0.1)">
       <defs>
        <path id="CMR17-36" d="M 678 2176 
C 678 3690 1395 4032 1811 4032 
C 1946 4032 2272 4009 2400 3776 
C 2298 3776 2106 3776 2106 3553 
C 2106 3381 2246 3323 2336 3323 
C 2394 3323 2566 3348 2566 3560 
C 2566 3954 2246 4179 1805 4179 
C 1043 4179 243 3390 243 1984 
C 243 253 966 -128 1478 -128 
C 2099 -128 2688 427 2688 1283 
C 2688 2081 2170 2662 1517 2662 
C 1126 2662 838 2407 678 1960 
L 678 2176 
z
M 1478 25 
C 691 25 691 1200 691 1436 
C 691 1896 909 2560 1504 2560 
C 1613 2560 1926 2560 2138 2120 
C 2253 1870 2253 1609 2253 1289 
C 2253 944 2253 690 2118 434 
C 1978 171 1773 25 1478 25 
z
" transform="scale(0.015625)"/>
       </defs>
       <use xlink:href="#CMR17-36" transform="scale(0.996264)"/>
      </g>
     </g>
    </g>
    <g id="xtick_17">
     <g id="line2d_59">
      <path d="M 236.677358 183.781203 
L 236.677358 134.77799 
" clip-path="url(#pd8ac8bdb14)" style="fill: none; stroke: #b0b0b0; stroke-opacity: 0.5; stroke-width: 0.8; stroke-linecap: square"/>
     </g>
     <g id="line2d_60">
      <g>
       <use xlink:href="#ma00f1da351" x="236.677358" y="183.781203" style="stroke: #000000; stroke-width: 0.8"/>
      </g>
     </g>
     <g id="text_17">
      <!-- $\mathdefault{7}$ -->
      <g transform="translate(234.18669 197.699702) scale(0.1 -0.1)">
       <use xlink:href="#CMR17-37" transform="scale(0.996264)"/>
      </g>
     </g>
    </g>
    <g id="xtick_18">
     <g id="line2d_61">
      <path d="M 275.815088 183.781203 
L 275.815088 134.77799 
" clip-path="url(#pd8ac8bdb14)" style="fill: none; stroke: #b0b0b0; stroke-opacity: 0.5; stroke-width: 0.8; stroke-linecap: square"/>
     </g>
     <g id="line2d_62">
      <g>
       <use xlink:href="#ma00f1da351" x="275.815088" y="183.781203" style="stroke: #000000; stroke-width: 0.8"/>
      </g>
     </g>
     <g id="text_18">
      <!-- $\mathdefault{8}$ -->
      <g transform="translate(273.32442 197.699702) scale(0.1 -0.1)">
       <defs>
        <path id="CMR17-38" d="M 1741 2264 
C 2144 2467 2554 2773 2554 3263 
C 2554 3841 1990 4179 1472 4179 
C 890 4179 378 3759 378 3180 
C 378 3021 416 2747 666 2505 
C 730 2442 998 2251 1171 2130 
C 883 1983 211 1634 211 934 
C 211 279 838 -128 1459 -128 
C 2144 -128 2720 362 2720 1010 
C 2720 1590 2330 1857 2074 2029 
L 1741 2264 
z
M 902 2822 
C 851 2854 595 3051 595 3351 
C 595 3739 998 4032 1459 4032 
C 1965 4032 2336 3676 2336 3262 
C 2336 2669 1670 2331 1638 2331 
C 1632 2331 1626 2331 1574 2370 
L 902 2822 
z
M 2080 1519 
C 2176 1449 2483 1240 2483 851 
C 2483 381 2010 25 1472 25 
C 890 25 448 438 448 940 
C 448 1443 838 1862 1280 2060 
L 2080 1519 
z
" transform="scale(0.015625)"/>
       </defs>
       <use xlink:href="#CMR17-38" transform="scale(0.996264)"/>
      </g>
     </g>
    </g>
    <g id="text_19">
     <!-- $X_\text{SPD} / D$ -->
     <g transform="translate(159.103284 211.10886) scale(0.1 -0.1)">
      <defs>
       <path id="CMMI12-58" d="M 3040 2596 
L 2438 3994 
C 2522 4147 2714 4172 2790 4179 
C 2829 4179 2899 4179 2899 4292 
C 2899 4364 2842 4364 2803 4364 
C 2694 4364 2566 4364 2458 4364 
L 2086 4364 
C 1696 4364 1414 4364 1408 4364 
C 1357 4364 1293 4364 1293 4243 
C 1293 4179 1350 4179 1434 4179 
C 1805 4179 1830 4115 1894 3962 
L 2656 2185 
L 1267 693 
C 1037 442 762 198 288 198 
C 211 192 160 192 160 68 
C 160 48 166 0 237 0 
C 326 0 422 0 512 0 
L 813 0 
C 1018 0 1242 0 1440 0 
C 1485 0 1562 0 1562 115 
C 1562 179 1517 185 1478 185 
C 1350 198 1267 268 1267 370 
C 1267 479 1344 557 1530 748 
L 2099 1368 
C 2240 1516 2579 1886 2720 2026 
L 3392 453 
C 3398 441 3424 377 3424 370 
C 3424 313 3283 198 3078 198 
C 3040 198 2970 198 2970 71 
C 2970 0 3034 0 3066 0 
C 3174 0 3302 0 3411 0 
L 4115 0 
C 4230 0 4352 0 4461 0 
C 4506 0 4576 0 4576 130 
C 4576 198 4512 198 4454 198 
C 4070 198 4058 230 3949 465 
L 3104 2441 
L 3917 3316 
C 3981 3381 4128 3542 4186 3606 
C 4461 3896 4717 4160 5235 4160 
C 5299 4179 5363 4179 5363 4292 
C 5363 4364 5306 4364 5280 4364 
C 5190 4364 5094 4364 5005 4364 
L 4710 4364 
C 4506 4364 4282 4364 4083 4364 
C 4038 4364 3962 4364 3962 4249 
C 3962 4185 4006 4179 4045 4179 
C 4147 4167 4256 4116 4256 3994 
L 4250 3982 
C 4243 3937 4230 3873 4160 3797 
L 3040 2596 
z
" transform="scale(0.015625)"/>
       <path id="CMR17-50" d="M 1267 2042 
L 2291 2042 
C 3117 2042 3718 2578 3718 3184 
C 3718 3791 3130 4352 2291 4352 
L 333 4352 
L 333 4186 
C 774 4186 845 4186 845 3899 
L 845 446 
C 845 160 774 160 333 160 
L 333 0 
C 518 0 858 0 1056 0 
C 1254 0 1594 0 1779 0 
L 1779 160 
C 1338 160 1267 160 1267 446 
L 1267 2042 
z
M 1254 2176 
L 1254 3938 
C 1254 4155 1267 4186 1523 4186 
L 2170 4186 
C 2995 4186 3232 3714 3232 3184 
C 3232 2604 2950 2176 2170 2176 
L 1254 2176 
z
" transform="scale(0.015625)"/>
       <path id="CMR17-44" d="M 333 4352 
L 333 4186 
C 774 4186 845 4186 845 3900 
L 845 452 
C 845 166 774 166 333 166 
L 333 0 
L 2368 0 
C 3398 0 4224 943 4224 2141 
C 4224 3346 3411 4352 2368 4352 
L 333 4352 
z
M 1523 166 
C 1267 166 1254 197 1254 414 
L 1254 3938 
C 1254 4155 1267 4186 1523 4186 
L 2240 4186 
C 2771 4186 3750 3874 3750 2141 
C 3750 1242 3488 879 3366 707 
C 3213 510 2848 166 2240 166 
L 1523 166 
z
" transform="scale(0.015625)"/>
      </defs>
      <use xlink:href="#CMMI12-58" transform="scale(0.996264)"/>
      <use xlink:href="#CMR17-53" transform="translate(80.960224 -14.943915) scale(0.697382)"/>
      <use xlink:href="#CMR17-50" transform="translate(116.586832 -14.943915) scale(0.697382)"/>
      <use xlink:href="#CMR17-44" transform="translate(160.397046 -14.943915) scale(0.697382)"/>
      <use xlink:href="#CMMI12-3d" transform="translate(210.170448 0) scale(0.996264)"/>
      <use xlink:href="#CMMI12-44" transform="translate(258.945367 0) scale(0.996264)"/>
     </g>
    </g>
   </g>
   <g id="matplotlib.axis_6">
    <g id="ytick_7">
     <g id="line2d_63">
      <path d="M 70.342007 183.781203 
L 285.59952 183.781203 
" clip-path="url(#pd8ac8bdb14)" style="fill: none; stroke: #b0b0b0; stroke-opacity: 0.5; stroke-width: 0.8; stroke-linecap: square"/>
     </g>
     <g id="line2d_64">
      <g>
       <use xlink:href="#maf715488a7" x="70.342007" y="183.781203" style="stroke: #000000; stroke-width: 0.8"/>
      </g>
     </g>
     <g id="text_20">
      <!-- $\mathdefault{0.50}$ -->
      <g transform="translate(45.630593 187.240452) scale(0.1 -0.1)">
       <use xlink:href="#CMR17-30" transform="scale(0.996264)"/>
       <use xlink:href="#CMMI12-3a" transform="translate(45.690477 0) scale(0.996264)"/>
       <use xlink:href="#CMR17-35" transform="translate(72.787654 0) scale(0.996264)"/>
       <use xlink:href="#CMR17-30" transform="translate(118.478131 0) scale(0.996264)"/>
      </g>
     </g>
    </g>
    <g id="ytick_8">
     <g id="line2d_65">
      <path d="M 70.342007 159.279596 
L 285.59952 159.279596 
" clip-path="url(#pd8ac8bdb14)" style="fill: none; stroke: #b0b0b0; stroke-opacity: 0.5; stroke-width: 0.8; stroke-linecap: square"/>
     </g>
     <g id="line2d_66">
      <g>
       <use xlink:href="#maf715488a7" x="70.342007" y="159.279596" style="stroke: #000000; stroke-width: 0.8"/>
      </g>
     </g>
     <g id="text_21">
      <!-- $\mathdefault{0.75}$ -->
      <g transform="translate(45.630593 162.738846) scale(0.1 -0.1)">
       <use xlink:href="#CMR17-30" transform="scale(0.996264)"/>
       <use xlink:href="#CMMI12-3a" transform="translate(45.690477 0) scale(0.996264)"/>
       <use xlink:href="#CMR17-37" transform="translate(72.787654 0) scale(0.996264)"/>
       <use xlink:href="#CMR17-35" transform="translate(118.478131 0) scale(0.996264)"/>
      </g>
     </g>
    </g>
    <g id="ytick_9">
     <g id="line2d_67">
      <path d="M 70.342007 134.77799 
L 285.59952 134.77799 
" clip-path="url(#pd8ac8bdb14)" style="fill: none; stroke: #b0b0b0; stroke-opacity: 0.5; stroke-width: 0.8; stroke-linecap: square"/>
     </g>
     <g id="line2d_68">
      <g>
       <use xlink:href="#maf715488a7" x="70.342007" y="134.77799" style="stroke: #000000; stroke-width: 0.8"/>
      </g>
     </g>
     <g id="text_22">
      <!-- $\mathdefault{1.00}$ -->
      <g transform="translate(45.630593 138.237239) scale(0.1 -0.1)">
       <use xlink:href="#CMR17-31" transform="scale(0.996264)"/>
       <use xlink:href="#CMMI12-3a" transform="translate(45.690477 0) scale(0.996264)"/>
       <use xlink:href="#CMR17-30" transform="translate(72.787654 0) scale(0.996264)"/>
       <use xlink:href="#CMR17-30" transform="translate(118.478131 0) scale(0.996264)"/>
      </g>
     </g>
    </g>
    <g id="text_23">
     <!-- $0.5D$,  -->
     <g transform="translate(27.145754 171.290829) rotate(-90) scale(0.1 -0.1)">
      <use xlink:href="#CMR17-30" transform="scale(0.996264)"/>
      <use xlink:href="#CMMI12-3a" transform="translate(45.690477 0) scale(0.996264)"/>
      <use xlink:href="#CMR17-35" transform="translate(72.787654 0) scale(0.996264)"/>
      <use xlink:href="#CMMI12-44" transform="translate(118.478131 0) scale(0.996264)"/>
      <use xlink:href="#CMR17-2c" transform="translate(202.182079 0) scale(0.996264)"/>
     </g>
     <!--  $\bar u_r^\text{S} / u_\infty$ -->
     <g transform="translate(39.139933 173.893845) rotate(-90) scale(0.1 -0.1)">
      <use xlink:href="#CMR17-16" transform="translate(7.624652 0.006461) scale(0.996264)"/>
      <use xlink:href="#CMMI12-75" transform="scale(0.996264)"/>
      <use xlink:href="#CMR17-53" transform="translate(55.52033 36.153639) scale(0.697382)"/>
      <use xlink:href="#CMMI12-72" transform="translate(55.52033 -24.62935) scale(0.697382)"/>
      <use xlink:href="#CMMI12-3d" transform="translate(91.64507 0) scale(0.996264)"/>
      <use xlink:href="#CMMI12-75" transform="translate(140.419989 0) scale(0.996264)"/>
      <use xlink:href="#CMSY10-31" transform="translate(195.940318 -14.943915) scale(0.697382)"/>
     </g>
    </g>
   </g>
   <g id="line2d_69">
    <path d="M 80.12644 150.299294 
L 158.401899 144.263119 
L 236.677358 144.82192 
L 275.815088 144.117551 
" clip-path="url(#pd8ac8bdb14)" style="fill: none; stroke: #1f77b4; stroke-width: 1.5; stroke-linecap: square"/>
    <g clip-path="url(#pd8ac8bdb14)">
     <use xlink:href="#m2dafe91d2e" x="80.12644" y="150.299294" style="fill: #1f77b4; stroke: #1f77b4"/>
     <use xlink:href="#m2dafe91d2e" x="158.401899" y="144.263119" style="fill: #1f77b4; stroke: #1f77b4"/>
     <use xlink:href="#m2dafe91d2e" x="236.677358" y="144.82192" style="fill: #1f77b4; stroke: #1f77b4"/>
     <use xlink:href="#m2dafe91d2e" x="275.815088" y="144.117551" style="fill: #1f77b4; stroke: #1f77b4"/>
    </g>
   </g>
   <g id="line2d_70">
    <path d="M 80.12644 148.65537 
L 158.401899 144.829997 
L 236.677358 144.478238 
L 275.815088 145.383076 
" clip-path="url(#pd8ac8bdb14)" style="fill: none; stroke: #ff7f0e; stroke-width: 1.5; stroke-linecap: square"/>
    <g clip-path="url(#pd8ac8bdb14)">
     <use xlink:href="#m29061145e0" x="80.12644" y="148.65537" style="fill: #ff7f0e; stroke: #ff7f0e"/>
     <use xlink:href="#m29061145e0" x="158.401899" y="144.829997" style="fill: #ff7f0e; stroke: #ff7f0e"/>
     <use xlink:href="#m29061145e0" x="236.677358" y="144.478238" style="fill: #ff7f0e; stroke: #ff7f0e"/>
     <use xlink:href="#m29061145e0" x="275.815088" y="145.383076" style="fill: #ff7f0e; stroke: #ff7f0e"/>
    </g>
   </g>
   <g id="line2d_71">
    <path d="M 80.12644 149.087618 
L 158.401899 144.237675 
L 236.677358 144.612069 
L 275.815088 144.28736 
" clip-path="url(#pd8ac8bdb14)" style="fill: none; stroke: #2ca02c; stroke-width: 1.5; stroke-linecap: square"/>
    <g clip-path="url(#pd8ac8bdb14)">
     <use xlink:href="#m28a220b6db" x="80.12644" y="149.087618" style="fill: #2ca02c; stroke: #2ca02c"/>
     <use xlink:href="#m28a220b6db" x="158.401899" y="144.237675" style="fill: #2ca02c; stroke: #2ca02c"/>
     <use xlink:href="#m28a220b6db" x="236.677358" y="144.612069" style="fill: #2ca02c; stroke: #2ca02c"/>
     <use xlink:href="#m28a220b6db" x="275.815088" y="144.28736" style="fill: #2ca02c; stroke: #2ca02c"/>
    </g>
   </g>
   <g id="line2d_72">
    <path d="M 80.12644 148.038764 
L 158.401899 144.93633 
L 236.677358 144.498763 
L 275.815088 145.12674 
" clip-path="url(#pd8ac8bdb14)" style="fill: none; stroke: #d62728; stroke-width: 1.5; stroke-linecap: square"/>
    <g clip-path="url(#pd8ac8bdb14)">
     <use xlink:href="#m06a4dd46c4" x="80.12644" y="148.038764" style="fill: #d62728; stroke: #d62728"/>
     <use xlink:href="#m06a4dd46c4" x="158.401899" y="144.93633" style="fill: #d62728; stroke: #d62728"/>
     <use xlink:href="#m06a4dd46c4" x="236.677358" y="144.498763" style="fill: #d62728; stroke: #d62728"/>
     <use xlink:href="#m06a4dd46c4" x="275.815088" y="145.12674" style="fill: #d62728; stroke: #d62728"/>
    </g>
   </g>
   <g id="line2d_73">
    <path d="M 80.12644 155.299043 
L 84.120085 155.049191 
L 88.113731 154.808249 
L 92.107377 154.575589 
L 96.101023 154.350648 
L 100.094669 154.13292 
L 104.088315 153.921951 
L 108.081961 153.717331 
L 112.075607 153.518685 
L 116.069252 153.325673 
L 120.062898 153.137984 
L 124.056544 152.955332 
L 128.05019 152.777455 
L 132.043836 152.604112 
L 136.037482 152.435078 
L 140.031128 152.270148 
L 144.024774 152.109128 
L 148.018419 151.951841 
L 152.012065 151.798119 
L 156.005711 151.647808 
L 159.999357 151.500761 
L 163.993003 151.356844 
L 167.986649 151.215927 
L 171.980295 151.077892 
L 175.973941 150.942625 
L 179.967587 150.81002 
L 183.961232 150.679977 
L 187.954878 150.552401 
L 191.948524 150.427203 
L 195.94217 150.304297 
L 199.935816 150.183605 
L 203.929462 150.065049 
L 207.923108 149.948557 
L 211.916754 149.834061 
L 215.910399 149.721495 
L 219.904045 149.610797 
L 223.897691 149.501909 
L 227.891337 149.394773 
L 231.884983 149.289336 
L 235.878629 149.185547 
L 239.872275 149.083355 
L 243.865921 148.982715 
L 247.859566 148.883581 
L 251.853212 148.785911 
L 255.846858 148.689663 
L 259.840504 148.594798 
L 263.83415 148.501278 
L 267.827796 148.409066 
L 271.821442 148.318128 
L 275.815088 148.22843 
" clip-path="url(#pd8ac8bdb14)" style="fill: none; stroke-dasharray: 5.55,2.4; stroke-dashoffset: 0; stroke: #000000; stroke-width: 1.5"/>
   </g>
   <g id="patch_14">
    <path d="M 70.342007 183.781203 
L 70.342007 134.77799 
" style="fill: none; stroke: #000000; stroke-width: 0.8; stroke-linejoin: miter; stroke-linecap: square"/>
   </g>
   <g id="patch_15">
    <path d="M 285.59952 183.781203 
L 285.59952 134.77799 
" style="fill: none; stroke: #000000; stroke-width: 0.8; stroke-linejoin: miter; stroke-linecap: square"/>
   </g>
   <g id="patch_16">
    <path d="M 70.342007 183.781203 
L 285.59952 183.781203 
" style="fill: none; stroke: #000000; stroke-width: 0.8; stroke-linejoin: miter; stroke-linecap: square"/>
   </g>
   <g id="patch_17">
    <path d="M 70.342007 134.77799 
L 285.59952 134.77799 
" style="fill: none; stroke: #000000; stroke-width: 0.8; stroke-linejoin: miter; stroke-linecap: square"/>
   </g>
   <g id="legend_2">
    <g id="patch_18">
     <path d="M 76.647157 182.801139 
L 160.314671 182.801139 
Q 162.314671 182.801139 162.314671 180.801139 
L 162.314671 167.863961 
Q 162.314671 165.863961 160.314671 165.863961 
L 76.647157 165.863961 
Q 74.647157 165.863961 74.647157 167.863961 
L 74.647157 180.801139 
Q 74.647157 182.801139 76.647157 182.801139 
z
" style="fill: #ffffff; opacity: 0.8; stroke: #cccccc; stroke-linejoin: miter"/>
    </g>
    <g id="line2d_74">
     <path d="M 78.647157 173.363961 
L 88.647157 173.363961 
L 98.647157 173.363961 
" style="fill: none; stroke-dasharray: 5.55,2.4; stroke-dashoffset: 0; stroke: #000000; stroke-width: 1.5"/>
    </g>
    <g id="text_24">
     <!-- Bastankhah -->
     <g transform="translate(106.647157 176.863961) scale(0.1 -0.1)">
      <defs>
       <path id="CMR17-42" d="M 333 4352 
L 333 4186 
C 774 4186 845 4186 845 3900 
L 845 452 
C 845 166 774 166 333 166 
L 333 0 
L 2534 0 
C 3354 0 3885 583 3885 1164 
C 3885 1741 3360 2233 2675 2233 
C 3290 2356 3718 2771 3718 3264 
C 3718 3802 3194 4352 2368 4352 
L 333 4352 
z
M 1248 2304 
L 1248 3937 
C 1248 4155 1261 4186 1517 4186 
L 2336 4186 
C 2970 4186 3251 3674 3251 3277 
C 3251 2791 2861 2304 2170 2304 
L 1248 2304 
z
M 1517 166 
C 1261 166 1248 197 1248 413 
L 1248 2202 
L 2432 2202 
C 3091 2202 3411 1625 3411 1162 
C 3411 699 3046 166 2349 166 
L 1517 166 
z
" transform="scale(0.015625)"/>
       <path id="CMR17-61" d="M 2304 1653 
C 2304 2072 2304 2294 2035 2543 
C 1798 2752 1523 2816 1306 2816 
C 800 2816 435 2407 435 1971 
C 435 1728 627 1728 666 1728 
C 749 1728 896 1778 896 1954 
C 896 2112 774 2181 666 2181 
C 640 2181 608 2174 589 2168 
C 723 2592 1069 2714 1293 2714 
C 1613 2714 1965 2429 1965 1885 
L 1965 1600 
C 1587 1600 1133 1549 774 1357 
C 371 1133 256 813 256 570 
C 256 77 832 -64 1171 -64 
C 1523 -64 1850 139 1990 511 
C 2003 233 2182 -18 2464 -18 
C 2598 -18 2938 70 2938 567 
L 2938 920 
L 2822 920 
L 2822 562 
C 2822 178 2650 128 2566 128 
C 2304 128 2304 458 2304 738 
L 2304 1653 
z
M 1965 870 
C 1965 317 1568 38 1216 38 
C 896 38 646 275 646 570 
C 646 761 730 1100 1101 1305 
C 1408 1478 1760 1504 1965 1504 
L 1965 870 
z
" transform="scale(0.015625)"/>
       <path id="CMR17-73" d="M 1978 2697 
C 1978 2813 1971 2819 1933 2819 
C 1907 2819 1901 2813 1824 2717 
C 1805 2691 1747 2626 1728 2601 
C 1523 2819 1235 2819 1126 2819 
C 416 2819 160 2447 160 2076 
C 160 1498 813 1365 998 1325 
C 1402 1243 1542 1217 1677 1101 
C 1760 1025 1901 884 1901 654 
C 1901 384 1747 38 1158 38 
C 602 38 403 460 288 1021 
C 269 1110 269 1117 218 1117 
C 166 1117 160 1110 160 983 
L 160 63 
C 160 -51 166 -58 205 -58 
C 237 -58 243 -51 275 0 
C 314 57 410 211 448 276 
C 576 103 800 -64 1158 -64 
C 1792 -64 2131 283 2131 784 
C 2131 1112 1958 1285 1875 1362 
C 1683 1561 1459 1606 1190 1657 
C 838 1735 390 1825 390 2217 
C 390 2383 480 2737 1126 2737 
C 1811 2737 1850 2094 1862 1888 
C 1869 1856 1901 1849 1920 1849 
C 1978 1849 1978 1869 1978 1978 
L 1978 2697 
z
" transform="scale(0.015625)"/>
       <path id="CMR17-74" d="M 966 2560 
L 1862 2560 
L 1862 2725 
L 966 2725 
L 966 3904 
L 851 3904 
C 838 3245 614 2668 70 2668 
L 70 2560 
L 627 2560 
L 627 771 
C 627 650 627 -64 1370 -64 
C 1747 -64 1965 306 1965 777 
L 1965 1140 
L 1850 1140 
L 1850 783 
C 1850 344 1677 51 1408 51 
C 1222 51 966 178 966 758 
L 966 2560 
z
" transform="scale(0.015625)"/>
       <path id="CMR17-6e" d="M 2656 1933 
C 2656 2259 2592 2790 1837 2790 
C 1331 2790 1069 2400 973 2144 
L 966 2144 
L 966 2790 
L 211 2720 
L 211 2554 
C 589 2554 646 2515 646 2208 
L 646 428 
C 646 184 621 153 211 153 
L 211 -13 
C 365 0 646 0 813 0 
C 979 0 1267 0 1421 -13 
L 1421 153 
C 1011 153 986 178 986 428 
L 986 1658 
C 986 2247 1344 2688 1792 2688 
C 2266 2688 2317 2266 2317 1958 
L 2317 428 
C 2317 184 2291 153 1882 153 
L 1882 -13 
C 2035 0 2317 0 2483 0 
C 2650 0 2938 0 3091 -13 
L 3091 153 
C 2682 153 2656 178 2656 428 
L 2656 1933 
z
" transform="scale(0.015625)"/>
       <path id="CMR17-6b" d="M 1670 1673 
C 1664 1686 1632 1724 1632 1743 
C 1632 1756 2086 2171 2144 2222 
C 2509 2528 2739 2560 2906 2560 
L 2906 2733 
C 2867 2733 2854 2733 2848 2720 
L 2534 2720 
C 2355 2720 2080 2720 1907 2733 
L 1907 2566 
C 1997 2559 2061 2508 2061 2419 
C 2061 2291 1933 2170 1926 2170 
L 960 1289 
L 960 4396 
L 198 4326 
L 198 4160 
C 576 4160 634 4122 634 3817 
L 634 426 
C 634 184 608 153 198 153 
L 198 -13 
C 352 0 634 0 794 0 
C 954 0 1235 0 1389 -13 
L 1389 153 
C 979 153 954 178 954 428 
L 954 1130 
L 1395 1532 
L 2042 574 
C 2118 459 2182 369 2182 286 
C 2182 172 2067 153 1990 153 
L 1990 -13 
C 2144 0 2419 0 2579 0 
C 2694 0 2931 0 3040 0 
L 3040 153 
C 2739 153 2669 210 2477 491 
L 1670 1673 
z
" transform="scale(0.015625)"/>
       <path id="CMR17-68" d="M 2656 1933 
C 2656 2259 2592 2790 1837 2790 
C 1312 2790 1056 2368 979 2157 
L 973 2157 
L 973 4396 
L 211 4326 
L 211 4160 
C 589 4160 646 4122 646 3817 
L 646 426 
C 646 184 621 153 211 153 
L 211 -13 
C 365 0 646 0 813 0 
C 979 0 1267 0 1421 -13 
L 1421 153 
C 1011 153 986 178 986 428 
L 986 1658 
C 986 2247 1344 2688 1792 2688 
C 2266 2688 2317 2266 2317 1958 
L 2317 428 
C 2317 184 2291 153 1882 153 
L 1882 -13 
C 2035 0 2317 0 2483 0 
C 2650 0 2938 0 3091 -13 
L 3091 153 
C 2682 153 2656 178 2656 428 
L 2656 1933 
z
" transform="scale(0.015625)"/>
      </defs>
      <use xlink:href="#CMR17-42" transform="scale(0.996264)"/>
      <use xlink:href="#CMR17-61" transform="translate(65.188754 0) scale(0.996264)"/>
      <use xlink:href="#CMR17-73" transform="translate(110.879232 0) scale(0.996264)"/>
      <use xlink:href="#CMR17-74" transform="translate(146.680569 0) scale(0.996264)"/>
      <use xlink:href="#CMR17-61" transform="translate(181.961337 0) scale(0.996264)"/>
      <use xlink:href="#CMR17-6e" transform="translate(227.651814 0) scale(0.996264)"/>
      <use xlink:href="#CMR17-6b" transform="translate(278.547184 0) scale(0.996264)"/>
      <use xlink:href="#CMR17-68" transform="translate(326.8401 0) scale(0.996264)"/>
      <use xlink:href="#CMR17-61" transform="translate(377.73547 0) scale(0.996264)"/>
      <use xlink:href="#CMR17-68" transform="translate(423.425947 0) scale(0.996264)"/>
     </g>
    </g>
   </g>
  </g>
  <g id="text_25">
   <!-- $Y_\text{SPD} = $ -->
   <g transform="translate(11.90218 126.921693) rotate(-90) scale(0.12 -0.12)">
    <defs>
     <path id="CMMI12-59" d="M 3763 3645 
L 3910 3791 
C 4192 4078 4429 4149 4653 4167 
C 4723 4173 4781 4179 4781 4288 
C 4781 4352 4717 4352 4704 4352 
C 4627 4352 4544 4352 4467 4352 
L 4205 4352 
C 4019 4352 3821 4352 3642 4352 
C 3597 4352 3526 4352 3526 4226 
C 3526 4166 3590 4160 3610 4160 
C 3802 4160 3802 4064 3802 4026 
C 3802 3956 3750 3860 3622 3713 
L 2099 1969 
L 1376 3911 
C 1338 4000 1338 4013 1338 4026 
C 1338 4160 1600 4160 1677 4160 
C 1754 4160 1824 4160 1824 4279 
C 1824 4352 1766 4352 1728 4352 
C 1619 4352 1491 4352 1382 4352 
L 672 4352 
C 557 4352 435 4352 326 4352 
C 282 4352 211 4352 211 4226 
C 211 4160 269 4160 365 4160 
C 678 4160 736 4102 794 3956 
L 1587 1835 
C 1594 1816 1613 1745 1613 1726 
C 1613 1707 1299 452 1280 388 
C 1229 217 1165 185 755 185 
C 646 185 595 185 595 64 
C 595 0 666 0 685 0 
C 800 0 934 0 1056 0 
L 1811 0 
C 1926 0 2061 0 2176 0 
C 2221 0 2298 0 2298 115 
C 2298 185 2253 185 2144 185 
C 1747 185 1747 230 1747 300 
C 1747 345 1798 548 1830 676 
L 2061 1594 
C 2099 1727 2099 1739 2157 1803 
L 3763 3645 
z
" transform="scale(0.015625)"/>
     <path id="CMR17-3d" d="M 4115 2017 
C 4211 2017 4307 2017 4307 2125 
C 4307 2240 4198 2240 4090 2240 
L 512 2240 
C 403 2240 294 2240 294 2125 
C 294 2017 390 2017 486 2017 
L 4115 2017 
z
M 4090 896 
C 4198 896 4307 896 4307 1011 
C 4307 1119 4211 1119 4115 1119 
L 486 1119 
C 390 1119 294 1119 294 1011 
C 294 896 403 896 512 896 
L 4090 896 
z
" transform="scale(0.015625)"/>
    </defs>
    <use xlink:href="#CMMI12-59" transform="scale(0.996264)"/>
    <use xlink:href="#CMR17-53" transform="translate(56.598607 -14.943915) scale(0.697382)"/>
    <use xlink:href="#CMR17-50" transform="translate(92.225216 -14.943915) scale(0.697382)"/>
    <use xlink:href="#CMR17-44" transform="translate(136.03543 -14.943915) scale(0.697382)"/>
    <use xlink:href="#CMR17-3d" transform="translate(213.482841 0) scale(0.996264)"/>
   </g>
  </g>
 </g>
 <defs>
  <clipPath id="p1e74cc4908">
   <rect x="70.342007" y="7.059249" width="215.257513" height="49.003214"/>
  </clipPath>
  <clipPath id="p335e617b35">
   <rect x="70.342007" y="70.918619" width="215.257513" height="49.003214"/>
  </clipPath>
  <clipPath id="pd8ac8bdb14">
   <rect x="70.342007" y="134.77799" width="215.257513" height="49.003214"/>
  </clipPath>
 </defs>
</svg>
