<?xml version="1.0" encoding="utf-8" standalone="no"?>
<!DOCTYPE svg PUBLIC "-//W3C//DTD SVG 1.1//EN"
  "http://www.w3.org/Graphics/SVG/1.1/DTD/svg11.dtd">
<svg xmlns:xlink="http://www.w3.org/1999/xlink" width="145.19952pt" height="217.19952pt" viewBox="0 0 145.19952 217.19952" xmlns="http://www.w3.org/2000/svg" version="1.1">
 <metadata>
  <rdf:RDF xmlns:dc="http://purl.org/dc/elements/1.1/" xmlns:cc="http://creativecommons.org/ns#" xmlns:rdf="http://www.w3.org/1999/02/22-rdf-syntax-ns#">
   <cc:Work>
    <dc:type rdf:resource="http://purl.org/dc/dcmitype/StillImage"/>
    <dc:date>2025-12-27T14:30:31.526850</dc:date>
    <dc:format>image/svg+xml</dc:format>
    <dc:creator>
     <cc:Agent>
      <dc:title>Matplotlib v3.10.8, https://matplotlib.org/</dc:title>
     </cc:Agent>
    </dc:creator>
   </cc:Work>
  </rdf:RDF>
 </metadata>
 <defs>
  <style type="text/css">*{stroke-linejoin: round; stroke-linecap: butt}</style>
 </defs>
 <g id="figure_1">
  <g id="patch_1">
   <path d="M 0 217.19952 
L 145.19952 217.19952 
L 145.19952 0 
L 0 0 
z
" style="fill: #ffffff"/>
  </g>
  <g id="axes_1">
   <g id="patch_2">
    <path d="M 47.085359 41.796682 
L 135.234481 41.796682 
L 135.234481 3.6 
L 47.085359 3.6 
z
" style="fill: #ffffff"/>
   </g>
   <g id="FillBetweenPolyCollection_1">
    <path d="M 47.085359 29.540015 
L 47.085359 13.358805 
L 47.437956 13.471776 
L 47.790552 13.275846 
L 48.143149 12.951124 
L 48.495745 12.660462 
L 48.848342 12.481691 
L 49.200938 12.473154 
L 49.553534 12.707725 
L 49.906131 13.212527 
L 50.258727 13.916398 
L 50.611324 14.692617 
L 50.96392 15.437303 
L 51.316517 16.071546 
L 51.669113 16.487989 
L 52.02171 16.553121 
L 52.374306 16.170242 
L 52.726903 15.333322 
L 53.079499 14.173094 
L 53.432096 12.972218 
L 53.784692 12.061517 
L 54.137289 11.638155 
L 54.489885 11.659662 
L 54.842482 11.908846 
L 55.195078 12.188976 
L 55.547675 12.466731 
L 55.900271 12.831991 
L 56.252868 13.37203 
L 56.605464 14.068206 
L 56.958061 14.734688 
L 57.310657 15.078493 
L 57.663254 14.936096 
L 58.01585 14.450856 
L 58.368447 13.932181 
L 58.721043 13.616009 
L 59.07364 13.573895 
L 59.426236 13.731208 
L 59.778833 13.916005 
L 60.131429 13.940484 
L 60.484026 13.725293 
L 60.836622 13.377088 
L 61.189219 13.120471 
L 61.541815 13.142965 
L 61.894411 13.466392 
L 62.247008 13.895299 
L 62.599604 14.089221 
L 62.952201 13.819612 
L 63.304797 13.238102 
L 63.657394 12.762798 
L 64.00999 12.713903 
L 64.362587 13.121338 
L 64.715183 13.768046 
L 65.06778 14.355995 
L 65.420376 14.66863 
L 65.772973 14.627458 
L 66.125569 14.2685 
L 66.478166 13.727921 
L 66.830762 13.227078 
L 67.183359 13.004941 
L 67.535955 13.202943 
L 67.888552 13.756934 
L 68.241148 14.356427 
L 68.593745 14.556821 
L 68.946341 14.171988 
L 69.298938 13.54559 
L 69.651534 13.154892 
L 70.004131 13.24958 
L 70.356727 13.876017 
L 70.709324 14.976312 
L 71.06192 16.385796 
L 71.414517 17.760592 
L 71.767113 18.629577 
L 72.11971 18.720701 
L 72.472306 18.207569 
L 72.824903 17.479758 
L 73.177499 16.831753 
L 73.530096 16.374232 
L 73.882692 16.058136 
L 74.235288 15.731516 
L 74.587885 15.224384 
L 74.940481 14.431622 
L 75.293078 13.351858 
L 75.645674 12.092503 
L 75.998271 10.873932 
L 76.350867 10.015139 
L 76.703464 9.859471 
L 77.05606 10.648769 
L 77.408657 12.384637 
L 77.761253 14.678075 
L 78.11385 16.599748 
L 78.466446 17.106791 
L 78.819043 16.300574 
L 79.171639 14.995462 
L 79.524236 13.722284 
L 79.876832 12.662835 
L 80.229429 11.772919 
L 80.582025 10.956593 
L 80.934622 10.270401 
L 81.287218 9.949583 
L 81.639815 10.212771 
L 81.992411 11.083283 
L 82.345008 12.367769 
L 82.697604 13.735098 
L 83.050201 14.852389 
L 83.402797 15.538894 
L 83.755394 15.785482 
L 84.10799 15.65024 
L 84.460587 15.229364 
L 84.813183 14.67344 
L 85.16578 14.145875 
L 85.518376 13.769823 
L 85.870973 13.622881 
L 86.223569 13.743388 
L 86.576165 14.102394 
L 86.928762 14.593181 
L 87.281358 15.098219 
L 87.633955 15.555418 
L 87.986551 15.911849 
L 88.339148 16.039032 
L 88.691744 15.773502 
L 89.044341 15.066247 
L 89.396937 14.05358 
L 89.749534 12.986991 
L 90.10213 12.137336 
L 90.454727 11.732834 
L 90.807323 11.903637 
L 91.15992 12.615474 
L 91.512516 13.623613 
L 91.865113 14.503458 
L 92.217709 14.818751 
L 92.570306 14.418277 
L 92.922902 13.550921 
L 93.275499 12.620155 
L 93.628095 11.953273 
L 93.980692 11.735704 
L 94.333288 11.9785 
L 94.685885 12.469503 
L 95.038481 12.760225 
L 95.391078 12.354265 
L 95.743674 11.177159 
L 96.096271 9.698753 
L 96.448867 8.47655 
L 96.801464 7.845429 
L 97.15406 7.890278 
L 97.506657 8.521709 
L 97.859253 9.56694 
L 98.21185 10.792182 
L 98.564446 11.817431 
L 98.917042 12.117039 
L 99.269639 11.481264 
L 99.622235 10.358405 
L 99.974832 9.363677 
L 100.327428 8.874198 
L 100.680025 8.945531 
L 101.032621 9.301032 
L 101.385218 9.448921 
L 101.737814 9.113861 
L 102.090411 8.553048 
L 102.443007 8.20465 
L 102.795604 8.308611 
L 103.1482 8.821728 
L 103.500797 9.452996 
L 103.853393 9.824915 
L 104.20599 9.786397 
L 104.558586 9.540666 
L 104.911183 9.373358 
L 105.263779 9.376755 
L 105.616376 9.424976 
L 105.968972 9.340733 
L 106.321569 9.107277 
L 106.674165 8.899545 
L 107.026762 8.896603 
L 107.379358 9.104453 
L 107.731955 9.336908 
L 108.084551 9.361987 
L 108.437148 9.112583 
L 108.789744 8.73516 
L 109.142341 8.429565 
L 109.494937 8.277748 
L 109.847534 8.19926 
L 110.20013 8.062449 
L 110.552727 7.853867 
L 110.905323 7.6992 
L 111.257919 7.716274 
L 111.610516 7.911984 
L 111.963112 8.21941 
L 112.315709 8.578278 
L 112.668305 8.966424 
L 113.020902 9.366844 
L 113.373498 9.675748 
L 113.726095 9.650832 
L 114.078691 9.103377 
L 114.431288 8.188629 
L 114.783884 7.319132 
L 115.136481 6.847837 
L 115.489077 6.90098 
L 115.841674 7.392433 
L 116.19427 8.137099 
L 116.546867 9.063354 
L 116.899463 10.021836 
L 117.25206 10.961672 
L 117.604656 11.777872 
L 117.957253 12.350685 
L 118.309849 12.615354 
L 118.662446 12.581992 
L 119.015042 12.297088 
L 119.367639 11.80538 
L 119.720235 11.154279 
L 120.072832 10.446928 
L 120.425428 9.864949 
L 120.778025 9.573779 
L 121.130621 9.584161 
L 121.483218 9.732015 
L 121.835814 9.821774 
L 122.188411 9.782003 
L 122.541007 9.679193 
L 122.893604 9.643286 
L 123.2462 9.794731 
L 123.598796 10.183958 
L 123.951393 10.749348 
L 124.303989 11.320748 
L 124.656586 11.717785 
L 125.009182 11.933119 
L 125.361779 12.186881 
L 125.714375 12.68833 
L 126.066972 13.323354 
L 126.419568 13.606515 
L 126.772165 13.124759 
L 127.124761 12.034265 
L 127.477358 10.829034 
L 127.829954 9.892807 
L 128.182551 9.397397 
L 128.535147 9.376252 
L 128.887744 9.764063 
L 129.24034 10.377704 
L 129.592937 10.933136 
L 129.945533 11.202162 
L 130.29813 11.208914 
L 130.650726 11.156645 
L 131.003323 11.181631 
L 131.355919 11.246389 
L 131.708516 11.21102 
L 132.061112 11.004091 
L 132.413709 10.729312 
L 132.766305 10.582875 
L 133.118902 10.684188 
L 133.471498 10.996756 
L 133.824095 11.402626 
L 134.176691 11.847753 
L 134.529288 12.364908 
L 134.881884 12.927362 
L 135.234481 13.358805 
L 135.234481 29.540015 
L 135.234481 29.540015 
L 134.881884 29.247005 
L 134.529288 29.134737 
L 134.176691 29.120237 
L 133.824095 29.249945 
L 133.471498 29.586938 
L 133.118902 30.041252 
L 132.766305 30.385793 
L 132.413709 30.425153 
L 132.061112 30.120532 
L 131.708516 29.565733 
L 131.355919 28.851797 
L 131.003323 27.987457 
L 130.650726 26.986806 
L 130.29813 26.011214 
L 129.945533 25.405048 
L 129.592937 25.542951 
L 129.24034 26.532326 
L 128.887744 28.105578 
L 128.535147 29.822133 
L 128.182551 31.268934 
L 127.829954 32.134927 
L 127.477358 32.24412 
L 127.124761 31.636709 
L 126.772165 30.665805 
L 126.419568 29.889972 
L 126.066972 29.596344 
L 125.714375 29.534089 
L 125.361779 29.375418 
L 125.009182 29.120913 
L 124.656586 29.017874 
L 124.303989 29.234076 
L 123.951393 29.636352 
L 123.598796 29.891299 
L 123.2462 29.708393 
L 122.893604 28.985699 
L 122.541007 27.829293 
L 122.188411 26.497117 
L 121.835814 25.306146 
L 121.483218 24.515368 
L 121.130621 24.200189 
L 120.778025 24.223079 
L 120.425428 24.373564 
L 120.072832 24.529849 
L 119.720235 24.681161 
L 119.367639 24.839737 
L 119.015042 24.985996 
L 118.662446 25.104626 
L 118.309849 25.226519 
L 117.957253 25.417689 
L 117.604656 25.734968 
L 117.25206 26.18271 
L 116.899463 26.716028 
L 116.546867 27.286082 
L 116.19427 27.889693 
L 115.841674 28.269026 
L 115.489077 28.466307 
L 115.136481 28.298733 
L 114.783884 27.668035 
L 114.431288 26.679735 
L 114.078691 25.670248 
L 113.726095 25.045046 
L 113.373498 24.95733 
L 113.020902 25.217252 
L 112.668305 25.58405 
L 112.315709 25.963839 
L 111.963112 26.363609 
L 111.610516 26.795749 
L 111.257919 27.224111 
L 110.905323 27.569686 
L 110.552727 27.78641 
L 110.20013 27.91904 
L 109.847534 28.024746 
L 109.494937 28.039552 
L 109.142341 27.804971 
L 108.789744 27.242089 
L 108.437148 26.468202 
L 108.084551 25.754444 
L 107.731955 25.342056 
L 107.379358 25.251076 
L 107.026762 25.297511 
L 106.674165 25.29503 
L 106.321569 25.215193 
L 105.968972 25.187967 
L 105.616376 25.338703 
L 105.263779 25.607101 
L 104.911183 25.776159 
L 104.558586 25.677954 
L 104.20599 25.363415 
L 103.853393 25.093469 
L 103.500797 25.077272 
L 103.1482 25.199125 
L 102.795604 25.135372 
L 102.443007 24.659583 
L 102.090411 23.803882 
L 101.737814 22.895079 
L 101.385218 22.459331 
L 101.032621 22.815269 
L 100.680025 23.68774 
L 100.327428 24.505812 
L 99.974832 24.850546 
L 99.622235 24.616564 
L 99.269639 24.049418 
L 98.917042 23.692722 
L 98.564446 23.993947 
L 98.21185 24.814387 
L 97.859253 25.765605 
L 97.506657 26.645714 
L 97.15406 27.38687 
L 96.801464 27.909801 
L 96.448867 28.115873 
L 96.096271 27.99442 
L 95.743674 27.745403 
L 95.391078 27.799498 
L 95.038481 28.535158 
L 94.685885 29.827017 
L 94.333288 31.16284 
L 93.980692 32.108158 
L 93.628095 32.486858 
L 93.275499 32.350044 
L 92.922902 31.905123 
L 92.570306 31.472647 
L 92.217709 31.426227 
L 91.865113 31.97752 
L 91.512516 32.952613 
L 91.15992 33.92875 
L 90.807323 34.53698 
L 90.454727 34.612276 
L 90.10213 34.194565 
L 89.749534 33.459576 
L 89.396937 32.63912 
L 89.044341 31.958528 
L 88.691744 31.580557 
L 88.339148 31.537178 
L 87.986551 31.701615 
L 87.633955 31.897247 
L 87.281358 32.062314 
L 86.928762 32.269111 
L 86.576165 32.585465 
L 86.223569 32.972511 
L 85.870973 33.324541 
L 85.518376 33.542141 
L 85.16578 33.542567 
L 84.813183 33.258201 
L 84.460587 32.67965 
L 84.10799 31.895561 
L 83.755394 31.075584 
L 83.402797 30.436026 
L 83.050201 30.228228 
L 82.697604 30.657696 
L 82.345008 31.726971 
L 81.992411 33.222313 
L 81.639815 34.856941 
L 81.287218 36.402204 
L 80.934622 37.755105 
L 80.582025 38.906389 
L 80.229429 39.773429 
L 79.876832 40.060469 
L 79.524236 39.38407 
L 79.171639 37.580031 
L 78.819043 34.927007 
L 78.466446 32.24102 
L 78.11385 30.722111 
L 77.761253 30.848722 
L 77.408657 31.855427 
L 77.05606 32.945637 
L 76.703464 33.724939 
L 76.350867 34.093044 
L 75.998271 34.143905 
L 75.645674 34.06563 
L 75.293078 34.036329 
L 74.940481 34.164723 
L 74.587885 34.494209 
L 74.235288 35.019946 
L 73.882692 35.677022 
L 73.530096 36.325547 
L 73.177499 36.773717 
L 72.824903 36.84221 
L 72.472306 36.45883 
L 72.11971 35.756272 
L 71.767113 35.048532 
L 71.414517 34.544298 
L 71.06192 34.102792 
L 70.709324 33.449951 
L 70.356727 32.475171 
L 70.004131 31.256422 
L 69.651534 29.957543 
L 69.298938 28.786639 
L 68.946341 28.054965 
L 68.593745 28.182205 
L 68.241148 29.352134 
L 67.888552 31.15743 
L 67.535955 32.913532 
L 67.183359 34.088434 
L 66.830762 34.453528 
L 66.478166 34.080165 
L 66.125569 33.248422 
L 65.772973 32.310711 
L 65.420376 31.570569 
L 65.06778 31.212227 
L 64.715183 31.260217 
L 64.362587 31.564058 
L 64.00999 31.87445 
L 63.657394 32.00788 
L 63.304797 31.989029 
L 62.952201 32.068942 
L 62.599604 32.541752 
L 62.247008 33.428399 
L 61.894411 34.412669 
L 61.541815 35.122843 
L 61.189219 35.369408 
L 60.836622 35.198804 
L 60.484026 34.840686 
L 60.131429 34.579345 
L 59.778833 34.581263 
L 59.426236 34.800009 
L 59.07364 35.04121 
L 58.721043 35.098883 
L 58.368447 34.861018 
L 58.01585 34.374513 
L 57.663254 33.858773 
L 57.310657 33.593947 
L 56.958061 33.669675 
L 56.605464 33.867771 
L 56.252868 33.889493 
L 55.900271 33.624749 
L 55.547675 33.199722 
L 55.195078 32.876353 
L 54.842482 32.91204 
L 54.489885 33.401899 
L 54.137289 34.203011 
L 53.784692 35.043737 
L 53.432096 35.704756 
L 53.079499 36.106004 
L 52.726903 36.265633 
L 52.374306 36.212185 
L 52.02171 35.962315 
L 51.669113 35.555452 
L 51.316517 35.048371 
L 50.96392 34.495615 
L 50.611324 33.969296 
L 50.258727 33.548919 
L 49.906131 33.25504 
L 49.553534 33.02815 
L 49.200938 32.791579 
L 48.848342 32.500449 
L 48.495745 32.113491 
L 48.143149 31.568 
L 47.790552 30.853309 
L 47.437956 30.10509 
L 47.085359 29.540015 
z
" clip-path="url(#p07a7f4a6c6)" style="fill-opacity: 0.3"/>
   </g>
   <g id="matplotlib.axis_1">
    <g id="xtick_1">
     <g id="line2d_1">
      <path d="M 47.085359 41.796682 
L 47.085359 3.6 
" clip-path="url(#p07a7f4a6c6)" style="fill: none; stroke: #b0b0b0; stroke-opacity: 0.5; stroke-width: 0.8; stroke-linecap: square"/>
     </g>
     <g id="line2d_2">
      <defs>
       <path id="md9cfc0c717" d="M 0 0 
L 0 3.5 
" style="stroke: #000000; stroke-width: 0.8"/>
      </defs>
      <g>
       <use xlink:href="#md9cfc0c717" x="47.085359" y="41.796682" style="stroke: #000000; stroke-width: 0.8"/>
      </g>
     </g>
    </g>
    <g id="xtick_2">
     <g id="line2d_3">
      <path d="M 91.15992 41.796682 
L 91.15992 3.6 
" clip-path="url(#p07a7f4a6c6)" style="fill: none; stroke: #b0b0b0; stroke-opacity: 0.5; stroke-width: 0.8; stroke-linecap: square"/>
     </g>
     <g id="line2d_4">
      <g>
       <use xlink:href="#md9cfc0c717" x="91.15992" y="41.796682" style="stroke: #000000; stroke-width: 0.8"/>
      </g>
     </g>
    </g>
    <g id="xtick_3">
     <g id="line2d_5">
      <path d="M 135.234481 41.796682 
L 135.234481 3.6 
" clip-path="url(#p07a7f4a6c6)" style="fill: none; stroke: #b0b0b0; stroke-opacity: 0.5; stroke-width: 0.8; stroke-linecap: square"/>
     </g>
     <g id="line2d_6">
      <g>
       <use xlink:href="#md9cfc0c717" x="135.234481" y="41.796682" style="stroke: #000000; stroke-width: 0.8"/>
      </g>
     </g>
    </g>
   </g>
   <g id="matplotlib.axis_2">
    <g id="ytick_1">
     <g id="line2d_7">
      <path d="M 47.085359 39.091612 
L 135.234481 39.091612 
" clip-path="url(#p07a7f4a6c6)" style="fill: none; stroke: #b0b0b0; stroke-opacity: 0.5; stroke-width: 0.8; stroke-linecap: square"/>
     </g>
     <g id="line2d_8">
      <defs>
       <path id="m5b13101c82" d="M 0 0 
L -3.5 0 
" style="stroke: #000000; stroke-width: 0.8"/>
      </defs>
      <g>
       <use xlink:href="#m5b13101c82" x="47.085359" y="39.091612" style="stroke: #000000; stroke-width: 0.8"/>
      </g>
     </g>
     <g id="text_1">
      <!-- $\mathdefault{0.50}$ -->
      <g transform="translate(22.373945 42.550861) scale(0.1 -0.1)">
       <defs>
        <path id="CMR17-30" d="M 2688 2025 
C 2688 2416 2682 3080 2413 3591 
C 2176 4039 1798 4198 1466 4198 
C 1158 4198 768 4058 525 3597 
C 269 3118 243 2524 243 2025 
C 243 1661 250 1106 448 619 
C 723 -39 1216 -128 1466 -128 
C 1760 -128 2208 -7 2470 600 
C 2662 1042 2688 1559 2688 2025 
z
M 1466 -26 
C 1056 -26 813 325 723 812 
C 653 1188 653 1738 653 2096 
C 653 2588 653 2997 736 3387 
C 858 3929 1216 4096 1466 4096 
C 1728 4096 2067 3923 2189 3400 
C 2272 3036 2278 2607 2278 2096 
C 2278 1680 2278 1169 2202 792 
C 2067 95 1690 -26 1466 -26 
z
" transform="scale(0.015625)"/>
        <path id="CMMI12-3a" d="M 1178 307 
C 1178 492 1024 619 870 619 
C 685 619 557 466 557 313 
C 557 128 710 0 864 0 
C 1050 0 1178 153 1178 307 
z
" transform="scale(0.015625)"/>
        <path id="CMR17-35" d="M 730 3692 
C 794 3666 1056 3584 1325 3584 
C 1920 3584 2246 3911 2432 4100 
C 2432 4157 2432 4192 2394 4192 
C 2387 4192 2374 4192 2323 4163 
C 2099 4058 1837 3973 1517 3973 
C 1325 3973 1037 3999 723 4139 
C 653 4171 640 4171 634 4171 
C 602 4171 595 4164 595 4037 
L 595 2203 
C 595 2089 595 2057 659 2057 
C 691 2057 704 2070 736 2114 
C 941 2401 1222 2522 1542 2522 
C 1766 2522 2246 2382 2246 1289 
C 2246 1085 2246 715 2054 421 
C 1894 159 1645 25 1370 25 
C 947 25 518 320 403 814 
C 429 807 480 795 506 795 
C 589 795 749 840 749 1038 
C 749 1210 627 1280 506 1280 
C 358 1280 262 1190 262 1011 
C 262 454 704 -128 1382 -128 
C 2042 -128 2669 440 2669 1264 
C 2669 2030 2170 2624 1549 2624 
C 1222 2624 947 2503 730 2274 
L 730 3692 
z
" transform="scale(0.015625)"/>
       </defs>
       <use xlink:href="#CMR17-30" transform="scale(0.996264)"/>
       <use xlink:href="#CMMI12-3a" transform="translate(45.690477 0) scale(0.996264)"/>
       <use xlink:href="#CMR17-35" transform="translate(72.787654 0) scale(0.996264)"/>
       <use xlink:href="#CMR17-30" transform="translate(118.478131 0) scale(0.996264)"/>
      </g>
     </g>
    </g>
    <g id="ytick_2">
     <g id="line2d_9">
      <path d="M 47.085359 29.873336 
L 135.234481 29.873336 
" clip-path="url(#p07a7f4a6c6)" style="fill: none; stroke: #b0b0b0; stroke-opacity: 0.5; stroke-width: 0.8; stroke-linecap: square"/>
     </g>
     <g id="line2d_10">
      <g>
       <use xlink:href="#m5b13101c82" x="47.085359" y="29.873336" style="stroke: #000000; stroke-width: 0.8"/>
      </g>
     </g>
     <g id="text_2">
      <!-- $\mathdefault{0.55}$ -->
      <g transform="translate(22.373945 33.332586) scale(0.1 -0.1)">
       <use xlink:href="#CMR17-30" transform="scale(0.996264)"/>
       <use xlink:href="#CMMI12-3a" transform="translate(45.690477 0) scale(0.996264)"/>
       <use xlink:href="#CMR17-35" transform="translate(72.787654 0) scale(0.996264)"/>
       <use xlink:href="#CMR17-35" transform="translate(118.478131 0) scale(0.996264)"/>
      </g>
     </g>
    </g>
    <g id="ytick_3">
     <g id="line2d_11">
      <path d="M 47.085359 20.655061 
L 135.234481 20.655061 
" clip-path="url(#p07a7f4a6c6)" style="fill: none; stroke: #b0b0b0; stroke-opacity: 0.5; stroke-width: 0.8; stroke-linecap: square"/>
     </g>
     <g id="line2d_12">
      <g>
       <use xlink:href="#m5b13101c82" x="47.085359" y="20.655061" style="stroke: #000000; stroke-width: 0.8"/>
      </g>
     </g>
     <g id="text_3">
      <!-- $\mathdefault{0.60}$ -->
      <g transform="translate(22.373945 24.11431) scale(0.1 -0.1)">
       <defs>
        <path id="CMR17-36" d="M 678 2176 
C 678 3690 1395 4032 1811 4032 
C 1946 4032 2272 4009 2400 3776 
C 2298 3776 2106 3776 2106 3553 
C 2106 3381 2246 3323 2336 3323 
C 2394 3323 2566 3348 2566 3560 
C 2566 3954 2246 4179 1805 4179 
C 1043 4179 243 3390 243 1984 
C 243 253 966 -128 1478 -128 
C 2099 -128 2688 427 2688 1283 
C 2688 2081 2170 2662 1517 2662 
C 1126 2662 838 2407 678 1960 
L 678 2176 
z
M 1478 25 
C 691 25 691 1200 691 1436 
C 691 1896 909 2560 1504 2560 
C 1613 2560 1926 2560 2138 2120 
C 2253 1870 2253 1609 2253 1289 
C 2253 944 2253 690 2118 434 
C 1978 171 1773 25 1478 25 
z
" transform="scale(0.015625)"/>
       </defs>
       <use xlink:href="#CMR17-30" transform="scale(0.996264)"/>
       <use xlink:href="#CMMI12-3a" transform="translate(45.690477 0) scale(0.996264)"/>
       <use xlink:href="#CMR17-36" transform="translate(72.787654 0) scale(0.996264)"/>
       <use xlink:href="#CMR17-30" transform="translate(118.478131 0) scale(0.996264)"/>
      </g>
     </g>
    </g>
    <g id="ytick_4">
     <g id="line2d_13">
      <path d="M 47.085359 11.436785 
L 135.234481 11.436785 
" clip-path="url(#p07a7f4a6c6)" style="fill: none; stroke: #b0b0b0; stroke-opacity: 0.5; stroke-width: 0.8; stroke-linecap: square"/>
     </g>
     <g id="line2d_14">
      <g>
       <use xlink:href="#m5b13101c82" x="47.085359" y="11.436785" style="stroke: #000000; stroke-width: 0.8"/>
      </g>
     </g>
     <g id="text_4">
      <!-- $\mathdefault{0.65}$ -->
      <g transform="translate(22.373945 14.896034) scale(0.1 -0.1)">
       <use xlink:href="#CMR17-30" transform="scale(0.996264)"/>
       <use xlink:href="#CMMI12-3a" transform="translate(45.690477 0) scale(0.996264)"/>
       <use xlink:href="#CMR17-36" transform="translate(72.787654 0) scale(0.996264)"/>
       <use xlink:href="#CMR17-35" transform="translate(118.478131 0) scale(0.996264)"/>
      </g>
     </g>
    </g>
   </g>
   <g id="line2d_15">
    <path d="M 47.085359 21.27596 
L 135.234481 21.27596 
" clip-path="url(#p07a7f4a6c6)" style="fill: none; stroke-dasharray: 9.6,2.4,1.5,2.4; stroke-dashoffset: 0; stroke: #000000; stroke-opacity: 0.3; stroke-width: 1.5"/>
   </g>
   <g id="line2d_16">
    <path d="M 47.085359 21.44941 
L 47.790552 22.064578 
L 48.495745 22.386977 
L 49.200938 22.632367 
L 49.906131 23.233784 
L 50.611324 24.330957 
L 51.669113 26.02172 
L 52.02171 26.257718 
L 52.374306 26.191213 
L 52.726903 25.799478 
L 53.432096 24.338487 
L 54.137289 22.920583 
L 54.489885 22.53078 
L 54.842482 22.410443 
L 55.195078 22.532665 
L 55.900271 23.22837 
L 56.605464 23.967988 
L 57.310657 24.33622 
L 58.01585 24.412684 
L 61.189219 24.244939 
L 61.894411 23.939531 
L 62.599604 23.315487 
L 63.304797 22.613566 
L 63.657394 22.385339 
L 64.00999 22.294176 
L 64.362587 22.342698 
L 65.06778 22.784111 
L 66.125569 23.758461 
L 66.478166 23.904043 
L 66.830762 23.840303 
L 67.183359 23.546687 
L 67.888552 22.457182 
L 68.593745 21.369513 
L 68.946341 21.113477 
L 69.298938 21.166114 
L 69.651534 21.556217 
L 70.356727 23.175594 
L 71.414517 26.152445 
L 71.767113 26.839054 
L 72.11971 27.238486 
L 72.472306 27.3332 
L 72.824903 27.160984 
L 73.530096 26.349889 
L 74.940481 24.298172 
L 76.350867 22.054091 
L 76.703464 21.792205 
L 77.05606 21.797203 
L 77.408657 22.120032 
L 77.761253 22.763399 
L 79.171639 26.287747 
L 79.524236 26.553177 
L 79.876832 26.361652 
L 80.229429 25.773174 
L 81.639815 22.534856 
L 81.992411 22.152798 
L 82.345008 22.04737 
L 82.697604 22.196397 
L 83.402797 22.98746 
L 84.10799 23.7729 
L 84.460587 23.954507 
L 84.813183 23.965821 
L 85.518376 23.655982 
L 86.223569 23.357949 
L 86.928762 23.431146 
L 87.986551 23.806732 
L 88.691744 23.677029 
L 89.749534 23.223284 
L 90.454727 23.172555 
L 91.512516 23.288113 
L 92.217709 23.122489 
L 93.275499 22.485099 
L 94.333288 21.57067 
L 95.038481 20.647691 
L 96.801464 17.877615 
L 97.15406 17.638574 
L 97.506657 17.583712 
L 98.917042 17.904881 
L 99.269639 17.765341 
L 99.974832 17.107112 
L 100.680025 16.316636 
L 101.032621 16.058151 
L 101.385218 15.954126 
L 101.737814 16.00447 
L 102.443007 16.432116 
L 103.853393 17.459192 
L 104.558586 17.60931 
L 105.263779 17.491928 
L 106.674165 17.097288 
L 107.379358 17.177765 
L 108.084551 17.558215 
L 108.789744 17.988625 
L 109.494937 18.15865 
L 110.20013 17.990744 
L 111.610516 17.353867 
L 112.668305 17.275237 
L 114.431288 17.434182 
L 115.489077 17.683644 
L 116.899463 18.368932 
L 117.957253 18.884187 
L 118.309849 18.920936 
L 118.662446 18.843309 
L 119.367639 18.322558 
L 120.425428 17.119257 
L 120.778025 16.898429 
L 121.130621 16.892175 
L 121.483218 17.123691 
L 122.188411 18.13956 
L 122.893604 19.314492 
L 123.598796 20.037628 
L 124.303989 20.277412 
L 125.009182 20.527016 
L 125.714375 21.11121 
L 126.419568 21.748244 
L 126.772165 21.895282 
L 127.124761 21.835487 
L 127.477358 21.536577 
L 128.182551 20.333166 
L 128.887744 18.93482 
L 129.24034 18.455015 
L 129.592937 18.238044 
L 129.945533 18.303605 
L 130.29813 18.610064 
L 131.708516 20.388377 
L 132.061112 20.562312 
L 132.766305 20.484334 
L 133.471498 20.291847 
L 133.824095 20.326286 
L 134.529288 20.749822 
L 135.234481 21.44941 
L 135.234481 21.44941 
" clip-path="url(#p07a7f4a6c6)" style="fill: none; stroke: #000000; stroke-width: 1.5; stroke-linecap: square"/>
   </g>
   <g id="patch_3">
    <path d="M 47.085359 41.796682 
L 47.085359 3.6 
" style="fill: none; stroke: #000000; stroke-width: 0.8; stroke-linejoin: miter; stroke-linecap: square"/>
   </g>
   <g id="patch_4">
    <path d="M 135.234481 41.796682 
L 135.234481 3.6 
" style="fill: none; stroke: #000000; stroke-width: 0.8; stroke-linejoin: miter; stroke-linecap: square"/>
   </g>
   <g id="patch_5">
    <path d="M 47.085359 41.796682 
L 135.234481 41.796682 
" style="fill: none; stroke: #000000; stroke-width: 0.8; stroke-linejoin: miter; stroke-linecap: square"/>
   </g>
   <g id="patch_6">
    <path d="M 47.085359 3.6 
L 135.234481 3.6 
" style="fill: none; stroke: #000000; stroke-width: 0.8; stroke-linejoin: miter; stroke-linecap: square"/>
   </g>
   <g id="text_5">
    <!-- \textbf{0.5 Hz} -->
    <g transform="translate(48.848342 13.121826) scale(0.1 -0.1)">
     <defs>
      <path id="CMBX12-30" d="M 3309 2038 
C 3309 2648 3309 4178 1798 4178 
C 282 4178 282 2654 282 2038 
C 282 1428 282 -64 1792 -64 
C 3302 -64 3309 1409 3309 2038 
z
M 1798 146 
C 1594 146 1440 228 1312 362 
C 1152 521 1050 621 1050 2114 
C 1050 2559 1050 2964 1101 3295 
C 1190 3924 1651 3968 1792 3968 
C 1997 3968 2394 3873 2483 3340 
C 2541 3015 2541 2501 2541 2114 
C 2541 615 2445 527 2253 336 
C 2125 209 1952 146 1798 146 
z
" transform="scale(0.015625)"/>
      <path id="CMBX12-2e" d="M 1459 458 
C 1459 718 1248 916 998 916 
C 749 916 538 718 538 458 
C 538 197 749 0 998 0 
C 1248 0 1459 197 1459 458 
z
" transform="scale(0.015625)"/>
      <path id="CMBX12-35" d="M 986 3315 
C 1203 3264 1376 3264 1472 3264 
C 1626 3264 1990 3264 2419 3527 
C 2618 3647 2950 3936 2950 4083 
C 2950 4115 2950 4192 2874 4192 
C 2867 4192 2854 4192 2790 4159 
C 2496 4054 2182 3982 1824 3982 
C 1459 3982 1152 4052 851 4160 
C 806 4173 787 4186 768 4186 
C 691 4186 691 4122 691 4014 
L 691 2163 
C 691 2042 691 1972 819 1972 
C 883 1972 896 1979 947 2042 
C 1024 2132 1254 2414 1798 2414 
C 2387 2414 2387 1815 2387 1312 
C 2387 852 2387 190 1600 190 
C 1363 190 960 279 742 640 
C 1082 640 1165 895 1165 1035 
C 1165 1264 998 1435 762 1435 
C 570 1435 358 1321 358 1022 
C 358 470 864 -64 1626 -64 
C 2611 -64 3232 503 3232 1293 
C 3232 2070 2701 2624 1824 2624 
C 1568 2624 1261 2573 986 2369 
L 986 3315 
z
" transform="scale(0.015625)"/>
      <path id="CMBX12-48" d="M 4704 4085 
L 5382 4085 
L 5382 4352 
C 5197 4352 4512 4352 4282 4352 
C 4051 4352 3366 4352 3181 4352 
L 3181 4085 
L 3859 4085 
L 3859 2385 
L 1766 2385 
L 1766 4085 
L 2445 4085 
L 2445 4352 
C 2259 4352 1574 4352 1344 4352 
C 1114 4352 429 4352 243 4352 
L 243 4085 
L 922 4085 
L 922 267 
L 243 267 
L 243 0 
C 429 0 1114 0 1344 0 
C 1574 0 2259 0 2445 0 
L 2445 267 
L 1766 267 
L 1766 2112 
L 3859 2112 
L 3859 267 
L 3181 267 
L 3181 0 
C 3366 0 4051 0 4282 0 
C 4512 0 5197 0 5382 0 
L 5382 267 
L 4704 267 
L 4704 4085 
z
" transform="scale(0.015625)"/>
      <path id="CMBX12-7a" d="M 2816 2575 
C 2874 2644 2874 2657 2874 2695 
C 2874 2816 2810 2816 2688 2816 
L 371 2816 
L 301 1725 
L 570 1725 
C 608 2327 749 2606 1459 2606 
L 2035 2606 
L 256 253 
C 198 184 198 172 198 127 
C 198 0 256 0 384 0 
L 2784 0 
L 2893 1256 
L 2624 1256 
C 2573 584 2432 229 1626 229 
L 1043 229 
L 2816 2575 
z
" transform="scale(0.015625)"/>
     </defs>
     <use xlink:href="#CMBX12-30" transform="scale(0.996264)"/>
     <use xlink:href="#CMBX12-2e" transform="translate(56.039851 0) scale(0.996264)"/>
     <use xlink:href="#CMBX12-35" transform="translate(87.173101 0) scale(0.996264)"/>
     <use xlink:href="#CMBX12-48" transform="translate(180.572852 0) scale(0.996264)"/>
     <use xlink:href="#CMBX12-7a" transform="translate(268.207327 0) scale(0.996264)"/>
    </g>
   </g>
  </g>
  <g id="axes_2">
   <g id="patch_7">
    <path d="M 47.085359 89.493843 
L 135.234481 89.493843 
L 135.234481 51.297162 
L 47.085359 51.297162 
z
" style="fill: #ffffff"/>
   </g>
   <g id="FillBetweenPolyCollection_2">
    <path d="M 47.085359 79.905479 
L 47.085359 60.819674 
L 47.790552 61.839755 
L 48.495745 62.665631 
L 49.200938 63.324665 
L 49.906131 63.858585 
L 50.611324 64.323113 
L 51.316517 64.777377 
L 52.02171 65.250533 
L 52.726903 65.702759 
L 53.432096 66.009391 
L 54.137289 66.01762 
L 54.842482 65.693243 
L 55.547675 65.203282 
L 56.252868 64.805981 
L 56.958061 64.683413 
L 57.663254 64.851404 
L 58.368447 65.148182 
L 59.07364 65.297532 
L 59.778833 65.074559 
L 60.484026 64.492987 
L 61.189219 63.815167 
L 61.894411 63.379178 
L 62.599604 63.41296 
L 63.304797 63.912147 
L 64.00999 64.595163 
L 64.715183 65.008042 
L 65.420376 64.885391 
L 66.125569 64.434946 
L 66.830762 64.060892 
L 67.535955 64.005961 
L 68.241148 64.280687 
L 68.946341 64.728994 
L 69.651534 65.140917 
L 70.356727 65.365481 
L 71.06192 65.348322 
L 71.767113 65.095595 
L 72.472306 64.656522 
L 73.177499 64.148825 
L 73.882692 63.727407 
L 74.587885 63.458975 
L 75.293078 63.249904 
L 75.998271 62.97793 
L 76.703464 62.703979 
L 77.408657 62.662536 
L 78.11385 63.053502 
L 78.819043 63.875911 
L 79.524236 64.870783 
L 80.229429 65.582014 
L 80.934622 65.620878 
L 81.639815 65.016838 
L 82.345008 64.172837 
L 83.050201 63.46952 
L 83.755394 63.028747 
L 84.460587 62.754587 
L 85.16578 62.525486 
L 85.870973 62.357617 
L 86.576165 62.398806 
L 87.281358 62.80971 
L 87.986551 63.66591 
L 88.691744 64.914773 
L 89.396937 66.357471 
L 90.10213 67.643464 
L 90.807323 68.337867 
L 91.512516 68.161946 
L 92.217709 67.246488 
L 92.922902 66.003762 
L 93.628095 64.79196 
L 94.333288 63.766114 
L 95.038481 62.903433 
L 95.743674 62.090271 
L 96.448867 61.242249 
L 97.15406 60.401175 
L 97.859253 59.701266 
L 98.564446 59.245382 
L 99.269639 59.020278 
L 99.974832 58.895992 
L 100.680025 58.691516 
L 101.385218 58.273671 
L 102.090411 57.639879 
L 102.795604 56.920751 
L 103.500797 56.298515 
L 104.20599 55.916343 
L 104.911183 55.828195 
L 105.616376 55.993521 
L 106.321569 56.318279 
L 107.026762 56.718928 
L 107.731955 57.151941 
L 108.437148 57.580827 
L 109.142341 57.921945 
L 109.847534 58.038814 
L 110.552727 57.817905 
L 111.257919 57.573012 
L 111.963112 57.00359 
L 112.668305 56.406595 
L 113.373498 55.870576 
L 114.078691 55.46357 
L 114.783884 55.263001 
L 115.489077 55.333179 
L 116.19427 55.6788 
L 116.899463 56.209001 
L 117.604656 56.721481 
L 118.309849 56.961584 
L 119.015042 56.816922 
L 119.720235 56.462095 
L 120.425428 56.215473 
L 121.130621 56.292773 
L 121.835814 56.703721 
L 122.541007 57.315261 
L 123.2462 57.996274 
L 123.951393 58.694505 
L 124.656586 59.374578 
L 125.361779 59.93848 
L 126.066972 60.255431 
L 126.772165 60.25483 
L 127.477358 59.950778 
L 128.182551 59.390322 
L 128.887744 58.622865 
L 129.592937 57.721025 
L 130.29813 56.821055 
L 131.003323 56.135849 
L 131.708516 55.893698 
L 132.413709 56.226827 
L 133.118902 57.095882 
L 133.824095 58.30753 
L 134.529288 59.61303 
L 135.234481 60.819674 
L 135.234481 79.905479 
L 135.234481 79.905479 
L 134.529288 79.314589 
L 133.824095 78.764436 
L 133.118902 78.257286 
L 132.413709 77.72463 
L 131.708516 77.116558 
L 131.003323 76.488514 
L 130.29813 75.995156 
L 129.592937 75.78526 
L 128.887744 75.885264 
L 128.182551 76.174907 
L 127.477358 76.465331 
L 126.772165 76.604148 
L 126.066972 76.536878 
L 125.361779 76.283614 
L 124.656586 75.870451 
L 123.951393 75.330336 
L 123.2462 74.767742 
L 122.541007 74.344464 
L 121.835814 74.144508 
L 121.130621 74.073187 
L 120.425428 73.937857 
L 119.720235 73.638037 
L 119.015042 73.287168 
L 118.309849 73.14472 
L 117.604656 73.36604 
L 116.899463 73.83602 
L 116.19427 74.304621 
L 115.489077 74.591815 
L 114.783884 74.652069 
L 114.078691 74.543178 
L 113.373498 74.367197 
L 112.668305 74.212669 
L 111.963112 74.134933 
L 111.257919 74.190165 
L 110.552727 74.488449 
L 109.847534 74.975593 
L 109.142341 75.592134 
L 108.437148 76.10794 
L 107.731955 76.320114 
L 107.026762 76.158526 
L 106.321569 75.690108 
L 105.616376 75.049475 
L 104.911183 74.366909 
L 104.20599 73.745641 
L 103.500797 73.277283 
L 102.795604 73.052515 
L 102.090411 73.151451 
L 101.385218 73.615415 
L 100.680025 74.396979 
L 99.974832 75.325134 
L 99.269639 76.148828 
L 98.564446 76.649178 
L 97.859253 76.75445 
L 97.15406 76.601975 
L 96.448867 76.50168 
L 95.743674 76.781924 
L 95.038481 77.587347 
L 94.333288 78.795629 
L 93.628095 80.115262 
L 92.922902 81.249311 
L 92.217709 82.046565 
L 91.512516 82.592754 
L 90.807323 83.119578 
L 90.10213 83.713639 
L 89.396937 84.207345 
L 88.691744 84.408859 
L 87.986551 84.274036 
L 87.281358 83.887539 
L 86.576165 83.396765 
L 85.870973 82.981836 
L 85.16578 82.833096 
L 84.460587 83.070845 
L 83.755394 83.622413 
L 83.050201 84.208058 
L 82.345008 84.525165 
L 81.639815 84.494773 
L 80.934622 84.355684 
L 80.229429 84.445615 
L 79.524236 84.793528 
L 78.819043 85.066878 
L 78.11385 84.933593 
L 77.408657 84.333661 
L 76.703464 83.508181 
L 75.998271 82.868255 
L 75.293078 82.749855 
L 74.587885 83.167918 
L 73.882692 83.829856 
L 73.177499 84.414239 
L 72.472306 84.773363 
L 71.767113 84.905449 
L 71.06192 84.845192 
L 70.356727 84.632519 
L 69.651534 84.327865 
L 68.946341 83.974507 
L 68.241148 83.537677 
L 67.535955 82.923305 
L 66.830762 82.082697 
L 66.125569 81.120364 
L 65.420376 80.348364 
L 64.715183 80.19953 
L 64.00999 80.860448 
L 63.304797 82.002313 
L 62.599604 83.087348 
L 61.894411 83.752403 
L 61.189219 83.924285 
L 60.484026 83.773212 
L 59.778833 83.588938 
L 59.07364 83.601964 
L 58.368447 83.819793 
L 57.663254 84.034628 
L 56.958061 83.995581 
L 56.252868 83.561724 
L 55.547675 82.76941 
L 54.842482 81.835797 
L 54.137289 81.071389 
L 53.432096 80.692518 
L 52.726903 80.685187 
L 52.02171 80.878019 
L 51.316517 81.098377 
L 50.611324 81.242825 
L 49.906131 81.26839 
L 49.200938 81.156588 
L 48.495745 80.888921 
L 47.790552 80.459007 
L 47.085359 79.905479 
z
" clip-path="url(#pcffc707d9e)" style="fill-opacity: 0.3"/>
   </g>
   <g id="matplotlib.axis_3">
    <g id="xtick_4">
     <g id="line2d_17">
      <path d="M 47.085359 89.493843 
L 47.085359 51.297162 
" clip-path="url(#pcffc707d9e)" style="fill: none; stroke: #b0b0b0; stroke-opacity: 0.5; stroke-width: 0.8; stroke-linecap: square"/>
     </g>
     <g id="line2d_18">
      <g>
       <use xlink:href="#md9cfc0c717" x="47.085359" y="89.493843" style="stroke: #000000; stroke-width: 0.8"/>
      </g>
     </g>
    </g>
    <g id="xtick_5">
     <g id="line2d_19">
      <path d="M 91.15992 89.493843 
L 91.15992 51.297162 
" clip-path="url(#pcffc707d9e)" style="fill: none; stroke: #b0b0b0; stroke-opacity: 0.5; stroke-width: 0.8; stroke-linecap: square"/>
     </g>
     <g id="line2d_20">
      <g>
       <use xlink:href="#md9cfc0c717" x="91.15992" y="89.493843" style="stroke: #000000; stroke-width: 0.8"/>
      </g>
     </g>
    </g>
    <g id="xtick_6">
     <g id="line2d_21">
      <path d="M 135.234481 89.493843 
L 135.234481 51.297162 
" clip-path="url(#pcffc707d9e)" style="fill: none; stroke: #b0b0b0; stroke-opacity: 0.5; stroke-width: 0.8; stroke-linecap: square"/>
     </g>
     <g id="line2d_22">
      <g>
       <use xlink:href="#md9cfc0c717" x="135.234481" y="89.493843" style="stroke: #000000; stroke-width: 0.8"/>
      </g>
     </g>
    </g>
   </g>
   <g id="matplotlib.axis_4">
    <g id="ytick_5">
     <g id="line2d_23">
      <path d="M 47.085359 86.788774 
L 135.234481 86.788774 
" clip-path="url(#pcffc707d9e)" style="fill: none; stroke: #b0b0b0; stroke-opacity: 0.5; stroke-width: 0.8; stroke-linecap: square"/>
     </g>
     <g id="line2d_24">
      <g>
       <use xlink:href="#m5b13101c82" x="47.085359" y="86.788774" style="stroke: #000000; stroke-width: 0.8"/>
      </g>
     </g>
     <g id="text_6">
      <!-- $\mathdefault{0.50}$ -->
      <g transform="translate(22.373945 90.248023) scale(0.1 -0.1)">
       <use xlink:href="#CMR17-30" transform="scale(0.996264)"/>
       <use xlink:href="#CMMI12-3a" transform="translate(45.690477 0) scale(0.996264)"/>
       <use xlink:href="#CMR17-35" transform="translate(72.787654 0) scale(0.996264)"/>
       <use xlink:href="#CMR17-30" transform="translate(118.478131 0) scale(0.996264)"/>
      </g>
     </g>
    </g>
    <g id="ytick_6">
     <g id="line2d_25">
      <path d="M 47.085359 77.570498 
L 135.234481 77.570498 
" clip-path="url(#pcffc707d9e)" style="fill: none; stroke: #b0b0b0; stroke-opacity: 0.5; stroke-width: 0.8; stroke-linecap: square"/>
     </g>
     <g id="line2d_26">
      <g>
       <use xlink:href="#m5b13101c82" x="47.085359" y="77.570498" style="stroke: #000000; stroke-width: 0.8"/>
      </g>
     </g>
     <g id="text_7">
      <!-- $\mathdefault{0.55}$ -->
      <g transform="translate(22.373945 81.029747) scale(0.1 -0.1)">
       <use xlink:href="#CMR17-30" transform="scale(0.996264)"/>
       <use xlink:href="#CMMI12-3a" transform="translate(45.690477 0) scale(0.996264)"/>
       <use xlink:href="#CMR17-35" transform="translate(72.787654 0) scale(0.996264)"/>
       <use xlink:href="#CMR17-35" transform="translate(118.478131 0) scale(0.996264)"/>
      </g>
     </g>
    </g>
    <g id="ytick_7">
     <g id="line2d_27">
      <path d="M 47.085359 68.352223 
L 135.234481 68.352223 
" clip-path="url(#pcffc707d9e)" style="fill: none; stroke: #b0b0b0; stroke-opacity: 0.5; stroke-width: 0.8; stroke-linecap: square"/>
     </g>
     <g id="line2d_28">
      <g>
       <use xlink:href="#m5b13101c82" x="47.085359" y="68.352223" style="stroke: #000000; stroke-width: 0.8"/>
      </g>
     </g>
     <g id="text_8">
      <!-- $\mathdefault{0.60}$ -->
      <g transform="translate(22.373945 71.811472) scale(0.1 -0.1)">
       <use xlink:href="#CMR17-30" transform="scale(0.996264)"/>
       <use xlink:href="#CMMI12-3a" transform="translate(45.690477 0) scale(0.996264)"/>
       <use xlink:href="#CMR17-36" transform="translate(72.787654 0) scale(0.996264)"/>
       <use xlink:href="#CMR17-30" transform="translate(118.478131 0) scale(0.996264)"/>
      </g>
     </g>
    </g>
    <g id="ytick_8">
     <g id="line2d_29">
      <path d="M 47.085359 59.133947 
L 135.234481 59.133947 
" clip-path="url(#pcffc707d9e)" style="fill: none; stroke: #b0b0b0; stroke-opacity: 0.5; stroke-width: 0.8; stroke-linecap: square"/>
     </g>
     <g id="line2d_30">
      <g>
       <use xlink:href="#m5b13101c82" x="47.085359" y="59.133947" style="stroke: #000000; stroke-width: 0.8"/>
      </g>
     </g>
     <g id="text_9">
      <!-- $\mathdefault{0.65}$ -->
      <g transform="translate(22.373945 62.593196) scale(0.1 -0.1)">
       <use xlink:href="#CMR17-30" transform="scale(0.996264)"/>
       <use xlink:href="#CMMI12-3a" transform="translate(45.690477 0) scale(0.996264)"/>
       <use xlink:href="#CMR17-36" transform="translate(72.787654 0) scale(0.996264)"/>
       <use xlink:href="#CMR17-35" transform="translate(118.478131 0) scale(0.996264)"/>
      </g>
     </g>
    </g>
   </g>
   <g id="line2d_31">
    <path d="M 47.085359 70.418505 
L 135.234481 70.418505 
" clip-path="url(#pcffc707d9e)" style="fill: none; stroke-dasharray: 9.6,2.4,1.5,2.4; stroke-dashoffset: 0; stroke: #000000; stroke-opacity: 0.3; stroke-width: 1.5"/>
   </g>
   <g id="line2d_32">
    <path d="M 47.085359 70.362576 
L 47.790552 71.149381 
L 48.495745 71.777276 
L 49.200938 72.240627 
L 49.906131 72.563487 
L 50.611324 72.782969 
L 51.316517 72.937877 
L 52.02171 73.064276 
L 52.726903 73.193973 
L 53.432096 73.350954 
L 54.137289 73.544504 
L 54.842482 73.76452 
L 55.547675 73.986346 
L 56.252868 74.183852 
L 56.958061 74.339497 
L 57.663254 74.443016 
L 58.368447 74.483988 
L 59.07364 74.449748 
L 59.778833 74.331749 
L 60.484026 74.133099 
L 61.189219 73.869726 
L 61.894411 73.565791 
L 62.599604 73.250154 
L 63.304797 72.95723 
L 64.00999 72.727806 
L 64.715183 72.603786 
L 65.420376 72.616877 
L 66.125569 72.777655 
L 66.830762 73.071794 
L 67.535955 73.464633 
L 68.241148 73.909182 
L 68.946341 74.35175 
L 69.651534 74.734391 
L 70.356727 74.999 
L 71.06192 75.096757 
L 71.767113 75.000522 
L 72.472306 74.714943 
L 73.177499 74.281532 
L 73.882692 73.778632 
L 74.587885 73.313446 
L 75.293078 72.999879 
L 75.998271 72.923092 
L 76.703464 73.10608 
L 77.408657 73.498098 
L 78.11385 73.993548 
L 78.819043 74.471394 
L 79.524236 74.832155 
L 80.229429 75.013814 
L 80.934622 74.988281 
L 81.639815 74.755806 
L 82.345008 74.349001 
L 83.050201 73.838789 
L 83.755394 73.32558 
L 84.460587 72.912716 
L 85.16578 72.679291 
L 85.870973 72.669726 
L 86.576165 72.897786 
L 87.281358 73.348625 
L 87.986551 73.969973 
L 88.691744 74.661816 
L 89.396937 75.282408 
L 90.10213 75.678552 
L 90.807323 75.728723 
L 91.512516 75.37735 
L 92.217709 74.646526 
L 92.922902 73.626537 
L 93.628095 72.453611 
L 94.333288 71.280871 
L 95.038481 70.24539 
L 95.743674 69.436098 
L 96.448867 68.871965 
L 97.15406 68.501575 
L 97.859253 68.227858 
L 98.564446 67.94728 
L 99.269639 67.584553 
L 99.974832 67.110563 
L 100.680025 66.544248 
L 101.385218 65.944543 
L 102.090411 65.395665 
L 102.795604 64.986633 
L 103.500797 64.787899 
L 104.20599 64.830992 
L 104.911183 65.097552 
L 105.616376 65.521498 
L 106.321569 66.004194 
L 107.026762 66.438727 
L 107.731955 66.736027 
L 108.437148 66.844384 
L 109.142341 66.757039 
L 109.847534 66.507203 
L 110.552727 66.153177 
L 111.257919 65.881589 
L 111.963112 65.569262 
L 112.668305 65.309632 
L 113.373498 65.118887 
L 114.078691 65.003374 
L 114.783884 64.957535 
L 115.489077 64.962497 
L 116.19427 64.991711 
L 116.899463 65.022511 
L 117.604656 65.04376 
L 118.309849 65.053152 
L 119.015042 65.052045 
L 119.720235 65.050066 
L 120.425428 65.076665 
L 121.130621 65.18298 
L 121.835814 65.424115 
L 122.541007 65.829862 
L 123.2462 66.382008 
L 123.951393 67.012421 
L 124.656586 67.622514 
L 125.361779 68.111047 
L 126.066972 68.396154 
L 126.772165 68.429489 
L 127.477358 68.208054 
L 128.182551 67.782615 
L 128.887744 67.254064 
L 129.592937 66.753142 
L 130.29813 66.408105 
L 131.003323 66.312182 
L 131.708516 66.505128 
L 132.413709 66.975728 
L 133.118902 67.676584 
L 133.824095 68.535983 
L 134.529288 69.46381 
L 135.234481 70.362576 
" clip-path="url(#pcffc707d9e)" style="fill: none; stroke: #000000; stroke-width: 1.5; stroke-linecap: square"/>
   </g>
   <g id="patch_8">
    <path d="M 47.085359 89.493843 
L 47.085359 51.297162 
" style="fill: none; stroke: #000000; stroke-width: 0.8; stroke-linejoin: miter; stroke-linecap: square"/>
   </g>
   <g id="patch_9">
    <path d="M 135.234481 89.493843 
L 135.234481 51.297162 
" style="fill: none; stroke: #000000; stroke-width: 0.8; stroke-linejoin: miter; stroke-linecap: square"/>
   </g>
   <g id="patch_10">
    <path d="M 47.085359 89.493843 
L 135.234481 89.493843 
" style="fill: none; stroke: #000000; stroke-width: 0.8; stroke-linejoin: miter; stroke-linecap: square"/>
   </g>
   <g id="patch_11">
    <path d="M 47.085359 51.297162 
L 135.234481 51.297162 
" style="fill: none; stroke: #000000; stroke-width: 0.8; stroke-linejoin: miter; stroke-linecap: square"/>
   </g>
   <g id="text_10">
    <!-- \textbf{1.0 Hz} -->
    <g transform="translate(48.848342 60.818988) scale(0.1 -0.1)">
     <defs>
      <path id="CMBX12-31" d="M 2214 3975 
C 2214 4160 2202 4160 1997 4160 
C 1523 3776 813 3776 672 3776 
L 550 3776 
L 550 3503 
L 672 3503 
C 896 3503 1235 3541 1491 3624 
L 1491 267 
L 602 267 
L 602 0 
C 870 0 1542 0 1843 0 
C 2144 0 2822 0 3091 0 
L 3091 267 
L 2214 267 
L 2214 3975 
z
" transform="scale(0.015625)"/>
     </defs>
     <use xlink:href="#CMBX12-31" transform="scale(0.996264)"/>
     <use xlink:href="#CMBX12-2e" transform="translate(56.039851 0) scale(0.996264)"/>
     <use xlink:href="#CMBX12-30" transform="translate(87.173101 0) scale(0.996264)"/>
     <use xlink:href="#CMBX12-48" transform="translate(180.572852 0) scale(0.996264)"/>
     <use xlink:href="#CMBX12-7a" transform="translate(268.207327 0) scale(0.996264)"/>
    </g>
   </g>
  </g>
  <g id="axes_3">
   <g id="patch_12">
    <path d="M 47.085359 137.191005 
L 135.234481 137.191005 
L 135.234481 98.994323 
L 47.085359 98.994323 
z
" style="fill: #ffffff"/>
   </g>
   <g id="FillBetweenPolyCollection_3">
    <path d="M 47.085359 128.400582 
L 47.085359 110.143232 
L 48.507119 110.777796 
L 49.928879 111.108634 
L 51.350639 111.182805 
L 52.772399 111.033345 
L 54.194159 110.738718 
L 55.615919 110.480476 
L 57.037679 110.472974 
L 58.459439 110.82959 
L 59.881199 111.49334 
L 61.302959 112.259143 
L 62.724719 112.863562 
L 64.146479 113.141995 
L 65.568239 113.168339 
L 66.989999 113.188958 
L 68.411759 113.397945 
L 69.833519 113.796087 
L 71.255279 114.23301 
L 72.67704 114.546475 
L 74.0988 114.658404 
L 75.52056 114.582075 
L 76.94232 114.384694 
L 78.36408 114.132973 
L 79.78584 113.85718 
L 81.2076 113.583843 
L 82.62936 113.391734 
L 84.05112 113.387467 
L 85.47288 113.60493 
L 86.89464 113.930349 
L 88.3164 114.126866 
L 89.73816 113.963065 
L 91.15992 113.363478 
L 92.58168 112.206668 
L 94.00344 111.053567 
L 95.4252 109.854239 
L 96.84696 108.64405 
L 98.26872 107.489301 
L 99.69048 106.506231 
L 101.11224 105.800143 
L 102.534 105.38763 
L 103.95576 105.165551 
L 105.37752 104.957645 
L 106.79928 104.63015 
L 108.22104 104.19484 
L 109.6428 103.793826 
L 111.06456 103.57908 
L 112.48632 103.597291 
L 113.90808 103.755965 
L 115.32984 103.890584 
L 116.7516 103.895772 
L 118.17336 103.802371 
L 119.59512 103.724952 
L 121.01688 103.758503 
L 122.43864 103.916205 
L 123.8604 104.137106 
L 125.28216 104.367117 
L 126.70392 104.646653 
L 128.12568 105.097992 
L 129.54744 105.826276 
L 130.9692 106.838882 
L 132.39096 108.025781 
L 133.81272 109.19248 
L 135.234481 110.143232 
L 135.234481 128.400582 
L 135.234481 128.400582 
L 133.81272 127.589981 
L 132.39096 126.829858 
L 130.9692 126.08555 
L 129.54744 125.303928 
L 128.12568 124.475674 
L 126.70392 123.663702 
L 125.28216 122.987997 
L 123.8604 122.54949 
L 122.43864 122.336507 
L 121.01688 122.227516 
L 119.59512 122.105266 
L 118.17336 121.960742 
L 116.7516 121.903338 
L 115.32984 122.079167 
L 113.90808 122.540482 
L 112.48632 123.174829 
L 111.06456 123.782375 
L 109.6428 124.225378 
L 108.22104 124.520494 
L 106.79928 124.819281 
L 105.37752 125.286329 
L 103.95576 125.959085 
L 102.534 126.718569 
L 101.11224 127.393204 
L 99.69048 127.883021 
L 98.26872 128.2107 
L 96.84696 128.486479 
L 95.4252 128.82146 
L 94.00344 129.258648 
L 92.58168 129.787825 
L 91.15992 130.339495 
L 89.73816 131.239601 
L 88.3164 132.361319 
L 86.89464 133.541555 
L 85.47288 134.490867 
L 84.05112 134.96773 
L 82.62936 134.918836 
L 81.2076 134.49244 
L 79.78584 133.931369 
L 78.36408 133.435126 
L 76.94232 133.106835 
L 75.52056 132.993108 
L 74.0988 133.114811 
L 72.67704 133.447265 
L 71.255279 133.896122 
L 69.833519 134.289411 
L 68.411759 134.403272 
L 66.989999 134.069824 
L 65.568239 133.324171 
L 64.146479 132.440875 
L 62.724719 131.771194 
L 61.302959 131.494084 
L 59.881199 131.533112 
L 58.459439 131.68164 
L 57.037679 131.744841 
L 55.615919 131.620734 
L 54.194159 131.325998 
L 52.772399 130.940054 
L 51.350639 130.493668 
L 49.928879 129.932837 
L 48.507119 129.216204 
L 47.085359 128.400582 
z
" clip-path="url(#p21440f6219)" style="fill-opacity: 0.3"/>
   </g>
   <g id="matplotlib.axis_5">
    <g id="xtick_7">
     <g id="line2d_33">
      <path d="M 47.085359 137.191005 
L 47.085359 98.994323 
" clip-path="url(#p21440f6219)" style="fill: none; stroke: #b0b0b0; stroke-opacity: 0.5; stroke-width: 0.8; stroke-linecap: square"/>
     </g>
     <g id="line2d_34">
      <g>
       <use xlink:href="#md9cfc0c717" x="47.085359" y="137.191005" style="stroke: #000000; stroke-width: 0.8"/>
      </g>
     </g>
    </g>
    <g id="xtick_8">
     <g id="line2d_35">
      <path d="M 91.15992 137.191005 
L 91.15992 98.994323 
" clip-path="url(#p21440f6219)" style="fill: none; stroke: #b0b0b0; stroke-opacity: 0.5; stroke-width: 0.8; stroke-linecap: square"/>
     </g>
     <g id="line2d_36">
      <g>
       <use xlink:href="#md9cfc0c717" x="91.15992" y="137.191005" style="stroke: #000000; stroke-width: 0.8"/>
      </g>
     </g>
    </g>
    <g id="xtick_9">
     <g id="line2d_37">
      <path d="M 135.234481 137.191005 
L 135.234481 98.994323 
" clip-path="url(#p21440f6219)" style="fill: none; stroke: #b0b0b0; stroke-opacity: 0.5; stroke-width: 0.8; stroke-linecap: square"/>
     </g>
     <g id="line2d_38">
      <g>
       <use xlink:href="#md9cfc0c717" x="135.234481" y="137.191005" style="stroke: #000000; stroke-width: 0.8"/>
      </g>
     </g>
    </g>
   </g>
   <g id="matplotlib.axis_6">
    <g id="ytick_9">
     <g id="line2d_39">
      <path d="M 47.085359 134.485935 
L 135.234481 134.485935 
" clip-path="url(#p21440f6219)" style="fill: none; stroke: #b0b0b0; stroke-opacity: 0.5; stroke-width: 0.8; stroke-linecap: square"/>
     </g>
     <g id="line2d_40">
      <g>
       <use xlink:href="#m5b13101c82" x="47.085359" y="134.485935" style="stroke: #000000; stroke-width: 0.8"/>
      </g>
     </g>
     <g id="text_11">
      <!-- $\mathdefault{0.50}$ -->
      <g transform="translate(22.373945 137.945185) scale(0.1 -0.1)">
       <use xlink:href="#CMR17-30" transform="scale(0.996264)"/>
       <use xlink:href="#CMMI12-3a" transform="translate(45.690477 0) scale(0.996264)"/>
       <use xlink:href="#CMR17-35" transform="translate(72.787654 0) scale(0.996264)"/>
       <use xlink:href="#CMR17-30" transform="translate(118.478131 0) scale(0.996264)"/>
      </g>
     </g>
    </g>
    <g id="ytick_10">
     <g id="line2d_41">
      <path d="M 47.085359 125.26766 
L 135.234481 125.26766 
" clip-path="url(#p21440f6219)" style="fill: none; stroke: #b0b0b0; stroke-opacity: 0.5; stroke-width: 0.8; stroke-linecap: square"/>
     </g>
     <g id="line2d_42">
      <g>
       <use xlink:href="#m5b13101c82" x="47.085359" y="125.26766" style="stroke: #000000; stroke-width: 0.8"/>
      </g>
     </g>
     <g id="text_12">
      <!-- $\mathdefault{0.55}$ -->
      <g transform="translate(22.373945 128.726909) scale(0.1 -0.1)">
       <use xlink:href="#CMR17-30" transform="scale(0.996264)"/>
       <use xlink:href="#CMMI12-3a" transform="translate(45.690477 0) scale(0.996264)"/>
       <use xlink:href="#CMR17-35" transform="translate(72.787654 0) scale(0.996264)"/>
       <use xlink:href="#CMR17-35" transform="translate(118.478131 0) scale(0.996264)"/>
      </g>
     </g>
    </g>
    <g id="ytick_11">
     <g id="line2d_43">
      <path d="M 47.085359 116.049384 
L 135.234481 116.049384 
" clip-path="url(#p21440f6219)" style="fill: none; stroke: #b0b0b0; stroke-opacity: 0.5; stroke-width: 0.8; stroke-linecap: square"/>
     </g>
     <g id="line2d_44">
      <g>
       <use xlink:href="#m5b13101c82" x="47.085359" y="116.049384" style="stroke: #000000; stroke-width: 0.8"/>
      </g>
     </g>
     <g id="text_13">
      <!-- $\mathdefault{0.60}$ -->
      <g transform="translate(22.373945 119.508633) scale(0.1 -0.1)">
       <use xlink:href="#CMR17-30" transform="scale(0.996264)"/>
       <use xlink:href="#CMMI12-3a" transform="translate(45.690477 0) scale(0.996264)"/>
       <use xlink:href="#CMR17-36" transform="translate(72.787654 0) scale(0.996264)"/>
       <use xlink:href="#CMR17-30" transform="translate(118.478131 0) scale(0.996264)"/>
      </g>
     </g>
    </g>
    <g id="ytick_12">
     <g id="line2d_45">
      <path d="M 47.085359 106.831109 
L 135.234481 106.831109 
" clip-path="url(#p21440f6219)" style="fill: none; stroke: #b0b0b0; stroke-opacity: 0.5; stroke-width: 0.8; stroke-linecap: square"/>
     </g>
     <g id="line2d_46">
      <g>
       <use xlink:href="#m5b13101c82" x="47.085359" y="106.831109" style="stroke: #000000; stroke-width: 0.8"/>
      </g>
     </g>
     <g id="text_14">
      <!-- $\mathdefault{0.65}$ -->
      <g transform="translate(22.373945 110.290358) scale(0.1 -0.1)">
       <use xlink:href="#CMR17-30" transform="scale(0.996264)"/>
       <use xlink:href="#CMMI12-3a" transform="translate(45.690477 0) scale(0.996264)"/>
       <use xlink:href="#CMR17-36" transform="translate(72.787654 0) scale(0.996264)"/>
       <use xlink:href="#CMR17-35" transform="translate(118.478131 0) scale(0.996264)"/>
      </g>
     </g>
    </g>
   </g>
   <g id="line2d_47">
    <path d="M 47.085359 119.141018 
L 135.234481 119.141018 
" clip-path="url(#p21440f6219)" style="fill: none; stroke-dasharray: 9.6,2.4,1.5,2.4; stroke-dashoffset: 0; stroke: #000000; stroke-opacity: 0.3; stroke-width: 1.5"/>
   </g>
   <g id="line2d_48">
    <path d="M 47.085359 119.271907 
L 48.507119 119.997 
L 49.928879 120.520735 
L 51.350639 120.838237 
L 52.772399 120.986699 
L 54.194159 121.032358 
L 55.615919 121.050605 
L 57.037679 121.108907 
L 58.459439 121.255615 
L 59.881199 121.513226 
L 61.302959 121.876614 
L 62.724719 122.317378 
L 64.146479 122.791435 
L 65.568239 123.246255 
L 66.989999 123.629391 
L 68.411759 123.900608 
L 69.833519 124.042749 
L 71.255279 124.064566 
L 72.67704 123.99687 
L 74.0988 123.886608 
L 75.52056 123.787592 
L 76.94232 123.745765 
L 78.36408 123.78405 
L 79.78584 123.894275 
L 81.2076 124.038141 
L 82.62936 124.155285 
L 84.05112 124.177599 
L 85.47288 124.047898 
L 86.89464 123.735952 
L 88.3164 123.244093 
L 89.73816 122.601333 
L 91.15992 121.851486 
L 92.58168 120.997247 
L 94.00344 120.156107 
L 95.4252 119.337849 
L 96.84696 118.565264 
L 98.26872 117.850001 
L 99.69048 117.194626 
L 101.11224 116.596674 
L 102.534 116.053099 
L 103.95576 115.562318 
L 105.37752 115.121987 
L 106.79928 114.724716 
L 108.22104 114.357667 
L 109.6428 114.009602 
L 111.06456 113.680727 
L 112.48632 113.38606 
L 113.90808 113.148223 
L 115.32984 112.984876 
L 116.7516 112.899555 
L 118.17336 112.881557 
L 119.59512 112.915109 
L 121.01688 112.99301 
L 122.43864 113.126356 
L 123.8604 113.343298 
L 125.28216 113.677557 
L 126.70392 114.155178 
L 128.12568 114.786833 
L 129.54744 115.565102 
L 130.9692 116.462216 
L 132.39096 117.42782 
L 133.81272 118.391231 
L 135.234481 119.271907 
" clip-path="url(#p21440f6219)" style="fill: none; stroke: #000000; stroke-width: 1.5; stroke-linecap: square"/>
   </g>
   <g id="patch_13">
    <path d="M 47.085359 137.191005 
L 47.085359 98.994323 
" style="fill: none; stroke: #000000; stroke-width: 0.8; stroke-linejoin: miter; stroke-linecap: square"/>
   </g>
   <g id="patch_14">
    <path d="M 135.234481 137.191005 
L 135.234481 98.994323 
" style="fill: none; stroke: #000000; stroke-width: 0.8; stroke-linejoin: miter; stroke-linecap: square"/>
   </g>
   <g id="patch_15">
    <path d="M 47.085359 137.191005 
L 135.234481 137.191005 
" style="fill: none; stroke: #000000; stroke-width: 0.8; stroke-linejoin: miter; stroke-linecap: square"/>
   </g>
   <g id="patch_16">
    <path d="M 47.085359 98.994323 
L 135.234481 98.994323 
" style="fill: none; stroke: #000000; stroke-width: 0.8; stroke-linejoin: miter; stroke-linecap: square"/>
   </g>
   <g id="text_15">
    <!-- \textbf{2.0 Hz} -->
    <g transform="translate(48.848342 108.516149) scale(0.1 -0.1)">
     <defs>
      <path id="CMBX12-32" d="M 3232 1368 
L 2963 1368 
C 2944 1234 2899 858 2803 795 
C 2752 750 2253 750 2157 750 
L 1165 750 
C 1408 954 1990 1438 2086 1509 
C 2797 2038 3232 2362 3232 2974 
C 3232 3725 2547 4178 1702 4178 
C 979 4178 358 3770 358 3165 
C 358 2827 634 2732 781 2732 
C 979 2732 1210 2865 1210 3159 
C 1210 3427 1011 3560 813 3586 
C 1069 3879 1408 3904 1542 3904 
C 2131 3904 2413 3427 2413 2968 
C 2413 2471 2074 2013 1811 1739 
L 422 293 
C 358 235 358 223 358 108 
L 358 0 
L 3046 0 
L 3232 1368 
z
" transform="scale(0.015625)"/>
     </defs>
     <use xlink:href="#CMBX12-32" transform="scale(0.996264)"/>
     <use xlink:href="#CMBX12-2e" transform="translate(56.039851 0) scale(0.996264)"/>
     <use xlink:href="#CMBX12-30" transform="translate(87.173101 0) scale(0.996264)"/>
     <use xlink:href="#CMBX12-48" transform="translate(180.572852 0) scale(0.996264)"/>
     <use xlink:href="#CMBX12-7a" transform="translate(268.207327 0) scale(0.996264)"/>
    </g>
   </g>
  </g>
  <g id="axes_4">
   <g id="patch_17">
    <path d="M 47.085359 184.888167 
L 135.234481 184.888167 
L 135.234481 146.691485 
L 47.085359 146.691485 
z
" style="fill: #ffffff"/>
   </g>
   <g id="FillBetweenPolyCollection_4">
    <path d="M 47.085359 173.079498 
L 47.085359 156.815211 
L 49.235338 157.638131 
L 51.385316 158.279941 
L 53.535295 158.730618 
L 55.685273 159.042545 
L 57.835252 159.317759 
L 59.985231 159.654217 
L 62.135209 160.082877 
L 64.285188 160.53707 
L 66.435166 160.880483 
L 68.585145 160.989296 
L 70.735123 160.778368 
L 72.885102 160.49418 
L 75.035081 160.237871 
L 77.185059 160.165922 
L 79.335038 160.321242 
L 81.485016 160.582716 
L 83.634995 160.683046 
L 85.784973 160.319937 
L 87.934952 159.328849 
L 90.084931 157.788167 
L 92.234909 155.951391 
L 94.384888 154.085198 
L 96.534866 152.364109 
L 98.684845 150.872954 
L 100.834823 149.669442 
L 102.984802 148.828821 
L 105.134781 148.427698 
L 107.284759 148.489095 
L 109.434738 148.940452 
L 111.584716 149.616184 
L 113.734695 150.309183 
L 115.884673 150.860885 
L 118.034652 151.233537 
L 120.184631 151.507145 
L 122.334609 151.814386 
L 124.484588 152.274017 
L 126.634566 152.950557 
L 128.784545 153.831253 
L 130.934523 154.835512 
L 133.084502 155.859226 
L 135.234481 156.815211 
L 135.234481 173.079498 
L 135.234481 173.079498 
L 133.084502 172.53241 
L 130.934523 172.200081 
L 128.784545 171.997765 
L 126.634566 171.784303 
L 124.484588 171.422495 
L 122.334609 170.844092 
L 120.184631 170.074298 
L 118.034652 169.21903 
L 115.884673 168.433572 
L 113.734695 167.863264 
L 111.584716 167.579876 
L 109.434738 167.566083 
L 107.284759 167.768061 
L 105.134781 168.160887 
L 102.984802 168.775972 
L 100.834823 169.682942 
L 98.684845 170.929918 
L 96.534866 172.474237 
L 94.384888 174.161272 
L 92.234909 175.785448 
L 90.084931 177.198488 
L 87.934952 178.378173 
L 85.784973 179.38589 
L 83.634995 180.240506 
L 81.485016 180.848317 
L 79.335038 181.072209 
L 77.185059 180.85085 
L 75.035081 180.258308 
L 72.885102 179.485695 
L 70.735123 178.772883 
L 68.585145 178.287567 
L 66.435166 178.14131 
L 64.285188 178.21422 
L 62.135209 178.290425 
L 59.985231 178.153213 
L 57.835252 177.681243 
L 55.685273 176.88419 
L 53.535295 175.877249 
L 51.385316 174.820054 
L 49.235338 173.855972 
L 47.085359 173.079498 
z
" clip-path="url(#p780c8b04b5)" style="fill-opacity: 0.3"/>
   </g>
   <g id="matplotlib.axis_7">
    <g id="xtick_10">
     <g id="line2d_49">
      <path d="M 47.085359 184.888167 
L 47.085359 146.691485 
" clip-path="url(#p780c8b04b5)" style="fill: none; stroke: #b0b0b0; stroke-opacity: 0.5; stroke-width: 0.8; stroke-linecap: square"/>
     </g>
     <g id="line2d_50">
      <g>
       <use xlink:href="#md9cfc0c717" x="47.085359" y="184.888167" style="stroke: #000000; stroke-width: 0.8"/>
      </g>
     </g>
     <g id="text_16">
      <!-- $\mathdefault{0.0}$ -->
      <g transform="translate(40.72032 198.806665) scale(0.1 -0.1)">
       <use xlink:href="#CMR17-30" transform="scale(0.996264)"/>
       <use xlink:href="#CMMI12-3a" transform="translate(45.690477 0) scale(0.996264)"/>
       <use xlink:href="#CMR17-30" transform="translate(72.787654 0) scale(0.996264)"/>
      </g>
     </g>
    </g>
    <g id="xtick_11">
     <g id="line2d_51">
      <path d="M 91.15992 184.888167 
L 91.15992 146.691485 
" clip-path="url(#p780c8b04b5)" style="fill: none; stroke: #b0b0b0; stroke-opacity: 0.5; stroke-width: 0.8; stroke-linecap: square"/>
     </g>
     <g id="line2d_52">
      <g>
       <use xlink:href="#md9cfc0c717" x="91.15992" y="184.888167" style="stroke: #000000; stroke-width: 0.8"/>
      </g>
     </g>
     <g id="text_17">
      <!-- $\mathdefault{0.5}$ -->
      <g transform="translate(84.79488 198.806665) scale(0.1 -0.1)">
       <use xlink:href="#CMR17-30" transform="scale(0.996264)"/>
       <use xlink:href="#CMMI12-3a" transform="translate(45.690477 0) scale(0.996264)"/>
       <use xlink:href="#CMR17-35" transform="translate(72.787654 0) scale(0.996264)"/>
      </g>
     </g>
    </g>
    <g id="xtick_12">
     <g id="line2d_53">
      <path d="M 135.234481 184.888167 
L 135.234481 146.691485 
" clip-path="url(#p780c8b04b5)" style="fill: none; stroke: #b0b0b0; stroke-opacity: 0.5; stroke-width: 0.8; stroke-linecap: square"/>
     </g>
     <g id="line2d_54">
      <g>
       <use xlink:href="#md9cfc0c717" x="135.234481" y="184.888167" style="stroke: #000000; stroke-width: 0.8"/>
      </g>
     </g>
     <g id="text_18">
      <!-- $\mathdefault{1.0}$ -->
      <g transform="translate(128.869441 198.806665) scale(0.1 -0.1)">
       <defs>
        <path id="CMR17-31" d="M 1702 4058 
C 1702 4192 1696 4192 1606 4192 
C 1357 3916 979 3827 621 3827 
C 602 3827 570 3827 563 3808 
C 557 3795 557 3782 557 3648 
C 755 3648 1088 3686 1344 3839 
L 1344 461 
C 1344 236 1331 160 781 160 
L 589 160 
L 589 0 
C 896 0 1216 0 1523 0 
C 1830 0 2150 0 2458 0 
L 2458 160 
L 2266 160 
C 1715 160 1702 230 1702 458 
L 1702 4058 
z
" transform="scale(0.015625)"/>
       </defs>
       <use xlink:href="#CMR17-31" transform="scale(0.996264)"/>
       <use xlink:href="#CMMI12-3a" transform="translate(45.690477 0) scale(0.996264)"/>
       <use xlink:href="#CMR17-30" transform="translate(72.787654 0) scale(0.996264)"/>
      </g>
     </g>
    </g>
    <g id="text_19">
     <!-- Period -->
     <g transform="translate(76.963127 211.662342) scale(0.1 -0.1)">
      <defs>
       <path id="CMR17-50" d="M 1267 2042 
L 2291 2042 
C 3117 2042 3718 2578 3718 3184 
C 3718 3791 3130 4352 2291 4352 
L 333 4352 
L 333 4186 
C 774 4186 845 4186 845 3899 
L 845 446 
C 845 160 774 160 333 160 
L 333 0 
C 518 0 858 0 1056 0 
C 1254 0 1594 0 1779 0 
L 1779 160 
C 1338 160 1267 160 1267 446 
L 1267 2042 
z
M 1254 2176 
L 1254 3938 
C 1254 4155 1267 4186 1523 4186 
L 2170 4186 
C 2995 4186 3232 3714 3232 3184 
C 3232 2604 2950 2176 2170 2176 
L 1254 2176 
z
" transform="scale(0.015625)"/>
       <path id="CMR17-65" d="M 2438 1472 
C 2464 1498 2464 1511 2464 1576 
C 2464 2238 2118 2816 1389 2816 
C 710 2816 173 2169 173 1383 
C 173 551 781 -64 1459 -64 
C 2176 -64 2458 607 2458 740 
C 2458 784 2419 784 2406 784 
C 2362 784 2355 771 2330 696 
C 2189 265 1837 51 1504 51 
C 1229 51 954 203 781 480 
C 582 803 582 1176 582 1472 
L 2438 1472 
z
M 589 1568 
C 634 2505 1126 2714 1382 2714 
C 1818 2714 2112 2297 2118 1568 
L 589 1568 
z
" transform="scale(0.015625)"/>
       <path id="CMR17-72" d="M 960 1497 
C 960 2112 1222 2688 1702 2688 
C 1747 2688 1792 2682 1837 2662 
C 1837 2662 1696 2617 1696 2452 
C 1696 2298 1818 2234 1914 2234 
C 1990 2234 2131 2279 2131 2458 
C 2131 2663 1926 2790 1709 2790 
C 1222 2790 1011 2317 947 2093 
L 941 2093 
L 941 2790 
L 198 2720 
L 198 2554 
C 576 2554 634 2515 634 2208 
L 634 428 
C 634 184 608 153 198 153 
L 198 -13 
C 352 0 646 0 813 0 
C 998 0 1325 0 1498 -13 
L 1498 153 
C 1037 153 960 153 960 440 
L 960 1497 
z
" transform="scale(0.015625)"/>
       <path id="CMR17-69" d="M 992 3909 
C 992 4049 877 4170 730 4170 
C 589 4170 467 4056 467 3909 
C 467 3769 582 3648 730 3648 
C 870 3648 992 3763 992 3909 
z
M 243 2706 
L 243 2541 
C 602 2541 653 2502 653 2197 
L 653 427 
C 653 184 627 153 218 153 
L 218 -13 
C 371 0 646 0 806 0 
C 960 0 1222 0 1370 -13 
L 1370 153 
C 992 153 979 191 979 420 
L 979 2776 
L 243 2706 
z
" transform="scale(0.015625)"/>
       <path id="CMR17-6f" d="M 2758 1356 
C 2758 2176 2163 2816 1466 2816 
C 768 2816 173 2176 173 1356 
C 173 551 768 -64 1466 -64 
C 2163 -64 2758 551 2758 1356 
z
M 1466 51 
C 1165 51 909 230 762 480 
C 602 767 582 1126 582 1408 
C 582 1677 595 2010 762 2298 
C 890 2509 1139 2714 1466 2714 
C 1754 2714 1997 2554 2150 2330 
C 2349 2029 2349 1607 2349 1408 
C 2349 1158 2336 775 2163 467 
C 1984 173 1709 51 1466 51 
z
" transform="scale(0.015625)"/>
       <path id="CMR17-64" d="M 1869 4326 
L 1869 4160 
C 2246 4160 2304 4122 2304 3820 
L 2304 2345 
C 2278 2377 2016 2790 1498 2790 
C 845 2790 211 2208 211 1364 
C 211 525 806 -64 1434 -64 
C 1978 -64 2259 337 2291 380 
L 2291 -63 
L 3066 -63 
L 3066 128 
C 2688 128 2630 166 2630 473 
L 2630 4396 
L 1869 4326 
z
M 2291 755 
C 2291 563 2176 390 2029 262 
C 1811 70 1594 38 1472 38 
C 1286 38 621 134 621 1356 
C 621 2612 1363 2688 1530 2688 
C 1824 2688 2061 2522 2208 2291 
C 2291 2157 2291 2138 2291 2023 
L 2291 755 
z
" transform="scale(0.015625)"/>
      </defs>
      <use xlink:href="#CMR17-50" transform="scale(0.996264)"/>
      <use xlink:href="#CMR17-65" transform="translate(59.983847 0) scale(0.996264)"/>
      <use xlink:href="#CMR17-72" transform="translate(100.469507 0) scale(0.996264)"/>
      <use xlink:href="#CMR17-69" transform="translate(135.750275 0) scale(0.996264)"/>
      <use xlink:href="#CMR17-6f" transform="translate(160.621333 0) scale(0.996264)"/>
      <use xlink:href="#CMR17-64" transform="translate(208.914249 0) scale(0.996264)"/>
     </g>
    </g>
   </g>
   <g id="matplotlib.axis_8">
    <g id="ytick_13">
     <g id="line2d_55">
      <path d="M 47.085359 182.183097 
L 135.234481 182.183097 
" clip-path="url(#p780c8b04b5)" style="fill: none; stroke: #b0b0b0; stroke-opacity: 0.5; stroke-width: 0.8; stroke-linecap: square"/>
     </g>
     <g id="line2d_56">
      <g>
       <use xlink:href="#m5b13101c82" x="47.085359" y="182.183097" style="stroke: #000000; stroke-width: 0.8"/>
      </g>
     </g>
     <g id="text_20">
      <!-- $\mathdefault{0.50}$ -->
      <g transform="translate(22.373945 185.642346) scale(0.1 -0.1)">
       <use xlink:href="#CMR17-30" transform="scale(0.996264)"/>
       <use xlink:href="#CMMI12-3a" transform="translate(45.690477 0) scale(0.996264)"/>
       <use xlink:href="#CMR17-35" transform="translate(72.787654 0) scale(0.996264)"/>
       <use xlink:href="#CMR17-30" transform="translate(118.478131 0) scale(0.996264)"/>
      </g>
     </g>
    </g>
    <g id="ytick_14">
     <g id="line2d_57">
      <path d="M 47.085359 172.964821 
L 135.234481 172.964821 
" clip-path="url(#p780c8b04b5)" style="fill: none; stroke: #b0b0b0; stroke-opacity: 0.5; stroke-width: 0.8; stroke-linecap: square"/>
     </g>
     <g id="line2d_58">
      <g>
       <use xlink:href="#m5b13101c82" x="47.085359" y="172.964821" style="stroke: #000000; stroke-width: 0.8"/>
      </g>
     </g>
     <g id="text_21">
      <!-- $\mathdefault{0.55}$ -->
      <g transform="translate(22.373945 176.424071) scale(0.1 -0.1)">
       <use xlink:href="#CMR17-30" transform="scale(0.996264)"/>
       <use xlink:href="#CMMI12-3a" transform="translate(45.690477 0) scale(0.996264)"/>
       <use xlink:href="#CMR17-35" transform="translate(72.787654 0) scale(0.996264)"/>
       <use xlink:href="#CMR17-35" transform="translate(118.478131 0) scale(0.996264)"/>
      </g>
     </g>
    </g>
    <g id="ytick_15">
     <g id="line2d_59">
      <path d="M 47.085359 163.746546 
L 135.234481 163.746546 
" clip-path="url(#p780c8b04b5)" style="fill: none; stroke: #b0b0b0; stroke-opacity: 0.5; stroke-width: 0.8; stroke-linecap: square"/>
     </g>
     <g id="line2d_60">
      <g>
       <use xlink:href="#m5b13101c82" x="47.085359" y="163.746546" style="stroke: #000000; stroke-width: 0.8"/>
      </g>
     </g>
     <g id="text_22">
      <!-- $\mathdefault{0.60}$ -->
      <g transform="translate(22.373945 167.205795) scale(0.1 -0.1)">
       <use xlink:href="#CMR17-30" transform="scale(0.996264)"/>
       <use xlink:href="#CMMI12-3a" transform="translate(45.690477 0) scale(0.996264)"/>
       <use xlink:href="#CMR17-36" transform="translate(72.787654 0) scale(0.996264)"/>
       <use xlink:href="#CMR17-30" transform="translate(118.478131 0) scale(0.996264)"/>
      </g>
     </g>
    </g>
    <g id="ytick_16">
     <g id="line2d_61">
      <path d="M 47.085359 154.52827 
L 135.234481 154.52827 
" clip-path="url(#p780c8b04b5)" style="fill: none; stroke: #b0b0b0; stroke-opacity: 0.5; stroke-width: 0.8; stroke-linecap: square"/>
     </g>
     <g id="line2d_62">
      <g>
       <use xlink:href="#m5b13101c82" x="47.085359" y="154.52827" style="stroke: #000000; stroke-width: 0.8"/>
      </g>
     </g>
     <g id="text_23">
      <!-- $\mathdefault{0.65}$ -->
      <g transform="translate(22.373945 157.987519) scale(0.1 -0.1)">
       <use xlink:href="#CMR17-30" transform="scale(0.996264)"/>
       <use xlink:href="#CMMI12-3a" transform="translate(45.690477 0) scale(0.996264)"/>
       <use xlink:href="#CMR17-36" transform="translate(72.787654 0) scale(0.996264)"/>
       <use xlink:href="#CMR17-35" transform="translate(118.478131 0) scale(0.996264)"/>
      </g>
     </g>
    </g>
   </g>
   <g id="line2d_63">
    <path d="M 47.085359 165.053924 
L 135.234481 165.053924 
" clip-path="url(#p780c8b04b5)" style="fill: none; stroke-dasharray: 9.6,2.4,1.5,2.4; stroke-dashoffset: 0; stroke: #000000; stroke-opacity: 0.3; stroke-width: 1.5"/>
   </g>
   <g id="line2d_64">
    <path d="M 47.085359 164.947355 
L 49.235338 165.747051 
L 51.385316 166.549997 
L 53.535295 167.303933 
L 55.685273 167.963368 
L 57.835252 168.499501 
L 59.985231 168.903715 
L 62.135209 169.186651 
L 64.285188 169.375645 
L 66.435166 169.510897 
L 68.585145 169.638432 
L 70.735123 169.775626 
L 72.885102 169.989937 
L 75.035081 170.24809 
L 77.185059 170.508386 
L 79.335038 170.696726 
L 81.485016 170.715516 
L 83.634995 170.461776 
L 85.784973 169.852913 
L 87.934952 168.853511 
L 90.084931 167.493328 
L 92.234909 165.86842 
L 94.384888 164.123235 
L 96.534866 162.419173 
L 98.684845 160.901436 
L 100.834823 159.676192 
L 102.984802 158.802397 
L 105.134781 158.294292 
L 107.284759 158.128578 
L 109.434738 158.253267 
L 111.584716 158.59803 
L 113.734695 159.086223 
L 115.884673 159.647229 
L 118.034652 160.226283 
L 120.184631 160.790722 
L 122.334609 161.329239 
L 124.484588 161.848256 
L 126.634566 162.36743 
L 128.784545 162.914509 
L 130.934523 163.517796 
L 133.084502 164.195818 
L 135.234481 164.947355 
" clip-path="url(#p780c8b04b5)" style="fill: none; stroke: #000000; stroke-width: 1.5; stroke-linecap: square"/>
   </g>
   <g id="patch_18">
    <path d="M 47.085359 184.888167 
L 47.085359 146.691485 
" style="fill: none; stroke: #000000; stroke-width: 0.8; stroke-linejoin: miter; stroke-linecap: square"/>
   </g>
   <g id="patch_19">
    <path d="M 135.234481 184.888167 
L 135.234481 146.691485 
" style="fill: none; stroke: #000000; stroke-width: 0.8; stroke-linejoin: miter; stroke-linecap: square"/>
   </g>
   <g id="patch_20">
    <path d="M 47.085359 184.888167 
L 135.234481 184.888167 
" style="fill: none; stroke: #000000; stroke-width: 0.8; stroke-linejoin: miter; stroke-linecap: square"/>
   </g>
   <g id="patch_21">
    <path d="M 47.085359 146.691485 
L 135.234481 146.691485 
" style="fill: none; stroke: #000000; stroke-width: 0.8; stroke-linejoin: miter; stroke-linecap: square"/>
   </g>
   <g id="text_24">
    <!-- \textbf{3.0 Hz} -->
    <g transform="translate(48.848342 156.213311) scale(0.1 -0.1)">
     <defs>
      <path id="CMBX12-33" d="M 1670 2112 
C 2387 2112 2387 1454 2387 1151 
C 2387 866 2387 196 1696 196 
C 1562 196 1139 196 832 424 
C 1107 481 1203 678 1203 868 
C 1203 1128 1018 1312 755 1312 
C 486 1312 301 1128 301 862 
C 301 278 941 -64 1728 -64 
C 2784 -64 3290 513 3290 1147 
C 3290 1459 3130 2061 2138 2232 
C 2701 2406 3091 2804 3091 3310 
C 3091 3792 2630 4197 1741 4197 
C 1024 4197 499 3818 499 3298 
C 499 2977 749 2874 915 2874 
C 1101 2874 1325 2996 1325 3292 
C 1325 3441 1261 3659 960 3704 
C 1229 3968 1664 3968 1702 3968 
C 2272 3968 2272 3522 2272 3329 
C 2272 3135 2246 2837 2042 2573 
C 1875 2352 1709 2340 1466 2340 
C 1389 2321 1261 2321 1235 2309 
C 1197 2290 1197 2245 1197 2220 
C 1197 2112 1235 2112 1363 2112 
L 1670 2112 
z
" transform="scale(0.015625)"/>
     </defs>
     <use xlink:href="#CMBX12-33" transform="scale(0.996264)"/>
     <use xlink:href="#CMBX12-2e" transform="translate(56.039851 0) scale(0.996264)"/>
     <use xlink:href="#CMBX12-30" transform="translate(87.173101 0) scale(0.996264)"/>
     <use xlink:href="#CMBX12-48" transform="translate(180.572852 0) scale(0.996264)"/>
     <use xlink:href="#CMBX12-7a" transform="translate(268.207327 0) scale(0.996264)"/>
    </g>
   </g>
  </g>
  <g id="text_25">
   <!-- $u_r^\text{S} / u_\infty$ -->
   <g transform="translate(13.384673 125.024267) rotate(-90) scale(0.12 -0.12)">
    <defs>
     <path id="CMMI12-75" d="M 2182 370 
C 2266 13 2573 -64 2726 -64 
C 2931 -64 3085 70 3187 287 
C 3296 517 3379 894 3379 913 
C 3379 945 3354 971 3315 971 
C 3258 971 3251 939 3226 843 
C 3110 402 2995 64 2739 64 
C 2547 64 2547 275 2547 358 
C 2547 505 2566 568 2630 837 
C 2675 1009 2720 1181 2758 1360 
L 3021 2401 
C 3066 2561 3066 2574 3066 2593 
C 3066 2689 2989 2753 2893 2753 
C 2707 2753 2662 2593 2624 2433 
C 2560 2184 2214 811 2170 588 
C 2163 588 1914 64 1446 64 
C 1114 64 1050 351 1050 588 
C 1050 952 1229 1462 1395 1890 
C 1472 2095 1504 2178 1504 2305 
C 1504 2580 1306 2816 998 2816 
C 410 2816 173 1890 173 1839 
C 173 1814 198 1782 243 1782 
C 301 1782 307 1807 333 1896 
C 486 2441 736 2682 979 2682 
C 1043 2682 1146 2682 1146 2478 
C 1146 2312 1075 2127 979 1884 
C 698 1124 666 881 666 690 
C 666 38 1158 -64 1421 -64 
C 1830 -64 2054 217 2182 370 
z
" transform="scale(0.015625)"/>
     <path id="CMR17-53" d="M 2803 4290 
C 2803 4404 2797 4411 2758 4411 
C 2720 4411 2707 4385 2682 4328 
L 2490 3907 
C 2246 4257 1875 4416 1472 4416 
C 819 4416 294 3901 294 3253 
C 294 3056 339 2776 557 2510 
C 794 2218 1018 2167 1530 2033 
C 1722 1982 2042 1899 2106 1874 
C 2470 1722 2662 1341 2662 985 
C 2662 527 2336 38 1779 38 
C 1094 38 454 419 410 1311 
C 403 1413 397 1419 352 1419 
C 301 1419 294 1413 294 1285 
L 294 -1 
C 294 -115 301 -122 339 -122 
C 384 -122 397 -90 486 108 
C 493 127 493 140 614 381 
C 934 -39 1472 -128 1779 -128 
C 2477 -128 2970 451 2970 1124 
C 2970 1454 2848 1708 2778 1823 
C 2509 2230 2221 2306 1914 2382 
C 1869 2402 1856 2402 1498 2490 
C 1152 2579 1005 2624 845 2796 
C 666 2992 602 3196 602 3399 
C 602 3812 934 4263 1478 4263 
C 2157 4263 2579 3786 2675 2993 
C 2694 2878 2701 2872 2746 2872 
C 2803 2872 2803 2891 2803 2999 
L 2803 4290 
z
" transform="scale(0.015625)"/>
     <path id="CMMI12-72" d="M 2490 2612 
C 2291 2574 2189 2433 2189 2293 
C 2189 2139 2310 2088 2400 2088 
C 2579 2088 2726 2242 2726 2433 
C 2726 2638 2528 2816 2208 2816 
C 1952 2816 1658 2701 1389 2312 
C 1344 2650 1088 2816 832 2816 
C 582 2816 454 2625 378 2484 
C 269 2254 173 1871 173 1839 
C 173 1814 198 1782 243 1782 
C 294 1782 301 1788 339 1935 
C 435 2318 557 2689 813 2689 
C 966 2689 1011 2580 1011 2395 
C 1011 2254 947 2005 902 1807 
L 723 1118 
C 698 996 627 709 595 594 
C 550 428 480 128 480 96 
C 480 6 550 -64 646 -64 
C 717 -64 838 -19 877 109 
C 896 160 1133 1124 1171 1271 
C 1203 1411 1242 1546 1274 1686 
C 1299 1775 1325 1878 1344 1961 
C 1363 2018 1536 2331 1696 2472 
C 1773 2542 1939 2689 2202 2689 
C 2304 2689 2406 2670 2490 2612 
z
" transform="scale(0.015625)"/>
     <path id="CMMI12-3d" d="M 2746 4562 
C 2746 4569 2784 4666 2784 4678 
C 2784 4755 2720 4800 2669 4800 
C 2637 4800 2579 4800 2528 4659 
L 384 -1363 
C 384 -1370 346 -1465 346 -1478 
C 346 -1555 410 -1600 461 -1600 
C 499 -1600 557 -1593 602 -1459 
L 2746 4562 
z
" transform="scale(0.015625)"/>
     <path id="CMSY10-31" d="M 3251 1730 
C 2906 2166 2829 2262 2630 2422 
C 2272 2710 1914 2825 1587 2825 
C 838 2825 352 2122 352 1374 
C 352 639 826 -70 1562 -70 
C 2298 -70 2829 511 3142 1022 
C 3488 588 3565 492 3763 332 
C 4122 45 4480 -70 4806 -70 
C 5555 -70 6042 633 6042 1380 
C 6042 2115 5568 2825 4832 2825 
C 4096 2825 3565 2242 3251 1730 
z
M 3418 1514 
C 3680 1975 4154 2620 4877 2620 
C 5555 2620 5901 1955 5901 1380 
C 5901 753 5472 236 4909 236 
C 4538 236 4250 505 4115 638 
C 3955 811 3808 1009 3418 1514 
z
M 2976 1240 
C 2714 780 2240 134 1517 134 
C 838 134 493 799 493 1374 
C 493 2000 922 2518 1485 2518 
C 1856 2518 2144 2249 2278 2115 
C 2438 1943 2586 1744 2976 1240 
z
" transform="scale(0.015625)"/>
    </defs>
    <use xlink:href="#CMMI12-75" transform="scale(0.996264)"/>
    <use xlink:href="#CMR17-53" transform="translate(55.52033 36.153639) scale(0.697382)"/>
    <use xlink:href="#CMMI12-72" transform="translate(55.52033 -24.62935) scale(0.697382)"/>
    <use xlink:href="#CMMI12-3d" transform="translate(91.64507 0) scale(0.996264)"/>
    <use xlink:href="#CMMI12-75" transform="translate(140.419989 0) scale(0.996264)"/>
    <use xlink:href="#CMSY10-31" transform="translate(195.940318 -14.943915) scale(0.697382)"/>
   </g>
  </g>
 </g>
 <defs>
  <clipPath id="p07a7f4a6c6">
   <rect x="47.085359" y="3.6" width="88.149121" height="38.196682"/>
  </clipPath>
  <clipPath id="pcffc707d9e">
   <rect x="47.085359" y="51.297162" width="88.149121" height="38.196682"/>
  </clipPath>
  <clipPath id="p21440f6219">
   <rect x="47.085359" y="98.994323" width="88.149121" height="38.196682"/>
  </clipPath>
  <clipPath id="p780c8b04b5">
   <rect x="47.085359" y="146.691485" width="88.149121" height="38.196682"/>
  </clipPath>
 </defs>
</svg>
