<?xml version="1.0" encoding="utf-8" standalone="no"?>
<!DOCTYPE svg PUBLIC "-//W3C//DTD SVG 1.1//EN"
  "http://www.w3.org/Graphics/SVG/1.1/DTD/svg11.dtd">
<svg xmlns:xlink="http://www.w3.org/1999/xlink" width="433.19952pt" height="145.19952pt" viewBox="0 0 433.19952 145.19952" xmlns="http://www.w3.org/2000/svg" version="1.1">
 <metadata>
  <rdf:RDF xmlns:dc="http://purl.org/dc/elements/1.1/" xmlns:cc="http://creativecommons.org/ns#" xmlns:rdf="http://www.w3.org/1999/02/22-rdf-syntax-ns#">
   <cc:Work>
    <dc:type rdf:resource="http://purl.org/dc/dcmitype/StillImage"/>
    <dc:date>2025-12-22T13:28:47.634360</dc:date>
    <dc:format>image/svg+xml</dc:format>
    <dc:creator>
     <cc:Agent>
      <dc:title>Matplotlib v3.10.8, https://matplotlib.org/</dc:title>
     </cc:Agent>
    </dc:creator>
   </cc:Work>
  </rdf:RDF>
 </metadata>
 <defs>
  <style type="text/css">*{stroke-linejoin: round; stroke-linecap: butt}</style>
 </defs>
 <g id="figure_1">
  <g id="patch_1">
   <path d="M 0 145.19952 
L 433.19952 145.19952 
L 433.19952 0 
L 0 0 
z
" style="fill: #ffffff"/>
  </g>
  <g id="axes_1">
   <g id="patch_2">
    <path d="M 41.167091 111.143564 
L 429.59952 111.143564 
L 429.59952 3.6 
L 41.167091 3.6 
z
" style="fill: #ffffff"/>
   </g>
   <g id="FillBetweenPolyCollection_1">
    <path d="M 58.82311 106.255221 
L 58.82311 106.255221 
L 66.029649 106.214501 
L 73.236188 106.092344 
L 80.442726 105.888747 
L 87.649265 105.603713 
L 94.855803 105.23724 
L 102.062342 104.789328 
L 109.26888 104.259978 
L 116.475419 103.64919 
L 123.681958 102.956963 
L 130.888496 102.183297 
L 138.095035 101.328193 
L 145.301573 100.391651 
L 152.508112 99.37367 
L 159.71465 98.274251 
L 166.921189 97.093393 
L 174.127728 95.831097 
L 181.334266 94.487362 
L 188.540805 93.062189 
L 195.747343 91.555578 
L 202.953882 89.967528 
L 210.16042 88.298039 
L 217.366959 86.547112 
L 224.573498 84.714747 
L 231.780036 82.800943 
L 238.986575 80.8057 
L 246.193113 78.72902 
L 253.399652 76.5709 
L 260.60619 74.331342 
L 267.812729 72.010346 
L 275.019268 69.607912 
L 282.225806 67.124038 
L 289.432345 64.558727 
L 296.638883 61.911977 
L 303.845422 59.183788 
L 311.05196 56.374161 
L 318.258499 53.483096 
L 325.465038 50.510592 
L 332.671576 47.456649 
L 339.878115 44.321268 
L 347.084653 41.104449 
L 354.291192 37.806191 
L 361.49773 34.426495 
L 368.704269 30.96536 
L 375.910808 27.422787 
L 383.117346 23.798775 
L 390.323885 20.093325 
L 397.530423 16.306436 
L 404.736962 12.438109 
L 411.9435 8.488344 
L 411.9435 24.081216 
L 411.9435 24.081216 
L 404.736962 27.401032 
L 397.530423 30.652399 
L 390.323885 33.835315 
L 383.117346 36.949782 
L 375.910808 39.995798 
L 368.704269 42.973365 
L 361.49773 45.882483 
L 354.291192 48.72315 
L 347.084653 51.495368 
L 339.878115 54.199135 
L 332.671576 56.834453 
L 325.465038 59.401321 
L 318.258499 61.89974 
L 311.05196 64.329708 
L 303.845422 66.691227 
L 296.638883 68.984296 
L 289.432345 71.208915 
L 282.225806 73.365084 
L 275.019268 75.452803 
L 267.812729 77.472073 
L 260.60619 79.422893 
L 253.399652 81.305263 
L 246.193113 83.119183 
L 238.986575 84.864653 
L 231.780036 86.541674 
L 224.573498 88.150244 
L 217.366959 89.690365 
L 210.16042 91.162036 
L 202.953882 92.565257 
L 195.747343 93.900029 
L 188.540805 95.16635 
L 181.334266 96.364222 
L 174.127728 97.493644 
L 166.921189 98.554616 
L 159.71465 99.547139 
L 152.508112 100.471211 
L 145.301573 101.326834 
L 138.095035 102.114007 
L 130.888496 102.83273 
L 123.681958 103.483003 
L 116.475419 104.064826 
L 109.26888 104.5782 
L 102.062342 105.023124 
L 94.855803 105.399598 
L 87.649265 105.707622 
L 80.442726 105.947196 
L 73.236188 106.118321 
L 66.029649 106.220996 
L 58.82311 106.255221 
z
" clip-path="url(#pda646b40aa)" style="fill: #4fb068; fill-opacity: 0.3"/>
   </g>
   <g id="matplotlib.axis_1">
    <g id="xtick_1">
     <g id="line2d_1">
      <path d="M 58.82311 111.143564 
L 58.82311 3.6 
" clip-path="url(#pda646b40aa)" style="fill: none; stroke: #b0b0b0; stroke-opacity: 0.5; stroke-width: 0.8; stroke-linecap: square"/>
     </g>
     <g id="line2d_2">
      <defs>
       <path id="m871b81ea11" d="M 0 0 
L 0 3.5 
" style="stroke: #000000; stroke-width: 0.8"/>
      </defs>
      <g>
       <use xlink:href="#m871b81ea11" x="58.82311" y="111.143564" style="stroke: #000000; stroke-width: 0.8"/>
      </g>
     </g>
     <g id="text_1">
      <!-- $\mathdefault{0}$ -->
      <g transform="translate(56.332443 125.062063) scale(0.1 -0.1)">
       <defs>
        <path id="CMR17-30" d="M 2688 2025 
C 2688 2416 2682 3080 2413 3591 
C 2176 4039 1798 4198 1466 4198 
C 1158 4198 768 4058 525 3597 
C 269 3118 243 2524 243 2025 
C 243 1661 250 1106 448 619 
C 723 -39 1216 -128 1466 -128 
C 1760 -128 2208 -7 2470 600 
C 2662 1042 2688 1559 2688 2025 
z
M 1466 -26 
C 1056 -26 813 325 723 812 
C 653 1188 653 1738 653 2096 
C 653 2588 653 2997 736 3387 
C 858 3929 1216 4096 1466 4096 
C 1728 4096 2067 3923 2189 3400 
C 2272 3036 2278 2607 2278 2096 
C 2278 1680 2278 1169 2202 792 
C 2067 95 1690 -26 1466 -26 
z
" transform="scale(0.015625)"/>
       </defs>
       <use xlink:href="#CMR17-30" transform="scale(0.996264)"/>
      </g>
     </g>
    </g>
    <g id="xtick_2">
     <g id="line2d_3">
      <path d="M 117.676509 111.143564 
L 117.676509 3.6 
" clip-path="url(#pda646b40aa)" style="fill: none; stroke: #b0b0b0; stroke-opacity: 0.5; stroke-width: 0.8; stroke-linecap: square"/>
     </g>
     <g id="line2d_4">
      <g>
       <use xlink:href="#m871b81ea11" x="117.676509" y="111.143564" style="stroke: #000000; stroke-width: 0.8"/>
      </g>
     </g>
     <g id="text_2">
      <!-- $\mathdefault{1}$ -->
      <g transform="translate(115.185841 125.062063) scale(0.1 -0.1)">
       <defs>
        <path id="CMR17-31" d="M 1702 4058 
C 1702 4192 1696 4192 1606 4192 
C 1357 3916 979 3827 621 3827 
C 602 3827 570 3827 563 3808 
C 557 3795 557 3782 557 3648 
C 755 3648 1088 3686 1344 3839 
L 1344 461 
C 1344 236 1331 160 781 160 
L 589 160 
L 589 0 
C 896 0 1216 0 1523 0 
C 1830 0 2150 0 2458 0 
L 2458 160 
L 2266 160 
C 1715 160 1702 230 1702 458 
L 1702 4058 
z
" transform="scale(0.015625)"/>
       </defs>
       <use xlink:href="#CMR17-31" transform="scale(0.996264)"/>
      </g>
     </g>
    </g>
    <g id="xtick_3">
     <g id="line2d_5">
      <path d="M 176.529907 111.143564 
L 176.529907 3.6 
" clip-path="url(#pda646b40aa)" style="fill: none; stroke: #b0b0b0; stroke-opacity: 0.5; stroke-width: 0.8; stroke-linecap: square"/>
     </g>
     <g id="line2d_6">
      <g>
       <use xlink:href="#m871b81ea11" x="176.529907" y="111.143564" style="stroke: #000000; stroke-width: 0.8"/>
      </g>
     </g>
     <g id="text_3">
      <!-- $\mathdefault{2}$ -->
      <g transform="translate(174.03924 125.062063) scale(0.1 -0.1)">
       <defs>
        <path id="CMR17-32" d="M 2669 989 
L 2554 989 
C 2490 536 2438 459 2413 420 
C 2381 369 1920 369 1830 369 
L 602 369 
C 832 619 1280 1072 1824 1597 
C 2214 1967 2669 2402 2669 3035 
C 2669 3790 2067 4224 1395 4224 
C 691 4224 262 3604 262 3030 
C 262 2780 448 2748 525 2748 
C 589 2748 781 2787 781 3010 
C 781 3207 614 3264 525 3264 
C 486 3264 448 3258 422 3245 
C 544 3790 915 4058 1306 4058 
C 1862 4058 2227 3617 2227 3035 
C 2227 2479 1901 2000 1536 1584 
L 262 146 
L 262 0 
L 2515 0 
L 2669 989 
z
" transform="scale(0.015625)"/>
       </defs>
       <use xlink:href="#CMR17-32" transform="scale(0.996264)"/>
      </g>
     </g>
    </g>
    <g id="xtick_4">
     <g id="line2d_7">
      <path d="M 235.383305 111.143564 
L 235.383305 3.6 
" clip-path="url(#pda646b40aa)" style="fill: none; stroke: #b0b0b0; stroke-opacity: 0.5; stroke-width: 0.8; stroke-linecap: square"/>
     </g>
     <g id="line2d_8">
      <g>
       <use xlink:href="#m871b81ea11" x="235.383305" y="111.143564" style="stroke: #000000; stroke-width: 0.8"/>
      </g>
     </g>
     <g id="text_4">
      <!-- $\mathdefault{3}$ -->
      <g transform="translate(232.892638 125.062063) scale(0.1 -0.1)">
       <defs>
        <path id="CMR17-33" d="M 1414 2157 
C 1984 2157 2234 1662 2234 1090 
C 2234 320 1824 25 1453 25 
C 1114 25 563 194 390 693 
C 422 680 454 680 486 680 
C 640 680 755 782 755 948 
C 755 1133 614 1216 486 1216 
C 378 1216 211 1165 211 926 
C 211 335 787 -128 1466 -128 
C 2176 -128 2720 430 2720 1085 
C 2720 1707 2208 2157 1600 2227 
C 2086 2328 2554 2756 2554 3329 
C 2554 3820 2048 4179 1472 4179 
C 890 4179 378 3829 378 3329 
C 378 3110 544 3072 627 3072 
C 762 3072 877 3155 877 3321 
C 877 3486 762 3569 627 3569 
C 602 3569 570 3569 544 3557 
C 730 3959 1235 4032 1459 4032 
C 1683 4032 2106 3925 2106 3320 
C 2106 3143 2080 2828 1862 2550 
C 1670 2304 1453 2304 1242 2284 
C 1210 2284 1062 2269 1037 2269 
C 992 2263 966 2257 966 2208 
C 966 2163 973 2157 1101 2157 
L 1414 2157 
z
" transform="scale(0.015625)"/>
       </defs>
       <use xlink:href="#CMR17-33" transform="scale(0.996264)"/>
      </g>
     </g>
    </g>
    <g id="xtick_5">
     <g id="line2d_9">
      <path d="M 294.236704 111.143564 
L 294.236704 3.6 
" clip-path="url(#pda646b40aa)" style="fill: none; stroke: #b0b0b0; stroke-opacity: 0.5; stroke-width: 0.8; stroke-linecap: square"/>
     </g>
     <g id="line2d_10">
      <g>
       <use xlink:href="#m871b81ea11" x="294.236704" y="111.143564" style="stroke: #000000; stroke-width: 0.8"/>
      </g>
     </g>
     <g id="text_5">
      <!-- $\mathdefault{4}$ -->
      <g transform="translate(291.746036 125.062063) scale(0.1 -0.1)">
       <defs>
        <path id="CMR17-34" d="M 2150 4122 
C 2150 4256 2144 4256 2029 4256 
L 128 1254 
L 128 1088 
L 1779 1088 
L 1779 457 
C 1779 224 1766 160 1318 160 
L 1197 160 
L 1197 0 
C 1402 0 1747 0 1965 0 
C 2182 0 2528 0 2733 0 
L 2733 160 
L 2611 160 
C 2163 160 2150 224 2150 457 
L 2150 1088 
L 2803 1088 
L 2803 1254 
L 2150 1254 
L 2150 4122 
z
M 1798 3703 
L 1798 1254 
L 256 1254 
L 1798 3703 
z
" transform="scale(0.015625)"/>
       </defs>
       <use xlink:href="#CMR17-34" transform="scale(0.996264)"/>
      </g>
     </g>
    </g>
    <g id="xtick_6">
     <g id="line2d_11">
      <path d="M 353.090102 111.143564 
L 353.090102 3.6 
" clip-path="url(#pda646b40aa)" style="fill: none; stroke: #b0b0b0; stroke-opacity: 0.5; stroke-width: 0.8; stroke-linecap: square"/>
     </g>
     <g id="line2d_12">
      <g>
       <use xlink:href="#m871b81ea11" x="353.090102" y="111.143564" style="stroke: #000000; stroke-width: 0.8"/>
      </g>
     </g>
     <g id="text_6">
      <!-- $\mathdefault{5}$ -->
      <g transform="translate(350.599435 125.062063) scale(0.1 -0.1)">
       <defs>
        <path id="CMR17-35" d="M 730 3692 
C 794 3666 1056 3584 1325 3584 
C 1920 3584 2246 3911 2432 4100 
C 2432 4157 2432 4192 2394 4192 
C 2387 4192 2374 4192 2323 4163 
C 2099 4058 1837 3973 1517 3973 
C 1325 3973 1037 3999 723 4139 
C 653 4171 640 4171 634 4171 
C 602 4171 595 4164 595 4037 
L 595 2203 
C 595 2089 595 2057 659 2057 
C 691 2057 704 2070 736 2114 
C 941 2401 1222 2522 1542 2522 
C 1766 2522 2246 2382 2246 1289 
C 2246 1085 2246 715 2054 421 
C 1894 159 1645 25 1370 25 
C 947 25 518 320 403 814 
C 429 807 480 795 506 795 
C 589 795 749 840 749 1038 
C 749 1210 627 1280 506 1280 
C 358 1280 262 1190 262 1011 
C 262 454 704 -128 1382 -128 
C 2042 -128 2669 440 2669 1264 
C 2669 2030 2170 2624 1549 2624 
C 1222 2624 947 2503 730 2274 
L 730 3692 
z
" transform="scale(0.015625)"/>
       </defs>
       <use xlink:href="#CMR17-35" transform="scale(0.996264)"/>
      </g>
     </g>
    </g>
    <g id="xtick_7">
     <g id="line2d_13">
      <path d="M 411.9435 111.143564 
L 411.9435 3.6 
" clip-path="url(#pda646b40aa)" style="fill: none; stroke: #b0b0b0; stroke-opacity: 0.5; stroke-width: 0.8; stroke-linecap: square"/>
     </g>
     <g id="line2d_14">
      <g>
       <use xlink:href="#m871b81ea11" x="411.9435" y="111.143564" style="stroke: #000000; stroke-width: 0.8"/>
      </g>
     </g>
     <g id="text_7">
      <!-- $\mathdefault{6}$ -->
      <g transform="translate(409.452833 125.062063) scale(0.1 -0.1)">
       <defs>
        <path id="CMR17-36" d="M 678 2176 
C 678 3690 1395 4032 1811 4032 
C 1946 4032 2272 4009 2400 3776 
C 2298 3776 2106 3776 2106 3553 
C 2106 3381 2246 3323 2336 3323 
C 2394 3323 2566 3348 2566 3560 
C 2566 3954 2246 4179 1805 4179 
C 1043 4179 243 3390 243 1984 
C 243 253 966 -128 1478 -128 
C 2099 -128 2688 427 2688 1283 
C 2688 2081 2170 2662 1517 2662 
C 1126 2662 838 2407 678 1960 
L 678 2176 
z
M 1478 25 
C 691 25 691 1200 691 1436 
C 691 1896 909 2560 1504 2560 
C 1613 2560 1926 2560 2138 2120 
C 2253 1870 2253 1609 2253 1289 
C 2253 944 2253 690 2118 434 
C 1978 171 1773 25 1478 25 
z
" transform="scale(0.015625)"/>
       </defs>
       <use xlink:href="#CMR17-36" transform="scale(0.996264)"/>
      </g>
     </g>
    </g>
    <g id="text_8">
     <!-- $u_\infty$ / m s${}^{-1}$ -->
     <g transform="translate(209.624516 139.10886) scale(0.1 -0.1)">
      <defs>
       <path id="CMMI12-75" d="M 2182 370 
C 2266 13 2573 -64 2726 -64 
C 2931 -64 3085 70 3187 287 
C 3296 517 3379 894 3379 913 
C 3379 945 3354 971 3315 971 
C 3258 971 3251 939 3226 843 
C 3110 402 2995 64 2739 64 
C 2547 64 2547 275 2547 358 
C 2547 505 2566 568 2630 837 
C 2675 1009 2720 1181 2758 1360 
L 3021 2401 
C 3066 2561 3066 2574 3066 2593 
C 3066 2689 2989 2753 2893 2753 
C 2707 2753 2662 2593 2624 2433 
C 2560 2184 2214 811 2170 588 
C 2163 588 1914 64 1446 64 
C 1114 64 1050 351 1050 588 
C 1050 952 1229 1462 1395 1890 
C 1472 2095 1504 2178 1504 2305 
C 1504 2580 1306 2816 998 2816 
C 410 2816 173 1890 173 1839 
C 173 1814 198 1782 243 1782 
C 301 1782 307 1807 333 1896 
C 486 2441 736 2682 979 2682 
C 1043 2682 1146 2682 1146 2478 
C 1146 2312 1075 2127 979 1884 
C 698 1124 666 881 666 690 
C 666 38 1158 -64 1421 -64 
C 1830 -64 2054 217 2182 370 
z
" transform="scale(0.015625)"/>
       <path id="CMSY10-31" d="M 3251 1730 
C 2906 2166 2829 2262 2630 2422 
C 2272 2710 1914 2825 1587 2825 
C 838 2825 352 2122 352 1374 
C 352 639 826 -70 1562 -70 
C 2298 -70 2829 511 3142 1022 
C 3488 588 3565 492 3763 332 
C 4122 45 4480 -70 4806 -70 
C 5555 -70 6042 633 6042 1380 
C 6042 2115 5568 2825 4832 2825 
C 4096 2825 3565 2242 3251 1730 
z
M 3418 1514 
C 3680 1975 4154 2620 4877 2620 
C 5555 2620 5901 1955 5901 1380 
C 5901 753 5472 236 4909 236 
C 4538 236 4250 505 4115 638 
C 3955 811 3808 1009 3418 1514 
z
M 2976 1240 
C 2714 780 2240 134 1517 134 
C 838 134 493 799 493 1374 
C 493 2000 922 2518 1485 2518 
C 1856 2518 2144 2249 2278 2115 
C 2438 1943 2586 1744 2976 1240 
z
" transform="scale(0.015625)"/>
       <path id="CMR17-2f" d="M 2605 4545 
C 2637 4627 2637 4640 2637 4653 
C 2637 4729 2579 4768 2528 4768 
C 2451 4768 2426 4717 2400 4640 
L 326 -1377 
C 294 -1460 294 -1473 294 -1486 
C 294 -1562 352 -1600 403 -1600 
C 480 -1600 506 -1549 531 -1473 
L 2605 4545 
z
" transform="scale(0.015625)"/>
       <path id="CMR17-6d" d="M 4326 1933 
C 4326 2252 4269 2790 3507 2790 
C 3072 2790 2771 2496 2656 2151 
L 2650 2151 
C 2573 2676 2195 2790 1837 2790 
C 1331 2790 1069 2400 973 2144 
L 966 2144 
L 966 2790 
L 211 2720 
L 211 2554 
C 589 2554 646 2515 646 2208 
L 646 428 
C 646 184 621 153 211 153 
L 211 -13 
C 365 0 646 0 813 0 
C 979 0 1267 0 1421 -13 
L 1421 153 
C 1011 153 986 178 986 428 
L 986 1658 
C 986 2247 1344 2688 1792 2688 
C 2266 2688 2317 2266 2317 1958 
L 2317 428 
C 2317 184 2291 153 1882 153 
L 1882 -13 
C 2035 0 2317 0 2483 0 
C 2650 0 2938 0 3091 -13 
L 3091 153 
C 2682 153 2656 178 2656 428 
L 2656 1658 
C 2656 2247 3014 2688 3462 2688 
C 3936 2688 3987 2266 3987 1958 
L 3987 428 
C 3987 184 3962 153 3552 153 
L 3552 -13 
C 3706 0 3987 0 4154 0 
C 4320 0 4608 0 4762 -13 
L 4762 153 
C 4352 153 4326 178 4326 428 
L 4326 1933 
z
" transform="scale(0.015625)"/>
       <path id="CMR17-73" d="M 1978 2697 
C 1978 2813 1971 2819 1933 2819 
C 1907 2819 1901 2813 1824 2717 
C 1805 2691 1747 2626 1728 2601 
C 1523 2819 1235 2819 1126 2819 
C 416 2819 160 2447 160 2076 
C 160 1498 813 1365 998 1325 
C 1402 1243 1542 1217 1677 1101 
C 1760 1025 1901 884 1901 654 
C 1901 384 1747 38 1158 38 
C 602 38 403 460 288 1021 
C 269 1110 269 1117 218 1117 
C 166 1117 160 1110 160 983 
L 160 63 
C 160 -51 166 -58 205 -58 
C 237 -58 243 -51 275 0 
C 314 57 410 211 448 276 
C 576 103 800 -64 1158 -64 
C 1792 -64 2131 283 2131 784 
C 2131 1112 1958 1285 1875 1362 
C 1683 1561 1459 1606 1190 1657 
C 838 1735 390 1825 390 2217 
C 390 2383 480 2737 1126 2737 
C 1811 2737 1850 2094 1862 1888 
C 1869 1856 1901 1849 1920 1849 
C 1978 1849 1978 1869 1978 1978 
L 1978 2697 
z
" transform="scale(0.015625)"/>
       <path id="CMSY10-0" d="M 4218 1472 
C 4326 1472 4442 1472 4442 1600 
C 4442 1728 4326 1728 4218 1728 
L 755 1728 
C 646 1728 531 1728 531 1600 
C 531 1472 646 1472 755 1472 
L 4218 1472 
z
" transform="scale(0.015625)"/>
      </defs>
      <use xlink:href="#CMMI12-75" transform="scale(0.996264)"/>
      <use xlink:href="#CMSY10-31" transform="translate(55.52033 -14.943915) scale(0.697382)"/>
      <use xlink:href="#CMR17-2f" transform="translate(155.832802 0) scale(0.996264)"/>
      <use xlink:href="#CMR17-6d" transform="translate(231.599246 0) scale(0.996264)"/>
      <use xlink:href="#CMR17-73" transform="translate(338.594802 0) scale(0.996264)"/>
      <use xlink:href="#CMSY10-0" transform="translate(374.39614 36.153639) scale(0.697382)"/>
      <use xlink:href="#CMR17-31" transform="translate(428.637133 36.153639) scale(0.697382)"/>
     </g>
    </g>
   </g>
   <g id="matplotlib.axis_2">
    <g id="ytick_1">
     <g id="line2d_15">
      <path d="M 41.167091 106.255221 
L 429.59952 106.255221 
" clip-path="url(#pda646b40aa)" style="fill: none; stroke: #b0b0b0; stroke-opacity: 0.5; stroke-width: 0.8; stroke-linecap: square"/>
     </g>
     <g id="line2d_16">
      <defs>
       <path id="m2e4245e8a9" d="M 0 0 
L -3.5 0 
" style="stroke: #000000; stroke-width: 0.8"/>
      </defs>
      <g>
       <use xlink:href="#m2e4245e8a9" x="41.167091" y="106.255221" style="stroke: #000000; stroke-width: 0.8"/>
      </g>
     </g>
     <g id="text_9">
      <!-- $\mathdefault{0.00}$ -->
      <g transform="translate(16.455677 109.71447) scale(0.1 -0.1)">
       <defs>
        <path id="CMMI12-3a" d="M 1178 307 
C 1178 492 1024 619 870 619 
C 685 619 557 466 557 313 
C 557 128 710 0 864 0 
C 1050 0 1178 153 1178 307 
z
" transform="scale(0.015625)"/>
       </defs>
       <use xlink:href="#CMR17-30" transform="scale(0.996264)"/>
       <use xlink:href="#CMMI12-3a" transform="translate(45.690477 0) scale(0.996264)"/>
       <use xlink:href="#CMR17-30" transform="translate(72.787654 0) scale(0.996264)"/>
       <use xlink:href="#CMR17-30" transform="translate(118.478131 0) scale(0.996264)"/>
      </g>
     </g>
    </g>
    <g id="ytick_2">
     <g id="line2d_17">
      <path d="M 41.167091 69.141882 
L 429.59952 69.141882 
" clip-path="url(#pda646b40aa)" style="fill: none; stroke: #b0b0b0; stroke-opacity: 0.5; stroke-width: 0.8; stroke-linecap: square"/>
     </g>
     <g id="line2d_18">
      <g>
       <use xlink:href="#m2e4245e8a9" x="41.167091" y="69.141882" style="stroke: #000000; stroke-width: 0.8"/>
      </g>
     </g>
     <g id="text_10">
      <!-- $\mathdefault{0.05}$ -->
      <g transform="translate(16.455677 72.601131) scale(0.1 -0.1)">
       <use xlink:href="#CMR17-30" transform="scale(0.996264)"/>
       <use xlink:href="#CMMI12-3a" transform="translate(45.690477 0) scale(0.996264)"/>
       <use xlink:href="#CMR17-30" transform="translate(72.787654 0) scale(0.996264)"/>
       <use xlink:href="#CMR17-35" transform="translate(118.478131 0) scale(0.996264)"/>
      </g>
     </g>
    </g>
    <g id="ytick_3">
     <g id="line2d_19">
      <path d="M 41.167091 32.028543 
L 429.59952 32.028543 
" clip-path="url(#pda646b40aa)" style="fill: none; stroke: #b0b0b0; stroke-opacity: 0.5; stroke-width: 0.8; stroke-linecap: square"/>
     </g>
     <g id="line2d_20">
      <g>
       <use xlink:href="#m2e4245e8a9" x="41.167091" y="32.028543" style="stroke: #000000; stroke-width: 0.8"/>
      </g>
     </g>
     <g id="text_11">
      <!-- $\mathdefault{0.10}$ -->
      <g transform="translate(16.455677 35.487792) scale(0.1 -0.1)">
       <use xlink:href="#CMR17-30" transform="scale(0.996264)"/>
       <use xlink:href="#CMMI12-3a" transform="translate(45.690477 0) scale(0.996264)"/>
       <use xlink:href="#CMR17-31" transform="translate(72.787654 0) scale(0.996264)"/>
       <use xlink:href="#CMR17-30" transform="translate(118.478131 0) scale(0.996264)"/>
      </g>
     </g>
    </g>
    <g id="text_12">
     <!-- $\zeta$ -->
     <g transform="translate(10.518498 59.551117) rotate(-90) scale(0.1 -0.1)">
      <defs>
       <path id="CMMI12-10" d="M 1210 339 
C 832 487 614 774 614 1254 
C 614 2131 1261 3302 2048 3756 
C 2163 3648 2310 3648 2432 3648 
C 2592 3648 2982 3648 2982 3820 
C 2982 3961 2694 3961 2490 3961 
C 2362 3961 2253 3961 2086 3897 
C 2048 3980 2029 4068 2029 4163 
C 2029 4277 2054 4365 2054 4384 
C 2054 4422 2022 4448 1990 4448 
C 1888 4448 1888 4212 1888 4161 
C 1888 4104 1888 3971 1965 3837 
C 1222 3455 288 2265 288 1076 
C 288 204 870 0 1203 -115 
C 1286 -140 1491 -210 1574 -242 
C 1837 -331 2086 -414 2086 -719 
C 2086 -904 1952 -1152 1715 -1152 
C 1587 -1152 1414 -1108 1254 -947 
C 1229 -922 1216 -909 1184 -909 
C 1133 -909 1120 -960 1120 -973 
C 1120 -1037 1395 -1280 1715 -1280 
C 2125 -1280 2406 -851 2406 -519 
C 2406 -71 2035 58 1798 134 
L 1210 339 
z
M 2189 3808 
C 2285 3840 2374 3840 2483 3840 
C 2688 3840 2707 3836 2835 3812 
C 2758 3789 2707 3775 2438 3775 
C 2304 3775 2259 3775 2189 3808 
z
" transform="scale(0.015625)"/>
      </defs>
      <use xlink:href="#CMMI12-10" transform="scale(0.996264)"/>
     </g>
    </g>
   </g>
   <g id="LineCollection_1">
    <path d="M 200.071266 88.326981 
L 200.071266 84.63137 
" clip-path="url(#pda646b40aa)" style="fill: none; stroke: #4fb068"/>
    <path d="M 235.383305 79.12414 
L 235.383305 73.650586 
" clip-path="url(#pda646b40aa)" style="fill: none; stroke: #4fb068"/>
    <path d="M 270.695344 71.415897 
L 270.695344 64.916919 
" clip-path="url(#pda646b40aa)" style="fill: none; stroke: #4fb068"/>
    <path d="M 288.351364 69.633921 
L 288.351364 62.266887 
" clip-path="url(#pda646b40aa)" style="fill: none; stroke: #4fb068"/>
    <path d="M 306.007383 64.450143 
L 306.007383 56.327916 
" clip-path="url(#pda646b40aa)" style="fill: none; stroke: #4fb068"/>
    <path d="M 323.663403 61.173212 
L 323.663403 52.920749 
" clip-path="url(#pda646b40aa)" style="fill: none; stroke: #4fb068"/>
    <path d="M 341.319422 56.590424 
L 341.319422 47.52334 
" clip-path="url(#pda646b40aa)" style="fill: none; stroke: #4fb068"/>
    <path d="M 358.975442 50.477992 
L 358.975442 40.254572 
" clip-path="url(#pda646b40aa)" style="fill: none; stroke: #4fb068"/>
    <path d="M 376.631461 43.658291 
L 376.631461 32.110964 
" clip-path="url(#pda646b40aa)" style="fill: none; stroke: #4fb068"/>
    <path d="M 394.287481 35.101409 
L 394.287481 22.666529 
" clip-path="url(#pda646b40aa)" style="fill: none; stroke: #4fb068"/>
    <path d="M 411.9435 35.417335 
L 411.9435 23.252173 
" clip-path="url(#pda646b40aa)" style="fill: none; stroke: #4fb068"/>
   </g>
   <g id="line2d_21">
    <defs>
     <path id="mc06e0f4047" d="M 4 0 
L -4 -0 
" style="stroke: #4fb068"/>
    </defs>
    <g clip-path="url(#pda646b40aa)">
     <use xlink:href="#mc06e0f4047" x="200.071266" y="88.326981" style="fill: #4fb068; stroke: #4fb068"/>
     <use xlink:href="#mc06e0f4047" x="235.383305" y="79.12414" style="fill: #4fb068; stroke: #4fb068"/>
     <use xlink:href="#mc06e0f4047" x="270.695344" y="71.415897" style="fill: #4fb068; stroke: #4fb068"/>
     <use xlink:href="#mc06e0f4047" x="288.351364" y="69.633921" style="fill: #4fb068; stroke: #4fb068"/>
     <use xlink:href="#mc06e0f4047" x="306.007383" y="64.450143" style="fill: #4fb068; stroke: #4fb068"/>
     <use xlink:href="#mc06e0f4047" x="323.663403" y="61.173212" style="fill: #4fb068; stroke: #4fb068"/>
     <use xlink:href="#mc06e0f4047" x="341.319422" y="56.590424" style="fill: #4fb068; stroke: #4fb068"/>
     <use xlink:href="#mc06e0f4047" x="358.975442" y="50.477992" style="fill: #4fb068; stroke: #4fb068"/>
     <use xlink:href="#mc06e0f4047" x="376.631461" y="43.658291" style="fill: #4fb068; stroke: #4fb068"/>
     <use xlink:href="#mc06e0f4047" x="394.287481" y="35.101409" style="fill: #4fb068; stroke: #4fb068"/>
     <use xlink:href="#mc06e0f4047" x="411.9435" y="35.417335" style="fill: #4fb068; stroke: #4fb068"/>
    </g>
   </g>
   <g id="line2d_22">
    <g clip-path="url(#pda646b40aa)">
     <use xlink:href="#mc06e0f4047" x="200.071266" y="84.63137" style="fill: #4fb068; stroke: #4fb068"/>
     <use xlink:href="#mc06e0f4047" x="235.383305" y="73.650586" style="fill: #4fb068; stroke: #4fb068"/>
     <use xlink:href="#mc06e0f4047" x="270.695344" y="64.916919" style="fill: #4fb068; stroke: #4fb068"/>
     <use xlink:href="#mc06e0f4047" x="288.351364" y="62.266887" style="fill: #4fb068; stroke: #4fb068"/>
     <use xlink:href="#mc06e0f4047" x="306.007383" y="56.327916" style="fill: #4fb068; stroke: #4fb068"/>
     <use xlink:href="#mc06e0f4047" x="323.663403" y="52.920749" style="fill: #4fb068; stroke: #4fb068"/>
     <use xlink:href="#mc06e0f4047" x="341.319422" y="47.52334" style="fill: #4fb068; stroke: #4fb068"/>
     <use xlink:href="#mc06e0f4047" x="358.975442" y="40.254572" style="fill: #4fb068; stroke: #4fb068"/>
     <use xlink:href="#mc06e0f4047" x="376.631461" y="32.110964" style="fill: #4fb068; stroke: #4fb068"/>
     <use xlink:href="#mc06e0f4047" x="394.287481" y="22.666529" style="fill: #4fb068; stroke: #4fb068"/>
     <use xlink:href="#mc06e0f4047" x="411.9435" y="23.252173" style="fill: #4fb068; stroke: #4fb068"/>
    </g>
   </g>
   <g id="line2d_23">
    <path d="M 58.82311 106.255221 
L 71.244431 106.143896 
L 83.665751 105.809924 
L 96.087071 105.253302 
L 108.508391 104.474033 
L 120.929712 103.472114 
L 133.351032 102.247548 
L 145.772352 100.800332 
L 158.193672 99.130469 
L 170.614993 97.237956 
L 183.036313 95.122796 
L 195.457633 92.784986 
L 207.878953 90.224529 
L 220.300274 87.441422 
L 232.721594 84.435668 
L 245.142914 81.207265 
L 257.564234 77.756213 
L 269.985555 74.082513 
L 282.406875 70.186164 
L 294.828195 66.067167 
L 307.249516 61.725521 
L 319.670836 57.161227 
L 332.092156 52.374284 
L 344.513476 47.364693 
L 356.934797 42.132453 
L 369.356117 36.677565 
L 381.777437 31.000028 
L 394.198757 25.099843 
L 406.620078 18.977009 
L 411.9435 16.28478 
L 411.9435 16.28478 
" clip-path="url(#pda646b40aa)" style="fill: none; stroke: #4fb068; stroke-width: 1.5; stroke-linecap: square"/>
   </g>
   <g id="line2d_24">
    <defs>
     <path id="m4e956843b3" d="M -2.5 2.5 
L 2.5 -2.5 
M -2.5 -2.5 
L 2.5 2.5 
" style="stroke: #4fb068"/>
    </defs>
    <g clip-path="url(#pda646b40aa)">
     <use xlink:href="#m4e956843b3" x="200.071266" y="86.479175" style="fill: #4fb068; stroke: #4fb068"/>
     <use xlink:href="#m4e956843b3" x="235.383305" y="76.387363" style="fill: #4fb068; stroke: #4fb068"/>
     <use xlink:href="#m4e956843b3" x="270.695344" y="68.166408" style="fill: #4fb068; stroke: #4fb068"/>
     <use xlink:href="#m4e956843b3" x="288.351364" y="65.950404" style="fill: #4fb068; stroke: #4fb068"/>
     <use xlink:href="#m4e956843b3" x="306.007383" y="60.38903" style="fill: #4fb068; stroke: #4fb068"/>
     <use xlink:href="#m4e956843b3" x="323.663403" y="57.046981" style="fill: #4fb068; stroke: #4fb068"/>
     <use xlink:href="#m4e956843b3" x="341.319422" y="52.056882" style="fill: #4fb068; stroke: #4fb068"/>
     <use xlink:href="#m4e956843b3" x="358.975442" y="45.366282" style="fill: #4fb068; stroke: #4fb068"/>
     <use xlink:href="#m4e956843b3" x="376.631461" y="37.884627" style="fill: #4fb068; stroke: #4fb068"/>
     <use xlink:href="#m4e956843b3" x="394.287481" y="28.883969" style="fill: #4fb068; stroke: #4fb068"/>
     <use xlink:href="#m4e956843b3" x="411.9435" y="29.334754" style="fill: #4fb068; stroke: #4fb068"/>
    </g>
   </g>
   <g id="patch_3">
    <path d="M 41.167091 111.143564 
L 41.167091 3.6 
" style="fill: none; stroke: #000000; stroke-width: 0.8; stroke-linejoin: miter; stroke-linecap: square"/>
   </g>
   <g id="patch_4">
    <path d="M 429.59952 111.143564 
L 429.59952 3.6 
" style="fill: none; stroke: #000000; stroke-width: 0.8; stroke-linejoin: miter; stroke-linecap: square"/>
   </g>
   <g id="patch_5">
    <path d="M 41.167091 111.143564 
L 429.59952 111.143564 
" style="fill: none; stroke: #000000; stroke-width: 0.8; stroke-linejoin: miter; stroke-linecap: square"/>
   </g>
   <g id="patch_6">
    <path d="M 41.167091 3.6 
L 429.59952 3.6 
" style="fill: none; stroke: #000000; stroke-width: 0.8; stroke-linejoin: miter; stroke-linecap: square"/>
   </g>
   <g id="legend_1">
    <g id="patch_7">
     <path d="M 48.167091 53.411535 
L 136.649861 53.411535 
Q 138.649861 53.411535 138.649861 51.411535 
L 138.649861 10.6 
Q 138.649861 8.6 136.649861 8.6 
L 48.167091 8.6 
Q 46.167091 8.6 46.167091 10.6 
L 46.167091 51.411535 
Q 46.167091 53.411535 48.167091 53.411535 
z
" style="fill: #ffffff; opacity: 0.8; stroke: #cccccc; stroke-linejoin: miter"/>
    </g>
    <g id="LineCollection_2">
     <path d="M 60.167091 21.1 
L 60.167091 11.1 
" style="fill: none; stroke: #4fb068"/>
    </g>
    <g id="line2d_25">
     <g>
      <use xlink:href="#mc06e0f4047" x="60.167091" y="21.1" style="fill: #4fb068; stroke: #4fb068"/>
     </g>
    </g>
    <g id="line2d_26">
     <g>
      <use xlink:href="#mc06e0f4047" x="60.167091" y="11.1" style="fill: #4fb068; stroke: #4fb068"/>
     </g>
    </g>
    <g id="line2d_27"/>
    <g id="line2d_28">
     <g>
      <use xlink:href="#m4e956843b3" x="60.167091" y="16.1" style="fill: #4fb068; stroke: #4fb068"/>
     </g>
    </g>
    <g id="text_13">
     <!-- Data points -->
     <g transform="translate(78.167091 19.6) scale(0.1 -0.1)">
      <defs>
       <path id="CMR17-44" d="M 333 4352 
L 333 4186 
C 774 4186 845 4186 845 3900 
L 845 452 
C 845 166 774 166 333 166 
L 333 0 
L 2368 0 
C 3398 0 4224 943 4224 2141 
C 4224 3346 3411 4352 2368 4352 
L 333 4352 
z
M 1523 166 
C 1267 166 1254 197 1254 414 
L 1254 3938 
C 1254 4155 1267 4186 1523 4186 
L 2240 4186 
C 2771 4186 3750 3874 3750 2141 
C 3750 1242 3488 879 3366 707 
C 3213 510 2848 166 2240 166 
L 1523 166 
z
" transform="scale(0.015625)"/>
       <path id="CMR17-61" d="M 2304 1653 
C 2304 2072 2304 2294 2035 2543 
C 1798 2752 1523 2816 1306 2816 
C 800 2816 435 2407 435 1971 
C 435 1728 627 1728 666 1728 
C 749 1728 896 1778 896 1954 
C 896 2112 774 2181 666 2181 
C 640 2181 608 2174 589 2168 
C 723 2592 1069 2714 1293 2714 
C 1613 2714 1965 2429 1965 1885 
L 1965 1600 
C 1587 1600 1133 1549 774 1357 
C 371 1133 256 813 256 570 
C 256 77 832 -64 1171 -64 
C 1523 -64 1850 139 1990 511 
C 2003 233 2182 -18 2464 -18 
C 2598 -18 2938 70 2938 567 
L 2938 920 
L 2822 920 
L 2822 562 
C 2822 178 2650 128 2566 128 
C 2304 128 2304 458 2304 738 
L 2304 1653 
z
M 1965 870 
C 1965 317 1568 38 1216 38 
C 896 38 646 275 646 570 
C 646 761 730 1100 1101 1305 
C 1408 1478 1760 1504 1965 1504 
L 1965 870 
z
" transform="scale(0.015625)"/>
       <path id="CMR17-74" d="M 966 2560 
L 1862 2560 
L 1862 2725 
L 966 2725 
L 966 3904 
L 851 3904 
C 838 3245 614 2668 70 2668 
L 70 2560 
L 627 2560 
L 627 771 
C 627 650 627 -64 1370 -64 
C 1747 -64 1965 306 1965 777 
L 1965 1140 
L 1850 1140 
L 1850 783 
C 1850 344 1677 51 1408 51 
C 1222 51 966 178 966 758 
L 966 2560 
z
" transform="scale(0.015625)"/>
       <path id="CMR17-70" d="M 1408 -1063 
C 998 -1063 973 -1037 973 -789 
L 973 402 
C 1158 134 1427 -38 1766 -38 
C 2406 -38 3053 523 3053 1388 
C 3053 2191 2496 2802 1837 2802 
C 1453 2802 1139 2592 960 2338 
L 960 2802 
L 198 2732 
L 198 2567 
C 576 2567 634 2528 634 2223 
L 634 -789 
C 634 -1031 608 -1063 198 -1063 
L 198 -1228 
C 352 -1216 634 -1216 800 -1216 
C 966 -1216 1254 -1216 1408 -1228 
L 1408 -1063 
z
M 973 2012 
C 973 2102 973 2235 1222 2471 
C 1254 2497 1472 2688 1792 2688 
C 2259 2688 2643 2108 2643 1382 
C 2643 656 2234 64 1728 64 
C 1498 64 1248 172 1056 472 
C 973 612 973 650 973 752 
L 973 2012 
z
" transform="scale(0.015625)"/>
       <path id="CMR17-6f" d="M 2758 1356 
C 2758 2176 2163 2816 1466 2816 
C 768 2816 173 2176 173 1356 
C 173 551 768 -64 1466 -64 
C 2163 -64 2758 551 2758 1356 
z
M 1466 51 
C 1165 51 909 230 762 480 
C 602 767 582 1126 582 1408 
C 582 1677 595 2010 762 2298 
C 890 2509 1139 2714 1466 2714 
C 1754 2714 1997 2554 2150 2330 
C 2349 2029 2349 1607 2349 1408 
C 2349 1158 2336 775 2163 467 
C 1984 173 1709 51 1466 51 
z
" transform="scale(0.015625)"/>
       <path id="CMR17-69" d="M 992 3909 
C 992 4049 877 4170 730 4170 
C 589 4170 467 4056 467 3909 
C 467 3769 582 3648 730 3648 
C 870 3648 992 3763 992 3909 
z
M 243 2706 
L 243 2541 
C 602 2541 653 2502 653 2197 
L 653 427 
C 653 184 627 153 218 153 
L 218 -13 
C 371 0 646 0 806 0 
C 960 0 1222 0 1370 -13 
L 1370 153 
C 992 153 979 191 979 420 
L 979 2776 
L 243 2706 
z
" transform="scale(0.015625)"/>
       <path id="CMR17-6e" d="M 2656 1933 
C 2656 2259 2592 2790 1837 2790 
C 1331 2790 1069 2400 973 2144 
L 966 2144 
L 966 2790 
L 211 2720 
L 211 2554 
C 589 2554 646 2515 646 2208 
L 646 428 
C 646 184 621 153 211 153 
L 211 -13 
C 365 0 646 0 813 0 
C 979 0 1267 0 1421 -13 
L 1421 153 
C 1011 153 986 178 986 428 
L 986 1658 
C 986 2247 1344 2688 1792 2688 
C 2266 2688 2317 2266 2317 1958 
L 2317 428 
C 2317 184 2291 153 1882 153 
L 1882 -13 
C 2035 0 2317 0 2483 0 
C 2650 0 2938 0 3091 -13 
L 3091 153 
C 2682 153 2656 178 2656 428 
L 2656 1933 
z
" transform="scale(0.015625)"/>
      </defs>
      <use xlink:href="#CMR17-44" transform="scale(0.996264)"/>
      <use xlink:href="#CMR17-61" transform="translate(70.393556 0) scale(0.996264)"/>
      <use xlink:href="#CMR17-74" transform="translate(116.084033 0) scale(0.996264)"/>
      <use xlink:href="#CMR17-61" transform="translate(151.364801 0) scale(0.996264)"/>
      <use xlink:href="#CMR17-70" transform="translate(227.131244 0) scale(0.996264)"/>
      <use xlink:href="#CMR17-6f" transform="translate(280.629053 0) scale(0.996264)"/>
      <use xlink:href="#CMR17-69" transform="translate(326.31953 0) scale(0.996264)"/>
      <use xlink:href="#CMR17-6e" transform="translate(351.190588 0) scale(0.996264)"/>
      <use xlink:href="#CMR17-74" transform="translate(399.483504 0) scale(0.996264)"/>
      <use xlink:href="#CMR17-73" transform="translate(434.764272 0) scale(0.996264)"/>
     </g>
    </g>
    <g id="line2d_29">
     <path d="M 50.167091 30.037178 
L 60.167091 30.037178 
L 70.167091 30.037178 
" style="fill: none; stroke: #4fb068; stroke-width: 1.5; stroke-linecap: square"/>
    </g>
    <g id="text_14">
     <!-- Quadratic fit -->
     <g transform="translate(78.167091 33.537178) scale(0.1 -0.1)">
      <defs>
       <path id="CMR17-51" d="M 3027 83 
C 3789 408 4307 1236 4307 2193 
C 4307 3499 3366 4480 2304 4480 
C 1216 4480 294 3488 294 2199 
C 294 928 1216 -64 2304 -64 
C 2451 -64 2656 -45 2899 38 
C 3008 -747 3078 -1216 3629 -1216 
C 4307 -1216 4339 -213 4339 -33 
C 4339 32 4339 76 4294 76 
C 4262 76 4256 31 4256 18 
C 4211 -603 3866 -732 3661 -732 
C 3283 -732 3149 -394 3027 83 
z
M 1958 100 
C 1293 310 768 1017 768 2199 
C 768 3711 1606 4365 2298 4365 
C 3014 4365 3834 3686 3834 2198 
C 3834 1124 3405 527 2976 254 
C 2880 579 2726 960 2310 960 
C 2003 960 1830 692 1830 450 
C 1830 304 1888 183 1958 100 
z
M 2874 192 
C 2618 57 2413 57 2304 57 
C 2016 57 1933 315 1933 454 
C 1933 650 2067 858 2310 858 
C 2720 858 2822 493 2874 192 
z
" transform="scale(0.015625)"/>
       <path id="CMR17-75" d="M 1882 2693 
L 1882 2528 
C 2259 2528 2317 2489 2317 2186 
L 2317 1032 
C 2317 500 2029 38 1555 38 
C 1030 38 986 348 986 678 
L 986 2763 
L 211 2693 
L 211 2528 
C 467 2528 640 2528 646 2274 
L 646 1058 
C 646 633 646 361 813 183 
C 896 101 1056 -64 1517 -64 
C 2061 -64 2272 377 2323 506 
L 2330 506 
L 2330 -63 
L 3091 -63 
L 3091 128 
C 2714 128 2656 166 2656 473 
L 2656 2763 
L 1882 2693 
z
" transform="scale(0.015625)"/>
       <path id="CMR17-64" d="M 1869 4326 
L 1869 4160 
C 2246 4160 2304 4122 2304 3820 
L 2304 2345 
C 2278 2377 2016 2790 1498 2790 
C 845 2790 211 2208 211 1364 
C 211 525 806 -64 1434 -64 
C 1978 -64 2259 337 2291 380 
L 2291 -63 
L 3066 -63 
L 3066 128 
C 2688 128 2630 166 2630 473 
L 2630 4396 
L 1869 4326 
z
M 2291 755 
C 2291 563 2176 390 2029 262 
C 1811 70 1594 38 1472 38 
C 1286 38 621 134 621 1356 
C 621 2612 1363 2688 1530 2688 
C 1824 2688 2061 2522 2208 2291 
C 2291 2157 2291 2138 2291 2023 
L 2291 755 
z
" transform="scale(0.015625)"/>
       <path id="CMR17-72" d="M 960 1497 
C 960 2112 1222 2688 1702 2688 
C 1747 2688 1792 2682 1837 2662 
C 1837 2662 1696 2617 1696 2452 
C 1696 2298 1818 2234 1914 2234 
C 1990 2234 2131 2279 2131 2458 
C 2131 2663 1926 2790 1709 2790 
C 1222 2790 1011 2317 947 2093 
L 941 2093 
L 941 2790 
L 198 2720 
L 198 2554 
C 576 2554 634 2515 634 2208 
L 634 428 
C 634 184 608 153 198 153 
L 198 -13 
C 352 0 646 0 813 0 
C 998 0 1325 0 1498 -13 
L 1498 153 
C 1037 153 960 153 960 440 
L 960 1497 
z
" transform="scale(0.015625)"/>
       <path id="CMR17-63" d="M 2234 2240 
C 2112 2240 1933 2240 1933 2017 
C 1933 1838 2080 1787 2163 1787 
C 2208 1787 2394 1807 2394 2024 
C 2394 2467 1958 2803 1466 2803 
C 787 2803 211 2178 211 1363 
C 211 516 813 -64 1466 -64 
C 2259 -64 2458 677 2458 748 
C 2458 774 2451 793 2406 793 
C 2362 793 2355 787 2330 703 
C 2163 180 1798 51 1523 51 
C 1114 51 621 427 621 1369 
C 621 2338 1094 2688 1472 2688 
C 1722 2688 2093 2573 2234 2240 
z
" transform="scale(0.015625)"/>
       <path id="CMR17-c" d="M 2554 2764 
C 2400 2764 1926 2764 1805 2739 
C 1766 2725 1754 2725 1677 2725 
L 947 2725 
L 947 3469 
C 947 4073 1434 4352 1818 4352 
C 1939 4352 2214 4320 2355 4101 
C 2291 4101 2086 4101 2086 3878 
C 2086 3725 2189 3648 2317 3648 
C 2432 3648 2547 3712 2547 3885 
C 2547 4205 2240 4454 1843 4454 
C 1338 4454 634 4168 634 3469 
L 634 2725 
L 122 2725 
L 122 2560 
L 634 2560 
L 634 427 
C 634 184 608 153 198 153 
L 198 -13 
C 352 0 634 0 794 0 
C 960 0 1242 0 1395 -13 
L 1395 153 
C 986 153 960 178 960 427 
L 960 2560 
L 1901 2560 
C 2176 2560 2227 2502 2227 2222 
L 2227 427 
C 2227 184 2202 153 1792 153 
L 1792 -13 
C 1946 0 2227 0 2387 0 
C 2554 0 2835 0 2989 -13 
L 2989 153 
C 2579 153 2554 178 2554 427 
L 2554 2764 
z
" transform="scale(0.015625)"/>
      </defs>
      <use xlink:href="#CMR17-51" transform="scale(0.996264)"/>
      <use xlink:href="#CMR17-75" transform="translate(71.714788 0) scale(0.996264)"/>
      <use xlink:href="#CMR17-61" transform="translate(122.610158 0) scale(0.996264)"/>
      <use xlink:href="#CMR17-64" transform="translate(168.300635 0) scale(0.996264)"/>
      <use xlink:href="#CMR17-72" transform="translate(219.196005 0) scale(0.996264)"/>
      <use xlink:href="#CMR17-61" transform="translate(254.476773 0) scale(0.996264)"/>
      <use xlink:href="#CMR17-74" transform="translate(300.16725 0) scale(0.996264)"/>
      <use xlink:href="#CMR17-69" transform="translate(335.448018 0) scale(0.996264)"/>
      <use xlink:href="#CMR17-63" transform="translate(360.319076 0) scale(0.996264)"/>
      <use xlink:href="#CMR17-c" transform="translate(430.880703 0) scale(0.996264)"/>
      <use xlink:href="#CMR17-74" transform="translate(480.622926 0) scale(0.996264)"/>
     </g>
    </g>
    <g id="patch_8">
     <path d="M 50.167091 47.474357 
L 70.167091 47.474357 
L 70.167091 40.474357 
L 50.167091 40.474357 
z
" style="fill: #4fb068"/>
    </g>
    <g id="text_15">
     <!-- 95\% CI -->
     <g transform="translate(78.167091 47.474357) scale(0.1 -0.1)">
      <defs>
       <path id="CMR17-39" d="M 2253 1864 
C 2253 464 1670 31 1190 31 
C 1043 31 685 31 538 294 
C 704 268 826 357 826 518 
C 826 692 685 749 595 749 
C 538 749 365 723 365 506 
C 365 71 742 -128 1203 -128 
C 1939 -128 2688 674 2688 2073 
C 2688 3817 1971 4179 1485 4179 
C 851 4179 243 3628 243 2778 
C 243 1991 762 1408 1414 1408 
C 1952 1408 2189 1903 2253 2112 
L 2253 1864 
z
M 1427 1510 
C 1254 1510 1011 1542 813 1922 
C 678 2169 678 2461 678 2771 
C 678 3146 678 3405 858 3684 
C 947 3817 1114 4032 1485 4032 
C 2240 4032 2240 2885 2240 2632 
C 2240 2182 2035 1510 1427 1510 
z
" transform="scale(0.015625)"/>
       <path id="CMR17-25" d="M 4640 959 
C 4640 1698 4275 2240 3846 2240 
C 3411 2240 2970 1736 2970 959 
C 2970 183 3405 -320 3846 -320 
C 4275 -320 4640 215 4640 959 
z
M 3853 -218 
C 3686 -218 3270 -66 3270 959 
C 3270 1991 3686 2138 3853 2138 
C 4205 2138 4525 1634 4525 959 
C 4525 285 4205 -218 3853 -218 
z
M 4083 4577 
C 4128 4647 4134 4653 4134 4685 
C 4134 4761 4077 4800 4026 4800 
C 3962 4800 3936 4756 3891 4706 
C 3520 4190 3008 4134 2746 4134 
C 2106 4134 1715 4494 1594 4607 
C 1510 4682 1389 4800 1171 4800 
C 736 4800 294 4296 294 3519 
C 294 2743 730 2240 1171 2240 
C 1600 2240 1965 2778 1965 3527 
C 1965 3969 1830 4270 1811 4308 
C 2202 4064 2586 4032 2752 4032 
C 3162 4032 3456 4183 3616 4289 
L 3622 4283 
L 858 -84 
C 800 -174 800 -187 800 -206 
C 800 -276 858 -320 915 -320 
C 973 -320 992 -289 1037 -218 
L 4083 4577 
z
M 1178 2342 
C 1011 2342 595 2494 595 3519 
C 595 4551 1011 4698 1178 4698 
C 1530 4698 1850 4194 1850 3519 
C 1850 2845 1530 2342 1178 2342 
z
" transform="scale(0.015625)"/>
       <path id="CMR17-43" d="M 3974 4289 
C 3974 4403 3968 4410 3930 4410 
C 3904 4410 3898 4403 3853 4327 
L 3571 3792 
C 3258 4187 2874 4416 2381 4416 
C 1286 4416 294 3456 294 2148 
C 294 826 1286 -128 2387 -128 
C 3366 -128 3974 730 3974 1461 
C 3974 1524 3974 1550 3917 1550 
C 3866 1550 3866 1531 3859 1474 
C 3808 585 3168 38 2477 38 
C 1824 38 781 495 781 2147 
C 781 3805 1843 4250 2464 4250 
C 3187 4250 3712 3628 3834 2745 
C 3846 2668 3846 2655 3904 2655 
C 3974 2655 3974 2668 3974 2783 
L 3974 4289 
z
" transform="scale(0.015625)"/>
       <path id="CMR17-49" d="M 1261 3905 
C 1261 4192 1338 4192 1798 4192 
L 1798 4352 
C 1594 4352 1267 4352 1050 4352 
C 832 4352 506 4352 301 4352 
L 301 4192 
C 762 4192 838 4192 838 3905 
L 838 447 
C 838 160 762 160 301 160 
L 301 0 
C 506 0 832 0 1050 0 
C 1267 0 1594 0 1798 0 
L 1798 160 
C 1338 160 1261 160 1261 447 
L 1261 3905 
z
" transform="scale(0.015625)"/>
      </defs>
      <use xlink:href="#CMR17-39" transform="scale(0.996264)"/>
      <use xlink:href="#CMR17-35" transform="translate(45.690477 0) scale(0.996264)"/>
      <use xlink:href="#CMR17-25" transform="translate(91.380954 0) scale(0.996264)"/>
      <use xlink:href="#CMR17-43" transform="translate(198.37651 0) scale(0.996264)"/>
      <use xlink:href="#CMR17-49" transform="translate(264.886391 0) scale(0.996264)"/>
     </g>
    </g>
   </g>
  </g>
 </g>
 <defs>
  <clipPath id="pda646b40aa">
   <rect x="41.167091" y="3.6" width="388.432429" height="107.543564"/>
  </clipPath>
 </defs>
</svg>
